0
SECTION
2
HEADER
9
$INSUNITS
70
4
9
$ACADVER
1
AC1014
9
$HANDSEED
5
FFFF
0
ENDSEC
0
SECTION
2
TABLES
0
TABLE
2
VPORT
5
8
100
AcDbSymbolTable
0
ENDTAB
0
TABLE
2
LTYPE
5
5
100
AcDbSymbolTable
0
LTYPE
5
14
100
AcDbSymbolTableRecord
100
AcDbLinetypeTableRecord
2
BYBLOCK
70
0
0
LTYPE
5
15
100
AcDbSymbolTableRecord
100
AcDbLinetypeTableRecord
2
BYLAYER
70
0
0
ENDTAB
0
TABLE
2
LAYER
5
2
100
AcDbSymbolTable
70
2
0
LAYER
5
50
100
AcDbSymbolTableRecord
100
AcDbLayerTableRecord
2
0
70
0
6
CONTINUOUS
0
ENDTAB
0
TABLE
2
STYLE
5
3
100
AcDbSymbolTable
70
1
0
STYLE
5
11
100
AcDbSymbolTableRecord
100
AcDbTextStyleTableRecord
2
STANDARD
70
0
0
ENDTAB
0
TABLE
2
VIEW
5
6
100
AcDbSymbolTable
70
0
0
ENDTAB
0
TABLE
2
UCS
5
7
100
AcDbSymbolTable
70
0
0
ENDTAB
0
TABLE
2
APPID
5
9
100
AcDbSymbolTable
70
2
0
APPID
5
12
100
AcDbSymbolTableRecord
100
AcDbRegAppTableRecord
2
ACAD
70
0
0
ENDTAB
0
TABLE
2
DIMSTYLE
5
A
100
AcDbSymbolTable
70
1
0
ENDTAB
0
TABLE
2
BLOCK_RECORD
5
1
100
AcDbSymbolTable
70
1
0
BLOCK_RECORD
5
1F
100
AcDbSymbolTableRecord
100
AcDbBlockTableRecord
2
*MODEL_SPACE
0
BLOCK_RECORD
5
1B
100
AcDbSymbolTableRecord
100
AcDbBlockTableRecord
2
*PAPER_SPACE
0
ENDTAB
0
ENDSEC
0
SECTION
2
BLOCKS
0
BLOCK
5
20
100
AcDbEntity
100
AcDbBlockBegin
2
*MODEL_SPACE
0
ENDBLK
5
21
100
AcDbEntity
100
AcDbBlockEnd
0
BLOCK
5
1C
100
AcDbEntity
100
AcDbBlockBegin
2
*PAPER_SPACE
0
ENDBLK
5
1D
100
AcDbEntity
100
AcDbBlockEnd
0
ENDSEC
0
SECTION
2
ENTITIES
0
LWPOLYLINE
5
100
100
AcDbEntity
8
0
100
AcDbPolyline
90
4
70
1
43
0.0
10
-5.2762396225918984
20
68.689980158231151
42
0.99999999999999989
10
-7.4688284802633653
20
66.498507114542335
10
-5.34804811540317
20
64.37664692969895
42
0.99999999999999989
10
-3.1554592577317742
20
66.568119973387766
0
LINE
5
101
100
AcDbEntity
8
0
100
AcDbLine
10
1.4036605327049756
20
-75.270114126274663
30
0
11
9.7887717142704744
21
-66.885002944709129
31
0
0
CIRCLE
5
102
100
AcDbEntity
8
0
100
AcDbCircle
10
1.4036605327049756
20
-64.66391037457683
30
0
40
1.6000000000000003
210
0
220
0
230
1
0
LINE
5
103
100
AcDbEntity
8
0
100
AcDbLine
10
-10.892424817120254
20
48.891307395542817
30
0
11
-9.1911850218419033
21
46.792701149474524
31
0
0
ARC
5
104
100
AcDbEntity
8
0
100
AcDbCircle
10
-17.456326892355758
20
78.688199650522819
30
0
40
0.99999999999994316
210
0
220
-0
230
1
100
AcDbArc
50
90
51
212.95575574471417
0
LINE
5
105
100
AcDbEntity
8
0
100
AcDbLine
10
11.951755749948134
20
-64.722018909031505
30
0
11
9.7887717142704744
21
-66.885002944709129
31
0
0
CIRCLE
5
106
100
AcDbEntity
8
0
100
AcDbCircle
10
1.4036605327049756
20
-44.056910374576894
30
0
40
1.6000000000000003
210
0
220
0
230
1
0
LINE
5
107
100
AcDbEntity
8
0
100
AcDbLine
10
11.010799868262673
20
-61.811417269178577
30
0
11
11.951755749948134
21
-64.722018909031505
31
0
0
LWPOLYLINE
5
108
100
AcDbEntity
8
0
100
AcDbPolyline
90
4
70
1
43
0.0
10
5.9662179241309055
20
66.565798360423784
42
0.99999999999999989
10
8.1576909678197218
20
64.373209502752275
10
10.279551152663071
20
66.493989867612399
42
0.99999999999999989
10
8.0880781089742548
20
68.686578725283908
0
ARC
5
109
100
AcDbEntity
8
0
100
AcDbCircle
10
18.263660836258975
20
74.688199650522719
30
0
40
5.0000000000000977
210
0
220
-0
230
1
100
AcDbArc
50
90
51
121.62434758457641
0
LINE
5
110
100
AcDbEntity
8
0
100
AcDbLine
10
-7.1021816689595596
20
-66.764271924610128
30
0
11
1.4036605327049756
21
-75.270114126274663
31
0
0
LWPOLYLINE
5
111
100
AcDbEntity
8
0
100
AcDbPolyline
90
4
70
1
43
0.0
10
-5.3503697283672658
20
55.254969747836384
10
-7.4722299132105796
20
53.134189382976224
42
0.99999999999999989
10
-5.2807568695217633
20
50.941600525304722
10
-3.1588966846784494
20
53.062380890164881
42
0.99999999999999989
0
CIRCLE
5
112
100
AcDbEntity
8
0
100
AcDbCircle
10
1.4036605327049756
20
-54.056910374576873
30
0
40
3.25
210
0
220
0
230
1
0
ARC
5
113
100
AcDbEntity
8
0
100
AcDbCircle
10
1.403660619726228
20
77.2242952605326
30
0
40
5.9999999999999245
210
0
220
0
230
1
100
AcDbArc
50
238.37565241542396
51
301.62434758457522
0
CIRCLE
5
114
100
AcDbEntity
8
0
100
AcDbCircle
10
1.403660619726228
20
59.814089625294315
30
0
40
3.4999999999999947
210
0
220
0
230
1
0
ARC
5
115
100
AcDbEntity
8
0
100
AcDbCircle
10
-15.456339596806483
20
74.688199650522677
30
0
40
5.0000000000000941
210
0
220
-0
230
1
100
AcDbArc
50
58.37565241542481
51
90
0
ARC
5
116
100
AcDbEntity
8
0
100
AcDbCircle
10
-127.93301288623765
20
-28.104225333035497
30
0
40
124.23128168273973
210
-0
220
0
230
1
100
AcDbArc
50
344.22884778284026
51
350.01705606206536
0
LWPOLYLINE
5
117
100
AcDbEntity
8
0
100
AcDbPolyline
90
4
70
1
43
0.0
10
8.0835608620443544
20
50.938199092357507
42
0.99999999999999989
10
10.276149719715821
20
53.129672136046324
10
8.1553693548556971
20
55.251532320889709
42
0.99999999999999989
10
5.9627804971841591
20
53.060059277200857
0
ARC
5
118
100
AcDbEntity
8
0
100
AcDbCircle
10
-13.796062654610193
20
60.174492885576029
30
0
40
5.9999999999999485
210
-0
220
0
230
1
100
AcDbArc
50
-45.014582693398125
51
32.95575574471367
0
LINE
5
119
100
AcDbEntity
8
0
100
AcDbLine
10
-18.29541778478939
20
78.144208405892002
30
0
11
-8.7615173000084745
21
63.438440353360825
31
0
0
ARC
5
120
100
AcDbEntity
8
0
100
AcDbCircle
10
10.191230868279408
20
51.722565649378566
30
0
40
4.4999999999998668
210
-0
220
0
230
1
100
AcDbArc
50
-38.988802645608338
51
44.915822438005449
0
LINE
5
121
100
AcDbEntity
8
0
100
AcDbLine
10
-8.3784225711002591
20
-61.869759285808712
30
0
11
-9.1752708502021818
21
-64.691182743367506
31
0
0
ARC
5
122
100
AcDbEntity
8
0
100
AcDbCircle
10
-7.3967527453429049
20
51.72508169258829
30
0
40
4.4999999999999867
210
0
220
0
230
1
100
AcDbArc
50
134.98541730660128
51
219.03002980722948
0
SPLINE
5
123
100
AcDbEntity
8
0
100
AcDbSpline
70
12
71
2
41
1
41
0.99964057277422946
41
1
72
6
73
3
74
0
42
0.000000001
43
0.0000000001
44
0.0000000001
40
0
40
0
40
0
40
0.32569270575245729
40
0.32569270575245729
40
0.32569270575245729
10
7.8136434782159183
20
37.405935489752849
30
0
10
8.0569682299637311
20
39.051564612414886
30
0
10
8.3209576353102754
20
40.623069451822076
30
0
0
LINE
5
124
100
AcDbEntity
8
0
100
AcDbLine
10
18.263660836258975
20
79.688199650522819
30
0
11
20.26364813180825
21
79.688199650522847
31
0
0
LINE
5
125
100
AcDbEntity
8
0
100
AcDbLine
10
-9.5545019248898733
20
55.930772515889331
30
0
11
-10.577923292633127
21
54.907871969853367
31
0
0
LINE
5
126
100
AcDbEntity
8
0
100
AcDbLine
10
-15.456339596806483
20
79.688199650522776
30
0
11
-17.456326892355758
21
79.688199650522762
31
0
0
ARC
5
127
100
AcDbEntity
8
0
100
AcDbCircle
10
69.995883084574544
20
-42.742383491372244
30
0
40
61.990871031582998
210
0
220
0
230
1
100
AcDbArc
50
186.38874686695095
51
197.91527818466503
0
LINE
5
128
100
AcDbEntity
8
0
100
AcDbLine
10
-1.7424261574146804
20
72.115270109811746
30
0
11
-12.834600615855702
21
78.945720609456899
31
0
0
SPLINE
5
129
100
AcDbEntity
8
0
100
AcDbSpline
70
12
71
2
41
1
41
0.40845070422535218
41
1
72
6
73
3
74
0
42
0.000000001
43
0.0000000001
44
0.0000000001
40
0
40
0
40
0
40
9.0349730277569194
40
9.0349730277569194
40
9.0349730277569194
10
8.3899881871864697
20
-49.640340178719946
30
0
10
1.4036605762156018
20
7.878589625358714
30
0
10
8.3229105883690799
20
40.618991616162887
30
0
0
SPLINE
5
130
100
AcDbEntity
8
0
100
AcDbSpline
70
12
71
2
41
1
41
0.40845070422535218
41
1
72
6
73
3
74
0
42
0.000000001
43
0.0000000001
44
0.0000000001
40
0
40
0
40
0
40
9.0349730277569194
40
9.0349730277569194
40
9.0349730277569194
10
-5.5826671311319132
20
-49.640340167013903
30
0
10
1.4036605762156018
20
7.878589625358714
30
0
10
-5.5155893810792378
20
40.618991627756529
30
0
0
LINE
5
131
100
AcDbEntity
8
0
100
AcDbLine
10
-9.1752708502021818
20
-64.691182743367506
30
0
11
-7.1021816689595596
21
-66.764271924610128
31
0
0
ARC
5
132
100
AcDbEntity
8
0
100
AcDbCircle
10
-28.61158542055426
20
31.049510610312538
30
0
40
24.999999999973337
210
0
220
-0
230
1
100
AcDbArc
50
22.505941825581957
51
39.030029807339076
0
LINE
5
133
100
AcDbEntity
8
0
100
AcDbLine
10
12.34986214207046
20
55.930913670529982
30
0
11
13.377882835996342
21
54.899867844110013
31
0
0
LINE
5
134
100
AcDbEntity
8
0
100
AcDbLine
10
4.5497473968670654
20
72.115270109811703
30
0
11
15.641921855308123
21
78.945720609456856
31
0
0
LINE
5
135
100
AcDbEntity
8
0
100
AcDbLine
10
21.102739024241846
20
78.144208405892059
30
0
11
11.564186077758141
21
63.431264064623278
31
0
0
ARC
5
136
100
AcDbEntity
8
0
100
AcDbCircle
10
31.420140381866446
20
31.061283193945375
30
0
40
25.000000000002359
210
0
220
0
230
1
100
AcDbArc
50
141.01119735439289
51
157.51314576129263
0
ARC
5
137
100
AcDbEntity
8
0
100
AcDbCircle
10
20.263648131808214
20
78.688199650522833
30
0
40
1.0000000000000075
210
-0
220
0
230
1
100
AcDbArc
50
-32.955755744712093
51
89.999999999997954
0
ARC
5
138
100
AcDbEntity
8
0
100
AcDbCircle
10
16.598731432359788
20
60.167316596838482
30
0
40
5.999999999999984
210
0
220
0
230
1
100
AcDbArc
50
147.04424425528595
51
224.91582243800423
0
LINE
5
139
100
AcDbEntity
8
0
100
AcDbLine
10
13.688941076413546
20
48.891307395542817
30
0
11
11.988417003340732
21
46.79049571525664
31
0
0
ENDSEC
0
SECTION
2
OBJECTS
0
DICTIONARY
5
C
100
AcDbDictionary
3
ACAD_GROUP
350
D
3
ACAD_MLINESTYLE
350
17
0
DICTIONARY
5
D
100
AcDbDictionary
0
DICTIONARY
5
1A
330
C
100
AcDbDictionary
0
DICTIONARY
5
17
100
AcDbDictionary
0
ENDSEC
0
EOF
