0
SECTION
2
HEADER
9
$INSUNITS
70
4
9
$ACADVER
1
AC1014
9
$HANDSEED
5
FFFF
0
ENDSEC
0
SECTION
2
TABLES
0
TABLE
2
VPORT
5
8
100
AcDbSymbolTable
0
ENDTAB
0
TABLE
2
LTYPE
5
5
100
AcDbSymbolTable
0
LTYPE
5
14
100
AcDbSymbolTableRecord
100
AcDbLinetypeTableRecord
2
BYBLOCK
70
0
0
LTYPE
5
15
100
AcDbSymbolTableRecord
100
AcDbLinetypeTableRecord
2
BYLAYER
70
0
0
ENDTAB
0
TABLE
2
LAYER
5
2
100
AcDbSymbolTable
70
2
0
LAYER
5
50
100
AcDbSymbolTableRecord
100
AcDbLayerTableRecord
2
0
70
0
6
CONTINUOUS
0
ENDTAB
0
TABLE
2
STYLE
5
3
100
AcDbSymbolTable
70
1
0
STYLE
5
11
100
AcDbSymbolTableRecord
100
AcDbTextStyleTableRecord
2
STANDARD
70
0
0
ENDTAB
0
TABLE
2
VIEW
5
6
100
AcDbSymbolTable
70
0
0
ENDTAB
0
TABLE
2
UCS
5
7
100
AcDbSymbolTable
70
0
0
ENDTAB
0
TABLE
2
APPID
5
9
100
AcDbSymbolTable
70
2
0
APPID
5
12
100
AcDbSymbolTableRecord
100
AcDbRegAppTableRecord
2
ACAD
70
0
0
ENDTAB
0
TABLE
2
DIMSTYLE
5
A
100
AcDbSymbolTable
70
1
0
ENDTAB
0
TABLE
2
BLOCK_RECORD
5
1
100
AcDbSymbolTable
70
1
0
BLOCK_RECORD
5
1F
100
AcDbSymbolTableRecord
100
AcDbBlockTableRecord
2
*MODEL_SPACE
0
BLOCK_RECORD
5
1B
100
AcDbSymbolTableRecord
100
AcDbBlockTableRecord
2
*PAPER_SPACE
0
ENDTAB
0
ENDSEC
0
SECTION
2
BLOCKS
0
BLOCK
5
20
100
AcDbEntity
100
AcDbBlockBegin
2
*MODEL_SPACE
0
ENDBLK
5
21
100
AcDbEntity
100
AcDbBlockEnd
0
BLOCK
5
1C
100
AcDbEntity
100
AcDbBlockBegin
2
*PAPER_SPACE
0
ENDBLK
5
1D
100
AcDbEntity
100
AcDbBlockEnd
0
ENDSEC
0
SECTION
2
ENTITIES
0
LINE
5
100
100
AcDbEntity
8
0
100
AcDbLine
10
-18.631952042533761
20
-22.944384897052508
30
0
11
-15.31194074514282
21
-49.50447234877106
31
0
0
CIRCLE
5
101
100
AcDbEntity
8
0
100
AcDbCircle
10
-10.000000149011612
20
-52.000000968575478
30
0
40
1.6000000000000003
210
0
220
0
230
1
0
CIRCLE
5
102
100
AcDbEntity
8
0
100
AcDbCircle
10
10.000000149011612
20
-52.000000968575478
30
0
40
1.6000000000000003
210
0
220
0
230
1
0
ARC
5
103
100
AcDbEntity
8
0
100
AcDbCircle
10
32.174478388745875
20
12.782962233746211
30
0
40
15.00000000000025
210
0
220
0
230
1
100
AcDbArc
50
147.99831708687012
51
213.18253298534307
0
ARC
5
104
100
AcDbEntity
8
0
100
AcDbCircle
10
71.50260461163387
20
38.501446794535703
30
0
40
61.990871031584433
210
0
220
0
230
1
100
AcDbArc
50
213.18253298534356
51
218.61125313304902
0
LINE
5
105
100
AcDbEntity
8
0
100
AcDbLine
10
-27.778126919023087
20
29.46441826996729
30
0
11
-27.778126919023087
21
29.46441826996729
31
0
0
ARC
5
106
100
AcDbEntity
8
0
100
AcDbCircle
10
-32.174478388745541
20
13.217037766253776
30
0
40
14.999999999999954
210
-0
220
0
230
1
100
AcDbArc
50
-32.001682913130509
51
33.182532985343663
0
ARC
5
107
100
AcDbEntity
8
0
100
AcDbCircle
10
9.8311326876943284
20
-53.039647608869657
30
0
40
5.0000000000000009
210
0
220
0
230
1
100
AcDbArc
50
257.92676488246002
51
352.87498287385989
0
ARC
5
108
100
AcDbEntity
8
0
100
AcDbCircle
10
-9.8311326876944705
20
-53.039647608869601
30
0
40
5.0000000000000249
210
0
220
0
230
1
100
AcDbArc
50
187.12501712613826
51
282.07323511753987
0
CIRCLE
5
109
100
AcDbEntity
8
0
100
AcDbCircle
10
10.000000149011612
20
-43.500000819563873
30
0
40
1.1000000000000001
210
0
220
0
230
1
0
ARC
5
110
100
AcDbEntity
8
0
100
AcDbCircle
10
-2.1316282072803006e-13
20
-99.002529652744116
30
0
40
42.002528609662839
210
0
220
-0
230
1
100
AcDbArc
50
77.926764882459835
51
102.0732351175398
0
LINE
5
111
100
AcDbEntity
8
0
100
AcDbLine
10
14.792522062849791
20
-53.659821349118772
30
0
11
15.31249990221113
21
-49.499999092717943
31
0
0
CIRCLE
5
112
100
AcDbEntity
8
0
100
AcDbCircle
10
-10.000000149011612
20
-43.500000819563873
30
0
40
1.1000000000000001
210
0
220
0
230
1
0
LINE
5
113
100
AcDbEntity
8
0
100
AcDbLine
10
-15.31194074514282
20
-49.50447234877106
30
0
11
-14.792522062849969
21
-53.659821349118559
31
0
0
ARC
5
114
100
AcDbEntity
8
0
100
AcDbCircle
10
58.103519024255874
20
137.80615863703648
30
0
40
124.23128168274249
210
0
220
0
230
1
100
AcDbArc
50
234.98294393793458
51
240.77115221715954
0
ARC
5
115
100
AcDbEntity
8
0
100
AcDbCircle
10
22.071068035382879
20
35.071068035382908
30
0
40
6.103835497227549
210
-0
220
0
230
1
100
AcDbArc
50
-33.537308651049202
51
123.53730865136612
0
CIRCLE
5
116
100
AcDbEntity
8
0
100
AcDbCircle
10
-15.000000223517418
20
-16.500000409781933
30
0
40
1.6000000000000003
210
0
220
0
230
1
0
ARC
5
117
100
AcDbEntity
8
0
100
AcDbCircle
10
22.071068035382915
20
-9.0710680353828987
30
0
40
6.1038354972275366
210
0
220
0
230
1
100
AcDbArc
50
-44.999999999841329
51
33.53730865136631
0
ARC
5
118
100
AcDbEntity
8
0
100
AcDbCircle
10
-22.071068035382879
20
-9.0710680353829218
30
0
40
6.1038354972275455
210
0
220
0
230
1
100
AcDbArc
50
146.46269134895087
51
225.00000000015839
0
ARC
5
119
100
AcDbEntity
8
0
100
AcDbCircle
10
-223.57793619452161
20
144.42600138238902
30
0
40
247.22044694040309
210
0
220
0
230
1
100
AcDbArc
50
322.60901509010375
51
324.20131133509017
0
ARC
5
120
100
AcDbEntity
8
0
100
AcDbCircle
10
223.57793619452153
20
-118.4260013823891
30
0
40
247.22044694040309
210
0
220
0
230
1
100
AcDbArc
50
142.60901509010378
51
144.20131133509017
0
CIRCLE
5
121
100
AcDbEntity
8
0
100
AcDbCircle
10
7.4997185954717338
20
5.5002814045282911
30
0
40
1.6000000000000003
210
0
220
0
230
1
0
CIRCLE
5
122
100
AcDbEntity
8
0
100
AcDbCircle
10
22.071068035382915
20
-9.0710680353828987
30
0
40
1.6000000000000012
210
0
220
0
230
1
0
LINE
5
123
100
AcDbEntity
8
0
100
AcDbLine
10
-27.778126919023087
20
29.464418269967297
30
0
11
-27.778126919023087
21
29.464418269967297
31
0
0
CIRCLE
5
124
100
AcDbEntity
8
0
100
AcDbCircle
10
-22.071068035382879
20
-9.0710680353829218
30
0
40
1.6000000000000012
210
0
220
0
230
1
0
LWPOLYLINE
5
125
100
AcDbEntity
8
0
100
AcDbPolyline
90
2
70
1
43
0.0
10
-8.6312301947001657
20
6.6315114875845316
42
0.9998755940060009
10
-6.3684885123842605
20
4.368769805331052
42
0.99987559387662428
0
CIRCLE
5
126
100
AcDbEntity
8
0
100
AcDbCircle
10
-10.000000149011612
20
-23.500000521540642
30
0
40
1.1000000000000001
210
0
220
0
230
1
0
LWPOLYLINE
5
127
100
AcDbEntity
8
0
100
AcDbPolyline
90
2
70
1
43
0.0
10
6.36848851235019
20
21.631230194634909
42
0.99987559385074909
10
8.6312301946750836
20
19.368488512390343
42
0.99987559403165316
0
ARC
5
128
100
AcDbEntity
8
0
100
AcDbCircle
10
-25.501446794535703
20
84.502604611633885
30
0
40
61.990871031584433
210
-0
220
0
230
1
100
AcDbArc
50
297.08472181533512
51
308.61125313304905
0
CIRCLE
5
129
100
AcDbEntity
8
0
100
AcDbCircle
10
10.000000149011612
20
-23.500000521540642
30
0
40
1.1000000000000001
210
0
220
0
230
1
0
CIRCLE
5
130
100
AcDbEntity
8
0
100
AcDbCircle
10
-22.071068035382879
20
35.071068035382908
30
0
40
1.6000000000000003
210
0
220
0
230
1
0
CIRCLE
5
131
100
AcDbEntity
8
0
100
AcDbCircle
10
22.071068035382879
20
35.071068035382908
30
0
40
1.6000000000000012
210
0
220
0
230
1
0
LINE
5
132
100
AcDbEntity
8
0
100
AcDbLine
10
2.7234624416098541
20
29.310009185563555
30
0
11
0
21
27.960868237121694
31
0
0
ARC
5
133
100
AcDbEntity
8
0
100
AcDbCircle
10
-27.562452917813616
20
-24.060697629500609
30
0
40
9
210
0
220
-0
230
1
100
AcDbArc
50
7.1250171261381681
51
50.660255898997924
0
ARC
5
134
100
AcDbEntity
8
0
100
AcDbCircle
10
-223.57793619451951
20
-118.4260013823872
30
0
40
247.22044694040036
210
0
220
-0
230
1
100
AcDbArc
50
35.798688664909768
51
37.390984909888324
0
ARC
5
135
100
AcDbEntity
8
0
100
AcDbCircle
10
223.57793619451954
20
144.42600138238714
30
0
40
247.22044694040036
210
0
220
0
230
1
100
AcDbArc
50
215.79868866490975
51
217.39098490988829
0
ARC
5
136
100
AcDbEntity
8
0
100
AcDbCircle
10
27.56245291781461
20
-24.060697629500261
30
0
40
9.0000000000000142
210
0
220
0
230
1
100
AcDbArc
50
129.33974410103943
51
172.87498287385984
0
CIRCLE
5
137
100
AcDbEntity
8
0
100
AcDbCircle
10
15.000000223517418
20
-2.0000002235174286
30
0
40
1.6000000000000003
210
0
220
0
230
1
0
LINE
5
138
100
AcDbEntity
8
0
100
AcDbLine
10
0
20
27.960868237121694
30
0
11
-2.5585044811684199
21
29.392459074830512
31
0
0
CIRCLE
5
139
100
AcDbEntity
8
0
100
AcDbCircle
10
15.000000223517418
20
28.000000223517407
30
0
40
1.6000000000000003
210
0
220
0
230
1
0
CIRCLE
5
140
100
AcDbEntity
8
0
100
AcDbCircle
10
-15.000000223517418
20
-2.0000002235174241
30
0
40
1.6000000000000003
210
0
220
0
230
1
0
CIRCLE
5
141
100
AcDbEntity
8
0
100
AcDbCircle
10
-15.000000223517418
20
28.000000223517425
30
0
40
1.6000000000000003
210
0
220
0
230
1
0
ARC
5
142
100
AcDbEntity
8
0
100
AcDbCircle
10
-131.42600138238714
20
236.57793619451954
30
0
40
247.22044694040036
210
-0
220
0
230
1
100
AcDbArc
50
305.79868866490978
51
307.39098490988829
0
LINE
5
143
100
AcDbEntity
8
0
100
AcDbLine
10
26.38713150673162
20
-13.3871315067077
30
0
11
21.857195360239885
21
-17.100091606908787
31
0
0
ARC
5
144
100
AcDbEntity
8
0
100
AcDbCircle
10
-22.071068035382915
20
35.071068035382886
30
0
40
6.1038354972275286
210
0
220
-0
230
1
100
AcDbArc
50
56.462691348950784
51
213.53730865136623
0
ARC
5
145
100
AcDbEntity
8
0
100
AcDbCircle
10
124.80615863703648
20
-45.103519024255903
30
0
40
124.23128168274248
210
0
220
0
230
1
100
AcDbArc
50
144.98294393793461
51
147.99831708686952
0
LINE
5
146
100
AcDbEntity
8
0
100
AcDbLine
10
18.631952042534792
20
-22.944384897051847
30
0
11
15.311940745144916
21
-49.504472348754547
31
0
0
CIRCLE
5
147
100
AcDbEntity
8
0
100
AcDbCircle
10
15.000000223517418
20
-16.50000040978194
30
0
40
1.6000000000000003
210
0
220
0
230
1
0
ARC
5
148
100
AcDbEntity
8
0
100
AcDbCircle
10
131.42600138238905
20
236.57793619452153
30
0
40
247.22044694040306
210
0
220
0
230
1
100
AcDbArc
50
232.60901509010378
51
234.20131133509017
0
ARC
5
149
100
AcDbEntity
8
0
100
AcDbCircle
10
-71.50260461163387
20
-12.501446794535713
30
0
40
61.990871031584405
210
0
220
-0
230
1
100
AcDbArc
50
33.182532985343528
51
38.611253133049026
0
CIRCLE
5
150
100
AcDbEntity
8
0
100
AcDbCircle
10
-7.500000111758709
20
20.500000111758709
30
0
40
1.600000000000001
210
0
220
0
230
1
0
ARC
5
151
100
AcDbEntity
8
0
100
AcDbCircle
10
-124.80615863703655
20
71.103519024255846
30
0
40
124.23128168274253
210
0
220
0
230
1
100
AcDbArc
50
324.98294393793464
51
327.99831708686952
0
LINE
5
152
100
AcDbEntity
8
0
100
AcDbLine
10
-26.387131506707711
20
-13.387131506731617
30
0
11
-21.857195360243438
21
-17.10009160690543
31
0
0
ENDSEC
0
SECTION
2
OBJECTS
0
DICTIONARY
5
C
100
AcDbDictionary
3
ACAD_GROUP
350
D
3
ACAD_MLINESTYLE
350
17
0
DICTIONARY
5
D
100
AcDbDictionary
0
DICTIONARY
5
1A
330
C
100
AcDbDictionary
0
DICTIONARY
5
17
100
AcDbDictionary
0
ENDSEC
0
EOF
