0
SECTION
2
HEADER
9
$INSUNITS
70
4
9
$ACADVER
1
AC1014
9
$HANDSEED
5
FFFF
0
ENDSEC
0
SECTION
2
TABLES
0
TABLE
2
VPORT
5
8
100
AcDbSymbolTable
0
ENDTAB
0
TABLE
2
LTYPE
5
5
100
AcDbSymbolTable
0
LTYPE
5
14
100
AcDbSymbolTableRecord
100
AcDbLinetypeTableRecord
2
BYBLOCK
70
0
0
LTYPE
5
15
100
AcDbSymbolTableRecord
100
AcDbLinetypeTableRecord
2
BYLAYER
70
0
0
ENDTAB
0
TABLE
2
LAYER
5
2
100
AcDbSymbolTable
70
2
0
LAYER
5
50
100
AcDbSymbolTableRecord
100
AcDbLayerTableRecord
2
0
70
0
6
CONTINUOUS
0
ENDTAB
0
TABLE
2
STYLE
5
3
100
AcDbSymbolTable
70
1
0
STYLE
5
11
100
AcDbSymbolTableRecord
100
AcDbTextStyleTableRecord
2
STANDARD
70
0
0
ENDTAB
0
TABLE
2
VIEW
5
6
100
AcDbSymbolTable
70
0
0
ENDTAB
0
TABLE
2
UCS
5
7
100
AcDbSymbolTable
70
0
0
ENDTAB
0
TABLE
2
APPID
5
9
100
AcDbSymbolTable
70
2
0
APPID
5
12
100
AcDbSymbolTableRecord
100
AcDbRegAppTableRecord
2
ACAD
70
0
0
ENDTAB
0
TABLE
2
DIMSTYLE
5
A
100
AcDbSymbolTable
70
1
0
ENDTAB
0
TABLE
2
BLOCK_RECORD
5
1
100
AcDbSymbolTable
70
1
0
BLOCK_RECORD
5
1F
100
AcDbSymbolTableRecord
100
AcDbBlockTableRecord
2
*MODEL_SPACE
0
BLOCK_RECORD
5
1B
100
AcDbSymbolTableRecord
100
AcDbBlockTableRecord
2
*PAPER_SPACE
0
ENDTAB
0
ENDSEC
0
SECTION
2
BLOCKS
0
BLOCK
5
20
100
AcDbEntity
100
AcDbBlockBegin
2
*MODEL_SPACE
0
ENDBLK
5
21
100
AcDbEntity
100
AcDbBlockEnd
0
BLOCK
5
1C
100
AcDbEntity
100
AcDbBlockBegin
2
*PAPER_SPACE
0
ENDBLK
5
1D
100
AcDbEntity
100
AcDbBlockEnd
0
ENDSEC
0
SECTION
2
ENTITIES
0
ARC
5
100
100
AcDbEntity
8
0
100
AcDbCircle
10
-38.018568793071417
20
51.651240367121801
30
0
40
20.000000000000174
210
0
220
0
230
1
100
AcDbArc
50
-1.8524285280039026
51
14.256521201306393
0
LWPOLYLINE
5
101
100
AcDbEntity
8
0
100
AcDbPolyline
90
8
70
1
43
0.0
10
-4.3819664582849427
20
45.00000074505806
10
4.381965713226883
20
45.000000745058067
42
-0.28407904384041444
10
5.2763929042268032
20
44.447214340558013
10
9.2763929787326269
20
36.447214191546394
42
-0.55753651583505459
10
8.3819657877326925
20
35.000000596046448
10
-8.3819665327907522
20
35.000000596046455
42
-0.55753651583505404
10
-9.2763937237906546
20
36.447214191546408
10
-5.2763936492848549
20
44.44721434055802
42
-0.28407904384041227
0
CIRCLE
5
102
100
AcDbEntity
8
0
100
AcDbCircle
10
15.000000223517418
20
-25.000000223517418
30
0
40
3.25
210
0
220
0
230
1
0
ARC
5
103
100
AcDbEntity
8
0
100
AcDbCircle
10
131.42600138238726
20
-233.57793619451951
30
0
40
247.22044694040039
210
0
220
0
230
1
100
AcDbArc
50
125.79868866490978
51
127.39098490988835
0
ARC
5
104
100
AcDbEntity
8
0
100
AcDbCircle
10
-15.000000223517418
20
57.500001005828409
30
0
40
3.7500000000028235
210
0
220
-0
230
1
100
AcDbArc
50
55.556663221587975
51
194.25652120130678
0
ARC
5
105
100
AcDbEntity
8
0
100
AcDbCircle
10
-124.80615863703655
20
48.10351902425586
30
0
40
124.23128168274253
210
0
220
0
230
1
100
AcDbArc
50
324.98294393793464
51
327.99831708686952
0
ARC
5
106
100
AcDbEntity
8
0
100
AcDbCircle
10
-32.17447838874552
20
-9.7829622337462219
30
0
40
14.999999999999925
210
-0
220
0
230
1
100
AcDbArc
50
-32.001682913130608
51
33.182532985343727
0
CIRCLE
5
107
100
AcDbEntity
8
0
100
AcDbCircle
10
7.500000111758709
20
-17.500000111758709
30
0
40
1.600000000000001
210
0
220
0
230
1
0
LINE
5
108
100
AcDbEntity
8
0
100
AcDbLine
10
0
20
-24.960868237121687
30
0
11
2.5585044811684199
21
-26.392459074830512
31
0
0
ARC
5
109
100
AcDbEntity
8
0
100
AcDbCircle
10
-58.103519024255874
20
-134.80615863703648
30
0
40
124.23128168274248
210
0
220
-0
230
1
100
AcDbArc
50
54.982943937934607
51
60.771152217159575
0
CIRCLE
5
110
100
AcDbEntity
8
0
100
AcDbCircle
10
-15.000000223517418
20
57.500001005828409
30
0
40
1.6000000000000003
210
0
220
0
230
1
0
CIRCLE
5
111
100
AcDbEntity
8
0
100
AcDbCircle
10
-15.000000223517418
20
-25.000000223517425
30
0
40
3.25
210
0
220
0
230
1
0
ARC
5
112
100
AcDbEntity
8
0
100
AcDbCircle
10
-223.57793619452161
20
121.42600138238903
30
0
40
247.22044694040309
210
0
220
0
230
1
100
AcDbArc
50
322.60901509010375
51
324.20131133509017
0
LINE
5
113
100
AcDbEntity
8
0
100
AcDbLine
10
-2.7234624416098185
20
-26.310009185563558
30
0
11
0
21
-24.960868237121687
31
0
0
ARC
5
114
100
AcDbEntity
8
0
100
AcDbCircle
10
-7.2231249027694311
20
68.839432660264976
30
0
40
10.000000000000707
210
0
220
0
230
1
100
AcDbArc
50
235.55666322158854
51
253.55787823024559
0
ARC
5
115
100
AcDbEntity
8
0
100
AcDbCircle
10
7.499718595471716
20
-17.499718595471705
30
0
40
1.6000000000000003
210
0
220
-0
230
1
100
AcDbArc
50
44.992871614849612
51
225.00712838447245
0
ARC
5
116
100
AcDbEntity
8
0
100
AcDbCircle
10
38.020525900514755
20
51.658930238158831
30
0
40
20.000000000000551
210
0
220
0
230
1
100
AcDbArc
50
165.76262776314184
51
181.84666217522513
0
ARC
5
117
100
AcDbEntity
8
0
100
AcDbCircle
10
71.50260461163387
20
15.501446794535703
30
0
40
61.990871031584405
210
0
220
0
230
1
100
AcDbArc
50
213.18253298534353
51
218.61125313304902
0
CIRCLE
5
118
100
AcDbEntity
8
0
100
AcDbCircle
10
-22.071068035382879
20
-32.071068035382915
30
0
40
1.6000000000000012
210
0
220
0
230
1
0
ARC
5
119
100
AcDbEntity
8
0
100
AcDbCircle
10
-131.42600138238907
20
-233.57793619452153
30
0
40
247.22044694040309
210
0
220
-0
230
1
100
AcDbArc
50
52.609015090103767
51
54.201311335090168
0
CIRCLE
5
120
100
AcDbEntity
8
0
100
AcDbCircle
10
22.071068035382879
20
-32.071068035382893
30
0
40
1.6000000000000003
210
0
220
0
230
1
0
ARC
5
121
100
AcDbEntity
8
0
100
AcDbCircle
10
-0.53042711735260539
20
91.51770133283506
30
0
40
33.64521248862507
210
0
220
0
230
1
100
AcDbArc
50
253.55787823024659
51
294.56863572516556
0
LINE
5
122
100
AcDbEntity
8
0
100
AcDbLine
10
18.587563462578416
20
33.749403534857365
30
0
11
18.030912946326065
21
51.014435132084479
31
0
0
CIRCLE
5
123
100
AcDbEntity
8
0
100
AcDbCircle
10
15.000003887771207
20
57.499997457521268
30
0
40
1.6000000000000003
210
0
220
0
230
1
0
ARC
5
124
100
AcDbEntity
8
0
100
AcDbCircle
10
15.000003887771207
20
57.499997457521268
30
0
40
3.7500000000062021
210
0
220
0
230
1
100
AcDbArc
50
-14.237372236858372
51
114.26889973708057
0
LINE
5
125
100
AcDbEntity
8
0
100
AcDbLine
10
-18.587161525828844
20
33.747406664683396
30
0
11
-18.029020803292717
21
51.004733472849779
31
0
0
CIRCLE
5
126
100
AcDbEntity
8
0
100
AcDbCircle
10
-7.4997185954716983
20
-2.5002814045282884
30
0
40
1.6000000000000003
210
0
220
0
230
1
0
ARC
5
127
100
AcDbEntity
8
0
100
AcDbCircle
10
32.174478388745555
20
-10.217037766253778
30
0
40
14.999999999999947
210
0
220
0
230
1
100
AcDbArc
50
147.99831708686941
51
213.18253298534364
0
ARC
5
128
100
AcDbEntity
8
0
100
AcDbCircle
10
25.501446794535738
20
-81.50260461163387
30
0
40
61.990871031584419
210
0
220
0
230
1
100
AcDbArc
50
117.08472181533512
51
128.61125313304905
0
ARC
5
129
100
AcDbEntity
8
0
100
AcDbCircle
10
-43.574096513052005
20
34.555540282523495
30
0
40
25.000000000000007
210
0
220
0
230
1
100
AcDbArc
50
315.00202579534829
51
358.14757147199589
0
ARC
5
130
100
AcDbEntity
8
0
100
AcDbCircle
10
22.071068035382915
20
-32.071068035382893
30
0
40
6.1038354972275215
210
0
220
0
230
1
100
AcDbArc
50
-123.53730865104926
51
33.537308651366267
0
CIRCLE
5
131
100
AcDbEntity
8
0
100
AcDbCircle
10
-7.500000111758709
20
-17.500000111758709
30
0
40
1.600000000000001
210
0
220
0
230
1
0
ARC
5
132
100
AcDbEntity
8
0
100
AcDbCircle
10
-22.071068035382879
20
-32.071068035382915
30
0
40
6.1038354972275428
210
0
220
0
230
1
100
AcDbArc
50
146.4626913489509
51
303.53730865136606
0
ARC
5
133
100
AcDbEntity
8
0
100
AcDbCircle
10
223.57793619452153
20
-141.4260013823891
30
0
40
247.22044694040309
210
0
220
0
230
1
100
AcDbArc
50
142.60901509010378
51
144.20131133509017
0
ARC
5
134
100
AcDbEntity
8
0
100
AcDbCircle
10
223.57793619451954
20
121.42600138238714
30
0
40
247.22044694040036
210
0
220
0
230
1
100
AcDbArc
50
215.79868866490975
51
217.39098490988829
0
ARC
5
135
100
AcDbEntity
8
0
100
AcDbCircle
10
22.071068035382879
20
12.071068035382906
30
0
40
6.103835497227549
210
-0
220
0
230
1
100
AcDbArc
50
-33.537308651049152
51
45.000000000158487
0
LINE
5
136
100
AcDbEntity
8
0
100
AcDbLine
10
26.387131506707711
20
16.387131506731613
30
0
11
25.896910125698795
21
16.877352887737807
31
0
0
LINE
5
137
100
AcDbEntity
8
0
100
AcDbLine
10
-16.464418269967283
20
18.778126919023087
30
0
11
-16.464418269967283
21
18.778126919023087
31
0
0
LINE
5
138
100
AcDbEntity
8
0
100
AcDbLine
10
-26.387131506731603
20
16.387131506707693
30
0
11
-25.895801968633094
21
16.878495789713924
31
0
0
ARC
5
139
100
AcDbEntity
8
0
100
AcDbCircle
10
-223.57793619451954
20
-141.42600138238717
30
0
40
247.22044694040036
210
0
220
-0
230
1
100
AcDbArc
50
35.798688664909776
51
37.390984909888317
0
ARC
5
140
100
AcDbEntity
8
0
100
AcDbCircle
10
-71.50260461163387
20
-35.50144679453571
30
0
40
61.990871031584405
210
0
220
-0
230
1
100
AcDbArc
50
33.182532985343528
51
38.611253133049047
0
CIRCLE
5
141
100
AcDbEntity
8
0
100
AcDbCircle
10
-15
20
19.50000003725291
30
0
40
1.6000000000000003
210
0
220
0
230
1
0
CIRCLE
5
142
100
AcDbEntity
8
0
100
AcDbCircle
10
-22.071068035382915
20
12.071068035382897
30
0
40
1.6000000000000012
210
0
220
0
230
1
0
LINE
5
143
100
AcDbEntity
8
0
100
AcDbLine
10
-16.464418269967283
20
18.778126919023098
30
0
11
-16.464418269967283
21
18.778126919023098
31
0
0
CIRCLE
5
144
100
AcDbEntity
8
0
100
AcDbCircle
10
15.000000223517418
20
19.50000040978194
30
0
40
1.6000000000000003
210
0
220
0
230
1
0
ARC
5
145
100
AcDbEntity
8
0
100
AcDbCircle
10
-22.071068035382915
20
12.071068035382897
30
0
40
6.1038354972275197
210
0
220
0
230
1
100
AcDbArc
50
133.7750862034423
51
213.53730865136629
0
CIRCLE
5
146
100
AcDbEntity
8
0
100
AcDbCircle
10
15.000000223517418
20
5.0000002235174179
30
0
40
3.25
210
0
220
0
230
1
0
CIRCLE
5
147
100
AcDbEntity
8
0
100
AcDbCircle
10
-15.000000223517418
20
5.0000002235174179
30
0
40
3.25
210
0
220
0
230
1
0
CIRCLE
5
148
100
AcDbEntity
8
0
100
AcDbCircle
10
7.499718595471716
20
-2.5002814045282928
30
0
40
1.6000000000000003
210
0
220
0
230
1
0
ARC
5
149
100
AcDbEntity
8
0
100
AcDbCircle
10
43.574579655313599
20
34.555022417450409
30
0
40
25.000000000000014
210
0
220
0
230
1
100
AcDbArc
50
181.84666217522533
51
225.00000000015845
0
ARC
5
150
100
AcDbEntity
8
0
100
AcDbCircle
10
124.80615863703648
20
-68.103519024255888
30
0
40
124.23128168274248
210
0
220
0
230
1
100
AcDbArc
50
144.98294393793461
51
147.99831708686949
0
CIRCLE
5
151
100
AcDbEntity
8
0
100
AcDbCircle
10
22.071068035382879
20
12.071068035382906
30
0
40
1.6000000000000012
210
0
220
0
230
1
0
ENDSEC
0
SECTION
2
OBJECTS
0
DICTIONARY
5
C
100
AcDbDictionary
3
ACAD_GROUP
350
D
3
ACAD_MLINESTYLE
350
17
0
DICTIONARY
5
D
100
AcDbDictionary
0
DICTIONARY
5
1A
330
C
100
AcDbDictionary
0
DICTIONARY
5
17
100
AcDbDictionary
0
ENDSEC
0
EOF
