0
SECTION
2
HEADER
9
$INSUNITS
70
4
9
$ACADVER
1
AC1014
9
$HANDSEED
5
FFFF
0
ENDSEC
0
SECTION
2
TABLES
0
TABLE
2
VPORT
5
8
100
AcDbSymbolTable
0
ENDTAB
0
TABLE
2
LTYPE
5
5
100
AcDbSymbolTable
0
LTYPE
5
14
100
AcDbSymbolTableRecord
100
AcDbLinetypeTableRecord
2
BYBLOCK
70
0
0
LTYPE
5
15
100
AcDbSymbolTableRecord
100
AcDbLinetypeTableRecord
2
BYLAYER
70
0
0
ENDTAB
0
TABLE
2
LAYER
5
2
100
AcDbSymbolTable
70
2
0
LAYER
5
50
100
AcDbSymbolTableRecord
100
AcDbLayerTableRecord
2
0
70
0
6
CONTINUOUS
0
ENDTAB
0
TABLE
2
STYLE
5
3
100
AcDbSymbolTable
70
1
0
STYLE
5
11
100
AcDbSymbolTableRecord
100
AcDbTextStyleTableRecord
2
STANDARD
70
0
0
ENDTAB
0
TABLE
2
VIEW
5
6
100
AcDbSymbolTable
70
0
0
ENDTAB
0
TABLE
2
UCS
5
7
100
AcDbSymbolTable
70
0
0
ENDTAB
0
TABLE
2
APPID
5
9
100
AcDbSymbolTable
70
2
0
APPID
5
12
100
AcDbSymbolTableRecord
100
AcDbRegAppTableRecord
2
ACAD
70
0
0
ENDTAB
0
TABLE
2
DIMSTYLE
5
A
100
AcDbSymbolTable
70
1
0
ENDTAB
0
TABLE
2
BLOCK_RECORD
5
1
100
AcDbSymbolTable
70
1
0
BLOCK_RECORD
5
1F
100
AcDbSymbolTableRecord
100
AcDbBlockTableRecord
2
*MODEL_SPACE
0
BLOCK_RECORD
5
1B
100
AcDbSymbolTableRecord
100
AcDbBlockTableRecord
2
*PAPER_SPACE
0
ENDTAB
0
ENDSEC
0
SECTION
2
BLOCKS
0
BLOCK
5
20
100
AcDbEntity
100
AcDbBlockBegin
2
*MODEL_SPACE
0
ENDBLK
5
21
100
AcDbEntity
100
AcDbBlockEnd
0
BLOCK
5
1C
100
AcDbEntity
100
AcDbBlockBegin
2
*PAPER_SPACE
0
ENDBLK
5
1D
100
AcDbEntity
100
AcDbBlockEnd
0
ENDSEC
0
SECTION
2
ENTITIES
0
CIRCLE
5
100
100
AcDbEntity
8
0
100
AcDbCircle
10
15.000001266598737
20
-29.50000040978194
30
0
40
1.6000000000000003
210
0
220
0
230
1
0
LWPOLYLINE
5
101
100
AcDbEntity
8
0
100
AcDbPolyline
90
4
70
1
43
0.0
10
11.500000186264501
20
-18.503378097240265
42
0.99999999999999989
10
11.500000186264501
20
-15.493787668303977
10
-11.500000186264501
20
-15.493787668303977
42
0.99999999999999989
10
-11.500000186264501
20
-18.503378097240265
0
LWPOLYLINE
5
102
100
AcDbEntity
8
0
100
AcDbPolyline
90
28
70
1
43
0.0
10
-11.42917066125076
20
68.262250199789321
42
0.085701715140775764
10
-10.705959449340551
20
67.109032392997989
42
0.44680213973991362
10
10.711790764804821
20
67.123976420656788
42
0.085361523724370988
10
11.431345519273417
20
68.273201316093321
10
11.761025160594729
20
69.077302186156444
42
-0.30437650594064686
10
14.999596195339013
20
71.250166420669032
42
-0.48647877285142449
10
18.642460761920184
20
66.608047090562621
42
0.071538243715446662
10
18.089068445944253
20
60.941083400852577
10
19.990735426139654
20
19.063124626507552
42
-0.011345126851338693
10
20.000000298023224
20
18.654857733344251
10
20.000000298023227
20
-17.528765229048894
42
-0.031100036970646363
10
19.073270047180291
20
-32.413537019186691
10
14.792232283138942
20
-66.660428518173305
42
-0.18279493162167157
10
13.139792160009982
20
-69.788478112013749
10
13.203066487472828
20
-69.732623513720071
42
-0.39830724468545131
10
5.9196054054976166
20
-69.478347997583811
42
0.41866760168553957
10
-5.9196054105596758
20
-69.478347997316931
42
-0.39830724469718798
10
-13.20306649270732
20
-69.732623512982755
10
-13.139792166801348
20
-69.788478109644558
42
-0.18279493161330243
10
-14.792232289672636
20
-66.660428515839314
10
-19.073270049376095
20
-32.413537010506836
42
-0.031100036933735191
10
-20.000000298023224
20
-17.528765237935243
10
-20.000000298023224
20
18.668031191876803
42
-0.01134512685132337
10
-19.990735426139654
20
19.076298085040069
10
-18.089800100249274
20
60.938144580451912
42
0.07155109617856964
10
-18.643524618462838
20
66.606093183176938
42
-0.48640461740812102
10
-15.001940582052065
20
71.248365584659098
42
-0.30437959002333803
10
-11.762904432734754
20
69.076135829961885
0
LWPOLYLINE
5
103
100
AcDbEntity
8
0
100
AcDbPolyline
90
4
70
1
43
0.0
10
-6.5000000745057918
20
-52.00000074505806
42
0.99999999999999989
10
-3.5000000745058202
20
-52.00000074505806
10
-3.5000000745058202
20
-42.000000596046448
42
0.99999999999999989
10
-6.5000000745057918
20
-42.000000596046448
0
CIRCLE
5
104
100
AcDbEntity
8
0
100
AcDbCircle
10
-15.001224543021646
20
67.49836565302067
30
0
40
1.6000000000000003
210
0
220
0
230
1
0
LWPOLYLINE
5
105
100
AcDbEntity
8
0
100
AcDbPolyline
90
4
70
1
43
0.0
10
-11.000001391768457
20
17.50000029802322
42
0.99999999999999989
10
-11.000001391768457
20
14.500000298023224
10
11.00000007450582
20
14.500000298023224
42
0.99999999999999989
10
11.00000007450582
20
17.50000029802322
0
LWPOLYLINE
5
106
100
AcDbEntity
8
0
100
AcDbPolyline
90
4
70
1
43
0.0
10
-10.000000149011612
20
39.0000006556511
42
0.99999999999999989
10
-10.000000149011612
20
36.000000610947609
10
10.000000149011612
20
36.000000610947609
42
0.99999999999999989
10
10.000000149011612
20
39.0000006556511
0
CIRCLE
5
107
100
AcDbEntity
8
0
100
AcDbCircle
10
15.00003023762117
20
67.500093519149942
30
0
40
1.6000000000000003
210
0
220
0
230
1
0
CIRCLE
5
108
100
AcDbEntity
8
0
100
AcDbCircle
10
-14.999999180436134
20
29.500000409781943
30
0
40
1.6000000000000003
210
0
220
0
230
1
0
CIRCLE
5
109
100
AcDbEntity
8
0
100
AcDbCircle
10
-10.000000149011612
20
-65.000000968575478
30
0
40
1.6000000000000003
210
0
220
0
230
1
0
LWPOLYLINE
5
110
100
AcDbEntity
8
0
100
AcDbPolyline
90
4
70
1
43
0.0
10
6.5000000745057918
20
-52.00000074505806
10
6.5000000745057918
20
-42.000000596046448
42
0.99999999999999989
10
3.5000000745058202
20
-42.000000596046448
10
3.5000000745058202
20
-52.00000074505806
42
0.99999999999999989
0
CIRCLE
5
111
100
AcDbEntity
8
0
100
AcDbCircle
10
-14.999999180436134
20
-29.500000409781929
30
0
40
1.6000000000000003
210
0
220
0
230
1
0
CIRCLE
5
112
100
AcDbEntity
8
0
100
AcDbCircle
10
15.000001266598701
20
29.50000040978194
30
0
40
1.6000000000000003
210
0
220
0
230
1
0
CIRCLE
5
113
100
AcDbEntity
8
0
100
AcDbCircle
10
10.000000149011612
20
-65.000000968575478
30
0
40
1.6000000000000003
210
0
220
0
230
1
0
LINE
5
114
100
AcDbEntity
8
0
100
AcDbLine
10
18.089068445944253
20
60.941083400852577
30
0
11
60.214420652331384
21
60.941083400852577
31
0
0
ENDSEC
0
SECTION
2
OBJECTS
0
DICTIONARY
5
C
100
AcDbDictionary
3
ACAD_GROUP
350
D
3
ACAD_MLINESTYLE
350
17
0
DICTIONARY
5
D
100
AcDbDictionary
0
DICTIONARY
5
1A
330
C
100
AcDbDictionary
0
DICTIONARY
5
17
100
AcDbDictionary
0
ENDSEC
0
EOF
