0
SECTION
2
HEADER
9
$INSUNITS
70
4
9
$ACADVER
1
AC1014
9
$HANDSEED
5
FFFF
0
ENDSEC
0
SECTION
2
TABLES
0
TABLE
2
VPORT
5
8
100
AcDbSymbolTable
0
ENDTAB
0
TABLE
2
LTYPE
5
5
100
AcDbSymbolTable
0
LTYPE
5
14
100
AcDbSymbolTableRecord
100
AcDbLinetypeTableRecord
2
BYBLOCK
70
0
0
LTYPE
5
15
100
AcDbSymbolTableRecord
100
AcDbLinetypeTableRecord
2
BYLAYER
70
0
0
ENDTAB
0
TABLE
2
LAYER
5
2
100
AcDbSymbolTable
70
2
0
LAYER
5
50
100
AcDbSymbolTableRecord
100
AcDbLayerTableRecord
2
0
70
0
6
CONTINUOUS
0
ENDTAB
0
TABLE
2
STYLE
5
3
100
AcDbSymbolTable
70
1
0
STYLE
5
11
100
AcDbSymbolTableRecord
100
AcDbTextStyleTableRecord
2
STANDARD
70
0
0
ENDTAB
0
TABLE
2
VIEW
5
6
100
AcDbSymbolTable
70
0
0
ENDTAB
0
TABLE
2
UCS
5
7
100
AcDbSymbolTable
70
0
0
ENDTAB
0
TABLE
2
APPID
5
9
100
AcDbSymbolTable
70
2
0
APPID
5
12
100
AcDbSymbolTableRecord
100
AcDbRegAppTableRecord
2
ACAD
70
0
0
ENDTAB
0
TABLE
2
DIMSTYLE
5
A
100
AcDbSymbolTable
70
1
0
ENDTAB
0
TABLE
2
BLOCK_RECORD
5
1
100
AcDbSymbolTable
70
1
0
BLOCK_RECORD
5
1F
100
AcDbSymbolTableRecord
100
AcDbBlockTableRecord
2
*MODEL_SPACE
0
BLOCK_RECORD
5
1B
100
AcDbSymbolTableRecord
100
AcDbBlockTableRecord
2
*PAPER_SPACE
0
ENDTAB
0
ENDSEC
0
SECTION
2
BLOCKS
0
BLOCK
5
20
100
AcDbEntity
100
AcDbBlockBegin
2
*MODEL_SPACE
0
ENDBLK
5
21
100
AcDbEntity
100
AcDbBlockEnd
0
BLOCK
5
1C
100
AcDbEntity
100
AcDbBlockBegin
2
*PAPER_SPACE
0
ENDBLK
5
1D
100
AcDbEntity
100
AcDbBlockEnd
0
ENDSEC
0
SECTION
2
ENTITIES
0
CIRCLE
5
100
100
AcDbEntity
8
0
100
AcDbCircle
10
-51.300218594974524
20
-60.994949747495284
30
0
40
1.6000000000000003
210
-0
220
0
230
1
0
LWPOLYLINE
5
101
100
AcDbEntity
8
0
100
AcDbPolyline
90
31
70
1
43
0.0
10
-52.187172030633974
20
-69.433747988284026
10
-59.817006904169631
20
-60.011686598122829
42
-0.26274682621875323
10
-60.633129461505447
20
-55.164324712339294
42
0.061248735821768853
10
-56.017755098986584
20
-34.974172881142877
42
0.043071088102892723
10
-56.46993556120789
20
29.527469742212435
10
-56.616508500993717
20
29.985994508531491
42
0.27351601058481945
10
-58.707240292725714
20
31.847365113618409
10
-59.635333259569791
20
32.029184040529415
42
-0.60044722936038863
10
-61.95137226682354
20
39.628029958118077
10
-60.927950899080287
20
40.650930504154076
42
0.35397292658909818
10
-60.134966274198888
20
48.158598341625556
10
-69.668866758979746
20
62.864366394156747
42
-0.59467612870420905
10
-68.829775866546171
20
64.408357638787493
10
-66.829788570996897
20
64.408357638787493
42
-0.13886975036925153
10
-64.208049590046116
20
63.665878597721601
10
-53.115875131605094
20
56.835428098076463
42
0.28320097708454622
10
-46.823701577323277
20
56.835428098076463
10
-35.731527118882326
20
63.665878597721616
42
-0.13886975036925595
10
-33.109788137931439
20
64.408357638787535
10
-31.109800842382199
20
64.408357638787535
42
-0.59467612870419884
10
-30.270709949948568
20
62.864366394156747
10
-39.809262896432273
20
48.151422052887995
42
0.35348808433247003
10
-39.023586832119953
20
40.651071658794692
10
-37.9955661381941
20
39.620025832374694
42
-0.59986109449701541
10
-40.317086566101864
20
32.026667997275204
10
-41.232336416855645
20
31.847365113168689
42
0.27351601058482206
10
-43.323068208683452
20
29.985994508189346
10
-43.640279175571095
20
28.993662058197852
42
0.041242521931069163
10
-44.104804632022621
20
-32.790534775540699
42
0.028537593477707592
10
-41.081534072276362
20
-57.090403487728679
42
-0.27432565243895995
10
-42.853398044750776
20
-61.875406845064916
0
LWPOLYLINE
5
102
100
AcDbEntity
8
0
100
AcDbPolyline
90
4
70
1
43
0.0
10
-43.215758006370763
20
49.093367491017013
42
-0.99999999999999989
10
-45.407231050059508
20
51.285956348688515
10
-43.285370865216152
20
53.406736713548653
42
-0.99999999999999989
10
-41.093897821527335
20
51.214147855877158
0
CIRCLE
5
103
100
AcDbEntity
8
0
100
AcDbCircle
10
-49.969788441485349
20
-48.33675238631217
30
0
40
3.5000000000000004
210
-0
220
0
230
1
0
LWPOLYLINE
5
104
100
AcDbEntity
8
0
100
AcDbPolyline
90
4
70
1
43
0.0
10
-43.218079619334745
20
39.971690309154425
10
-41.097299254474592
20
37.84983012431104
42
-0.99999999999999989
10
-43.289888112146059
20
35.658357080622253
10
-45.410668477006141
20
37.780217265465637
42
-0.99999999999999989
0
LWPOLYLINE
5
105
100
AcDbEntity
8
0
100
AcDbPolyline
90
4
70
1
43
0.0
10
-56.654205843712319
20
35.661758513569438
42
-0.99999999999999989
10
-58.845678887400993
20
37.854347371240976
10
-56.723818702557637
20
39.975127736101129
42
-0.99999999999999989
10
-54.53234565886882
20
37.782538878429634
0
CIRCLE
5
106
100
AcDbEntity
8
0
100
AcDbCircle
10
-49.967059768673025
20
-37.514056135388408
30
0
40
1.6000000000000003
210
-0
220
0
230
1
0
LWPOLYLINE
5
107
100
AcDbEntity
8
0
100
AcDbPolyline
90
4
70
1
43
0.0
10
-58.842277454453779
20
51.218665102807122
42
-0.99999999999999989
10
-56.649688596782312
20
53.410138146495868
10
-54.528908231922117
20
51.288277961652597
42
-0.99999999999999989
10
-56.721497089593655
20
49.096804917963667
0
CIRCLE
5
108
100
AcDbEntity
8
0
100
AcDbCircle
10
-49.969788354464185
20
44.53424761355906
30
0
40
3.4999999999999947
210
-0
220
0
230
1
0
LWPOLYLINE
5
109
100
AcDbEntity
8
0
100
AcDbPolyline
90
31
70
1
43
0.0
10
-9.071484338689249
20
-33.798736953898832
42
-0.043071088102892736
10
-9.5236648009105558
20
30.702905669456459
42
-0.061248735821768888
10
-4.9082904383916892
20
50.89305750065278
42
0.26274682621875289
10
-5.7244129957275058
20
55.740419386436308
10
-13.354247869263162
20
65.162480776597519
10
-22.68802185514636
20
57.604139633378388
42
0.27432565243895851
10
-24.459885827620798
20
52.819136276042009
42
-0.028537593477708113
10
-21.436615267874501
20
28.519267563854097
42
-0.041242521931069157
10
-21.901140724326076
20
-33.264929269884369
10
-22.21835169121367
20
-34.257261719875871
42
-0.27351601058482206
10
-24.309083483041476
20
-36.118632324855213
10
-25.224333333795251
20
-36.297935208961725
42
0.5998610944970153
10
-27.545853761703086
20
-43.891293044061285
10
-26.517833067777165
20
-44.922338870481212
42
-0.35348808433246998
10
-25.732157003464845
20
-52.422689264574515
10
-35.270709949948554
20
-67.135633605843267
42
0.59467612870419884
10
-34.431619057514922
20
-68.679624850474042
10
-32.431631761965683
20
-68.679624850474056
42
0.13886975036925595
10
-29.809892781014828
20
-67.937145809408094
10
-18.717718322573841
20
-61.106695309762983
42
-0.28320097708454622
10
-12.425544768292024
20
-61.106695309762983
10
-1.333370309851003
20
-67.937145809408122
42
0.13886975036925153
10
1.2883686710997777
20
-68.679624850474042
10
3.2883559666490525
20
-68.679624850474013
42
0.59467612870420905
10
4.127446859082684
20
-67.135633605843225
10
-5.4064536256981599
20
-52.429865553312034
42
-0.35397292658909818
10
-4.6134690008168322
20
-44.922197715840603
10
-3.5900476330735787
20
-43.899297169804605
42
0.6004472293603893
10
-5.9060866403273371
20
-36.30045125221595
10
-6.834179607171416
20
-36.118632325304944
42
-0.27351601058481945
10
-8.9249113989034043
20
-34.257261720218011
0
CIRCLE
5
110
100
AcDbEntity
8
0
100
AcDbCircle
10
-15.574360131224111
20
33.242788923701873
30
0
40
1.6000000000000003
210
0
220
0
230
1
0
CIRCLE
5
111
100
AcDbEntity
8
0
100
AcDbCircle
10
-15.571631545432933
20
-48.805514825245588
30
0
40
3.4999999999999947
210
0
220
0
230
1
0
LWPOLYLINE
5
112
100
AcDbEntity
8
0
100
AcDbPolyline
90
4
70
1
43
0.0
10
-8.8199228103034635
20
-53.368072129650194
10
-6.6991424454433401
20
-55.48993231449365
42
-0.99999999999999989
10
-8.8917313031148062
20
-57.681405358182396
10
-11.012511667975001
20
-55.559545173339117
42
-0.99999999999999989
0
LWPOLYLINE
5
113
100
AcDbEntity
8
0
100
AcDbPolyline
90
4
70
1
43
0.0
10
-22.32334028056237
20
-44.242957520840946
10
-24.444120645422529
20
-42.121097335997561
42
-0.99999999999999989
10
-22.251531787751063
20
-39.92962429230878
10
-20.130751422890974
20
-42.051484477152165
42
-0.99999999999999989
0
LWPOLYLINE
5
114
100
AcDbEntity
8
0
100
AcDbPolyline
90
4
70
1
43
0.0
10
-22.256049034680959
20
-57.678003925235181
42
-0.99999999999999989
10
-24.447522078369776
20
-55.485415067563679
10
-22.325661893526355
20
-53.364634702703533
42
-0.99999999999999989
10
-20.13418884983761
20
-55.557223560375036
0
CIRCLE
5
115
100
AcDbEntity
8
0
100
AcDbCircle
10
-15.571631458411787
20
44.065485174625671
30
0
40
3.5000000000000004
210
0
220
0
230
1
0
LWPOLYLINE
5
116
100
AcDbEntity
8
0
100
AcDbPolyline
90
4
70
1
43
0.0
10
-6.6957410124961259
20
-42.125614582927497
10
-8.8176011973394743
20
-44.246394947787657
42
-0.99999999999999989
10
-11.009074241028291
20
-42.053806090116154
10
-8.8872140561847992
20
-39.933025725255959
42
-0.99999999999999989
0
LWPOLYLINE
5
117
100
AcDbEntity
8
0
100
AcDbPolyline
90
31
70
1
43
0.0
10
-9.071484338689249
20
-33.798736953898832
42
-0.043071088102892736
10
-9.5236648009105558
20
30.702905669456459
42
-0.061248735821768888
10
-4.9082904383916892
20
50.89305750065278
42
0.26274682621875289
10
-5.7244129957275058
20
55.740419386436308
10
-13.354247869263162
20
65.162480776597519
10
-22.68802185514636
20
57.604139633378388
42
0.27432565243895851
10
-24.459885827620798
20
52.819136276042009
42
-0.028537593477708113
10
-21.436615267874501
20
28.519267563854097
42
-0.041242521931069157
10
-21.901140724326076
20
-33.264929269884369
10
-22.21835169121367
20
-34.257261719875871
42
-0.27351601058482206
10
-24.309083483041476
20
-36.118632324855213
10
-25.224333333795251
20
-36.297935208961725
42
0.5998610944970153
10
-27.545853761703086
20
-43.891293044061285
10
-26.517833067777165
20
-44.922338870481212
42
-0.35348808433246998
10
-25.732157003464845
20
-52.422689264574515
10
-35.270709949948554
20
-67.135633605843267
42
0.59467612870419884
10
-34.431619057514922
20
-68.679624850474042
10
-32.431631761965683
20
-68.679624850474056
42
0.13886975036925595
10
-29.809892781014828
20
-67.937145809408094
10
-18.717718322573841
20
-61.106695309762983
42
-0.28320097708454622
10
-12.425544768292024
20
-61.106695309762983
10
-1.333370309851003
20
-67.937145809408122
42
0.13886975036925153
10
1.2883686710997777
20
-68.679624850474042
10
3.2883559666490525
20
-68.679624850474013
42
0.59467612870420905
10
4.127446859082684
20
-67.135633605843225
10
-5.4064536256981599
20
-52.429865553312034
42
-0.35397292658909818
10
-4.6134690008168322
20
-44.922197715840603
10
-3.5900476330735787
20
-43.899297169804605
42
0.6004472293603893
10
-5.9060866403273371
20
-36.30045125221595
10
-6.834179607171416
20
-36.118632325304944
42
-0.27351601058481945
10
-8.9249113989034043
20
-34.257261720218011
0
LWPOLYLINE
5
118
100
AcDbEntity
8
0
100
AcDbPolyline
90
4
70
1
43
0.0
10
-22.32334028056237
20
-44.242957520840946
10
-24.444120645422529
20
-42.121097335997561
42
-0.99999999999999989
10
-22.251531787751063
20
-39.92962429230878
10
-20.130751422890974
20
-42.051484477152165
42
-0.99999999999999989
0
LWPOLYLINE
5
119
100
AcDbEntity
8
0
100
AcDbPolyline
90
4
70
1
43
0.0
10
-11.009074241028291
20
-42.053806090116154
10
-8.8872140561847992
20
-39.933025725255959
42
-0.99999999999999989
10
-6.6957410124961259
20
-42.125614582927497
10
-8.8176011973394743
20
-44.246394947787657
42
-0.99999999999999989
0
LWPOLYLINE
5
120
100
AcDbEntity
8
0
100
AcDbPolyline
90
4
70
1
43
0.0
10
-54.53234565886882
20
37.782538878429634
10
-56.654205843712319
20
35.661758513569438
42
-0.99999999999999989
10
-58.845678887400993
20
37.854347371240976
10
-56.723818702557637
20
39.975127736101129
42
-0.99999999999999989
0
LWPOLYLINE
5
121
100
AcDbEntity
8
0
100
AcDbPolyline
90
4
70
1
43
0.0
10
-54.528908231922117
20
51.288277961652597
42
-0.99999999999999989
10
-56.721497089593655
20
49.096804917963667
10
-58.842277454453779
20
51.218665102807122
42
-0.99999999999999989
10
-56.649688596782312
20
53.410138146495868
0
LWPOLYLINE
5
122
100
AcDbEntity
8
0
100
AcDbPolyline
90
31
70
1
43
0.0
10
-37.995566138194036
20
39.620025832374765
10
-39.02358683211996
20
40.651071658794692
42
-0.35348808433247003
10
-39.809262896432273
20
48.151422052887995
10
-30.270709949948568
20
62.864366394156747
42
0.59467612870419884
10
-31.109800842382199
20
64.408357638787521
10
-33.109788137931439
20
64.408357638787535
42
0.13886975036925595
10
-35.73152711888229
20
63.665878597721566
10
-46.823701577323277
20
56.835428098076463
42
-0.28320097708454622
10
-53.115875131605094
20
56.835428098076463
10
-64.208049590046116
20
63.665878597721601
42
0.13886975036925153
10
-66.829788570996897
20
64.408357638787521
10
-68.829775866546171
20
64.408357638787493
42
0.59467612870420905
10
-69.668866758979803
20
62.864366394156704
10
-60.134966274198959
20
48.158598341625513
42
-0.35397292658909818
10
-60.927950899080287
20
40.650930504154076
10
-61.95137226682354
20
39.628029958118077
42
0.60044722936038863
10
-59.635333259569791
20
32.029184040529429
10
-58.707240292725714
20
31.847365113618423
42
-0.27351601058481945
10
-56.616508500993717
20
29.985994508531491
10
-56.469935561207905
20
29.527469742212315
42
-0.043071088102892736
10
-56.017755098986576
20
-34.974172881142977
42
-0.061248735821768888
10
-60.633129461505447
20
-55.164324712339294
42
0.26274682621875328
10
-59.817006904169631
20
-60.011686598122829
10
-52.187172030633974
20
-69.433747988284026
10
-42.853398044750776
20
-61.875406845064916
42
0.2743256524389599
10
-41.081534072276476
20
-57.090403487728054
42
-0.028537593477707558
10
-44.104804632022606
20
-32.790534775540607
42
-0.041242521931069157
10
-43.640279175571038
20
28.993662058197849
10
-43.323068208683452
20
29.985994508189346
42
-0.27351601058482206
10
-41.232336416855645
20
31.847365113168689
10
-40.317086566101864
20
32.026667997275204
42
0.59986109449701541
0
CIRCLE
5
123
100
AcDbEntity
8
0
100
AcDbCircle
10
-15.571631458411787
20
44.065485174625671
30
0
40
3.5000000000000004
210
0
220
0
230
1
0
LWPOLYLINE
5
124
100
AcDbEntity
8
0
100
AcDbPolyline
90
4
70
1
43
0.0
10
-41.093897821527335
20
51.214147855877158
10
-43.215758006370763
20
49.093367491017013
42
-0.99999999999999989
10
-45.407231050059508
20
51.285956348688515
10
-43.285370865216152
20
53.406736713548653
42
-0.99999999999999989
0
CIRCLE
5
125
100
AcDbEntity
8
0
100
AcDbCircle
10
-49.969788354464185
20
44.53424761355906
30
0
40
3.4999999999999947
210
-0
220
0
230
1
0
LWPOLYLINE
5
126
100
AcDbEntity
8
0
100
AcDbPolyline
90
4
70
1
43
0.0
10
-22.256049034680959
20
-57.678003925235181
42
-0.99999999999999989
10
-24.447522078369776
20
-55.485415067563679
10
-22.325661893526355
20
-53.364634702703533
42
-0.99999999999999989
10
-20.13418884983761
20
-55.557223560375036
0
LWPOLYLINE
5
127
100
AcDbEntity
8
0
100
AcDbPolyline
90
4
70
1
43
0.0
10
-45.410668477006141
20
37.780217265465637
42
-0.99999999999999989
10
-43.218079619334745
20
39.971690309154425
10
-41.097299254474592
20
37.84983012431104
42
-0.99999999999999989
10
-43.289888112146059
20
35.658357080622253
0
LWPOLYLINE
5
128
100
AcDbEntity
8
0
100
AcDbPolyline
90
4
70
1
43
0.0
10
-8.8199228103034635
20
-53.368072129650194
10
-6.6991424454433401
20
-55.48993231449365
42
-0.99999999999999989
10
-8.8917313031148062
20
-57.681405358182396
10
-11.012511667975001
20
-55.559545173339117
42
-0.99999999999999989
0
CIRCLE
5
129
100
AcDbEntity
8
0
100
AcDbCircle
10
-14.241201304922612
20
56.72368253580877
30
0
40
1.6000000000000003
210
0
220
0
230
1
0
CIRCLE
5
130
100
AcDbEntity
8
0
100
AcDbCircle
10
-15.571631545432933
20
-48.805514825245588
30
0
40
3.4999999999999947
210
0
220
0
230
1
0
CIRCLE
5
131
100
AcDbEntity
8
0
100
AcDbCircle
10
-49.969788441485349
20
-48.33675238631217
30
0
40
3.5000000000000004
210
-0
220
0
230
1
0
LWPOLYLINE
5
132
100
AcDbEntity
8
0
100
AcDbPolyline
90
31
70
1
43
0.0
10
48.098859275673931
20
-33.264929269884369
10
47.781648308786338
20
-34.257261719875871
42
-0.27351601058482206
10
45.690916516958531
20
-36.118632324855213
10
44.775666666204756
20
-36.297935208961725
42
0.5998610944970153
10
42.454146238296921
20
-43.891293044061285
10
43.482166932222839
20
-44.922338870481219
42
-0.35348808433246981
10
44.267842996535158
20
-52.422689264574515
10
34.729290050051446
20
-67.135633605843267
42
0.59467612870419884
10
35.568380942485078
20
-68.679624850474042
10
37.568368238034317
20
-68.679624850474056
42
0.13886975036925611
10
40.190107218985176
20
-67.937145809408094
10
51.282281677426163
20
-61.106695309762983
42
-0.28320097708454622
10
57.574455231707979
20
-61.106695309762983
10
68.666629690148994
20
-67.937145809408122
42
0.13886975036925153
10
71.288368671099789
20
-68.679624850474042
10
73.28835596664905
20
-68.679624850474013
42
0.59467612870420905
10
74.127446859082681
20
-67.135633605843225
10
64.593546374301837
20
-52.429865553312034
42
-0.35397292658909818
10
65.386530999183179
20
-44.922197715840603
10
66.409952366926433
20
-43.899297169804605
42
0.60044722936038997
10
64.093913359672655
20
-36.30045125221595
10
63.165820392828579
20
-36.118632325304944
42
-0.27351601058481945
10
61.075088601096596
20
-34.257261720218011
10
60.928515661310747
20
-33.798736953898832
42
-0.043071088102892736
10
60.476335199089448
20
30.702905669456459
42
-0.061248735821768888
10
65.091709561608312
20
50.89305750065278
42
0.26274682621875289
10
64.275587004272495
20
55.740419386436308
10
56.645752130736838
20
65.162480776597519
10
47.31197814485364
20
57.604139633378388
42
0.27432565243895851
10
45.540114172379205
20
52.819136276042009
42
-0.028537593477708113
10
48.563384732125499
20
28.519267563854097
42
-0.041242521931069157
0
LWPOLYLINE
5
133
100
AcDbEntity
8
0
100
AcDbPolyline
90
4
70
1
43
0.0
10
49.869248577109033
20
-42.051484477152165
42
-0.99999999999999989
10
47.676659719437637
20
-44.242957520840946
10
45.555879354577478
20
-42.121097335997561
42
-0.99999999999999989
10
47.748468212248945
20
-39.92962429230878
0
LWPOLYLINE
5
134
100
AcDbEntity
8
0
100
AcDbPolyline
90
4
70
1
43
0.0
10
47.676659719437637
20
-44.242957520840946
10
45.555879354577478
20
-42.121097335997561
42
-0.99999999999999989
10
47.748468212248945
20
-39.92962429230878
10
49.869248577109033
20
-42.051484477152165
42
-0.99999999999999989
0
LWPOLYLINE
5
135
100
AcDbEntity
8
0
100
AcDbPolyline
90
31
70
1
43
0.0
10
25.895195367977397
20
-32.790534775540607
42
-0.041242521931069157
10
26.359720824428955
20
28.993662058197849
10
26.676931791316548
20
29.985994508189346
42
-0.27351601058482206
10
28.767663583144355
20
31.847365113168689
10
29.682913433898129
20
32.026667997275204
42
0.5998610944970153
10
32.004433861805964
20
39.620025832374765
10
30.97641316788004
20
40.651071658794692
42
-0.35348808433247003
10
30.190737103567727
20
48.151422052887995
10
39.729290050051432
20
62.864366394156747
42
0.59467612870419884
10
38.890199157617801
20
64.408357638787521
10
36.890211862068561
20
64.408357638787535
42
0.13886975036925595
10
34.26847288111771
20
63.665878597721566
10
23.176298422676723
20
56.835428098076463
42
-0.28320097708454622
10
16.884124868394906
20
56.835428098076463
10
5.7919504099538832
20
63.665878597721601
42
0.13886975036925153
10
3.1702114290031025
20
64.408357638787521
10
1.1702241334538277
20
64.408357638787493
42
0.59467612870420905
10
0.33113324102019615
20
62.864366394156704
10
9.865033725801041
20
48.158598341625513
42
-0.35397292658909818
10
9.0720491009197133
20
40.650930504154076
10
8.0486277331764597
20
39.628029958118077
42
0.60044722936038863
10
10.364666740430209
20
32.029184040529429
10
11.292759707274287
20
31.847365113618423
42
-0.27351601058481945
10
13.383491499006276
20
29.985994508531491
10
13.530064438792092
20
29.527469742212315
42
-0.043071088102892736
10
13.982244901013431
20
-34.974172881142977
42
-0.061248735821768888
10
9.3668705384945525
20
-55.164324712339294
42
0.26274682621875328
10
10.182993095830369
20
-60.011686598122829
10
17.812827969366026
20
-69.433747988284026
10
27.146601955249224
20
-61.875406845064916
42
0.2743256524389599
10
28.918465927723524
20
-57.090403487728054
42
-0.028537593477707558
0
LWPOLYLINE
5
136
100
AcDbEntity
8
0
100
AcDbPolyline
90
31
70
1
43
0.0
10
13.530064438792092
20
29.527469742212315
42
-0.043071088102892736
10
13.982244901013431
20
-34.974172881142977
42
-0.061248735821768888
10
9.3668705384945525
20
-55.164324712339294
42
0.26274682621875328
10
10.182993095830369
20
-60.011686598122829
10
17.812827969366026
20
-69.433747988284026
10
27.146601955249224
20
-61.875406845064916
42
0.2743256524389599
10
28.918465927723524
20
-57.090403487728054
42
-0.028537593477707558
10
25.895195367977397
20
-32.790534775540607
42
-0.041242521931069157
10
26.359720824428955
20
28.993662058197849
10
26.676931791316548
20
29.985994508189346
42
-0.27351601058482206
10
28.767663583144355
20
31.847365113168689
10
29.682913433898129
20
32.026667997275204
42
0.5998610944970153
10
32.004433861805964
20
39.620025832374765
10
30.97641316788004
20
40.651071658794692
42
-0.35348808433247003
10
30.190737103567727
20
48.151422052887995
10
39.729290050051432
20
62.864366394156747
42
0.59467612870419884
10
38.890199157617801
20
64.408357638787521
10
36.890211862068561
20
64.408357638787535
42
0.13886975036925595
10
34.26847288111771
20
63.665878597721566
10
23.176298422676723
20
56.835428098076463
42
-0.28320097708454622
10
16.884124868394906
20
56.835428098076463
10
5.7919504099538832
20
63.665878597721601
42
0.13886975036925153
10
3.1702114290031025
20
64.408357638787521
10
1.1702241334538277
20
64.408357638787493
42
0.59467612870420905
10
0.33113324102019615
20
62.864366394156704
10
9.865033725801041
20
48.158598341625513
42
-0.35397292658909818
10
9.0720491009197133
20
40.650930504154076
10
8.0486277331764597
20
39.628029958118077
42
0.60044722936038863
10
10.364666740430209
20
32.029184040529429
10
11.292759707274287
20
31.847365113618423
42
-0.27351601058481945
10
13.383491499006276
20
29.985994508531491
0
LWPOLYLINE
5
137
100
AcDbEntity
8
0
100
AcDbPolyline
90
31
70
1
43
0.0
10
63.165820392828579
20
-36.118632325304944
42
-0.27351601058481945
10
61.075088601096596
20
-34.257261720218011
10
60.928515661310747
20
-33.798736953898832
42
-0.043071088102892736
10
60.476335199089448
20
30.702905669456459
42
-0.061248735821768888
10
65.091709561608312
20
50.89305750065278
42
0.26274682621875289
10
64.275587004272495
20
55.740419386436308
10
56.645752130736838
20
65.162480776597519
10
47.31197814485364
20
57.604139633378388
42
0.27432565243895851
10
45.540114172379205
20
52.819136276042009
42
-0.028537593477708113
10
48.563384732125499
20
28.519267563854097
42
-0.041242521931069157
10
48.098859275673931
20
-33.264929269884369
10
47.781648308786338
20
-34.257261719875871
42
-0.27351601058482206
10
45.690916516958531
20
-36.118632324855213
10
44.775666666204756
20
-36.297935208961725
42
0.5998610944970153
10
42.454146238296921
20
-43.891293044061285
10
43.482166932222839
20
-44.922338870481219
42
-0.35348808433246981
10
44.267842996535158
20
-52.422689264574515
10
34.729290050051446
20
-67.135633605843267
42
0.59467612870419884
10
35.568380942485078
20
-68.679624850474042
10
37.568368238034317
20
-68.679624850474056
42
0.13886975036925611
10
40.190107218985176
20
-67.937145809408094
10
51.282281677426163
20
-61.106695309762983
42
-0.28320097708454622
10
57.574455231707979
20
-61.106695309762983
10
68.666629690148994
20
-67.937145809408122
42
0.13886975036925153
10
71.288368671099789
20
-68.679624850474042
10
73.28835596664905
20
-68.679624850474013
42
0.59467612870420905
10
74.127446859082681
20
-67.135633605843225
10
64.593546374301837
20
-52.429865553312034
42
-0.35397292658909818
10
65.386530999183179
20
-44.922197715840603
10
66.409952366926433
20
-43.899297169804605
42
0.60044722936038997
10
64.093913359672655
20
-36.30045125221595
0
LINE
5
138
100
AcDbEntity
8
0
100
AcDbLine
10
61.182398802660529
20
-44.246394947787657
30
0
11
63.304258987503879
21
-42.125614582927497
31
0
0
LINE
5
139
100
AcDbEntity
8
0
100
AcDbLine
10
61.112785943815112
20
-39.933025725255959
30
0
11
58.990925758971713
21
-42.053806090116154
31
0
0
ARC
5
140
100
AcDbEntity
8
0
100
AcDbCircle
10
62.208522465659541
20
-41.029320154091728
30
0
40
1.5499999999999583
210
-0
220
0
230
1
100
AcDbArc
50
-45.014582693401174
51
134.98541730660125
0
ARC
5
141
100
AcDbEntity
8
0
100
AcDbCircle
10
60.086662280816121
20
-43.150100518951902
30
0
40
1.5499999999999958
210
0
220
0
230
1
100
AcDbArc
50
134.98541730660125
51
314.98541730660105
0
ARC
5
142
100
AcDbEntity
8
0
100
AcDbCircle
10
62.208522465659541
20
-41.029320154091728
30
0
40
1.5499999999999583
210
-0
220
0
230
1
100
AcDbArc
50
-45.014582693401174
51
134.98541730660125
0
LINE
5
143
100
AcDbEntity
8
0
100
AcDbLine
10
61.112785943815112
20
-39.933025725255959
30
0
11
58.990925758971713
21
-42.053806090116154
31
0
0
ARC
5
144
100
AcDbEntity
8
0
100
AcDbCircle
10
60.086662280816121
20
-43.150100518951902
30
0
40
1.5499999999999958
210
0
220
0
230
1
100
AcDbArc
50
134.98541730660125
51
314.98541730660105
0
LINE
5
145
100
AcDbEntity
8
0
100
AcDbLine
10
61.182398802660529
20
-44.246394947787657
30
0
11
63.304258987503879
21
-42.125614582927497
31
0
0
CIRCLE
5
146
100
AcDbEntity
8
0
100
AcDbCircle
10
20.032940231326975
20
-37.514056135388408
30
0
40
1.6000000000000003
210
-0
220
0
230
1
0
LWPOLYLINE
5
147
100
AcDbEntity
8
0
100
AcDbPolyline
90
4
70
1
43
0.0
10
58.987488332025002
20
-55.559545173339117
42
-0.99999999999999989
10
61.18007718969654
20
-53.368072129650194
10
63.300857554556664
20
-55.48993231449365
42
-0.99999999999999989
10
61.108268696885197
20
-57.681405358182396
0
LWPOLYLINE
5
148
100
AcDbEntity
8
0
100
AcDbPolyline
90
4
70
1
43
0.0
10
45.552477921630228
20
-55.485415067563679
10
47.674338106473648
20
-53.364634702703533
42
-0.99999999999999989
10
49.865811150162394
20
-55.557223560375036
10
47.743950965319044
20
-57.678003925235181
42
-0.99999999999999989
0
LWPOLYLINE
5
149
100
AcDbEntity
8
0
100
AcDbPolyline
90
4
70
1
43
0.0
10
61.18007718969654
20
-53.368072129650194
10
63.300857554556664
20
-55.48993231449365
42
-0.99999999999999989
10
61.108268696885197
20
-57.681405358182396
10
58.987488332025002
20
-55.559545173339117
42
-0.99999999999999989
0
CIRCLE
5
150
100
AcDbEntity
8
0
100
AcDbCircle
10
18.699781405025476
20
-60.994949747495284
30
0
40
1.6000000000000003
210
-0
220
0
230
1
0
LWPOLYLINE
5
151
100
AcDbEntity
8
0
100
AcDbPolyline
90
4
70
1
43
0.0
10
49.865811150162394
20
-55.557223560375036
10
47.743950965319044
20
-57.678003925235181
42
-0.99999999999999989
10
45.552477921630228
20
-55.485415067563679
10
47.674338106473648
20
-53.364634702703533
42
-0.99999999999999989
0
CIRCLE
5
152
100
AcDbEntity
8
0
100
AcDbCircle
10
20.030211558514651
20
-48.33675238631217
30
0
40
3.5000000000000004
210
-0
220
0
230
1
0
CIRCLE
5
153
100
AcDbEntity
8
0
100
AcDbCircle
10
55.758798695077388
20
56.72368253580877
30
0
40
1.6000000000000003
210
0
220
0
230
1
0
CIRCLE
5
154
100
AcDbEntity
8
0
100
AcDbCircle
10
54.428368454567071
20
-48.805514825245588
30
0
40
3.4999999999999947
210
0
220
0
230
1
0
CIRCLE
5
155
100
AcDbEntity
8
0
100
AcDbCircle
10
20.030211558514651
20
-48.33675238631217
30
0
40
3.5000000000000004
210
-0
220
0
230
1
0
CIRCLE
5
156
100
AcDbEntity
8
0
100
AcDbCircle
10
54.428368454567071
20
-48.805514825245588
30
0
40
3.4999999999999947
210
0
220
0
230
1
0
LWPOLYLINE
5
157
100
AcDbEntity
8
0
100
AcDbPolyline
90
4
70
1
43
0.0
10
26.781920380665248
20
39.971690309154425
10
28.902700745525408
20
37.84983012431104
42
-0.99999999999999989
10
26.710111887853941
20
35.658357080622253
10
24.589331522993852
20
37.780217265465637
42
-0.99999999999999989
0
LWPOLYLINE
5
158
100
AcDbEntity
8
0
100
AcDbPolyline
90
4
70
1
43
0.0
10
26.784241993629237
20
49.093367491017013
42
-0.99999999999999989
10
24.592768949940492
20
51.285956348688515
10
26.714629134783841
20
53.406736713548653
42
-0.99999999999999989
10
28.906102178472658
20
51.214147855877158
0
LWPOLYLINE
5
159
100
AcDbEntity
8
0
100
AcDbPolyline
90
4
70
1
43
0.0
10
15.467654341131173
20
37.782538878429634
10
13.345794156287681
20
35.661758513569438
42
-0.99999999999999989
10
11.154321112599007
20
37.854347371240976
10
13.276181297442356
20
39.975127736101129
42
-0.99999999999999989
0
LWPOLYLINE
5
160
100
AcDbEntity
8
0
100
AcDbPolyline
90
4
70
1
43
0.0
10
11.154321112599007
20
37.854347371240976
10
13.276181297442356
20
39.975127736101129
42
-0.99999999999999989
10
15.467654341131173
20
37.782538878429634
10
13.345794156287681
20
35.661758513569438
42
-0.99999999999999989
0
LWPOLYLINE
5
161
100
AcDbEntity
8
0
100
AcDbPolyline
90
4
70
1
43
0.0
10
11.157722545546221
20
51.218665102807122
42
-0.99999999999999989
10
13.350311403217688
20
53.410138146495868
10
15.471091768077883
20
51.288277961652597
42
-0.99999999999999989
10
13.278502910406345
20
49.096804917963667
0
CIRCLE
5
162
100
AcDbEntity
8
0
100
AcDbCircle
10
54.425639868775889
20
33.242788923701873
30
0
40
1.6000000000000003
210
0
220
0
230
1
0
CIRCLE
5
163
100
AcDbEntity
8
0
100
AcDbCircle
10
20.030211645535815
20
44.53424761355906
30
0
40
3.4999999999999947
210
-0
220
0
230
1
0
CIRCLE
5
164
100
AcDbEntity
8
0
100
AcDbCircle
10
54.428368541588213
20
44.065485174625671
30
0
40
3.5000000000000004
210
0
220
0
230
1
0
LWPOLYLINE
5
165
100
AcDbEntity
8
0
100
AcDbPolyline
90
4
70
1
43
0.0
10
28.902700745525408
20
37.84983012431104
42
-0.99999999999999989
10
26.710111887853941
20
35.658357080622253
10
24.589331522993852
20
37.780217265465637
42
-0.99999999999999989
10
26.781920380665248
20
39.971690309154425
0
LWPOLYLINE
5
166
100
AcDbEntity
8
0
100
AcDbPolyline
90
4
70
1
43
0.0
10
26.714629134783841
20
53.406736713548653
42
-0.99999999999999989
10
28.906102178472658
20
51.214147855877158
10
26.784241993629237
20
49.093367491017013
42
-0.99999999999999989
10
24.592768949940492
20
51.285956348688515
0
LWPOLYLINE
5
167
100
AcDbEntity
8
0
100
AcDbPolyline
90
4
70
1
43
0.0
10
13.350311403217688
20
53.410138146495868
10
15.471091768077883
20
51.288277961652597
42
-0.99999999999999989
10
13.278502910406345
20
49.096804917963667
10
11.157722545546221
20
51.218665102807122
42
-0.99999999999999989
0
CIRCLE
5
168
100
AcDbEntity
8
0
100
AcDbCircle
10
54.428368541588213
20
44.065485174625671
30
0
40
3.5000000000000004
210
0
220
0
230
1
0
CIRCLE
5
169
100
AcDbEntity
8
0
100
AcDbCircle
10
20.030211645535815
20
44.53424761355906
30
0
40
3.4999999999999947
210
-0
220
0
230
1
0
ENDSEC
0
SECTION
2
OBJECTS
0
DICTIONARY
5
C
100
AcDbDictionary
3
ACAD_GROUP
350
D
3
ACAD_MLINESTYLE
350
17
0
DICTIONARY
5
D
100
AcDbDictionary
0
DICTIONARY
5
1A
330
C
100
AcDbDictionary
0
DICTIONARY
5
17
100
AcDbDictionary
0
ENDSEC
0
EOF
