0
SECTION
2
HEADER
9
$INSUNITS
70
4
9
$ACADVER
1
AC1014
9
$HANDSEED
5
FFFF
0
ENDSEC
0
SECTION
2
TABLES
0
TABLE
2
VPORT
5
8
100
AcDbSymbolTable
0
ENDTAB
0
TABLE
2
LTYPE
5
5
100
AcDbSymbolTable
0
LTYPE
5
14
100
AcDbSymbolTableRecord
100
AcDbLinetypeTableRecord
2
BYBLOCK
70
0
0
LTYPE
5
15
100
AcDbSymbolTableRecord
100
AcDbLinetypeTableRecord
2
BYLAYER
70
0
0
ENDTAB
0
TABLE
2
LAYER
5
2
100
AcDbSymbolTable
70
2
0
LAYER
5
50
100
AcDbSymbolTableRecord
100
AcDbLayerTableRecord
2
0
70
0
6
CONTINUOUS
0
ENDTAB
0
TABLE
2
STYLE
5
3
100
AcDbSymbolTable
70
1
0
STYLE
5
11
100
AcDbSymbolTableRecord
100
AcDbTextStyleTableRecord
2
STANDARD
70
0
0
ENDTAB
0
TABLE
2
VIEW
5
6
100
AcDbSymbolTable
70
0
0
ENDTAB
0
TABLE
2
UCS
5
7
100
AcDbSymbolTable
70
0
0
ENDTAB
0
TABLE
2
APPID
5
9
100
AcDbSymbolTable
70
2
0
APPID
5
12
100
AcDbSymbolTableRecord
100
AcDbRegAppTableRecord
2
ACAD
70
0
0
ENDTAB
0
TABLE
2
DIMSTYLE
5
A
100
AcDbSymbolTable
70
1
0
ENDTAB
0
TABLE
2
BLOCK_RECORD
5
1
100
AcDbSymbolTable
70
1
0
BLOCK_RECORD
5
1F
100
AcDbSymbolTableRecord
100
AcDbBlockTableRecord
2
*MODEL_SPACE
0
BLOCK_RECORD
5
1B
100
AcDbSymbolTableRecord
100
AcDbBlockTableRecord
2
*PAPER_SPACE
0
ENDTAB
0
ENDSEC
0
SECTION
2
BLOCKS
0
BLOCK
5
20
100
AcDbEntity
100
AcDbBlockBegin
2
*MODEL_SPACE
0
ENDBLK
5
21
100
AcDbEntity
100
AcDbBlockEnd
0
BLOCK
5
1C
100
AcDbEntity
100
AcDbBlockBegin
2
*PAPER_SPACE
0
ENDBLK
5
1D
100
AcDbEntity
100
AcDbBlockEnd
0
ENDSEC
0
SECTION
2
ENTITIES
0
CIRCLE
5
100
100
AcDbEntity
8
0
100
AcDbCircle
10
-6.0000000894069672
20
13.999999910593033
30
0
40
2.2999999999999998
210
0
220
0
230
1
0
CIRCLE
5
101
100
AcDbEntity
8
0
100
AcDbCircle
10
-11.500000171363354
20
-10.000000447034836
30
0
40
1.6000000000000014
210
0
220
0
230
1
0
ARC
5
102
100
AcDbEntity
8
0
100
AcDbCircle
10
23.409097697557009
20
-1.8130642374186268
30
0
40
6.5620930504190387
210
-0
220
0
230
1
100
AcDbArc
50
-66.546776691930702
51
46.323271230366409
0
LINE
5
103
100
AcDbEntity
8
0
100
AcDbLine
10
0
20
20.000000000000004
30
0
11
-3.0000000447034836
21
20.000000000000004
31
0
0
ARC
5
104
100
AcDbEntity
8
0
100
AcDbCircle
10
-0.074963461966568445
20
71.682330788229038
30
0
40
31.682419178836312
210
0
220
0
230
1
100
AcDbArc
50
228.88646387678921
51
310.72984648619467
0
LINE
5
105
100
AcDbEntity
8
0
100
AcDbLine
10
0
20
20.000000000000004
30
0
11
0
21
16.99999995529652
31
0
0
LWPOLYLINE
5
106
100
AcDbEntity
8
0
100
AcDbPolyline
90
4
70
1
43
0.0
10
-9.9999987334012985
20
-40.000000894069672
10
10.000001564621925
20
-40.000000894069672
10
10.000001564621925
20
-20.000000596046448
10
-9.9999987334012985
20
-20.000000596046448
0
ARC
5
107
100
AcDbEntity
8
0
100
AcDbCircle
10
111.98775737496072
20
-38.471225131776805
30
0
40
97.54953854379076
210
0
220
0
230
1
100
AcDbArc
50
170.91698137947492
51
186.20152745724349
0
CIRCLE
5
108
100
AcDbEntity
8
0
100
AcDbCircle
10
11.499999742953833
20
-48.499998401898409
30
0
40
1.5999999999999972
210
0
220
0
230
1
0
ARC
5
109
100
AcDbEntity
8
0
100
AcDbCircle
10
45.60615766230903
20
20.04317658980915
30
0
40
24.593177578457272
210
0
220
0
230
1
100
AcDbArc
50
135.9213542422398
51
224.08545211910453
0
ARC
5
110
100
AcDbEntity
8
0
100
AcDbCircle
10
-23.409097697557009
20
-1.8130642374186268
30
0
40
6.5620930504190342
210
0
220
0
230
1
100
AcDbArc
50
133.67672876963366
51
246.54677669193069
0
CIRCLE
5
111
100
AcDbEntity
8
0
100
AcDbCircle
10
-15.000000223517418
20
4.9999997764825777
30
0
40
1.6000000000000003
210
0
220
0
230
1
0
CIRCLE
5
112
100
AcDbEntity
8
0
100
AcDbCircle
10
15.000000223517418
20
4.9999997764825777
30
0
40
1.6000000000000003
210
0
220
0
230
1
0
ARC
5
113
100
AcDbEntity
8
0
100
AcDbCircle
10
-111.98775737496072
20
-38.471225131776805
30
0
40
97.549538543790746
210
-0
220
0
230
1
100
AcDbArc
50
-6.20152745724344
51
9.0830186205250261
0
CIRCLE
5
114
100
AcDbEntity
8
0
100
AcDbCircle
10
-23.409097697557009
20
-1.8130642374186268
30
0
40
2.2999999999999985
210
0
220
0
230
1
0
LWPOLYLINE
5
115
100
AcDbEntity
8
0
100
AcDbPolyline
90
4
70
1
43
0.0
10
15.000000223517418
20
4.9999997764825777
10
15.000000223517418
20
35.000000223517425
10
-15.000000223517418
20
35.000000223517411
10
-15.000000223517418
20
4.9999997764825777
0
CIRCLE
5
116
100
AcDbEntity
8
0
100
AcDbCircle
10
-15.000000223517418
20
35.000000223517432
30
0
40
1.6000000000000003
210
0
220
0
230
1
0
ARC
5
117
100
AcDbEntity
8
0
100
AcDbCircle
10
-45.605968751574295
20
20.04337162747953
30
0
40
24.593177578457308
210
-0
220
0
230
1
100
AcDbArc
50
-44.08608470739113
51
44.058428228548181
0
LINE
5
118
100
AcDbEntity
8
0
100
AcDbLine
10
15.009036337988366
20
-49.009066558960427
30
0
11
15.009037170330757
21
-49.008791149535455
31
0
0
LWPOLYLINE
5
119
100
AcDbEntity
8
0
100
AcDbPolyline
90
2
70
1
43
0.0
10
15.012484897847713
20
-47.86799060841745
10
15.012296014378084
20
-47.930489272599452
42
0.0052083870858854612
0
CIRCLE
5
120
100
AcDbEntity
8
0
100
AcDbCircle
10
11.499999742954969
20
-9.9999993294477427
30
0
40
1.6000000000000014
210
0
220
0
230
1
0
CIRCLE
5
121
100
AcDbEntity
8
0
100
AcDbCircle
10
23.409097697557009
20
-1.8130642374186223
30
0
40
2.2999999999999985
210
0
220
0
230
1
0
CIRCLE
5
122
100
AcDbEntity
8
0
100
AcDbCircle
10
6.0000000894069672
20
13.999999910593036
30
0
40
2.2999999999999998
210
0
220
0
230
1
0
CIRCLE
5
123
100
AcDbEntity
8
0
100
AcDbCircle
10
15.000000223517418
20
35.000000223517432
30
0
40
1.6000000000000003
210
0
220
0
230
1
0
ARC
5
124
100
AcDbEntity
8
0
100
AcDbCircle
10
33.62933458298194
20
-24.145922276172911
30
0
40
18.000000000006089
210
0
220
0
230
1
100
AcDbArc
50
115.00489448583068
51
176.57806051471846
0
CIRCLE
5
125
100
AcDbEntity
8
0
100
AcDbCircle
10
-9.9999987334012985
20
-40.000000894069672
30
0
40
1.5999999999999956
210
0
220
0
230
1
0
LINE
5
126
100
AcDbEntity
8
0
100
AcDbLine
10
16.628938256224579
20
-19.54585015687271
30
0
11
16.628938256224579
21
-19.54585015687271
31
0
0
CIRCLE
5
127
100
AcDbEntity
8
0
100
AcDbCircle
10
10.000001564621925
20
-40.000000894069672
30
0
40
1.6000000000000036
210
0
220
0
230
1
0
LINE
5
128
100
AcDbEntity
8
0
100
AcDbLine
10
-7.1942451995710144e-12
20
-52.000000000024727
30
0
11
12.009050038429319
21
-52.000000000046455
31
0
0
CIRCLE
5
129
100
AcDbEntity
8
0
100
AcDbCircle
10
-6.0000000894069672
20
26.000000089406974
30
0
40
2.2999999999999998
210
0
220
0
230
1
0
CIRCLE
5
130
100
AcDbEntity
8
0
100
AcDbCircle
10
10.000001564621925
20
-20.000000596046448
30
0
40
1.6000000000000005
210
0
220
0
230
1
0
CIRCLE
5
131
100
AcDbEntity
8
0
100
AcDbCircle
10
23.409097697557009
20
41.813064237418629
30
0
40
2.2999999999999985
210
0
220
0
230
1
0
LINE
5
132
100
AcDbEntity
8
0
100
AcDbLine
10
17.363868879752751
20
41.209878968744547
30
0
11
17.308005519157703
21
41.209878968744547
31
0
0
ARC
5
133
100
AcDbEntity
8
0
100
AcDbCircle
10
-23.409097697557009
20
41.813064237418644
30
0
40
6.4999999999999813
210
0
220
-0
230
1
100
AcDbArc
50
67.368137525169871
51
225.89978959791301
0
LINE
5
134
100
AcDbEntity
8
0
100
AcDbLine
10
-7.1942451995710144e-12
20
-52.000000000024727
30
0
11
-12.009084288033769
21
-52.000000000003041
31
0
0
ARC
5
135
100
AcDbEntity
8
0
100
AcDbCircle
10
-12.009084288028351
20
-49.000000000003034
30
0
40
3.0000000000000018
210
0
220
0
230
1
100
AcDbArc
50
180.17375578745563
51
269.99999999989649
0
CIRCLE
5
136
100
AcDbEntity
8
0
100
AcDbCircle
10
-9.9999987334012985
20
-20.000000596046448
30
0
40
1.6000000000000005
210
0
220
0
230
1
0
ARC
5
137
100
AcDbEntity
8
0
100
AcDbCircle
10
12.009050038434754
20
-49.000000000046462
30
0
40
2.9999999999999893
210
0
220
0
230
1
100
AcDbArc
50
269.9999999998962
51
359.82684121624652
0
CIRCLE
5
138
100
AcDbEntity
8
0
100
AcDbCircle
10
-11.500000171364491
20
-48.500001065439314
30
0
40
1.6000000000000014
210
0
220
0
230
1
0
ARC
5
139
100
AcDbEntity
8
0
100
AcDbCircle
10
-33.62933458298194
20
-24.14592227617878
30
0
40
18.000000000006324
210
0
220
-0
230
1
100
AcDbArc
50
3.4219394852937772
51
64.995105514177112
0
CIRCLE
5
140
100
AcDbEntity
8
0
100
AcDbCircle
10
-23.409097697557009
20
41.813064237418644
30
0
40
2.2999999999999985
210
0
220
0
230
1
0
LINE
5
141
100
AcDbEntity
8
0
100
AcDbLine
10
0.27241360313942309
20
9.4195073489494199
30
0
11
0.2650301083207296
21
9.3139184537393191
31
0
0
CIRCLE
5
142
100
AcDbEntity
8
0
100
AcDbCircle
10
6.0000000894069672
20
26.000000089406971
30
0
40
2.2999999999999998
210
0
220
0
230
1
0
LINE
5
143
100
AcDbEntity
8
0
100
AcDbLine
10
0.2650301083207296
20
9.3139184537393191
30
0
11
0.27241360313942309
21
9.4195073489494199
31
0
0
ARC
5
144
100
AcDbEntity
8
0
100
AcDbCircle
10
23.409097697557009
20
41.813064237418629
30
0
40
6.500000000000016
210
-0
220
0
230
1
100
AcDbArc
50
-45.823334894524947
51
115.62873368042676
0
ENDSEC
0
SECTION
2
OBJECTS
0
DICTIONARY
5
C
100
AcDbDictionary
3
ACAD_GROUP
350
D
3
ACAD_MLINESTYLE
350
17
0
DICTIONARY
5
D
100
AcDbDictionary
0
DICTIONARY
5
1A
330
C
100
AcDbDictionary
0
DICTIONARY
5
17
100
AcDbDictionary
0
ENDSEC
0
EOF
