0
SECTION
2
HEADER
9
$INSUNITS
70
4
9
$ACADVER
1
AC1014
9
$HANDSEED
5
FFFF
0
ENDSEC
0
SECTION
2
TABLES
0
TABLE
2
VPORT
5
8
100
AcDbSymbolTable
0
ENDTAB
0
TABLE
2
LTYPE
5
5
100
AcDbSymbolTable
0
LTYPE
5
14
100
AcDbSymbolTableRecord
100
AcDbLinetypeTableRecord
2
BYBLOCK
70
0
0
LTYPE
5
15
100
AcDbSymbolTableRecord
100
AcDbLinetypeTableRecord
2
BYLAYER
70
0
0
ENDTAB
0
TABLE
2
LAYER
5
2
100
AcDbSymbolTable
70
2
0
LAYER
5
50
100
AcDbSymbolTableRecord
100
AcDbLayerTableRecord
2
0
70
0
6
CONTINUOUS
0
ENDTAB
0
TABLE
2
STYLE
5
3
100
AcDbSymbolTable
70
1
0
STYLE
5
11
100
AcDbSymbolTableRecord
100
AcDbTextStyleTableRecord
2
STANDARD
70
0
0
ENDTAB
0
TABLE
2
VIEW
5
6
100
AcDbSymbolTable
70
0
0
ENDTAB
0
TABLE
2
UCS
5
7
100
AcDbSymbolTable
70
0
0
ENDTAB
0
TABLE
2
APPID
5
9
100
AcDbSymbolTable
70
2
0
APPID
5
12
100
AcDbSymbolTableRecord
100
AcDbRegAppTableRecord
2
ACAD
70
0
0
ENDTAB
0
TABLE
2
DIMSTYLE
5
A
100
AcDbSymbolTable
70
1
0
ENDTAB
0
TABLE
2
BLOCK_RECORD
5
1
100
AcDbSymbolTable
70
1
0
BLOCK_RECORD
5
1F
100
AcDbSymbolTableRecord
100
AcDbBlockTableRecord
2
*MODEL_SPACE
0
BLOCK_RECORD
5
1B
100
AcDbSymbolTableRecord
100
AcDbBlockTableRecord
2
*PAPER_SPACE
0
ENDTAB
0
ENDSEC
0
SECTION
2
BLOCKS
0
BLOCK
5
20
100
AcDbEntity
100
AcDbBlockBegin
2
*MODEL_SPACE
0
ENDBLK
5
21
100
AcDbEntity
100
AcDbBlockEnd
0
BLOCK
5
1C
100
AcDbEntity
100
AcDbBlockBegin
2
*PAPER_SPACE
0
ENDBLK
5
1D
100
AcDbEntity
100
AcDbBlockEnd
0
ENDSEC
0
SECTION
2
ENTITIES
0
ARC
5
100
100
AcDbEntity
8
0
100
AcDbCircle
10
-23.409097697557009
20
-8.1869357625813741
30
0
40
6.5620930505096577
210
0
220
0
230
1
100
AcDbArc
50
113.45322327887307
51
226.32327125061707
0
ARC
5
101
100
AcDbEntity
8
0
100
AcDbCircle
10
23.409097697557009
20
-8.1869357625813741
30
0
40
6.5620930505096542
210
0
220
0
230
1
100
AcDbArc
50
-46.323271250617076
51
66.546776721126946
0
CIRCLE
5
102
100
AcDbEntity
8
0
100
AcDbCircle
10
15.000000223517414
20
-14.999999776482579
30
0
40
3.5000000000000004
210
0
220
0
230
1
0
CIRCLE
5
103
100
AcDbEntity
8
0
100
AcDbCircle
10
-15.000000223517414
20
-14.999999776482579
30
0
40
3.5000000000000004
210
0
220
0
230
1
0
ARC
5
104
100
AcDbEntity
8
0
100
AcDbCircle
10
-23.409097697557009
20
-51.813064237418622
30
0
40
6.5000000000000036
210
0
220
0
230
1
100
AcDbArc
50
134.176665105475
51
314.99999999999994
0
ARC
5
105
100
AcDbEntity
8
0
100
AcDbCircle
10
45.605968751574302
20
-30.043371627479534
30
0
40
24.593177578457301
210
0
220
0
230
1
100
AcDbArc
50
135.91391529801643
51
224.05842822854814
0
CIRCLE
5
106
100
AcDbEntity
8
0
100
AcDbCircle
10
-6.0000000894069672
20
-23.999999910593033
30
0
40
1.6000000000000003
210
0
220
0
230
1
0
ARC
5
107
100
AcDbEntity
8
0
100
AcDbCircle
10
-190.52908491701513
20
33.485288458946627
30
0
40
176.04027955919668
210
0
220
0
230
1
100
AcDbArc
50
-6.5810150658054383
51
4.405921150529311
0
ARC
5
108
100
AcDbEntity
8
0
100
AcDbCircle
10
192.41835732142934
20
33.520986269452919
30
0
40
177.92128654585423
210
0
220
0
230
1
100
AcDbArc
50
175.6522682852669
51
186.52270751423509
0
LWPOLYLINE
5
109
100
AcDbEntity
8
0
100
AcDbPolyline
90
4
70
1
43
0.0
10
15.000000223517418
20
-14.999999776482579
10
-15.000000223517414
20
-14.999999776482579
10
-15.000000223517414
20
-45.000000223517418
10
15.000000223517418
20
-45.000000223517418
0
CIRCLE
5
110
100
AcDbEntity
8
0
100
AcDbCircle
10
23.409097697557009
20
-8.1869357625813741
30
0
40
1.6000000000000003
210
0
220
0
230
1
0
LWPOLYLINE
5
111
100
AcDbEntity
8
0
100
AcDbPolyline
90
8
70
1
43
0.0
10
3.7573593873865323
20
40.000001043081298
42
-0.19891236737965651
10
5.8786797309461738
20
39.12132138664095
10
8.2928933678250694
20
36.707107749762024
42
-0.66817863791930354
10
7.5857865866385179
20
35.000000968575478
10
-7.5857865866385197
20
35.000000968575485
42
-0.66817863791930276
10
-8.2928933678250676
20
36.707107749762017
10
-5.8786797309461578
20
39.121321386640929
42
-0.19891236737965695
10
-3.7573593873865203
20
40.000001043081284
0
CIRCLE
5
112
100
AcDbEntity
8
0
100
AcDbCircle
10
6.0000000894069672
20
-23.999999910593033
30
0
40
1.6000000000000003
210
0
220
0
230
1
0
ARC
5
113
100
AcDbEntity
8
0
100
AcDbCircle
10
-12.012566915177111
20
45.890173873434456
30
0
40
2.9999999999998384
210
0
220
0
230
1
100
AcDbArc
50
179.23000941693411
51
180.4236730157586
0
CIRCLE
5
114
100
AcDbEntity
8
0
100
AcDbCircle
10
-23.409097697557009
20
-51.813064237418622
30
0
40
1.6000000000000003
210
0
220
0
230
1
0
CIRCLE
5
115
100
AcDbEntity
8
0
100
AcDbCircle
10
-23.409097697557009
20
-8.1869357625813741
30
0
40
1.6000000000000003
210
0
220
0
230
1
0
LINE
5
116
100
AcDbEntity
8
0
100
AcDbLine
10
-2.7750941327961577e-13
20
49.999999999997577
30
0
11
-12.009050038436788
21
49.999999999997527
31
0
0
CIRCLE
5
117
100
AcDbEntity
8
0
100
AcDbCircle
10
-6.0000000894069672
20
-36.000000089406967
30
0
40
1.6000000000000003
210
0
220
0
230
1
0
CIRCLE
5
118
100
AcDbEntity
8
0
100
AcDbCircle
10
-15.000000223517414
20
-45.000000223517418
30
0
40
3.5000000000000004
210
0
220
0
230
1
0
ARC
5
119
100
AcDbEntity
8
0
100
AcDbCircle
10
33.62933458298194
20
14.145922276173097
30
0
40
18.000000000006228
210
0
220
0
230
1
100
AcDbArc
50
182.66284563933627
51
244.99510550352173
0
CIRCLE
5
120
100
AcDbEntity
8
0
100
AcDbCircle
10
15.000000223517414
20
-45.000000223517418
30
0
40
3.5000000000000004
210
0
220
0
230
1
0
LINE
5
121
100
AcDbEntity
8
0
100
AcDbLine
10
0
20
-30
30
0
11
0
21
-26.999999955296516
31
0
0
ARC
5
122
100
AcDbEntity
8
0
100
AcDbCircle
10
-33.62933458298194
20
14.145922276172911
30
0
40
18.000000000006086
210
-0
220
0
230
1
100
AcDbArc
50
295.00489449647847
51
357.3371543606637
0
LINE
5
123
100
AcDbEntity
8
0
100
AcDbLine
10
0
20
-30
30
0
11
3.0000000447034836
21
-30
31
0
0
CIRCLE
5
124
100
AcDbEntity
8
0
100
AcDbCircle
10
-11.499999742954969
20
-6.7055225372314453e-07
30
0
40
1.6000000000000014
210
0
220
0
230
1
0
CIRCLE
5
125
100
AcDbEntity
8
0
100
AcDbCircle
10
11.500000171363354
20
46.500001065432969
30
0
40
1.6000000000000014
210
0
220
0
230
1
0
CIRCLE
5
126
100
AcDbEntity
8
0
100
AcDbCircle
10
6.0000000894069672
20
-36.000000089406967
30
0
40
1.6000000000000003
210
0
220
0
230
1
0
LINE
5
127
100
AcDbEntity
8
0
100
AcDbLine
10
5.000000074505806
20
35.000000968575478
30
0
11
-5.000000074505806
21
35.000000968575478
31
0
0
LINE
5
128
100
AcDbEntity
8
0
100
AcDbLine
10
-2.7750941327961577e-13
20
49.999999999997577
30
0
11
12.009084288026294
21
49.99999999999762
31
0
0
ARC
5
129
100
AcDbEntity
8
0
100
AcDbCircle
10
12.009084288026299
20
46.999999999997613
30
0
40
3.0000000000000071
210
0
220
-0
230
1
100
AcDbArc
50
0.17375578756050725
51
90.000000000000099
0
CIRCLE
5
130
100
AcDbEntity
8
0
100
AcDbCircle
10
-11.499999742954969
20
46.499998401850405
30
0
40
1.5999999999999972
210
0
220
0
230
1
0
ARC
5
131
100
AcDbEntity
8
0
100
AcDbCircle
10
-12.00905003843679
20
46.999999999997542
30
0
40
2.9999999999999893
210
0
220
-0
230
1
100
AcDbArc
50
89.999999999999972
51
179.82684121634966
0
LINE
5
132
100
AcDbEntity
8
0
100
AcDbLine
10
-0.26503010832073404
20
-19.313918453739316
30
0
11
-0.27241360313942087
21
-19.419507348949423
31
0
0
LINE
5
133
100
AcDbEntity
8
0
100
AcDbLine
10
-16.628938256224583
20
9.5458501568727137
30
0
11
-16.628938256224583
21
9.5458501568727137
31
0
0
CIRCLE
5
134
100
AcDbEntity
8
0
100
AcDbCircle
10
23.409097697557009
20
-51.813064237418622
30
0
40
1.6000000000000003
210
0
220
0
230
1
0
CIRCLE
5
135
100
AcDbEntity
8
0
100
AcDbCircle
10
11.500000171363354
20
4.4703483581542969e-07
30
0
40
1.6000000000000014
210
0
220
0
230
1
0
ARC
5
136
100
AcDbEntity
8
0
100
AcDbCircle
10
1.7763568394002505e-14
20
-80.815106343454062
30
0
40
30.815106045430834
210
0
220
-0
230
1
100
AcDbArc
50
52.373674423884367
51
127.62632557611566
0
LINE
5
137
100
AcDbEntity
8
0
100
AcDbLine
10
-15.009036337990423
20
47.009066558906085
30
0
11
-15.012484897847603
21
45.867990608363044
31
0
0
ARC
5
138
100
AcDbEntity
8
0
100
AcDbCircle
10
-45.60615766230903
20
-30.043176589809143
30
0
40
24.593177578457283
210
0
220
0
230
1
100
AcDbArc
50
-44.078645757760199
51
44.085452113696995
0
LINE
5
139
100
AcDbEntity
8
0
100
AcDbLine
10
-0.27241360313942087
20
-19.419507348949423
30
0
11
-0.26503010832073404
21
-19.313918453739316
31
0
0
ARC
5
140
100
AcDbEntity
8
0
100
AcDbCircle
10
23.409097697557009
20
-51.813064237418622
30
0
40
6.4999999999999911
210
0
220
0
230
1
100
AcDbArc
50
-134.99999999999986
51
45.899789597912843
0
ENDSEC
0
SECTION
2
OBJECTS
0
DICTIONARY
5
C
100
AcDbDictionary
3
ACAD_GROUP
350
D
3
ACAD_MLINESTYLE
350
17
0
DICTIONARY
5
D
100
AcDbDictionary
0
DICTIONARY
5
1A
330
C
100
AcDbDictionary
0
DICTIONARY
5
17
100
AcDbDictionary
0
ENDSEC
0
EOF
