0
SECTION
2
HEADER
9
$INSUNITS
70
4
9
$ACADVER
1
AC1014
9
$HANDSEED
5
FFFF
0
ENDSEC
0
SECTION
2
TABLES
0
TABLE
2
VPORT
5
8
100
AcDbSymbolTable
0
ENDTAB
0
TABLE
2
LTYPE
5
5
100
AcDbSymbolTable
0
LTYPE
5
14
100
AcDbSymbolTableRecord
100
AcDbLinetypeTableRecord
2
BYBLOCK
70
0
0
LTYPE
5
15
100
AcDbSymbolTableRecord
100
AcDbLinetypeTableRecord
2
BYLAYER
70
0
0
ENDTAB
0
TABLE
2
LAYER
5
2
100
AcDbSymbolTable
70
2
0
LAYER
5
50
100
AcDbSymbolTableRecord
100
AcDbLayerTableRecord
2
0
70
0
6
CONTINUOUS
0
ENDTAB
0
TABLE
2
STYLE
5
3
100
AcDbSymbolTable
70
1
0
STYLE
5
11
100
AcDbSymbolTableRecord
100
AcDbTextStyleTableRecord
2
STANDARD
70
0
0
ENDTAB
0
TABLE
2
VIEW
5
6
100
AcDbSymbolTable
70
0
0
ENDTAB
0
TABLE
2
UCS
5
7
100
AcDbSymbolTable
70
0
0
ENDTAB
0
TABLE
2
APPID
5
9
100
AcDbSymbolTable
70
2
0
APPID
5
12
100
AcDbSymbolTableRecord
100
AcDbRegAppTableRecord
2
ACAD
70
0
0
ENDTAB
0
TABLE
2
DIMSTYLE
5
A
100
AcDbSymbolTable
70
1
0
ENDTAB
0
TABLE
2
BLOCK_RECORD
5
1
100
AcDbSymbolTable
70
1
0
BLOCK_RECORD
5
1F
100
AcDbSymbolTableRecord
100
AcDbBlockTableRecord
2
*MODEL_SPACE
0
BLOCK_RECORD
5
1B
100
AcDbSymbolTableRecord
100
AcDbBlockTableRecord
2
*PAPER_SPACE
0
ENDTAB
0
ENDSEC
0
SECTION
2
BLOCKS
0
BLOCK
5
20
100
AcDbEntity
100
AcDbBlockBegin
2
*MODEL_SPACE
0
ENDBLK
5
21
100
AcDbEntity
100
AcDbBlockEnd
0
BLOCK
5
1C
100
AcDbEntity
100
AcDbBlockBegin
2
*PAPER_SPACE
0
ENDBLK
5
1D
100
AcDbEntity
100
AcDbBlockEnd
0
ENDSEC
0
SECTION
2
ENTITIES
0
LINE
5
100
100
AcDbEntity
8
0
100
AcDbLine
10
-4.2813539482395946
20
65.000000968575478
30
0
11
4.2813539482395946
21
65.000000968575478
31
0
0
LWPOLYLINE
5
101
100
AcDbEntity
8
0
100
AcDbPolyline
90
4
70
1
43
0.0
10
10.000000149011612
20
49.50000074505806
42
-0.99999999999999989
10
10.000000149011612
20
46.500000745058053
10
-10.000000149011612
20
46.500000745058053
42
-0.99999999999999989
10
-10.000000149011612
20
49.50000074505806
0
LWPOLYLINE
5
102
100
AcDbEntity
8
0
100
AcDbPolyline
90
4
70
1
43
0.0
10
10.000000149011612
20
14.000000149011612
42
-0.99999999999999989
10
10.000000149011612
20
11.000000149011612
10
-10.000000149011612
20
11.000000149011612
42
-0.99999999999999989
10
-10.000000149011612
20
14.000000149011612
0
CIRCLE
5
103
100
AcDbEntity
8
0
100
AcDbCircle
10
11.499999679625059
20
-30.000001713633534
30
0
40
1.599999999999999
210
0
220
0
230
1
0
LINE
5
104
100
AcDbEntity
8
0
100
AcDbLine
10
0.27241360313942309
20
-60.380492651050588
30
0
11
0.2650301083207296
21
-60.486081546260678
31
0
0
ARC
5
105
100
AcDbEntity
8
0
100
AcDbCircle
10
11.037742081674295
20
-68.999999500811114
30
0
40
2.9999999999999964
210
0
220
0
230
1
100
AcDbArc
50
212.0053832080834
51
270
0
LWPOLYLINE
5
106
100
AcDbEntity
8
0
100
AcDbPolyline
90
4
70
1
43
0.0
10
10.000000149011612
20
-11.000000149011612
42
-0.99999999999999989
10
10.000000149011612
20
-14.000000149011612
10
-10.000000149011612
20
-14.000000149011612
42
-0.99999999999999989
10
-10.000000149011612
20
-11.000000149011612
0
LINE
5
107
100
AcDbEntity
8
0
100
AcDbLine
10
-3.3372571499845805
20
-65.000000968575478
30
0
11
3.3372571499845805
21
-65.000000968575478
31
0
0
LINE
5
108
100
AcDbEntity
8
0
100
AcDbLine
10
11.037742081674295
20
-71.9999995008111
30
0
11
12.000000171363352
21
-71.9999995008111
31
0
0
ARC
5
109
100
AcDbEntity
8
0
100
AcDbCircle
10
-11.387231123671047
20
27.789306524608143
30
0
40
29.999999999999059
210
-0
220
0
230
1
100
AcDbArc
50
-10.741181259246256
51
12.923595959205006
0
ARC
5
110
100
AcDbEntity
8
0
100
AcDbCircle
10
11.499999828636653
20
76.500000447034836
30
0
40
3.7071071657766113
210
0
220
-0
230
1
100
AcDbArc
50
44.999974813691722
51
171.34645621501139
0
LINE
5
111
100
AcDbEntity
8
0
100
AcDbLine
10
5.8812520619998399
20
-66.410004148565932
30
0
11
8.4937471696590361
21
-70.589996320820646
31
0
0
LINE
5
112
100
AcDbEntity
8
0
100
AcDbLine
10
6.2585863607294456
20
66.699082396533839
30
0
11
7.835093606263257
21
77.05776914440024
31
0
0
LINE
5
113
100
AcDbEntity
8
0
100
AcDbLine
10
-6.2585863607294456
20
66.699082396533839
30
0
11
-7.835093606263257
21
77.05776914440024
31
0
0
LINE
5
114
100
AcDbEntity
8
0
100
AcDbLine
10
-8.493747169659045
20
-70.589996320820646
30
0
11
-5.8812520619998487
21
-66.410004148565932
31
0
0
ARC
5
115
100
AcDbEntity
8
0
100
AcDbCircle
10
11.680736589523351
20
-26.201087005291246
30
0
40
30.000000000000352
210
0
220
0
230
1
100
AcDbArc
50
169.88176136817469
51
197.17466141812707
0
CIRCLE
5
116
100
AcDbEntity
8
0
100
AcDbCircle
10
11.500000171363354
20
30.000000447034836
30
0
40
1.6000000000000014
210
0
220
0
230
1
0
ARC
5
117
100
AcDbEntity
8
0
100
AcDbCircle
10
11.387231123672272
20
27.789306524608225
30
0
40
30.000000000000302
210
0
220
0
230
1
100
AcDbArc
50
167.07640404079541
51
190.74118125924565
0
LINE
5
118
100
AcDbEntity
8
0
100
AcDbLine
10
0.2650301083207296
20
-60.486081546260678
30
0
11
0.27241360313942309
21
-60.380492651050588
31
0
0
ARC
5
119
100
AcDbEntity
8
0
100
AcDbCircle
10
-11.499999828636653
20
76.500000447034836
30
0
40
3.7071071657765615
210
0
220
-0
230
1
100
AcDbArc
50
8.6535437849886101
51
135.00002518630828
0
CIRCLE
5
120
100
AcDbEntity
8
0
100
AcDbCircle
10
11.500000171363354
20
76.500000447034836
30
0
40
1.599999999999997
210
0
220
0
230
1
0
ARC
5
121
100
AcDbEntity
8
0
100
AcDbCircle
10
-11.680736589523342
20
-26.20108700529121
30
0
40
30.000000000000302
210
0
220
0
230
1
100
AcDbArc
50
-17.174661418126998
51
10.11823863182547
0
ARC
5
122
100
AcDbEntity
8
0
100
AcDbCircle
10
12.000000171363387
20
77.000000499188928
30
0
40
2.9999999999999716
210
-0
220
0
230
1
100
AcDbArc
50
0
51
44.999972801329015
0
CIRCLE
5
123
100
AcDbEntity
8
0
100
AcDbCircle
10
-11.500000320374966
20
-30.000001139938828
30
0
40
1.6000000000000014
210
0
220
0
230
1
0
ARC
5
124
100
AcDbEntity
8
0
100
AcDbCircle
10
-12.000000320374991
20
-68.999999500811128
30
0
40
2.9999999999999716
210
0
220
0
230
1
100
AcDbArc
50
180
51
270.00000000000034
0
CIRCLE
5
125
100
AcDbEntity
8
0
100
AcDbCircle
10
-11.499999828636653
20
76.500000447034836
30
0
40
1.6000000000000005
210
0
220
0
230
1
0
LINE
5
126
100
AcDbEntity
8
0
100
AcDbLine
10
-12.000000320374973
20
-71.9999995008111
30
0
11
-11.037742081674295
21
-71.9999995008111
31
0
0
CIRCLE
5
127
100
AcDbEntity
8
0
100
AcDbCircle
10
11.499999679625041
20
-68.500001713633537
30
0
40
1.6000000000000014
210
0
220
0
230
1
0
ARC
5
128
100
AcDbEntity
8
0
100
AcDbCircle
10
12.000000171363379
20
-68.999999500811128
30
0
40
2.9999999999999716
210
0
220
0
230
1
100
AcDbArc
50
-90.000000000000512
51
0
0
ARC
5
129
100
AcDbEntity
8
0
100
AcDbCircle
10
-11.037742081674295
20
-68.999999500811114
30
0
40
2.9999999999999805
210
0
220
0
230
1
100
AcDbArc
50
270
51
327.99461679191648
0
ARC
5
130
100
AcDbEntity
8
0
100
AcDbCircle
10
-149.34418775522826
20
64.671388008007398
30
0
40
134.9086927647314
210
0
220
0
230
1
100
AcDbArc
50
-12.923595959204711
51
5.2432822842233753
0
ARC
5
131
100
AcDbEntity
8
0
100
AcDbCircle
10
149.34418775522826
20
64.671388008007398
30
0
40
134.90869276473146
210
0
220
0
230
1
100
AcDbArc
50
174.7567177157766
51
192.92359595920473
0
ARC
5
132
100
AcDbEntity
8
0
100
AcDbCircle
10
-135.12293075026042
20
-0.0031544058290933208
30
0
40
119.12293055360652
210
0
220
0
230
1
100
AcDbArc
50
-10.118238631825621
51
10.741181259245828
0
LINE
5
133
100
AcDbEntity
8
0
100
AcDbLine
10
0.2650301083207296
20
-13.186081546260681
30
0
11
0.27241360313942309
21
-13.08049265105058
31
0
0
ARC
5
134
100
AcDbEntity
8
0
100
AcDbCircle
10
135.12293075026042
20
-0.0031544058290933208
30
0
40
119.12293055360657
210
0
220
0
230
1
100
AcDbArc
50
169.25881874075426
51
190.11823863182553
0
ARC
5
135
100
AcDbEntity
8
0
100
AcDbCircle
10
84.907674209476127
20
-56.0533925806482
30
0
40
71.096395825176216
210
0
220
0
230
1
100
AcDbArc
50
162.82533858187287
51
190.49206449765023
0
ARC
5
136
100
AcDbEntity
8
0
100
AcDbCircle
10
-84.907674209476127
20
-56.0533925806482
30
0
40
71.096395825176174
210
0
220
0
230
1
100
AcDbArc
50
-10.492064497650224
51
17.174661418127101
0
ARC
5
137
100
AcDbEntity
8
0
100
AcDbCircle
10
3.3372571499845805
20
-68.000000968575478
30
0
40
2.9999999999999964
210
0
220
-0
230
1
100
AcDbArc
50
32.005383208083636
51
90
0
ARC
5
138
100
AcDbEntity
8
0
100
AcDbCircle
10
-3.3372571499845805
20
-68.000000968575478
30
0
40
2.9999999999999982
210
0
220
-0
230
1
100
AcDbArc
50
90
51
147.99461679191648
0
ARC
5
139
100
AcDbEntity
8
0
100
AcDbCircle
10
-4.2813539482395946
20
67.000000968575478
30
0
40
2.0000000000000027
210
0
220
0
230
1
100
AcDbArc
50
188.65354378498859
51
270
0
ARC
5
140
100
AcDbEntity
8
0
100
AcDbCircle
10
-12.000000320374991
20
77.000000499188928
30
0
40
2.9999999999999698
210
0
220
0
230
1
100
AcDbArc
50
135.00002518630828
51
180
0
CIRCLE
5
141
100
AcDbEntity
8
0
100
AcDbCircle
10
-11.499999828636653
20
30.000000447034836
30
0
40
1.600000000000001
210
0
220
0
230
1
0
LINE
5
142
100
AcDbEntity
8
0
100
AcDbLine
10
0.27241360313942309
20
-13.08049265105058
30
0
11
0.2650301083207296
21
-13.186081546260681
31
0
0
CIRCLE
5
143
100
AcDbEntity
8
0
100
AcDbCircle
10
-11.500000320374966
20
-68.500001713633537
30
0
40
1.6000000000000014
210
0
220
0
230
1
0
ARC
5
144
100
AcDbEntity
8
0
100
AcDbCircle
10
4.2813539482395857
20
67.000000968575478
30
0
40
2.0000000000000018
210
-0
220
0
230
1
100
AcDbArc
50
270.00000000000023
51
351.34645621501141
0
LINE
5
145
100
AcDbEntity
8
0
100
AcDbLine
10
17.363868879752751
20
21.209878968744547
30
0
11
17.308005519157703
21
21.209878968744547
31
0
0
ENDSEC
0
SECTION
2
OBJECTS
0
DICTIONARY
5
C
100
AcDbDictionary
3
ACAD_GROUP
350
D
3
ACAD_MLINESTYLE
350
17
0
DICTIONARY
5
D
100
AcDbDictionary
0
DICTIONARY
5
1A
330
C
100
AcDbDictionary
0
DICTIONARY
5
17
100
AcDbDictionary
0
ENDSEC
0
EOF
