0
SECTION
2
HEADER
9
$INSUNITS
70
4
9
$ACADVER
1
AC1014
9
$HANDSEED
5
FFFF
0
ENDSEC
0
SECTION
2
TABLES
0
TABLE
2
VPORT
5
8
100
AcDbSymbolTable
0
ENDTAB
0
TABLE
2
LTYPE
5
5
100
AcDbSymbolTable
0
LTYPE
5
14
100
AcDbSymbolTableRecord
100
AcDbLinetypeTableRecord
2
BYBLOCK
70
0
0
LTYPE
5
15
100
AcDbSymbolTableRecord
100
AcDbLinetypeTableRecord
2
BYLAYER
70
0
0
ENDTAB
0
TABLE
2
LAYER
5
2
100
AcDbSymbolTable
70
2
0
LAYER
5
50
100
AcDbSymbolTableRecord
100
AcDbLayerTableRecord
2
0
70
0
6
CONTINUOUS
0
ENDTAB
0
TABLE
2
STYLE
5
3
100
AcDbSymbolTable
70
1
0
STYLE
5
11
100
AcDbSymbolTableRecord
100
AcDbTextStyleTableRecord
2
STANDARD
70
0
0
ENDTAB
0
TABLE
2
VIEW
5
6
100
AcDbSymbolTable
70
0
0
ENDTAB
0
TABLE
2
UCS
5
7
100
AcDbSymbolTable
70
0
0
ENDTAB
0
TABLE
2
APPID
5
9
100
AcDbSymbolTable
70
2
0
APPID
5
12
100
AcDbSymbolTableRecord
100
AcDbRegAppTableRecord
2
ACAD
70
0
0
ENDTAB
0
TABLE
2
DIMSTYLE
5
A
100
AcDbSymbolTable
70
1
0
ENDTAB
0
TABLE
2
BLOCK_RECORD
5
1
100
AcDbSymbolTable
70
1
0
BLOCK_RECORD
5
1F
100
AcDbSymbolTableRecord
100
AcDbBlockTableRecord
2
*MODEL_SPACE
0
BLOCK_RECORD
5
1B
100
AcDbSymbolTableRecord
100
AcDbBlockTableRecord
2
*PAPER_SPACE
0
ENDTAB
0
ENDSEC
0
SECTION
2
BLOCKS
0
BLOCK
5
20
100
AcDbEntity
100
AcDbBlockBegin
2
*MODEL_SPACE
0
ENDBLK
5
21
100
AcDbEntity
100
AcDbBlockEnd
0
BLOCK
5
1C
100
AcDbEntity
100
AcDbBlockBegin
2
*PAPER_SPACE
0
ENDBLK
5
1D
100
AcDbEntity
100
AcDbBlockEnd
0
ENDSEC
0
SECTION
2
ENTITIES
0
ARC
5
100
100
AcDbEntity
8
0
100
AcDbCircle
10
-319.94895263883421
20
-7.2856086539598586
30
0
40
247.22044694040304
210
-0
220
0
230
1
100
AcDbArc
50
-9.2013113350901694
51
8.6952933068556089
0
LINE
5
101
100
AcDbEntity
8
0
100
AcDbLine
10
-73.923261104780778
20
-72.446662907381537
30
0
11
-74.341137432208654
21
-72.446662907381551
31
0
0
ARC
5
102
100
AcDbEntity
8
0
100
AcDbCircle
10
182.10243057828421
20
-7.2856086539598941
30
0
40
247.22044694040295
210
0
220
0
230
1
100
AcDbArc
50
171.3047066931444
51
189.20131133509011
0
LINE
5
103
100
AcDbEntity
8
0
100
AcDbLine
10
-55.254663654176369
20
-39.993842299424038
30
0
11
-55.254663654176369
21
-39.993842299424038
31
0
0
CIRCLE
5
104
100
AcDbEntity
8
0
100
AcDbCircle
10
-68.923260943253766
20
44.637337092489631
30
0
40
3.4999999999999964
210
0
220
-0
230
1
0
LINE
5
105
100
AcDbEntity
8
0
100
AcDbLine
10
-77.429103231939507
20
-63.941024457414869
30
0
11
-68.923261030275
21
-72.446866659079362
31
0
0
LINE
5
106
100
AcDbEntity
8
0
100
AcDbLine
10
-47.599121680056356
20
30.101210185833125
30
0
11
-47.599121680056356
21
30.101210185833125
31
0
0
ARC
5
107
100
AcDbEntity
8
0
100
AcDbCircle
10
-63.26496711700473
20
50.292751398783331
30
0
40
1.5499999999999583
210
0
220
0
230
1
100
AcDbArc
50
134.98541730659903
51
314.98541730660287
0
LINE
5
108
100
AcDbEntity
8
0
100
AcDbLine
10
-55.247400206451189
20
-39.182536000853801
30
0
11
-55.247400206451189
21
-39.182536000853801
31
0
0
LINE
5
109
100
AcDbEntity
8
0
100
AcDbLine
10
-57.247400380493602
20
-38.782536000596224
30
0
11
-57.247400380493602
21
-38.782536000596224
31
0
0
LWPOLYLINE
5
110
100
AcDbEntity
8
0
100
AcDbPolyline
90
4
70
1
43
0.0
10
-75.677291291347217
20
40.078217215031664
42
-0.99999999999999989
10
-73.485818247658415
20
37.885628357360197
10
-75.607678432501814
20
35.764847992500002
42
-0.99999999999999989
10
-77.799151476190588
20
37.95743685017154
0
LINE
5
111
100
AcDbEntity
8
0
100
AcDbLine
10
-47.591858232331177
20
30.912516484403305
30
0
11
-47.591858232331177
21
30.912516484403305
31
0
0
LINE
5
112
100
AcDbEntity
8
0
100
AcDbLine
10
-58.375165813031856
20
-61.898771441836224
30
0
11
-60.538149848709502
21
-64.06175547751387
31
0
0
ARC
5
113
100
AcDbEntity
8
0
100
AcDbCircle
10
-61.143106932161331
20
52.413531763643455
30
0
40
1.5499999999999834
210
-0
220
0
230
1
100
AcDbArc
50
-45.014582693398381
51
134.98541730660068
0
LWPOLYLINE
5
114
100
AcDbEntity
8
0
100
AcDbPolyline
90
4
70
1
43
0.0
10
-62.171552208124297
20
40.074779788085024
10
-60.050771843264187
20
37.952919603241639
42
-0.99999999999999989
10
-62.243360700935625
20
35.761446559552823
10
-64.364141065795835
20
37.883306744396137
42
-0.99999999999999989
0
LINE
5
115
100
AcDbEntity
8
0
100
AcDbLine
10
-60.185809005645226
20
31.950454592099256
30
0
11
-59.270559154891451
21
32.129757476205825
31
0
0
LINE
5
116
100
AcDbEntity
8
0
100
AcDbLine
10
-77.660712881515295
20
31.950454592548994
30
0
11
-78.588805848359328
21
32.132273519459993
31
0
0
LINE
5
117
100
AcDbEntity
8
0
100
AcDbLine
10
-49.591858406373568
20
31.312516484660939
30
0
11
-49.591858406373568
21
31.312516484660939
31
0
0
ARC
5
118
100
AcDbEntity
8
0
100
AcDbCircle
10
-0.3310384784054321
20
-39.91913602417695
30
0
40
61.990871031582998
210
0
220
0
230
1
100
AcDbArc
50
186.38874686695095
51
197.91527818466511
0
LINE
5
119
100
AcDbEntity
8
0
100
AcDbLine
10
-60.923260924158726
20
-41.162662938991978
30
0
11
-60.923260924158726
21
-41.162662938991978
31
0
0
ARC
5
120
100
AcDbEntity
8
0
100
AcDbCircle
10
-78.189404378204301
20
29.251753923462331
30
0
40
2.7500000000000324
210
0
220
-0
230
1
100
AcDbArc
50
17.727102338781673
51
78.915794314403399
0
LINE
5
121
100
AcDbEntity
8
0
100
AcDbLine
10
-62.169230595160272
20
49.196456969947597
30
0
11
-60.047370410316923
21
51.317237334807722
31
0
0
ARC
5
122
100
AcDbEntity
8
0
100
AcDbCircle
10
-50.06327343117178
20
63.511447117718127
30
0
40
1.0000000000000075
210
-0
220
0
230
1
100
AcDbArc
50
-32.955755744712448
51
89.999999999997954
0
LINE
5
123
100
AcDbEntity
8
0
100
AcDbLine
10
-59.254663654176376
20
-39.637842299424037
30
0
11
-59.254663654176376
21
-39.637842299424037
31
0
0
LINE
5
124
100
AcDbEntity
8
0
100
AcDbLine
10
-59.316121694717303
20
-58.988169801983318
30
0
11
-58.375165813031856
21
-61.898771441836224
31
0
0
CIRCLE
5
125
100
AcDbEntity
8
0
100
AcDbCircle
10
-68.923261030275
20
-51.233662907381579
30
0
40
3.0000000000000004
210
0
220
-0
230
1
0
CIRCLE
5
126
100
AcDbEntity
8
0
100
AcDbCircle
10
-68.923261030274986
20
-61.840662907381549
30
0
40
1.6000000000000003
210
0
220
-0
230
1
0
CIRCLE
5
127
100
AcDbEntity
8
0
100
AcDbCircle
10
-68.923260943253766
20
44.637337092489631
30
0
40
3.4999999999999964
210
0
220
-0
230
1
0
LINE
5
128
100
AcDbEntity
8
0
100
AcDbLine
10
-68.923261030275
20
-72.446866659079362
30
0
11
-60.538149848709502
21
-64.06175547751387
31
0
0
LINE
5
129
100
AcDbEntity
8
0
100
AcDbLine
10
-59.247400206451189
20
-38.8265360008538
30
0
11
-59.247400206451189
21
-38.8265360008538
31
0
0
ARC
5
130
100
AcDbEntity
8
0
100
AcDbCircle
10
-60.1356906947006
20
36.545813116573882
30
0
40
4.4999999999998987
210
-0
220
0
230
1
100
AcDbArc
50
-78.915794317353587
51
44.915822438005328
0
CIRCLE
5
131
100
AcDbEntity
8
0
100
AcDbCircle
10
-68.923260943253766
20
44.637337092489631
30
0
40
3.4999999999999964
210
0
220
-0
230
1
0
LINE
5
132
100
AcDbEntity
8
0
100
AcDbLine
10
-57.254663828218796
20
-39.59384229916644
30
0
11
-57.254663828218796
21
-39.59384229916644
31
0
0
LINE
5
133
100
AcDbEntity
8
0
100
AcDbLine
10
-76.923261136391233
20
-41.162662938992
30
0
11
-76.923261136391233
21
-41.162662938992
31
0
0
LWPOLYLINE
5
134
100
AcDbEntity
8
0
100
AcDbPolyline
90
4
70
1
43
0.0
10
-77.795750043243345
20
51.321754581737729
42
-0.99999999999999989
10
-75.603161185571878
20
53.513227625426474
10
-73.482380820711683
20
51.39136744058316
42
-0.99999999999999989
10
-75.674969678383178
20
49.199894396894273
0
ARC
5
135
100
AcDbEntity
8
0
100
AcDbCircle
10
-87.783248455335766
20
63.511447117718127
30
0
40
0.99999999999994316
210
0
220
-0
230
1
100
AcDbArc
50
90
51
212.9557557447155
0
ARC
5
136
100
AcDbEntity
8
0
100
AcDbCircle
10
-85.783261159786463
20
59.511447117717999
30
0
40
5.0000000000000711
210
0
220
-0
230
1
100
AcDbArc
50
58.375652415424597
51
89.999999999999673
0
ARC
5
137
100
AcDbEntity
8
0
100
AcDbCircle
10
-52.063260726721019
20
59.511447117718035
30
0
40
5.0000000000000711
210
0
220
-0
230
1
100
AcDbArc
50
90
51
121.62434758457653
0
LINE
5
138
100
AcDbEntity
8
0
100
AcDbLine
10
-78.705344134080249
20
-59.046511818613396
30
0
11
-79.502192413182172
21
-61.86793527617219
31
0
0
ARC
5
139
100
AcDbEntity
8
0
100
AcDbCircle
10
-198.25993444921761
20
-25.2809778658402
30
0
40
124.23128168273969
210
-0
220
0
230
1
100
AcDbArc
50
344.22884778284026
51
350.01705606206536
0
LINE
5
140
100
AcDbEntity
8
0
100
AcDbLine
10
-57.977059420909534
20
40.754161137725298
30
0
11
-56.949038726983652
21
39.723115311305328
31
0
0
LINE
5
141
100
AcDbEntity
8
0
100
AcDbLine
10
-72.06934772039466
20
56.938517577007062
30
0
11
-83.161522178835682
21
63.768968076652186
31
0
0
ARC
5
142
100
AcDbEntity
8
0
100
AcDbCircle
10
-77.72367430832287
20
36.548329159783606
30
0
40
4.5000000000000115
210
0
220
0
230
1
100
AcDbArc
50
134.98541730660151
51
258.91579431440459
0
LINE
5
143
100
AcDbEntity
8
0
100
AcDbLine
10
-49.224182538738148
20
62.967455873087346
30
0
11
-58.762735485221839
21
48.254511531818594
31
0
0
LINE
5
144
100
AcDbEntity
8
0
100
AcDbLine
10
-77.660712881515337
20
31.950454592549029
30
0
11
-77.740728828964492
21
31.969927855859872
31
0
0
ARC
5
145
100
AcDbEntity
8
0
100
AcDbCircle
10
-53.728190130620206
20
44.990564064033798
30
0
40
5.9999999999999689
210
0
220
0
230
1
100
AcDbArc
50
147.04424425528589
51
224.91582243800423
0
CIRCLE
5
146
100
AcDbEntity
8
0
100
AcDbCircle
10
-68.923260943253766
20
44.637337092489631
30
0
40
3.4999999999999947
210
0
220
-0
230
1
0
LINE
5
147
100
AcDbEntity
8
0
100
AcDbLine
10
-49.599121854098769
20
30.501210186090688
30
0
11
-49.599121854098769
21
30.501210186090688
31
0
0
LINE
5
148
100
AcDbEntity
8
0
100
AcDbLine
10
-88.622339347769355
20
62.96745587308731
30
0
11
-79.088438862988454
21
48.261687820556141
31
0
0
LINE
5
149
100
AcDbEntity
8
0
100
AcDbLine
10
-65.7771741661129
20
56.938517577007026
30
0
11
-54.684999707671871
21
63.768968076652151
31
0
0
LINE
5
150
100
AcDbEntity
8
0
100
AcDbLine
10
-79.881423487869824
20
40.754019983084646
30
0
11
-80.904844855613121
21
39.731119437048683
31
0
0
LINE
5
151
100
AcDbEntity
8
0
100
AcDbLine
10
-52.063260726721019
20
64.511447117718106
30
0
11
-50.063273431171744
21
64.511447117718149
31
0
0
ARC
5
152
100
AcDbEntity
8
0
100
AcDbCircle
10
-68.923260943253766
20
62.047542727727887
30
0
40
5.9999999999998916
210
0
220
0
230
1
100
AcDbArc
50
238.37565241542396
51
301.62434758457567
0
ARC
5
153
100
AcDbEntity
8
0
100
AcDbCircle
10
-84.122984217590187
20
44.997740352771345
30
0
40
5.9999999999999734
210
-0
220
0
230
1
100
AcDbArc
50
-45.01458269339782
51
32.955755744713606
0
LINE
5
154
100
AcDbEntity
8
0
100
AcDbLine
10
-85.783261159786434
20
64.511447117718063
30
0
11
-87.783248455335766
21
64.511447117718063
31
0
0
LINE
5
155
100
AcDbEntity
8
0
100
AcDbLine
10
-62.238843454005739
20
53.509826192479224
30
0
11
-64.360703638849074
21
51.3890458276191
31
0
0
ARC
5
156
100
AcDbEntity
8
0
100
AcDbCircle
10
-59.65711750909513
20
29.25175392298538
30
0
40
2.7500000000000115
210
0
220
0
230
1
100
AcDbArc
50
101.08420568264739
51
162.27289765826913
0
LINE
5
157
100
AcDbEntity
8
0
100
AcDbLine
10
-79.502192413182172
20
-61.86793527617219
30
0
11
-77.429103231939507
21
-63.941024457414869
31
0
0
CIRCLE
5
158
100
AcDbEntity
8
0
100
AcDbCircle
10
-68.923261030274972
20
-41.233662907381579
30
0
40
1.6000000000000003
210
0
220
-0
230
1
0
ARC
5
159
100
AcDbEntity
8
0
100
AcDbCircle
10
227.10243057828421
20
-7.2856086539598941
30
0
40
247.22044694040295
210
0
220
0
230
1
100
AcDbArc
50
171.3047066931444
51
189.20131133509011
0
ARC
5
160
100
AcDbEntity
8
0
100
AcDbCircle
10
-42.783248455335766
20
63.511447117718127
30
0
40
0.99999999999994316
210
0
220
-0
230
1
100
AcDbArc
50
90
51
212.95575574471567
0
ARC
5
161
100
AcDbEntity
8
0
100
AcDbCircle
10
-274.94895263883421
20
-7.2856086539598586
30
0
40
247.22044694040304
210
-0
220
0
230
1
100
AcDbArc
50
-9.2013113350901694
51
8.6952933068556089
0
LINE
5
162
100
AcDbEntity
8
0
100
AcDbLine
10
-13.375165813031842
20
-61.898771441836224
30
0
11
-15.538149848709502
21
-64.06175547751387
31
0
0
LINE
5
163
100
AcDbEntity
8
0
100
AcDbLine
10
-20.777174166112893
20
56.938517577007026
30
0
11
-9.6849997076718708
21
63.768968076652151
31
0
0
LINE
5
164
100
AcDbEntity
8
0
100
AcDbLine
10
-43.622339347769348
20
62.96745587308731
30
0
11
-34.088438862988468
21
48.261687820556141
31
0
0
ARC
5
165
100
AcDbEntity
8
0
100
AcDbCircle
10
-23.923260943253766
20
62.047542727727887
30
0
40
5.9999999999999005
210
0
220
0
230
1
100
AcDbArc
50
238.37565241542384
51
301.62434758457567
0
LWPOLYLINE
5
166
100
AcDbEntity
8
0
100
AcDbPolyline
90
4
70
1
43
0.0
10
-32.795750043243359
20
51.321754581737729
42
-0.99999999999999989
10
-30.603161185571892
20
53.513227625426474
10
-28.482380820711697
20
51.39136744058316
42
-0.99999999999999989
10
-30.674969678383164
20
49.199894396894273
0
CIRCLE
5
167
100
AcDbEntity
8
0
100
AcDbCircle
10
-23.923260943253766
20
44.637337092489631
30
0
40
3.4999999999999947
210
0
220
-0
230
1
0
LINE
5
168
100
AcDbEntity
8
0
100
AcDbLine
10
-34.881423487869831
20
40.754019983084646
30
0
11
-35.904844855613121
21
39.731119437048683
31
0
0
CIRCLE
5
169
100
AcDbEntity
8
0
100
AcDbCircle
10
-23.923260943253766
20
44.637337092489631
30
0
40
3.4999999999999964
210
0
220
-0
230
1
0
LINE
5
170
100
AcDbEntity
8
0
100
AcDbLine
10
-12.977059420909534
20
40.754161137725298
30
0
11
-11.949038726983652
21
39.723115311305328
31
0
0
LINE
5
171
100
AcDbEntity
8
0
100
AcDbLine
10
-14.247400206451175
20
-38.8265360008538
30
0
11
-14.247400206451175
21
-38.8265360008538
31
0
0
LWPOLYLINE
5
172
100
AcDbEntity
8
0
100
AcDbPolyline
90
4
70
1
43
0.0
10
-17.169230595160343
20
49.196456969947562
42
-0.99999999999999989
10
-19.360703638849088
20
51.3890458276191
10
-17.238843454005739
20
53.509826192479188
42
-0.99999999999999989
10
-15.047370410316923
20
51.317237334807722
0
LWPOLYLINE
5
173
100
AcDbEntity
8
0
100
AcDbPolyline
90
4
70
1
43
0.0
10
-17.171552208124297
20
40.074779788085024
10
-15.050771843264172
20
37.952919603241639
42
-0.99999999999999989
10
-17.243360700935639
20
35.761446559552823
10
-19.364141065795835
20
37.883306744396137
42
-0.99999999999999989
0
CIRCLE
5
174
100
AcDbEntity
8
0
100
AcDbCircle
10
-23.923261030275
20
-51.233662907381579
30
0
40
3.0000000000000004
210
0
220
-0
230
1
0
ARC
5
175
100
AcDbEntity
8
0
100
AcDbCircle
10
-8.7281901306202059
20
44.990564064033798
30
0
40
5.999999999999984
210
0
220
0
230
1
100
AcDbArc
50
147.04424425528595
51
224.91582243800423
0
ARC
5
176
100
AcDbEntity
8
0
100
AcDbCircle
10
44.668961521594568
20
-39.91913602417695
30
0
40
61.990871031582998
210
0
220
0
230
1
100
AcDbArc
50
186.38874686695095
51
197.91527818466511
0
LINE
5
177
100
AcDbEntity
8
0
100
AcDbLine
10
-28.923261104780771
20
-72.446662907381537
30
0
11
-29.341137432208662
21
-72.446662907381551
31
0
0
LINE
5
178
100
AcDbEntity
8
0
100
AcDbLine
10
-23.923261030275
20
-72.446866659079362
30
0
11
-15.538149848709502
21
-64.06175547751387
31
0
0
LINE
5
179
100
AcDbEntity
8
0
100
AcDbLine
10
-12.247400380493616
20
-38.782536000596224
30
0
11
-12.247400380493616
21
-38.782536000596224
31
0
0
LINE
5
180
100
AcDbEntity
8
0
100
AcDbLine
10
-33.705344134080235
20
-59.046511818613396
30
0
11
-34.502192413182158
21
-61.86793527617219
31
0
0
LINE
5
181
100
AcDbEntity
8
0
100
AcDbLine
10
-4.5918584063735679
20
31.312516484660939
30
0
11
-4.5918584063735679
21
31.312516484660939
31
0
0
LINE
5
182
100
AcDbEntity
8
0
100
AcDbLine
10
-12.254663828218781
20
-39.59384229916644
30
0
11
-12.254663828218781
21
-39.59384229916644
31
0
0
LINE
5
183
100
AcDbEntity
8
0
100
AcDbLine
10
-14.254663654176376
20
-39.637842299424037
30
0
11
-14.254663654176376
21
-39.637842299424037
31
0
0
LINE
5
184
100
AcDbEntity
8
0
100
AcDbLine
10
-10.247400206451189
20
-39.182536000853801
30
0
11
-10.247400206451189
21
-39.182536000853801
31
0
0
ARC
5
185
100
AcDbEntity
8
0
100
AcDbCircle
10
-39.122984217590187
20
44.997740352771345
30
0
40
5.9999999999999734
210
-0
220
0
230
1
100
AcDbArc
50
-45.014582693397863
51
32.95575574471367
0
LINE
5
186
100
AcDbEntity
8
0
100
AcDbLine
10
-40.783261159786441
20
64.511447117718063
30
0
11
-42.783248455335766
21
64.511447117718063
31
0
0
LINE
5
187
100
AcDbEntity
8
0
100
AcDbLine
10
-32.660712881515295
20
31.950454592548994
30
0
11
-33.588805848359335
21
32.132273519459993
31
0
0
LINE
5
188
100
AcDbEntity
8
0
100
AcDbLine
10
-27.069347720394674
20
56.938517577007062
30
0
11
-38.161522178835682
21
63.768968076652186
31
0
0
ARC
5
189
100
AcDbEntity
8
0
100
AcDbCircle
10
-40.783261159786463
20
59.511447117717999
30
0
40
5.0000000000000711
210
0
220
-0
230
1
100
AcDbArc
50
58.375652415424597
51
89.999999999999773
0
ARC
5
190
100
AcDbEntity
8
0
100
AcDbCircle
10
-32.723674308322863
20
36.548329159783606
30
0
40
4.5000000000000115
210
0
220
0
230
1
100
AcDbArc
50
134.98541730660156
51
258.91579431440437
0
CIRCLE
5
191
100
AcDbEntity
8
0
100
AcDbCircle
10
-23.923261030274965
20
-41.233662907381579
30
0
40
1.6000000000000003
210
0
220
-0
230
1
0
LINE
5
192
100
AcDbEntity
8
0
100
AcDbLine
10
-15.92326092415874
20
-41.162662938991978
30
0
11
-15.92326092415874
21
-41.162662938991978
31
0
0
ARC
5
193
100
AcDbEntity
8
0
100
AcDbCircle
10
-7.063260726721019
20
59.511447117718035
30
0
40
5.0000000000000711
210
0
220
-0
230
1
100
AcDbArc
50
90
51
121.62434758457653
0
LINE
5
194
100
AcDbEntity
8
0
100
AcDbLine
10
-34.502192413182158
20
-61.86793527617219
30
0
11
-32.4291032319395
21
-63.941024457414869
31
0
0
ARC
5
195
100
AcDbEntity
8
0
100
AcDbCircle
10
-5.0632734311717797
20
63.511447117718127
30
0
40
1.0000000000000075
210
-0
220
0
230
1
100
AcDbArc
50
-32.955755744712448
51
89.999999999997954
0
LINE
5
196
100
AcDbEntity
8
0
100
AcDbLine
10
-2.5918582323311767
20
30.912516484403305
30
0
11
-2.5918582323311767
21
30.912516484403305
31
0
0
ARC
5
197
100
AcDbEntity
8
0
100
AcDbCircle
10
-33.189404378204301
20
29.251753923462331
30
0
40
2.7500000000000488
210
0
220
-0
230
1
100
AcDbArc
50
17.727102338781588
51
78.915794314403399
0
CIRCLE
5
198
100
AcDbEntity
8
0
100
AcDbCircle
10
-23.923260943253766
20
44.637337092489631
30
0
40
3.4999999999999964
210
0
220
-0
230
1
0
LINE
5
199
100
AcDbEntity
8
0
100
AcDbLine
10
-4.2241825387381482
20
62.967455873087346
30
0
11
-13.762735485221853
21
48.254511531818594
31
0
0
CIRCLE
5
200
100
AcDbEntity
8
0
100
AcDbCircle
10
-23.923261030275
20
-61.840662907381549
30
0
40
1.6000000000000003
210
0
220
-0
230
1
0
ARC
5
201
100
AcDbEntity
8
0
100
AcDbCircle
10
-153.25993444921761
20
-25.2809778658402
30
0
40
124.23128168273971
210
-0
220
0
230
1
100
AcDbArc
50
344.22884778284026
51
350.01705606206536
0
LINE
5
202
100
AcDbEntity
8
0
100
AcDbLine
10
-2.5991216800563421
20
30.101210185833125
30
0
11
-2.5991216800563421
21
30.101210185833125
31
0
0
LWPOLYLINE
5
203
100
AcDbEntity
8
0
100
AcDbPolyline
90
4
70
1
43
0.0
10
-28.485818247658408
20
37.885628357360197
10
-30.607678432501828
20
35.764847992500002
42
-0.99999999999999989
10
-32.799151476190573
20
37.95743685017154
10
-30.677291291347224
20
40.078217215031664
42
-0.99999999999999989
0
ARC
5
204
100
AcDbEntity
8
0
100
AcDbCircle
10
-15.135690694700585
20
36.545813116573882
30
0
40
4.4999999999998952
210
-0
220
0
230
1
100
AcDbArc
50
-78.915794317353743
51
44.915822438005449
0
ARC
5
205
100
AcDbEntity
8
0
100
AcDbCircle
10
-14.65711750909513
20
29.25175392298538
30
0
40
2.7500000000000115
210
0
220
0
230
1
100
AcDbArc
50
101.08420568264739
51
162.27289765826913
0
LINE
5
206
100
AcDbEntity
8
0
100
AcDbLine
10
-32.66071288151533
20
31.950454592549029
30
0
11
-32.740728828964478
21
31.969927855859872
31
0
0
LINE
5
207
100
AcDbEntity
8
0
100
AcDbLine
10
-7.063260726721019
20
64.511447117718106
30
0
11
-5.0632734311717442
21
64.511447117718149
31
0
0
LINE
5
208
100
AcDbEntity
8
0
100
AcDbLine
10
-10.254663654176355
20
-39.993842299424038
30
0
11
-10.254663654176355
21
-39.993842299424038
31
0
0
LINE
5
209
100
AcDbEntity
8
0
100
AcDbLine
10
-31.923261136391226
20
-41.162662938992
30
0
11
-31.923261136391226
21
-41.162662938992
31
0
0
LINE
5
210
100
AcDbEntity
8
0
100
AcDbLine
10
-4.5991218540987688
20
30.501210186090688
30
0
11
-4.5991218540987688
21
30.501210186090688
31
0
0
LINE
5
211
100
AcDbEntity
8
0
100
AcDbLine
10
-32.4291032319395
20
-63.941024457414869
30
0
11
-23.923261030275
21
-72.446866659079362
31
0
0
LINE
5
212
100
AcDbEntity
8
0
100
AcDbLine
10
-14.316121694717303
20
-58.988169801983318
30
0
11
-13.375165813031842
21
-61.898771441836224
31
0
0
CIRCLE
5
213
100
AcDbEntity
8
0
100
AcDbCircle
10
-23.923260943253766
20
44.637337092489631
30
0
40
3.4999999999999964
210
0
220
-0
230
1
0
LINE
5
214
100
AcDbEntity
8
0
100
AcDbLine
10
-15.185809005645226
20
31.950454592099256
30
0
11
-14.270559154891451
21
32.129757476205825
31
0
0
ARC
5
215
100
AcDbEntity
8
0
100
AcDbCircle
10
2.2167515446642483
20
63.511447117718127
30
0
40
0.99999999999994316
210
0
220
-0
230
1
100
AcDbArc
50
90
51
212.95575574471638
0
LINE
5
216
100
AcDbEntity
8
0
100
AcDbLine
10
32.75259961950642
20
-38.782536000596224
30
0
11
32.75259961950642
21
-38.782536000596224
31
0
0
CIRCLE
5
217
100
AcDbEntity
8
0
100
AcDbCircle
10
21.076738969725071
20
-41.233662907381579
30
0
40
1.6000000000000003
210
0
220
-0
230
1
0
LINE
5
218
100
AcDbEntity
8
0
100
AcDbLine
10
34.752599793548811
20
-39.182536000853801
30
0
11
34.752599793548811
21
-39.182536000853801
31
0
0
LINE
5
219
100
AcDbEntity
8
0
100
AcDbLine
10
29.076739075841296
20
-41.162662938991978
30
0
11
29.076739075841296
21
-41.162662938991978
31
0
0
LINE
5
220
100
AcDbEntity
8
0
100
AcDbLine
10
30.683878305282732
20
-58.988169801983318
30
0
11
31.624834186968158
21
-61.898771441836224
31
0
0
LWPOLYLINE
5
221
100
AcDbEntity
8
0
100
AcDbPolyline
90
4
70
1
43
0.0
10
61.517619179288303
20
51.39136744058316
42
-0.99999999999999989
10
59.325030321616836
20
49.199894396894273
10
57.204249956756641
20
51.321754581737729
42
-0.99999999999999989
10
59.396838814428108
20
53.513227625426474
0
LINE
5
222
100
AcDbEntity
8
0
100
AcDbLine
10
31.624834186968158
20
-61.898771441836224
30
0
11
29.461850151290534
21
-64.06175547751387
31
0
0
LINE
5
223
100
AcDbEntity
8
0
100
AcDbLine
10
21.076738969725
20
-72.446866659079362
30
0
11
29.461850151290534
21
-64.06175547751387
31
0
0
LINE
5
224
100
AcDbEntity
8
0
100
AcDbLine
10
75.752599793548825
20
-38.8265360008538
30
0
11
75.752599793548825
21
-38.8265360008538
31
0
0
LINE
5
225
100
AcDbEntity
8
0
100
AcDbLine
10
76.624834186968158
20
-61.898771441836224
30
0
11
74.461850151290534
21
-64.06175547751387
31
0
0
LINE
5
226
100
AcDbEntity
8
0
100
AcDbLine
10
57.339287118484705
20
31.950454592548994
30
0
11
56.4111941516407
21
32.132273519459993
31
0
0
LWPOLYLINE
5
227
100
AcDbEntity
8
0
100
AcDbPolyline
90
4
70
1
43
0.0
10
14.32270870865274
20
40.078217215031664
42
-0.99999999999999989
10
16.514181752341628
20
37.885628357360197
10
14.392321567498172
20
35.764847992500002
42
-0.99999999999999989
10
12.200848523809427
20
37.95743685017154
0
LINE
5
228
100
AcDbEntity
8
0
100
AcDbLine
10
66.076738969725
20
-72.446866659079362
30
0
11
74.461850151290534
21
-64.06175547751387
31
0
0
ARC
5
229
100
AcDbEntity
8
0
100
AcDbCircle
10
57.276325691677172
20
36.548329159783606
30
0
40
4.5000000000000364
210
0
220
0
230
1
100
AcDbArc
50
134.98541730660187
51
258.91579431440437
0
LINE
5
230
100
AcDbEntity
8
0
100
AcDbLine
10
74.814190994354774
20
31.950454592099256
30
0
11
75.729440845108584
21
32.129757476205825
31
0
0
LWPOLYLINE
5
231
100
AcDbEntity
8
0
100
AcDbPolyline
90
4
70
1
43
0.0
10
72.761156545994226
20
53.509826192479188
42
-0.99999999999999989
10
74.952629589683113
20
51.317237334807722
10
72.830769404839657
20
49.196456969947562
42
-0.99999999999999989
10
70.639296361150912
20
51.3890458276191
0
CIRCLE
5
232
100
AcDbEntity
8
0
100
AcDbCircle
10
66.076738969725
20
-51.233662907381579
30
0
40
3.0000000000000004
210
0
220
-0
230
1
0
LWPOLYLINE
5
233
100
AcDbEntity
8
0
100
AcDbPolyline
90
4
70
1
43
0.0
10
14.325030321616836
20
49.199894396894273
10
12.204249956756676
20
51.321754581737729
42
-0.99999999999999989
10
14.396838814428143
20
53.513227625426474
10
16.517619179288303
20
51.39136744058316
42
-0.99999999999999989
0
ARC
5
234
100
AcDbEntity
8
0
100
AcDbCircle
10
56.810595621795699
20
29.251753923462331
30
0
40
2.7500000000000488
210
0
220
-0
230
1
100
AcDbArc
50
17.727102338781588
51
78.915794314403399
0
LINE
5
235
100
AcDbEntity
8
0
100
AcDbLine
10
85.400878145901231
20
30.501210186090688
30
0
11
85.400878145901231
21
30.501210186090688
31
0
0
LINE
5
236
100
AcDbEntity
8
0
100
AcDbLine
10
62.930652279605326
20
56.938517577007062
30
0
11
51.838477821164339
21
63.768968076652186
31
0
0
LINE
5
237
100
AcDbEntity
8
0
100
AcDbLine
10
55.118576512130204
20
40.754019983084646
30
0
11
54.095155144386879
21
39.731119437048683
31
0
0
ARC
5
238
100
AcDbEntity
8
0
100
AcDbCircle
10
11.810595621795699
20
29.251753923462331
30
0
40
2.7500000000000488
210
0
220
-0
230
1
100
AcDbArc
50
17.727102338781588
51
78.915794314403399
0
CIRCLE
5
239
100
AcDbEntity
8
0
100
AcDbCircle
10
21.076739056746234
20
44.637337092489631
30
0
40
3.4999999999999947
210
0
220
-0
230
1
0
LINE
5
240
100
AcDbEntity
8
0
100
AcDbLine
10
4.2167388402135941
20
64.511447117718063
30
0
11
2.2167515446642483
21
64.511447117718063
31
0
0
ARC
5
241
100
AcDbEntity
8
0
100
AcDbCircle
10
47.216751544664248
20
63.511447117718127
30
0
40
0.99999999999994316
210
0
220
-0
230
1
100
AcDbArc
50
90
51
212.95575574471638
0
CIRCLE
5
242
100
AcDbEntity
8
0
100
AcDbCircle
10
21.076739056746234
20
44.637337092489631
30
0
40
3.4999999999999964
210
0
220
-0
230
1
0
LINE
5
243
100
AcDbEntity
8
0
100
AcDbLine
10
75.683878305282732
20
-58.988169801983318
30
0
11
76.624834186968158
21
-61.898771441836224
31
0
0
LINE
5
244
100
AcDbEntity
8
0
100
AcDbLine
10
58.07673886360881
20
-41.162662938992
30
0
11
58.07673886360881
21
-41.162662938992
31
0
0
LWPOLYLINE
5
245
100
AcDbEntity
8
0
100
AcDbPolyline
90
4
70
1
43
0.0
10
74.949228156735828
20
37.952919603241639
42
-0.99999999999999989
10
72.756639299064361
20
35.761446559552823
10
70.635858934204236
20
37.883306744396137
42
-0.99999999999999989
10
72.828447791875703
20
40.074779788085024
0
LINE
5
246
100
AcDbEntity
8
0
100
AcDbLine
10
12.339287118484705
20
31.950454592548994
30
0
11
11.4111941516407
21
32.132273519459993
31
0
0
LINE
5
247
100
AcDbEntity
8
0
100
AcDbLine
10
55.497807586817842
20
-61.86793527617219
30
0
11
57.570896768060535
21
-63.941024457414869
31
0
0
ARC
5
248
100
AcDbEntity
8
0
100
AcDbCircle
10
317.10243057828421
20
-7.2856086539598941
30
0
40
247.22044694040292
210
0
220
0
230
1
100
AcDbArc
50
171.3047066931444
51
189.20131133509014
0
ARC
5
249
100
AcDbEntity
8
0
100
AcDbCircle
10
134.66896152159455
20
-39.91913602417695
30
0
40
61.990871031582955
210
0
220
0
230
1
100
AcDbArc
50
186.38874686695092
51
197.91527818466511
0
LINE
5
250
100
AcDbEntity
8
0
100
AcDbLine
10
10.118576512130204
20
40.754019983084646
30
0
11
9.0951551443868794
21
39.731119437048683
31
0
0
LINE
5
251
100
AcDbEntity
8
0
100
AcDbLine
10
46.377660652230688
20
62.96745587308731
30
0
11
55.911561137011532
21
48.261687820556141
31
0
0
ARC
5
252
100
AcDbEntity
8
0
100
AcDbCircle
10
81.271809869379794
20
44.990564064033798
30
0
40
5.999999999999984
210
0
220
0
230
1
100
AcDbArc
50
147.04424425528595
51
224.91582243800451
0
ARC
5
253
100
AcDbEntity
8
0
100
AcDbCircle
10
5.8770157824098135
20
44.997740352771345
30
0
40
5.9999999999999982
210
-0
220
0
230
1
100
AcDbArc
50
-45.014582693397607
51
32.955755744713485
0
LINE
5
254
100
AcDbEntity
8
0
100
AcDbLine
10
56.294655865919765
20
-59.046511818613396
30
0
11
55.497807586817842
21
-61.86793527617219
31
0
0
LINE
5
255
100
AcDbEntity
8
0
100
AcDbLine
10
17.930652279605361
20
56.938517577007062
30
0
11
6.8384778211643393
21
63.768968076652186
31
0
0
LINE
5
256
100
AcDbEntity
8
0
100
AcDbLine
10
57.339287118484705
20
31.950454592549029
30
0
11
57.259271171035522
21
31.969927855859872
31
0
0
CIRCLE
5
257
100
AcDbEntity
8
0
100
AcDbCircle
10
66.076739056746234
20
44.637337092489631
30
0
40
3.4999999999999964
210
0
220
-0
230
1
0
CIRCLE
5
258
100
AcDbEntity
8
0
100
AcDbCircle
10
21.076739056746234
20
44.637337092489631
30
0
40
3.4999999999999964
210
0
220
-0
230
1
0
ARC
5
259
100
AcDbEntity
8
0
100
AcDbCircle
10
49.216738840213559
20
59.511447117717999
30
0
40
5.0000000000000711
210
0
220
-0
230
1
100
AcDbArc
50
58.375652415424597
51
89.999999999999588
0
LINE
5
260
100
AcDbEntity
8
0
100
AcDbLine
10
49.216738840213594
20
64.511447117718063
30
0
11
47.216751544664248
21
64.511447117718063
31
0
0
LWPOLYLINE
5
261
100
AcDbEntity
8
0
100
AcDbPolyline
90
4
70
1
43
0.0
10
57.200848523809427
20
37.95743685017154
10
59.32270870865274
20
40.078217215031664
42
-0.99999999999999989
10
61.514181752341628
20
37.885628357360197
10
59.392321567498172
20
35.764847992500002
42
-0.99999999999999989
0
LINE
5
262
100
AcDbEntity
8
0
100
AcDbLine
10
77.022940579090502
20
40.754161137725298
30
0
11
78.050961273016384
21
39.723115311305328
31
0
0
LINE
5
263
100
AcDbEntity
8
0
100
AcDbLine
10
85.408141593626468
20
31.312516484660939
30
0
11
85.408141593626468
21
31.312516484660939
31
0
0
LINE
5
264
100
AcDbEntity
8
0
100
AcDbLine
10
79.745336345823645
20
-39.993842299424038
30
0
11
79.745336345823645
21
-39.993842299424038
31
0
0
LINE
5
265
100
AcDbEntity
8
0
100
AcDbLine
10
75.745336345823659
20
-39.637842299424037
30
0
11
75.745336345823659
21
-39.637842299424037
31
0
0
ARC
5
266
100
AcDbEntity
8
0
100
AcDbCircle
10
-63.259934449217582
20
-25.2809778658402
30
0
40
124.23128168273969
210
-0
220
0
230
1
100
AcDbArc
50
344.22884778284026
51
350.01705606206536
0
ARC
5
267
100
AcDbEntity
8
0
100
AcDbCircle
10
36.271809869379794
20
44.990564064033798
30
0
40
5.9999999999999538
210
0
220
0
230
1
100
AcDbArc
50
147.04424425528578
51
224.91582243800451
0
CIRCLE
5
268
100
AcDbEntity
8
0
100
AcDbCircle
10
66.076739056746234
20
44.637337092489631
30
0
40
3.4999999999999947
210
0
220
-0
230
1
0
ARC
5
269
100
AcDbEntity
8
0
100
AcDbCircle
10
39.93672656882822
20
63.511447117718127
30
0
40
1.0000000000000075
210
-0
220
0
230
1
100
AcDbArc
50
-32.955755744712448
51
89.999999999995936
0
ARC
5
270
100
AcDbEntity
8
0
100
AcDbCircle
10
82.936739273279017
20
59.511447117718035
30
0
40
5.0000000000000711
210
0
220
-0
230
1
100
AcDbArc
50
90
51
121.62434758457653
0
ARC
5
271
100
AcDbEntity
8
0
100
AcDbCircle
10
30.34288249090487
20
29.25175392298538
30
0
40
2.7500000000000115
210
0
220
0
230
1
100
AcDbArc
50
101.08420568264739
51
162.27289765826913
0
LINE
5
272
100
AcDbEntity
8
0
100
AcDbLine
10
40.400878145901231
20
30.501210186090688
30
0
11
40.400878145901231
21
30.501210186090688
31
0
0
ARC
5
273
100
AcDbEntity
8
0
100
AcDbCircle
10
89.668961521594568
20
-39.91913602417695
30
0
40
61.990871031582955
210
0
220
0
230
1
100
AcDbArc
50
186.38874686695092
51
197.91527818466511
0
ARC
5
274
100
AcDbEntity
8
0
100
AcDbCircle
10
-108.25993444921758
20
-25.2809778658402
30
0
40
124.23128168273969
210
-0
220
0
230
1
100
AcDbArc
50
344.22884778284026
51
350.01705606206536
0
CIRCLE
5
275
100
AcDbEntity
8
0
100
AcDbCircle
10
66.076738969725
20
-61.840662907381549
30
0
40
1.6000000000000003
210
0
220
-0
230
1
0
LINE
5
276
100
AcDbEntity
8
0
100
AcDbLine
10
40.775817461261852
20
62.967455873087346
30
0
11
31.237264514778182
21
48.254511531818594
31
0
0
ARC
5
277
100
AcDbEntity
8
0
100
AcDbCircle
10
66.076739056746234
20
62.047542727727887
30
0
40
5.9999999999999005
210
0
220
0
230
1
100
AcDbArc
50
238.37565241542384
51
301.62434758457601
0
LINE
5
278
100
AcDbEntity
8
0
100
AcDbLine
10
29.814190994354774
20
31.950454592099256
30
0
11
30.729440845108584
21
32.129757476205825
31
0
0
CIRCLE
5
279
100
AcDbEntity
8
0
100
AcDbCircle
10
21.076738969725
20
-51.233662907381579
30
0
40
3.0000000000000004
210
0
220
-0
230
1
0
LINE
5
280
100
AcDbEntity
8
0
100
AcDbLine
10
12.570896768060535
20
-63.941024457414869
30
0
11
21.076738969725
21
-72.446866659079362
31
0
0
LINE
5
281
100
AcDbEntity
8
0
100
AcDbLine
10
11.294655865919765
20
-59.046511818613396
30
0
11
10.497807586817842
21
-61.86793527617219
31
0
0
ARC
5
282
100
AcDbEntity
8
0
100
AcDbCircle
10
272.10243057828421
20
-7.2856086539598941
30
0
40
247.22044694040292
210
0
220
0
230
1
100
AcDbArc
50
171.3047066931444
51
189.20131133509014
0
LINE
5
283
100
AcDbEntity
8
0
100
AcDbLine
10
87.400878319943658
20
30.101210185833125
30
0
11
87.400878319943658
21
30.101210185833125
31
0
0
LINE
5
284
100
AcDbEntity
8
0
100
AcDbLine
10
30.752599793548825
20
-38.8265360008538
30
0
11
30.752599793548825
21
-38.8265360008538
31
0
0
LINE
5
285
100
AcDbEntity
8
0
100
AcDbLine
10
13.07673886360881
20
-41.162662938992
30
0
11
13.07673886360881
21
-41.162662938992
31
0
0
LINE
5
286
100
AcDbEntity
8
0
100
AcDbLine
10
16.076738895219265
20
-72.446662907381537
30
0
11
15.658862567791374
21
-72.446662907381551
31
0
0
LINE
5
287
100
AcDbEntity
8
0
100
AcDbLine
10
10.497807586817842
20
-61.86793527617219
30
0
11
12.570896768060535
21
-63.941024457414869
31
0
0
CIRCLE
5
288
100
AcDbEntity
8
0
100
AcDbCircle
10
21.076738969725035
20
-61.840662907381549
30
0
40
1.6000000000000003
210
0
220
-0
230
1
0
CIRCLE
5
289
100
AcDbEntity
8
0
100
AcDbCircle
10
66.076739056746234
20
44.637337092489631
30
0
40
3.4999999999999964
210
0
220
-0
230
1
0
LINE
5
290
100
AcDbEntity
8
0
100
AcDbLine
10
87.408141767668823
20
30.912516484403305
30
0
11
87.408141767668823
21
30.912516484403305
31
0
0
LINE
5
291
100
AcDbEntity
8
0
100
AcDbLine
10
34.745336345823645
20
-39.993842299424038
30
0
11
34.745336345823645
21
-39.993842299424038
31
0
0
ARC
5
292
100
AcDbEntity
8
0
100
AcDbCircle
10
-229.94895263883421
20
-7.2856086539598586
30
0
40
247.22044694040304
210
-0
220
0
230
1
100
AcDbArc
50
-9.2013113350901694
51
8.6952933068556089
0
LINE
5
293
100
AcDbEntity
8
0
100
AcDbLine
10
32.745336171781219
20
-39.59384229916644
30
0
11
32.745336171781219
21
-39.59384229916644
31
0
0
LINE
5
294
100
AcDbEntity
8
0
100
AcDbLine
10
30.745336345823659
20
-39.637842299424037
30
0
11
30.745336345823659
21
-39.637842299424037
31
0
0
ARC
5
295
100
AcDbEntity
8
0
100
AcDbCircle
10
74.864309305299415
20
36.545813116573882
30
0
40
4.4999999999999023
210
-0
220
0
230
1
100
AcDbArc
50
-78.915794317353289
51
44.915822438005137
0
CIRCLE
5
296
100
AcDbEntity
8
0
100
AcDbCircle
10
66.076738969725071
20
-41.233662907381579
30
0
40
1.6000000000000003
210
0
220
-0
230
1
0
LINE
5
297
100
AcDbEntity
8
0
100
AcDbLine
10
57.570896768060535
20
-63.941024457414869
30
0
11
66.076738969725
21
-72.446866659079362
31
0
0
LINE
5
298
100
AcDbEntity
8
0
100
AcDbLine
10
37.936739273279017
20
64.511447117718106
30
0
11
39.936726568828291
21
64.511447117718149
31
0
0
LINE
5
299
100
AcDbEntity
8
0
100
AcDbLine
10
61.076738895219265
20
-72.446662907381537
30
0
11
60.658862567791374
21
-72.446662907381551
31
0
0
ARC
5
300
100
AcDbEntity
8
0
100
AcDbCircle
10
37.936739273279017
20
59.511447117718035
30
0
40
5.0000000000000711
210
0
220
-0
230
1
100
AcDbArc
50
90
51
121.62434758457653
0
ARC
5
301
100
AcDbEntity
8
0
100
AcDbCircle
10
75.34288249090487
20
29.25175392298538
30
0
40
2.7500000000000115
210
0
220
0
230
1
100
AcDbArc
50
101.08420568264739
51
162.27289765826913
0
LWPOLYLINE
5
302
100
AcDbEntity
8
0
100
AcDbPolyline
90
4
70
1
43
0.0
10
27.761156545994226
20
53.509826192479188
42
-0.99999999999999989
10
29.952629589683113
20
51.317237334807722
10
27.830769404839621
20
49.196456969947562
42
-0.99999999999999989
10
25.639296361150947
20
51.3890458276191
0
LINE
5
303
100
AcDbEntity
8
0
100
AcDbLine
10
42.408141767668823
20
30.912516484403305
30
0
11
42.408141767668823
21
30.912516484403305
31
0
0
LINE
5
304
100
AcDbEntity
8
0
100
AcDbLine
10
42.400878319943658
20
30.101210185833125
30
0
11
42.400878319943658
21
30.101210185833125
31
0
0
LWPOLYLINE
5
305
100
AcDbEntity
8
0
100
AcDbPolyline
90
4
70
1
43
0.0
10
25.635858934204236
20
37.883306744396137
42
-0.99999999999999989
10
27.828447791875703
20
40.074779788085024
10
29.949228156735792
20
37.952919603241639
42
-0.99999999999999989
10
27.756639299064396
20
35.761446559552823
0
LINE
5
306
100
AcDbEntity
8
0
100
AcDbLine
10
32.022940579090502
20
40.754161137725298
30
0
11
33.050961273016384
21
39.723115311305328
31
0
0
LINE
5
307
100
AcDbEntity
8
0
100
AcDbLine
10
85.775817461261852
20
62.967455873087346
30
0
11
76.237264514778147
21
48.254511531818594
31
0
0
LINE
5
308
100
AcDbEntity
8
0
100
AcDbLine
10
77.745336171781219
20
-39.59384229916644
30
0
11
77.745336171781219
21
-39.59384229916644
31
0
0
LINE
5
309
100
AcDbEntity
8
0
100
AcDbLine
10
40.408141593626468
20
31.312516484660939
30
0
11
40.408141593626468
21
31.312516484660939
31
0
0
LINE
5
310
100
AcDbEntity
8
0
100
AcDbLine
10
82.936739273279017
20
64.511447117718106
30
0
11
84.936726568828291
21
64.511447117718149
31
0
0
LINE
5
311
100
AcDbEntity
8
0
100
AcDbLine
10
74.07673907584126
20
-41.162662938991978
30
0
11
74.07673907584126
21
-41.162662938991978
31
0
0
LINE
5
312
100
AcDbEntity
8
0
100
AcDbLine
10
69.222825833887143
20
56.938517577007026
30
0
11
80.315000292328165
21
63.768968076652151
31
0
0
CIRCLE
5
313
100
AcDbEntity
8
0
100
AcDbCircle
10
66.076739056746234
20
44.637337092489631
30
0
40
3.4999999999999964
210
0
220
-0
230
1
0
LINE
5
314
100
AcDbEntity
8
0
100
AcDbLine
10
12.339287118484705
20
31.950454592549029
30
0
11
12.259271171035522
21
31.969927855859872
31
0
0
ARC
5
315
100
AcDbEntity
8
0
100
AcDbCircle
10
29.864309305299415
20
36.545813116573882
30
0
40
4.4999999999999023
210
-0
220
0
230
1
100
AcDbArc
50
-78.915794317353289
51
44.915822438005137
0
ARC
5
316
100
AcDbEntity
8
0
100
AcDbCircle
10
-184.94895263883421
20
-7.2856086539598586
30
0
40
247.22044694040304
210
-0
220
0
230
1
100
AcDbArc
50
-9.2013113350901694
51
8.6952933068556089
0
LINE
5
317
100
AcDbEntity
8
0
100
AcDbLine
10
1.3776606522306878
20
62.96745587308731
30
0
11
10.911561137011567
21
48.261687820556141
31
0
0
LINE
5
318
100
AcDbEntity
8
0
100
AcDbLine
10
77.752599619506384
20
-38.782536000596224
30
0
11
77.752599619506384
21
-38.782536000596224
31
0
0
ARC
5
319
100
AcDbEntity
8
0
100
AcDbCircle
10
21.076739056746234
20
62.047542727727887
30
0
40
5.9999999999998828
210
0
220
0
230
1
100
AcDbArc
50
238.3756524154241
51
301.62434758457601
0
ARC
5
320
100
AcDbEntity
8
0
100
AcDbCircle
10
4.2167388402135586
20
59.511447117717999
30
0
40
5.0000000000000711
210
0
220
-0
230
1
100
AcDbArc
50
58.375652415424597
51
89.999999999999588
0
ARC
5
321
100
AcDbEntity
8
0
100
AcDbCircle
10
50.877015782409813
20
44.997740352771345
30
0
40
5.9999999999999982
210
-0
220
0
230
1
100
AcDbArc
50
-45.014582693397607
51
32.95575574471367
0
ARC
5
322
100
AcDbEntity
8
0
100
AcDbCircle
10
84.93672656882822
20
63.511447117718127
30
0
40
1.0000000000000075
210
-0
220
0
230
1
100
AcDbArc
50
-32.955755744712448
51
89.999999999995936
0
LINE
5
323
100
AcDbEntity
8
0
100
AcDbLine
10
79.752599793548811
20
-39.182536000853801
30
0
11
79.752599793548811
21
-39.182536000853801
31
0
0
CIRCLE
5
324
100
AcDbEntity
8
0
100
AcDbCircle
10
21.076739056746234
20
44.637337092489631
30
0
40
3.4999999999999964
210
0
220
-0
230
1
0
LINE
5
325
100
AcDbEntity
8
0
100
AcDbLine
10
24.222825833887143
20
56.938517577007026
30
0
11
35.315000292328165
21
63.768968076652151
31
0
0
ARC
5
326
100
AcDbEntity
8
0
100
AcDbCircle
10
12.276325691677172
20
36.548329159783606
30
0
40
4.5000000000000364
210
0
220
0
230
1
100
AcDbArc
50
134.98541730660187
51
258.91579431440437
0
ENDSEC
0
SECTION
2
OBJECTS
0
DICTIONARY
5
C
100
AcDbDictionary
3
ACAD_GROUP
350
D
3
ACAD_MLINESTYLE
350
17
0
DICTIONARY
5
D
100
AcDbDictionary
0
DICTIONARY
5
1A
330
C
100
AcDbDictionary
0
DICTIONARY
5
17
100
AcDbDictionary
0
ENDSEC
0
EOF
