0
SECTION
2
HEADER
9
$INSUNITS
70
4
9
$ACADVER
1
AC1014
9
$HANDSEED
5
FFFF
0
ENDSEC
0
SECTION
2
TABLES
0
TABLE
2
VPORT
5
8
100
AcDbSymbolTable
0
ENDTAB
0
TABLE
2
LTYPE
5
5
100
AcDbSymbolTable
0
LTYPE
5
14
100
AcDbSymbolTableRecord
100
AcDbLinetypeTableRecord
2
BYBLOCK
70
0
0
LTYPE
5
15
100
AcDbSymbolTableRecord
100
AcDbLinetypeTableRecord
2
BYLAYER
70
0
0
ENDTAB
0
TABLE
2
LAYER
5
2
100
AcDbSymbolTable
70
2
0
LAYER
5
50
100
AcDbSymbolTableRecord
100
AcDbLayerTableRecord
2
0
70
0
6
CONTINUOUS
0
ENDTAB
0
TABLE
2
STYLE
5
3
100
AcDbSymbolTable
70
1
0
STYLE
5
11
100
AcDbSymbolTableRecord
100
AcDbTextStyleTableRecord
2
STANDARD
70
0
0
ENDTAB
0
TABLE
2
VIEW
5
6
100
AcDbSymbolTable
70
0
0
ENDTAB
0
TABLE
2
UCS
5
7
100
AcDbSymbolTable
70
0
0
ENDTAB
0
TABLE
2
APPID
5
9
100
AcDbSymbolTable
70
2
0
APPID
5
12
100
AcDbSymbolTableRecord
100
AcDbRegAppTableRecord
2
ACAD
70
0
0
ENDTAB
0
TABLE
2
DIMSTYLE
5
A
100
AcDbSymbolTable
70
1
0
ENDTAB
0
TABLE
2
BLOCK_RECORD
5
1
100
AcDbSymbolTable
70
1
0
BLOCK_RECORD
5
1F
100
AcDbSymbolTableRecord
100
AcDbBlockTableRecord
2
*MODEL_SPACE
0
BLOCK_RECORD
5
1B
100
AcDbSymbolTableRecord
100
AcDbBlockTableRecord
2
*PAPER_SPACE
0
ENDTAB
0
ENDSEC
0
SECTION
2
BLOCKS
0
BLOCK
5
20
100
AcDbEntity
100
AcDbBlockBegin
2
*MODEL_SPACE
0
ENDBLK
5
21
100
AcDbEntity
100
AcDbBlockEnd
0
BLOCK
5
1C
100
AcDbEntity
100
AcDbBlockBegin
2
*PAPER_SPACE
0
ENDBLK
5
1D
100
AcDbEntity
100
AcDbBlockEnd
0
ENDSEC
0
SECTION
2
ENTITIES
0
CIRCLE
5
100
100
AcDbEntity
8
0
100
AcDbCircle
10
7.4997185954717116
20
-7.4997185954717089
30
0
40
2.2999999999999998
210
0
220
0
230
1
0
ARC
5
101
100
AcDbEntity
8
0
100
AcDbCircle
10
-37.260697698302245
20
-6.2064666378102977
30
0
40
15.000000000000203
210
-0
220
0
230
1
100
AcDbArc
50
313.75485748313622
51
339.73505168724483
0
ARC
5
102
100
AcDbEntity
8
0
100
AcDbCircle
10
-50.399707679025539
20
-1.3553350921599083
30
0
40
29.005965177264876
210
-0
220
0
230
1
100
AcDbArc
50
339.73505168724506
51
360
0
SPLINE
5
103
100
AcDbEntity
8
0
100
AcDbSpline
70
12
71
1
72
4
73
2
74
0
42
0.000000001
43
0.0000000001
44
0.0000000001
40
0
40
0
40
1
40
1
10
0
20
0
30
0
10
10
20
0
30
0
0
LINE
5
104
100
AcDbEntity
8
0
100
AcDbLine
10
-25
20
-20.000000298023224
30
0
11
-25.000000000000004
21
-19.994798857377404
31
0
0
LWPOLYLINE
5
105
100
AcDbEntity
8
0
100
AcDbPolyline
90
4
70
1
43
0.0
10
15.000000223517411
20
-15.000000223517421
10
15.000000223517414
20
15.000000223517421
10
-15.000000223517414
20
15.000000223517421
10
-15.000000223517416
20
-15.000000223517421
0
LINE
5
106
100
AcDbEntity
8
0
100
AcDbLine
10
21.393742501760656
20
-1.3553350921470919
30
0
11
21.393742501760666
21
1.35533509216001
31
0
0
ARC
5
107
100
AcDbEntity
8
0
100
AcDbCircle
10
50.399707679025539
20
-1.3553350921599083
30
0
40
29.005965177264876
210
0
220
0
230
1
100
AcDbArc
50
180
51
200.26494831275497
0
LINE
5
108
100
AcDbEntity
8
0
100
AcDbLine
10
0
20
0
30
0
11
5.5000000819563866
21
0
31
0
0
ARC
5
109
100
AcDbEntity
8
0
100
AcDbCircle
10
37.260697698302245
20
6.2064666378102977
30
0
40
15.000000000000203
210
0
220
0
230
1
100
AcDbArc
50
133.75485748313628
51
159.73505168724492
0
ARC
5
110
100
AcDbEntity
8
0
100
AcDbCircle
10
23.953901767437831
20
33.88582539345721
30
0
40
4.9999999999999893
210
0
220
0
230
1
100
AcDbArc
50
193.60061103338299
51
260.94531984413743
0
ARC
5
111
100
AcDbEntity
8
0
100
AcDbCircle
10
37.260697698302245
20
-6.2064666378102977
30
0
40
15.000000000000203
210
0
220
0
230
1
100
AcDbArc
50
200.26494831275511
51
226.24514251686375
0
LINE
5
112
100
AcDbEntity
8
0
100
AcDbLine
10
-16.362752839625117
20
30.036214378028699
30
0
11
-16.362752839625117
21
30.036214378028699
31
0
0
LINE
5
113
100
AcDbEntity
8
0
100
AcDbLine
10
-21.393742501760656
20
-1.3553350921470919
30
0
11
-21.393742501760666
21
1.35533509216001
31
0
0
SPLINE
5
114
100
AcDbEntity
8
0
100
AcDbSpline
70
12
71
1
72
4
73
2
74
0
42
0.000000001
43
0.0000000001
44
0.0000000001
40
0
40
0
40
1
40
1
10
0
20
0
30
0
10
10
20
0
30
0
0
LINE
5
115
100
AcDbEntity
8
0
100
AcDbLine
10
0
20
0
30
0
11
0
21
6.0000000894069672
31
0
0
CIRCLE
5
116
100
AcDbEntity
8
0
100
AcDbCircle
10
-15.000000223517421
20
-15.000000223517421
30
0
40
1.6000000000000003
210
0
220
0
230
1
0
LWPOLYLINE
5
117
100
AcDbEntity
8
0
100
AcDbPolyline
90
4
70
1
43
0.0
10
10.000000149011612
20
-36.500000521540642
10
-10.000000149011612
20
-36.500000521540642
10
-10.000000149011612
20
-56.500000819563866
10
10.000000149011612
20
-56.500000819563866
0
ARC
5
118
100
AcDbEntity
8
0
100
AcDbCircle
10
50.399707679025539
20
1.3553350921599083
30
0
40
29.005965177264876
210
0
220
0
230
1
100
AcDbArc
50
159.73505168724506
51
180
0
CIRCLE
5
119
100
AcDbEntity
8
0
100
AcDbCircle
10
-15.000000223517416
20
-28.500000409781929
30
0
40
1.6000000000000003
210
0
220
0
230
1
0
LINE
5
120
100
AcDbEntity
8
0
100
AcDbLine
10
-25
20
19.994800852753553
30
0
11
-25
21
20.001930399112595
31
0
0
ARC
5
121
100
AcDbEntity
8
0
100
AcDbCircle
10
-37.260697698302245
20
6.2064666378102977
30
0
40
15.000000000000203
210
0
220
-0
230
1
100
AcDbArc
50
20.264948312755109
51
46.24514251686373
0
LINE
5
122
100
AcDbEntity
8
0
100
AcDbLine
10
-18.631952042533769
20
-35.944384897052508
30
0
11
-15.311940745142845
21
-62.50447234877106
31
0
0
LWPOLYLINE
5
123
100
AcDbEntity
8
0
100
AcDbPolyline
90
4
70
1
43
0.0
10
10.000000149011612
20
54.999999478459351
10
-10.000000149011612
20
54.999999478459351
10
-10.000000149011612
20
34.999999180436127
10
10.000000149011612
20
34.999999180436127
0
CIRCLE
5
124
100
AcDbEntity
8
0
100
AcDbCircle
10
15.000000223517418
20
-28.50000040978194
30
0
40
1.6000000000000003
210
0
220
0
230
1
0
LINE
5
125
100
AcDbEntity
8
0
100
AcDbLine
10
-15.311940745142845
20
-62.50447234877106
30
0
11
-14.792522062849949
21
-66.659821349118559
31
0
0
LINE
5
126
100
AcDbEntity
8
0
100
AcDbLine
10
-27.77812691902308
20
16.4644182699673
30
0
11
-27.77812691902308
21
16.4644182699673
31
0
0
CIRCLE
5
127
100
AcDbEntity
8
0
100
AcDbCircle
10
10.000000149011612
20
-56.500000819563866
30
0
40
1.5999999999999974
210
0
220
0
230
1
0
ARC
5
128
100
AcDbEntity
8
0
100
AcDbCircle
10
27.562452917814614
20
-37.060697629500261
30
0
40
9.0000000000000124
210
0
220
0
230
1
100
AcDbArc
50
110.12008620410853
51
172.87498287385984
0
SPLINE
5
129
100
AcDbEntity
8
0
100
AcDbSpline
70
12
71
1
72
4
73
2
74
0
42
0.000000001
43
0.0000000001
44
0.0000000001
40
0
40
0
40
1
40
1
10
0
20
0
30
0
10
10
20
0
30
0
0
CIRCLE
5
130
100
AcDbEntity
8
0
100
AcDbCircle
10
-15.000000000000002
20
28.500000037252903
30
0
40
1.6000000000000003
210
0
220
0
230
1
0
LINE
5
131
100
AcDbEntity
8
0
100
AcDbLine
10
24.99999981726954
20
20.000000298023224
30
0
11
24.999999817269533
21
19.994798857395175
31
0
0
CIRCLE
5
132
100
AcDbEntity
8
0
100
AcDbCircle
10
10.000000149011612
20
-65.000000968575478
30
0
40
1.6000000000000003
210
0
220
0
230
1
0
LINE
5
133
100
AcDbEntity
8
0
100
AcDbLine
10
18.631952042534788
20
-35.944384897051847
30
0
11
15.311940745144916
21
-62.504472348754547
31
0
0
ARC
5
134
100
AcDbEntity
8
0
100
AcDbCircle
10
-13.500000201165676
20
67.500000961124897
30
0
40
3.7500000000000022
210
0
220
-0
230
1
100
AcDbArc
50
66.251564362722391
51
219.38068763159887
0
CIRCLE
5
135
100
AcDbEntity
8
0
100
AcDbCircle
10
-10.000000149011612
20
-36.500000521540642
30
0
40
1.6000000000000005
210
0
220
0
230
1
0
ARC
5
136
100
AcDbEntity
8
0
100
AcDbCircle
10
-9.831132687694474
20
-66.039647608869615
30
0
40
5
210
0
220
0
230
1
100
AcDbArc
50
187.12501712613812
51
282.0732351175397
0
LINE
5
137
100
AcDbEntity
8
0
100
AcDbLine
10
18.911234863517112
20
33.710122575450555
30
0
11
19.094109303238966
21
32.710063000405029
31
0
0
CIRCLE
5
138
100
AcDbEntity
8
0
100
AcDbCircle
10
-22.071068035382886
20
22.071068035382901
30
0
40
2.3000000000000003
210
0
220
0
230
1
0
SPLINE
5
139
100
AcDbEntity
8
0
100
AcDbSpline
70
12
71
1
72
4
73
2
74
0
42
0.000000001
43
0.0000000001
44
0.0000000001
40
0
40
0
40
1
40
1
10
0
20
0
30
0
10
10
20
0
30
0
0
CIRCLE
5
140
100
AcDbEntity
8
0
100
AcDbCircle
10
-15.000000223517414
20
15.000000223517421
30
0
40
1.6000000000000003
210
0
220
0
230
1
0
LINE
5
141
100
AcDbEntity
8
0
100
AcDbLine
10
-20.001930399112595
20
25
30
0
11
-20
21
25
31
0
0
ARC
5
142
100
AcDbEntity
8
0
100
AcDbCircle
10
9.8311326876943248
20
-66.039647608869657
30
0
40
5.0000000000000018
210
0
220
0
230
1
100
AcDbArc
50
257.92676488245991
51
352.87498287385989
0
CIRCLE
5
143
100
AcDbEntity
8
0
100
AcDbCircle
10
-10.000000149011612
20
-65.000000968575478
30
0
40
1.6000000000000003
210
0
220
0
230
1
0
ARC
5
144
100
AcDbEntity
8
0
100
AcDbCircle
10
-1.9539925233402755e-13
20
-112.0025296527441
30
0
40
42.002528609662818
210
0
220
-0
230
1
100
AcDbArc
50
77.926764882459864
51
102.07323511753984
0
LINE
5
145
100
AcDbEntity
8
0
100
AcDbLine
10
-16.362752839625117
20
30.036214378028696
30
0
11
-16.362752839625117
21
30.036214378028696
31
0
0
ARC
5
146
100
AcDbEntity
8
0
100
AcDbCircle
10
-27.562452917813609
20
-37.060697629500609
30
0
40
8.999999999999984
210
0
220
-0
230
1
100
AcDbArc
50
7.1250171261381681
51
69.879913795895362
0
ARC
5
147
100
AcDbEntity
8
0
100
AcDbCircle
10
-20.000000298023224
20
20.000000298023224
30
0
40
5.000000074505806
210
0
220
0
230
1
100
AcDbArc
50
179.97788267048938
51
180.02211732951062
0
LINE
5
148
100
AcDbEntity
8
0
100
AcDbLine
10
-16.931296991822201
20
30.615030596508337
30
0
11
-16.931296991822201
21
30.615030596508337
31
0
0
CIRCLE
5
149
100
AcDbEntity
8
0
100
AcDbCircle
10
15.000000223517427
20
15.000000223517409
30
0
40
1.6000000000000003
210
0
220
0
230
1
0
LINE
5
150
100
AcDbEntity
8
0
100
AcDbLine
10
-16.931296991822197
20
30.615030596508337
30
0
11
-16.931296991822197
21
30.615030596508337
31
0
0
LINE
5
151
100
AcDbEntity
8
0
100
AcDbLine
10
18.911234863517112
20
33.710122575450555
30
0
11
15.411566378321361
21
61.707467371187796
31
0
0
CIRCLE
5
152
100
AcDbEntity
8
0
100
AcDbCircle
10
10.000000149011612
20
-36.500000521540642
30
0
40
1.6000000000000005
210
0
220
0
230
1
0
LINE
5
153
100
AcDbEntity
8
0
100
AcDbLine
10
-16.46441826996729
20
27.778126919023091
30
0
11
-16.46441826996729
21
27.778126919023091
31
0
0
ARC
5
154
100
AcDbEntity
8
0
100
AcDbCircle
10
-2.0752182194883062e-07
20
102.36882727629506
30
0
40
33.645212488641761
210
0
220
0
230
1
100
AcDbArc
50
249.12320738171471
51
290.87679299629207
0
CIRCLE
5
155
100
AcDbEntity
8
0
100
AcDbCircle
10
-10.000000149011612
20
-56.500000819563866
30
0
40
1.6000000000000014
210
0
220
0
230
1
0
CIRCLE
5
156
100
AcDbEntity
8
0
100
AcDbCircle
10
-22.071068035382886
20
-22.071068035382901
30
0
40
2.2999999999999998
210
0
220
0
230
1
0
ARC
5
157
100
AcDbEntity
8
0
100
AcDbCircle
10
13.49999981373549
20
67.500000961124897
30
0
40
3.7500000000000049
210
0
220
0
230
1
100
AcDbArc
50
-39.380683951222402
51
113.74843263621459
0
CIRCLE
5
158
100
AcDbEntity
8
0
100
AcDbCircle
10
-13.500000201165676
20
67.500000961124897
30
0
40
1.6000000000000003
210
0
220
0
230
1
0
ARC
5
159
100
AcDbEntity
8
0
100
AcDbCircle
10
19.876816815961281
20
62.265623737411993
30
0
40
4.5000000000000133
210
0
220
0
230
1
100
AcDbArc
50
140.61931604877785
51
187.12501712613999
0
CIRCLE
5
160
100
AcDbEntity
8
0
100
AcDbCircle
10
15.000000223517418
20
28.50000040978194
30
0
40
1.6000000000000003
210
0
220
0
230
1
0
CIRCLE
5
161
100
AcDbEntity
8
0
100
AcDbCircle
10
22.071068035382886
20
22.071068035382901
30
0
40
2.3000000000000003
210
0
220
0
230
1
0
ARC
5
162
100
AcDbEntity
8
0
100
AcDbCircle
10
22.071068035382886
20
22.071068035382901
30
0
40
6.9638436253879181
210
0
220
0
230
1
100
AcDbArc
50
-46.245142516863908
51
80.945319844137259
0
LINE
5
163
100
AcDbEntity
8
0
100
AcDbLine
10
-27.77812691902308
20
16.464418269967297
30
0
11
-27.77812691902308
21
16.464418269967297
31
0
0
ARC
5
164
100
AcDbEntity
8
0
100
AcDbCircle
10
-27.841735738796935
20
34.826435307898961
30
0
40
8.9999999999999929
210
-0
220
0
230
1
100
AcDbArc
50
346.39938896661704
51
352.87498287385978
0
LINE
5
165
100
AcDbEntity
8
0
100
AcDbLine
10
-18.911234863517134
20
33.710122575450548
30
0
11
-15.411566429522981
21
61.707466961574966
31
0
0
ARC
5
166
100
AcDbEntity
8
0
100
AcDbCircle
10
-22.071068035382886
20
22.071068035382901
30
0
40
6.9638436253879208
210
0
220
0
230
1
100
AcDbArc
50
99.054680155862755
51
226.24514251686389
0
CIRCLE
5
167
100
AcDbEntity
8
0
100
AcDbCircle
10
-10.000000149011612
20
54.999999478459351
30
0
40
1.6000000000000005
210
0
220
0
230
1
0
ARC
5
168
100
AcDbEntity
8
0
100
AcDbCircle
10
-19.87681686716288
20
62.265623327799162
30
0
40
4.4999999999999911
210
0
220
0
230
1
100
AcDbArc
50
-7.1250171261400155
51
39.380687631598484
0
CIRCLE
5
169
100
AcDbEntity
8
0
100
AcDbCircle
10
-10.000000149011612
20
34.999999180436127
30
0
40
1.6000000000000014
210
0
220
0
230
1
0
CIRCLE
5
170
100
AcDbEntity
8
0
100
AcDbCircle
10
10.000000149011612
20
34.999999180436127
30
0
40
1.5999999999999974
210
0
220
0
230
1
0
LINE
5
171
100
AcDbEntity
8
0
100
AcDbLine
10
-16.464418269967286
20
27.778126919023087
30
0
11
-16.464418269967286
21
27.778126919023087
31
0
0
ARC
5
172
100
AcDbEntity
8
0
100
AcDbCircle
10
-20.000000298023224
20
20.000000298023224
30
0
40
5.000000074505806
210
0
220
-0
230
1
100
AcDbArc
50
89.977882670489379
51
90.02211732951065
0
LINE
5
173
100
AcDbEntity
8
0
100
AcDbLine
10
14.792522062849782
20
-66.659821349118772
30
0
11
15.312499902211121
21
-62.499999092717935
31
0
0
CIRCLE
5
174
100
AcDbEntity
8
0
100
AcDbCircle
10
10.000000149011612
20
54.999999478459351
30
0
40
1.6000000000000005
210
0
220
0
230
1
0
CIRCLE
5
175
100
AcDbEntity
8
0
100
AcDbCircle
10
13.49999981373549
20
67.500000961124897
30
0
40
1.6000000000000003
210
0
220
0
230
1
0
ARC
5
176
100
AcDbEntity
8
0
100
AcDbCircle
10
-22.071068035382886
20
-22.071068035382901
30
0
40
6.9638436253879181
210
0
220
0
230
1
100
AcDbArc
50
133.75485748313613
51
249.87991379589531
0
CIRCLE
5
177
100
AcDbEntity
8
0
100
AcDbCircle
10
-7.4997185954717063
20
7.4997185954717107
30
0
40
2.2999999999999998
210
0
220
0
230
1
0
ARC
5
178
100
AcDbEntity
8
0
100
AcDbCircle
10
22.071068035382886
20
-22.071068035382901
30
0
40
6.9638436253879119
210
0
220
0
230
1
100
AcDbArc
50
-69.879913795891596
51
46.245142516863886
0
LINE
5
179
100
AcDbEntity
8
0
100
AcDbLine
10
-3.5356780328235002
20
-3.5353898844090859
30
0
11
-3.8311612176450716
21
-3.8308730692306581
31
0
0
ARC
5
180
100
AcDbEntity
8
0
100
AcDbCircle
10
-23.953901767437831
20
33.88582539345721
30
0
40
4.9999999999999902
210
-0
220
0
230
1
100
AcDbArc
50
279.05468015586257
51
346.39938896661704
0
LINE
5
181
100
AcDbEntity
8
0
100
AcDbLine
10
-3.5356780328234985
20
-3.5353898844090903
30
0
11
-3.8311612176450716
21
-3.8308730692306625
31
0
0
CIRCLE
5
182
100
AcDbEntity
8
0
100
AcDbCircle
10
15.000000223517411
20
-15.000000223517425
30
0
40
1.6000000000000003
210
0
220
0
230
1
0
CIRCLE
5
183
100
AcDbEntity
8
0
100
AcDbCircle
10
-7.4997185954717107
20
-7.499718595471708
30
0
40
2.2999999999999998
210
0
220
0
230
1
0
CIRCLE
5
184
100
AcDbEntity
8
0
100
AcDbCircle
10
22.071068035382886
20
-22.071068035382901
30
0
40
2.3000000000000003
210
0
220
0
230
1
0
LINE
5
185
100
AcDbEntity
8
0
100
AcDbLine
10
24.999999817235391
20
-19.994797845212805
30
0
11
25
21
-20.000000298023224
31
0
0
CIRCLE
5
186
100
AcDbEntity
8
0
100
AcDbCircle
10
7.4997185954717116
20
7.4997185954717054
30
0
40
2.2999999999999998
210
0
220
0
230
1
0
ARC
5
187
100
AcDbEntity
8
0
100
AcDbCircle
10
-50.399707679025539
20
1.3553350921599083
30
0
40
29.005965177264876
210
0
220
-0
230
1
100
AcDbArc
50
0
51
20.264948312754964
0
ENDSEC
0
SECTION
2
OBJECTS
0
DICTIONARY
5
C
100
AcDbDictionary
3
ACAD_GROUP
350
D
3
ACAD_MLINESTYLE
350
17
0
DICTIONARY
5
D
100
AcDbDictionary
0
DICTIONARY
5
1A
330
C
100
AcDbDictionary
0
DICTIONARY
5
17
100
AcDbDictionary
0
ENDSEC
0
EOF
