0
SECTION
2
HEADER
9
$INSUNITS
70
4
9
$ACADVER
1
AC1014
9
$HANDSEED
5
FFFF
0
ENDSEC
0
SECTION
2
TABLES
0
TABLE
2
VPORT
5
8
100
AcDbSymbolTable
0
ENDTAB
0
TABLE
2
LTYPE
5
5
100
AcDbSymbolTable
0
LTYPE
5
14
100
AcDbSymbolTableRecord
100
AcDbLinetypeTableRecord
2
BYBLOCK
70
0
0
LTYPE
5
15
100
AcDbSymbolTableRecord
100
AcDbLinetypeTableRecord
2
BYLAYER
70
0
0
ENDTAB
0
TABLE
2
LAYER
5
2
100
AcDbSymbolTable
70
2
0
LAYER
5
50
100
AcDbSymbolTableRecord
100
AcDbLayerTableRecord
2
0
70
0
6
CONTINUOUS
0
ENDTAB
0
TABLE
2
STYLE
5
3
100
AcDbSymbolTable
70
1
0
STYLE
5
11
100
AcDbSymbolTableRecord
100
AcDbTextStyleTableRecord
2
STANDARD
70
0
0
ENDTAB
0
TABLE
2
VIEW
5
6
100
AcDbSymbolTable
70
0
0
ENDTAB
0
TABLE
2
UCS
5
7
100
AcDbSymbolTable
70
0
0
ENDTAB
0
TABLE
2
APPID
5
9
100
AcDbSymbolTable
70
2
0
APPID
5
12
100
AcDbSymbolTableRecord
100
AcDbRegAppTableRecord
2
ACAD
70
0
0
ENDTAB
0
TABLE
2
DIMSTYLE
5
A
100
AcDbSymbolTable
70
1
0
ENDTAB
0
TABLE
2
BLOCK_RECORD
5
1
100
AcDbSymbolTable
70
1
0
BLOCK_RECORD
5
1F
100
AcDbSymbolTableRecord
100
AcDbBlockTableRecord
2
*MODEL_SPACE
0
BLOCK_RECORD
5
1B
100
AcDbSymbolTableRecord
100
AcDbBlockTableRecord
2
*PAPER_SPACE
0
ENDTAB
0
ENDSEC
0
SECTION
2
BLOCKS
0
BLOCK
5
20
100
AcDbEntity
100
AcDbBlockBegin
2
*MODEL_SPACE
0
ENDBLK
5
21
100
AcDbEntity
100
AcDbBlockEnd
0
BLOCK
5
1C
100
AcDbEntity
100
AcDbBlockBegin
2
*PAPER_SPACE
0
ENDBLK
5
1D
100
AcDbEntity
100
AcDbBlockEnd
0
ENDSEC
0
SECTION
2
ENTITIES
0
LINE
5
100
100
AcDbEntity
8
0
100
AcDbLine
10
-2.7234624416098185
20
-16.310009185563562
30
0
11
0
21
-14.917259313428028
31
0
0
ARC
5
101
100
AcDbEntity
8
0
100
AcDbCircle
10
131.42600138238726
20
-223.57793619451951
30
0
40
247.22044694040039
210
0
220
0
230
1
100
AcDbArc
50
125.79868866490978
51
127.39098490988835
0
ARC
5
102
100
AcDbEntity
8
0
100
AcDbCircle
10
-25.501446794535703
20
71.50260461163387
30
0
40
61.990871031584419
210
-0
220
0
230
1
100
AcDbArc
50
297.08472181533512
51
308.61125313304905
0
ARC
5
103
100
AcDbEntity
8
0
100
AcDbCircle
10
-58.103519024255874
20
-124.80615863703648
30
0
40
124.23128168274248
210
0
220
-0
230
1
100
AcDbArc
50
54.982943937934607
51
60.771152217159575
0
CIRCLE
5
104
100
AcDbEntity
8
0
100
AcDbCircle
10
7.500000111758709
20
-7.5000001117587098
30
0
40
1.600000000000001
210
0
220
0
230
1
0
LINE
5
105
100
AcDbEntity
8
0
100
AcDbLine
10
2.7234624416098541
20
16.310009185563558
30
0
11
0
21
14.917259313428026
31
0
0
ARC
5
106
100
AcDbEntity
8
0
100
AcDbCircle
10
-22.071068035382879
20
-22.071068035382918
30
0
40
6.1038354972275455
210
0
220
0
230
1
100
AcDbArc
50
146.4626913489509
51
303.53730865136606
0
LINE
5
107
100
AcDbEntity
8
0
100
AcDbLine
10
0
20
14.917259313428026
30
0
11
0
21
14.960868237121691
31
0
0
ARC
5
108
100
AcDbEntity
8
0
100
AcDbCircle
10
124.80615863703648
20
-58.103519024255903
30
0
40
124.23128168274248
210
0
220
0
230
1
100
AcDbArc
50
144.98294393793458
51
150.7711522171596
0
ARC
5
109
100
AcDbEntity
8
0
100
AcDbCircle
10
-223.57793619452161
20
131.42600138238902
30
0
40
247.22044694040309
210
0
220
0
230
1
100
AcDbArc
50
322.60901509010375
51
324.20131133509017
0
LINE
5
110
100
AcDbEntity
8
0
100
AcDbLine
10
-16.310009185563565
20
2.7234624416098385
30
0
11
-14.917259313428026
21
-7.0549468099776498e-15
31
0
0
CIRCLE
5
111
100
AcDbEntity
8
0
100
AcDbCircle
10
22.071068035382915
20
-22.071068035382897
30
0
40
1.6000000000000012
210
0
220
0
230
1
0
LINE
5
112
100
AcDbEntity
8
0
100
AcDbLine
10
-14.917259313428026
20
-7.0549468099776498e-15
30
0
11
-14.960868237121687
21
3.3219800770431115e-15
31
0
0
ARC
5
113
100
AcDbEntity
8
0
100
AcDbCircle
10
-131.42600138238907
20
-223.57793619452153
30
0
40
247.22044694040309
210
0
220
-0
230
1
100
AcDbArc
50
52.609015090103767
51
54.201311335090168
0
ARC
5
114
100
AcDbEntity
8
0
100
AcDbCircle
10
-131.42600138238714
20
223.57793619451954
30
0
40
247.22044694040036
210
-0
220
0
230
1
100
AcDbArc
50
305.79868866490978
51
307.39098490988829
0
CIRCLE
5
115
100
AcDbEntity
8
0
100
AcDbCircle
10
-22.071068035382879
20
-22.071068035382918
30
0
40
1.6000000000000012
210
0
220
0
230
1
0
LINE
5
116
100
AcDbEntity
8
0
100
AcDbLine
10
0
20
14.960868237121691
30
0
11
-2.5585044811684199
21
16.392459074830512
31
0
0
LINE
5
117
100
AcDbEntity
8
0
100
AcDbLine
10
-14.960868237121687
20
-1.4898021371414967e-15
30
0
11
-16.392459074830512
21
-2.5585044811684221
31
0
0
LINE
5
118
100
AcDbEntity
8
0
100
AcDbLine
10
14.960868237121687
20
-5.1541580169527744e-15
30
0
11
16.392459074830512
21
2.5585044811684137
31
0
0
CIRCLE
5
119
100
AcDbEntity
8
0
100
AcDbCircle
10
-15.000000223517418
20
15.000000223517418
30
0
40
3.0000000000000004
210
0
220
0
230
1
0
ARC
5
120
100
AcDbEntity
8
0
100
AcDbCircle
10
131.42600138238905
20
223.57793619452153
30
0
40
247.22044694040306
210
0
220
0
230
1
100
AcDbArc
50
232.60901509010378
51
234.20131133509017
0
CIRCLE
5
121
100
AcDbEntity
8
0
100
AcDbCircle
10
-15.000000223517418
20
-15.000000223517427
30
0
40
3.0000000000000004
210
0
220
0
230
1
0
ARC
5
122
100
AcDbEntity
8
0
100
AcDbCircle
10
-22.071068035382915
20
22.071068035382893
30
0
40
6.1038354972275215
210
0
220
-0
230
1
100
AcDbArc
50
56.462691348950749
51
213.53730865136632
0
ARC
5
123
100
AcDbEntity
8
0
100
AcDbCircle
10
223.57793619451954
20
131.42600138238714
30
0
40
247.22044694040036
210
0
220
0
230
1
100
AcDbArc
50
215.79868866490975
51
217.39098490988829
0
LINE
5
124
100
AcDbEntity
8
0
100
AcDbLine
10
0
20
-14.960868237121691
30
0
11
2.5585044811684199
21
-16.392459074830512
31
0
0
CIRCLE
5
125
100
AcDbEntity
8
0
100
AcDbCircle
10
7.500000111758709
20
7.5000001117587081
30
0
40
1.600000000000001
210
0
220
0
230
1
0
LINE
5
126
100
AcDbEntity
8
0
100
AcDbLine
10
16.310009185563565
20
-2.7234624416098407
30
0
11
14.917259313428026
21
5.2281094229531164e-15
31
0
0
ARC
5
127
100
AcDbEntity
8
0
100
AcDbCircle
10
-124.80615863703653
20
58.10351902425586
30
0
40
124.23128168274249
210
0
220
0
230
1
100
AcDbArc
50
324.98294393793464
51
330.77115221715957
0
LINE
5
128
100
AcDbEntity
8
0
100
AcDbLine
10
0
20
-14.917259313428028
30
0
11
0
21
-14.960868237121691
31
0
0
ARC
5
129
100
AcDbEntity
8
0
100
AcDbCircle
10
-71.50260461163387
20
-25.50144679453571
30
0
40
61.990871031584412
210
0
220
-0
230
1
100
AcDbArc
50
27.084721815335083
51
38.611253133049047
0
ARC
5
130
100
AcDbEntity
8
0
100
AcDbCircle
10
25.501446794535738
20
-71.50260461163387
30
0
40
61.990871031584419
210
0
220
0
230
1
100
AcDbArc
50
117.08472181533512
51
128.61125313304905
0
CIRCLE
5
131
100
AcDbEntity
8
0
100
AcDbCircle
10
15.000000223517418
20
15.000000223517414
30
0
40
3.0000000000000004
210
0
220
0
230
1
0
CIRCLE
5
132
100
AcDbEntity
8
0
100
AcDbCircle
10
-7.500000111758709
20
7.500000111758709
30
0
40
1.600000000000001
210
0
220
0
230
1
0
ARC
5
133
100
AcDbEntity
8
0
100
AcDbCircle
10
58.103519024255874
20
124.80615863703648
30
0
40
124.23128168274248
210
0
220
0
230
1
100
AcDbArc
50
234.98294393793458
51
240.77115221715954
0
CIRCLE
5
134
100
AcDbEntity
8
0
100
AcDbCircle
10
15.000000223517418
20
-15.00000022351742
30
0
40
3.0000000000000004
210
0
220
0
230
1
0
ARC
5
135
100
AcDbEntity
8
0
100
AcDbCircle
10
22.071068035382879
20
22.071068035382908
30
0
40
6.103835497227549
210
-0
220
0
230
1
100
AcDbArc
50
-33.537308651049152
51
123.5373086513661
0
CIRCLE
5
136
100
AcDbEntity
8
0
100
AcDbCircle
10
22.071068035382879
20
22.071068035382908
30
0
40
1.6000000000000012
210
0
220
0
230
1
0
LINE
5
137
100
AcDbEntity
8
0
100
AcDbLine
10
14.917259313428026
20
5.2281094229531164e-15
30
0
11
14.960868237121687
21
-5.1541580169527744e-15
31
0
0
ARC
5
138
100
AcDbEntity
8
0
100
AcDbCircle
10
71.50260461163387
20
25.501446794535703
30
0
40
61.990871031584412
210
0
220
0
230
1
100
AcDbArc
50
207.08472181533503
51
218.61125313304902
0
ARC
5
139
100
AcDbEntity
8
0
100
AcDbCircle
10
22.071068035382915
20
-22.071068035382897
30
0
40
6.1038354972275215
210
0
220
0
230
1
100
AcDbArc
50
-123.53730865104926
51
33.537308651366324
0
LINE
5
140
100
AcDbEntity
8
0
100
AcDbLine
10
0
20
-14.917259313428028
30
0
11
0
21
-14.960868237121694
31
0
0
CIRCLE
5
141
100
AcDbEntity
8
0
100
AcDbCircle
10
-22.071068035382915
20
22.071068035382893
30
0
40
1.6000000000000012
210
0
220
0
230
1
0
LINE
5
142
100
AcDbEntity
8
0
100
AcDbLine
10
-14.917259313428026
20
-1.5506378098629995e-14
30
0
11
-14.960868237121687
21
-1.4898021371414967e-15
31
0
0
LINE
5
143
100
AcDbEntity
8
0
100
AcDbLine
10
14.917259313428026
20
8.8817841970012539e-15
30
0
11
14.960868237121687
21
-5.1541580169527744e-15
31
0
0
CIRCLE
5
144
100
AcDbEntity
8
0
100
AcDbCircle
10
-7.500000111758709
20
-7.500000111758709
30
0
40
1.600000000000001
210
0
220
0
230
1
0
ARC
5
145
100
AcDbEntity
8
0
100
AcDbCircle
10
223.57793619452153
20
-131.4260013823891
30
0
40
247.22044694040309
210
0
220
0
230
1
100
AcDbArc
50
142.60901509010378
51
144.20131133509017
0
LINE
5
146
100
AcDbEntity
8
0
100
AcDbLine
10
0
20
14.917259313428028
30
0
11
0
21
14.960868237121691
31
0
0
ARC
5
147
100
AcDbEntity
8
0
100
AcDbCircle
10
-223.57793619451951
20
-131.42600138238717
30
0
40
247.22044694040036
210
0
220
-0
230
1
100
AcDbArc
50
35.798688664909768
51
37.390984909888317
0
ENDSEC
0
SECTION
2
OBJECTS
0
DICTIONARY
5
C
100
AcDbDictionary
3
ACAD_GROUP
350
D
3
ACAD_MLINESTYLE
350
17
0
DICTIONARY
5
D
100
AcDbDictionary
0
DICTIONARY
5
1A
330
C
100
AcDbDictionary
0
DICTIONARY
5
17
100
AcDbDictionary
0
ENDSEC
0
EOF
