0
SECTION
2
HEADER
9
$INSUNITS
70
4
9
$ACADVER
1
AC1014
9
$HANDSEED
5
FFFF
0
ENDSEC
0
SECTION
2
TABLES
0
TABLE
2
VPORT
5
8
100
AcDbSymbolTable
0
ENDTAB
0
TABLE
2
LTYPE
5
5
100
AcDbSymbolTable
0
LTYPE
5
14
100
AcDbSymbolTableRecord
100
AcDbLinetypeTableRecord
2
BYBLOCK
70
0
0
LTYPE
5
15
100
AcDbSymbolTableRecord
100
AcDbLinetypeTableRecord
2
BYLAYER
70
0
0
ENDTAB
0
TABLE
2
LAYER
5
2
100
AcDbSymbolTable
70
2
0
LAYER
5
50
100
AcDbSymbolTableRecord
100
AcDbLayerTableRecord
2
0
70
0
6
CONTINUOUS
0
ENDTAB
0
TABLE
2
STYLE
5
3
100
AcDbSymbolTable
70
1
0
STYLE
5
11
100
AcDbSymbolTableRecord
100
AcDbTextStyleTableRecord
2
STANDARD
70
0
0
ENDTAB
0
TABLE
2
VIEW
5
6
100
AcDbSymbolTable
70
0
0
ENDTAB
0
TABLE
2
UCS
5
7
100
AcDbSymbolTable
70
0
0
ENDTAB
0
TABLE
2
APPID
5
9
100
AcDbSymbolTable
70
2
0
APPID
5
12
100
AcDbSymbolTableRecord
100
AcDbRegAppTableRecord
2
ACAD
70
0
0
ENDTAB
0
TABLE
2
DIMSTYLE
5
A
100
AcDbSymbolTable
70
1
0
ENDTAB
0
TABLE
2
BLOCK_RECORD
5
1
100
AcDbSymbolTable
70
1
0
BLOCK_RECORD
5
1F
100
AcDbSymbolTableRecord
100
AcDbBlockTableRecord
2
*MODEL_SPACE
0
BLOCK_RECORD
5
1B
100
AcDbSymbolTableRecord
100
AcDbBlockTableRecord
2
*PAPER_SPACE
0
ENDTAB
0
ENDSEC
0
SECTION
2
BLOCKS
0
BLOCK
5
20
100
AcDbEntity
100
AcDbBlockBegin
2
*MODEL_SPACE
0
ENDBLK
5
21
100
AcDbEntity
100
AcDbBlockEnd
0
BLOCK
5
1C
100
AcDbEntity
100
AcDbBlockBegin
2
*PAPER_SPACE
0
ENDBLK
5
1D
100
AcDbEntity
100
AcDbBlockEnd
0
ENDSEC
0
SECTION
2
ENTITIES
0
LWPOLYLINE
5
100
100
AcDbEntity
8
0
100
AcDbPolyline
90
46
70
1
43
0.0
10
-19.019812468766666
20
12.130798209506981
42
-0.12451730648762785
10
-19.019812468766656
20
-12.281387592359852
42
0.070350498587914742
10
-19.919370873880951
20
-20.633568728787488
42
0.0056592036301417667
10
-19.768331558179213
20
-24.025621133583765
42
0.038091959743014443
10
-18.967546613859625
20
-30.058590125561867
42
-0.0057513203007174708
10
-18.20161554441032
20
-33.903991114514071
42
0.051930883231873448
10
-17.611458626424639
20
-35.889801329193453
42
-0.14537037496097721
10
-15.139378206864899
20
-59.591424381053599
42
0.061767456154838404
10
-15.290446499561554
20
-62.048091747519869
42
0.015612108311908101
10
-15.058072063055015
20
-64.534585752833181
10
-14.79223228313888
20
-66.660428518173333
42
0.18279493162167001
10
-13.139792160009947
20
-69.788478112013777
10
-13.203066488617026
20
-69.732623512976119
42
0.39830724468366785
10
-5.9196054066622583
20
-69.478347996933309
42
-0.41866760168950151
10
5.9196054066623205
20
-69.478347996933309
42
0.39830724468366896
10
13.203066488617097
20
-69.73262351297609
10
13.139792160009982
20
-69.788478112013749
42
0.1827949316216716
10
14.792232283138951
20
-66.660428518173319
10
15.058072063055103
20
-64.534585752832754
42
0.015612108311901428
10
15.29044649956157
20
-62.048091747519869
42
0.061767456154838404
10
15.139378206864896
20
-59.591424381053599
42
-0.14537037496097721
10
17.611458626424653
20
-35.889801329193453
42
0.051930883231873719
10
18.201615544410537
20
-33.903991114513815
42
-0.0057513203007150283
10
18.967546613859582
20
-30.058590125563267
42
0.03809195974300638
10
19.768331558179071
20
-24.025621133585759
42
0.0056592036301478981
10
19.919370873881014
20
-20.633568728786422
42
0.070350498587930146
10
19.019812468766645
20
-12.28138759235884
42
-0.12451730648762785
10
19.01981246876673
20
12.130798209508393
42
0.070350498587907706
10
19.919370873881022
20
20.48297934593613
42
0.022638931322054561
10
18.855396249145482
20
34.017624197138687
10
15.499999653548002
20
60.999998636543751
10
15.411610059714159
20
61.710782309776661
42
-0.20556605475829898
10
16.398734548472191
20
65.120955149317993
42
0.63325529636064681
10
13.499958900046227
20
71.249998558069038
42
0.41421040422601313
10
9.9999987933337664
20
67.749996404112238
10
9.9999986413891335
20
67.996867635176145
42
-0.41409885596432788
10
1.9999992549419332
20
60.000000819563859
10
-1.9999984353780671
20
60.000000819563851
42
-0.41421356237309503
10
-9.9999984353780746
20
68.000000819563851
10
-9.9999984353780746
20
67.749998558312626
42
0.41421365402652721
10
-13.499999530613422
20
71.249998558312456
42
0.63325100360548758
10
-16.398732559749963
20
65.120956729622023
42
-0.20556591270630376
10
-15.411609627372549
20
61.710785786445513
10
-15.499999653548002
20
60.999998636543751
10
-18.855396249145677
20
34.017624197137366
42
0.022638931322050877
10
-19.919370873881061
20
20.482979345934496
42
0.070350498587915963
0
LWPOLYLINE
5
101
100
AcDbEntity
8
0
100
AcDbPolyline
90
4
70
1
43
0.0
10
10.000000149011612
20
44.000000655651093
42
-0.99999999999999989
10
10.000000149011612
20
41.000000610947609
10
-10.000000149011612
20
41.000000610947609
42
-0.99999999999999989
10
-10.000000149011612
20
44.000000655651093
0
CIRCLE
5
102
100
AcDbEntity
8
0
100
AcDbCircle
10
15.000001266598737
20
-28.50000040978194
30
0
40
1.6000000000000003
210
0
220
0
230
1
0
LINE
5
103
100
AcDbEntity
8
0
100
AcDbLine
10
-6.8000000745058031
20
65.600000968575472
30
0
11
-6.8396218577927215
21
65.547171924192938
31
0
0
LWPOLYLINE
5
104
100
AcDbEntity
8
0
100
AcDbPolyline
90
3
70
1
43
0.0
10
-16.875643401178237
20
-50.00000074505806
10
-16.840739458880723
20
-50.279117336406657
42
-0.00046876288542120414
10
-16.87537766117476
20
-50.00000074505806
0
LINE
5
105
100
AcDbEntity
8
0
100
AcDbLine
10
-16.875643401178237
20
-50.00000074505806
30
0
11
-16.840739458881444
21
-50.279117336400816
31
0
0
LWPOLYLINE
5
106
100
AcDbEntity
8
0
100
AcDbPolyline
90
4
70
1
43
0.0
10
11.00000007450582
20
17.50000029802322
42
-0.99999999999999989
10
11.00000007450582
20
14.500000298023224
10
-11.000001391768457
20
14.500000298023224
42
-0.99999999999999989
10
-11.000001391768457
20
17.50000029802322
0
LWPOLYLINE
5
107
100
AcDbEntity
8
0
100
AcDbPolyline
90
4
70
1
43
0.0
10
11.500000186264501
20
-18.503378097240265
10
-11.500000186264501
20
-18.503378097240265
42
-0.99999999999999989
10
-11.500000186264501
20
-15.493787668303977
10
11.500000186264501
20
-15.493787668303977
42
-0.99999999999999989
0
LWPOLYLINE
5
108
100
AcDbEntity
8
0
100
AcDbPolyline
90
4
70
1
43
0.0
10
6.5000000745057918
20
-40.000000596046448
10
6.5000000745057918
20
-50.00000074505806
42
-0.99999999999999989
10
3.5000000745058202
20
-50.00000074505806
10
3.5000000745058202
20
-40.000000596046448
42
-0.99999999999999989
0
LINE
5
109
100
AcDbEntity
8
0
100
AcDbLine
10
6.8050858279846693
20
65.593219963936988
30
0
11
6.8000000745056965
21
65.600000968575486
31
0
0
LWPOLYLINE
5
110
100
AcDbEntity
8
0
100
AcDbPolyline
90
4
70
1
43
0.0
10
-3.5000000745058202
20
-40.000000596046448
10
-3.5000000745058202
20
-50.00000074505806
42
-0.99999999999999989
10
-6.5000000745057918
20
-50.00000074505806
10
-6.5000000745057918
20
-40.000000596046448
42
-0.99999999999999989
0
ARC
5
111
100
AcDbEntity
8
0
100
AcDbCircle
10
-8.4999990835785866
20
70.500001005828381
30
0
40
1.0000000149011614
210
0
220
-0
230
1
100
AcDbArc
50
89.870561620902308
51
90.129438379097721
0
LINE
5
112
100
AcDbEntity
8
0
100
AcDbLine
10
-13.128352722721637
20
70.495529396540348
30
0
11
-13.125000932387429
21
70.499998450405386
31
0
0
LINE
5
113
100
AcDbEntity
8
0
100
AcDbLine
10
-20
20
25
30
0
11
-20
21
25
31
0
0
ARC
5
114
100
AcDbEntity
8
0
100
AcDbCircle
10
11.24999925494194
20
70.249998468905673
30
0
40
1.25
210
0
220
0
230
1
100
AcDbArc
50
180
51
180
0
LINE
5
115
100
AcDbEntity
8
0
100
AcDbLine
10
-8.5022582075843189
20
71.499998468905687
30
0
11
-8.4999990835785866
21
71.499998468905687
31
0
0
CIRCLE
5
116
100
AcDbEntity
8
0
100
AcDbCircle
10
-13.499998357146978
20
67.49999855831264
30
0
40
1.6000000000000003
210
0
220
0
230
1
0
ARC
5
117
100
AcDbEntity
8
0
100
AcDbCircle
10
8.5000011697411537
20
70.500001005828381
30
0
40
1.0000000149011614
210
0
220
-0
230
1
100
AcDbArc
50
89.870561620902308
51
90.129438379103817
0
CIRCLE
5
118
100
AcDbEntity
8
0
100
AcDbCircle
10
-14.999999180436134
20
-28.500000409781929
30
0
40
1.6000000000000003
210
0
220
0
230
1
0
LINE
5
119
100
AcDbEntity
8
0
100
AcDbLine
10
6.8050858279846693
20
65.593219963936988
30
0
11
6.8000000745058031
21
65.600000968575472
31
0
0
LWPOLYLINE
5
120
100
AcDbEntity
8
0
100
AcDbPolyline
90
3
70
1
43
0.0
10
16.875643401178237
20
-50.00000074505806
10
16.875377633949622
20
-50.000000745056006
42
-0.0004687868974919279
10
16.840737670742207
20
-50.279131635625802
0
LINE
5
121
100
AcDbEntity
8
0
100
AcDbLine
10
13.125000932368707
20
70.499998450403766
30
0
11
13.128352868035975
21
70.495529202761304
31
0
0
LINE
5
122
100
AcDbEntity
8
0
100
AcDbLine
10
16.840737670742207
20
-50.279131635625802
30
0
11
16.875643401178237
21
-50.00000074505806
31
0
0
CIRCLE
5
123
100
AcDbEntity
8
0
100
AcDbCircle
10
13.50000164285305
20
67.49999855831264
30
0
40
1.6000000000000003
210
0
220
0
230
1
0
LINE
5
124
100
AcDbEntity
8
0
100
AcDbLine
10
16.875643401178237
20
-50.00000074505806
30
0
11
16.840737670742207
21
-50.279131635625802
31
0
0
CIRCLE
5
125
100
AcDbEntity
8
0
100
AcDbCircle
10
-10.000000149011612
20
-65.000000968575478
30
0
40
1.6000000000000003
210
0
220
0
230
1
0
CIRCLE
5
126
100
AcDbEntity
8
0
100
AcDbCircle
10
10.000000149011612
20
-65.000000968575478
30
0
40
1.6000000000000003
210
0
220
0
230
1
0
SPLINE
5
127
100
AcDbEntity
8
0
100
AcDbSpline
70
12
71
1
72
4
73
2
74
0
42
0.000000001
43
0.0000000001
44
0.0000000001
40
0
40
0
40
1
40
1
10
170
20
0
30
0
10
180
20
0
30
0
0
LINE
5
128
100
AcDbEntity
8
0
100
AcDbLine
10
-6.8000000745058031
20
65.600000968575472
30
0
11
-6.8396218577927215
21
65.547171924192938
31
0
0
LWPOLYLINE
5
129
100
AcDbEntity
8
0
100
AcDbPolyline
90
2
70
1
43
0.0
10
-25
20
20.001930399112595
10
-25
20
19.998070196933849
42
-0.00019301011325132574
0
CIRCLE
5
130
100
AcDbEntity
8
0
100
AcDbCircle
10
15.000001266598701
20
28.50000040978194
30
0
40
1.6000000000000003
210
0
220
0
230
1
0
CIRCLE
5
131
100
AcDbEntity
8
0
100
AcDbCircle
10
-14.999999180436134
20
28.500000409781943
30
0
40
1.6000000000000003
210
0
220
0
230
1
0
LINE
5
132
100
AcDbEntity
8
0
100
AcDbLine
10
8.5022602937468861
20
71.499998468905687
30
0
11
8.5000011697411537
21
71.499998468905687
31
0
0
ENDSEC
0
SECTION
2
OBJECTS
0
DICTIONARY
5
C
100
AcDbDictionary
3
ACAD_GROUP
350
D
3
ACAD_MLINESTYLE
350
17
0
DICTIONARY
5
D
100
AcDbDictionary
0
DICTIONARY
5
1A
330
C
100
AcDbDictionary
0
DICTIONARY
5
17
100
AcDbDictionary
0
ENDSEC
0
EOF
