0
SECTION
2
HEADER
9
$INSUNITS
70
4
9
$ACADVER
1
AC1014
9
$HANDSEED
5
FFFF
0
ENDSEC
0
SECTION
2
TABLES
0
TABLE
2
VPORT
5
8
100
AcDbSymbolTable
0
ENDTAB
0
TABLE
2
LTYPE
5
5
100
AcDbSymbolTable
0
LTYPE
5
14
100
AcDbSymbolTableRecord
100
AcDbLinetypeTableRecord
2
BYBLOCK
70
0
0
LTYPE
5
15
100
AcDbSymbolTableRecord
100
AcDbLinetypeTableRecord
2
BYLAYER
70
0
0
ENDTAB
0
TABLE
2
LAYER
5
2
100
AcDbSymbolTable
70
2
0
LAYER
5
50
100
AcDbSymbolTableRecord
100
AcDbLayerTableRecord
2
0
70
0
6
CONTINUOUS
0
ENDTAB
0
TABLE
2
STYLE
5
3
100
AcDbSymbolTable
70
1
0
STYLE
5
11
100
AcDbSymbolTableRecord
100
AcDbTextStyleTableRecord
2
STANDARD
70
0
0
ENDTAB
0
TABLE
2
VIEW
5
6
100
AcDbSymbolTable
70
0
0
ENDTAB
0
TABLE
2
UCS
5
7
100
AcDbSymbolTable
70
0
0
ENDTAB
0
TABLE
2
APPID
5
9
100
AcDbSymbolTable
70
2
0
APPID
5
12
100
AcDbSymbolTableRecord
100
AcDbRegAppTableRecord
2
ACAD
70
0
0
ENDTAB
0
TABLE
2
DIMSTYLE
5
A
100
AcDbSymbolTable
70
1
0
ENDTAB
0
TABLE
2
BLOCK_RECORD
5
1
100
AcDbSymbolTable
70
1
0
BLOCK_RECORD
5
1F
100
AcDbSymbolTableRecord
100
AcDbBlockTableRecord
2
*MODEL_SPACE
0
BLOCK_RECORD
5
1B
100
AcDbSymbolTableRecord
100
AcDbBlockTableRecord
2
*PAPER_SPACE
0
ENDTAB
0
ENDSEC
0
SECTION
2
BLOCKS
0
BLOCK
5
20
100
AcDbEntity
100
AcDbBlockBegin
2
*MODEL_SPACE
0
ENDBLK
5
21
100
AcDbEntity
100
AcDbBlockEnd
0
BLOCK
5
1C
100
AcDbEntity
100
AcDbBlockBegin
2
*PAPER_SPACE
0
ENDBLK
5
1D
100
AcDbEntity
100
AcDbBlockEnd
0
ENDSEC
0
SECTION
2
ENTITIES
0
CIRCLE
5
100
100
AcDbEntity
8
0
100
AcDbCircle
10
-2.1399993587841957
20
97.125887359617806
30
0
40
3.4999999999999964
0
LINE
5
101
100
AcDbEntity
8
0
100
AcDbLine
10
-5.6755334262439439
20
-16.422578734320652
30
0
11
-7.1399995203112043
21
-14.958112640253383
31
0
0
LINE
5
102
100
AcDbEntity
8
0
100
AcDbLine
10
-2.1399995203112088
20
-19.958112640253383
30
0
11
-5.6755334262439439
21
-16.422578734320652
31
0
0
CIRCLE
5
103
100
AcDbEntity
8
0
100
AcDbCircle
10
-2.1399993587841957
20
97.125887359617806
30
0
40
3.4999999999999964
0
CIRCLE
5
104
100
AcDbEntity
8
0
100
AcDbCircle
10
-2.1399993587841957
20
97.125887359617806
30
0
40
3.4999999999999964
0
LINE
5
105
100
AcDbEntity
8
0
100
AcDbLine
10
-11.332927126466831
20
95.006906694729793
30
0
11
-13.454787311310225
21
92.886126329869654
31
0
0
LINE
5
106
100
AcDbEntity
8
0
100
AcDbLine
10
-11.332927126466831
20
95.006906694729793
30
0
11
-13.454787311310225
21
92.886126329869654
31
0
0
LINE
5
107
100
AcDbEntity
8
0
100
AcDbLine
10
-11.332927126466831
20
95.006906694729793
30
0
11
-13.454787311310225
21
92.886126329869654
31
0
0
ARC
5
108
100
AcDbEntity
8
0
100
AcDbCircle
10
-9.9201533698766582
20
89.349692688463989
30
0
40
4.999999999999992
100
AcDbArc
50
134.98541730660097
51
258.0262943266747
0
LINE
5
109
100
AcDbEntity
8
0
100
AcDbLine
10
1.6910175704430985
20
-16.127095549499089
30
0
11
2.8600006287003987
21
-14.958112491241771
31
0
0
LINE
5
110
100
AcDbEntity
8
0
100
AcDbLine
10
9.1726289537753019
20
92.880367289958912
30
0
11
7.0518485889151616
21
95.002227474802311
31
0
0
LINE
5
111
100
AcDbEntity
8
0
100
AcDbLine
10
9.1726289537753019
20
92.880367289958912
30
0
11
7.0518485889151616
21
95.002227474802311
31
0
0
ARC
5
112
100
AcDbEntity
8
0
100
AcDbCircle
10
5.6361953123696491
20
89.345733348525371
30
0
40
4.9999999999999849
100
AcDbArc
50
-78.915794317352635
51
44.98541730660083
0
ARC
5
113
100
AcDbEntity
8
0
100
AcDbCircle
10
5.6361953123696509
20
89.345733348525371
30
0
40
4.9999999999999849
100
AcDbArc
50
-78.915794317352635
51
44.985417306600844
0
ARC
5
114
100
AcDbEntity
8
0
100
AcDbCircle
10
5.6361953123696491
20
89.345733348525371
30
0
40
4.9999999999999849
100
AcDbArc
50
-78.915794317352635
51
44.98541730660083
0
LINE
5
115
100
AcDbEntity
8
0
100
AcDbLine
10
2.8600007396678349
20
18.857291742727636
30
0
11
2.8600014835928551
21
73.059759628819535
31
0
0
LINE
5
116
100
AcDbEntity
8
0
100
AcDbLine
10
-7.1399995203112088
20
-19.958112640253383
30
0
11
-7.5578758477390728
21
-19.958112640253383
31
0
0
LINE
5
117
100
AcDbEntity
8
0
100
AcDbLine
10
9.1726289537753019
20
92.880367289958912
30
0
11
7.0518485889151616
21
95.002227474802311
31
0
0
LINE
5
118
100
AcDbEntity
8
0
100
AcDbLine
10
-2.1399995203112088
20
-19.958112640253383
30
0
11
1.6910175704430985
21
-16.127095549499089
31
0
0
LINE
5
119
100
AcDbEntity
8
0
100
AcDbLine
10
-7.1399996312786413
20
18.857291742727664
30
0
11
-7.1400002023999312
21
73.059759629076879
31
0
0
LINE
5
120
100
AcDbEntity
8
0
100
AcDbLine
10
2.8600007396678349
20
18.857291742727636
30
0
11
2.8600014835928551
21
73.059759628819535
31
0
0
LINE
5
121
100
AcDbEntity
8
0
100
AcDbLine
10
-7.1399996312786413
20
18.857291742727664
30
0
11
-7.1400002023999312
21
73.059759629076879
31
0
0
LINE
5
122
100
AcDbEntity
8
0
100
AcDbLine
10
2.8600007396678349
20
18.857291742727636
30
0
11
2.8600014835928551
21
73.059759628819535
31
0
0
LINE
5
123
100
AcDbEntity
8
0
100
AcDbLine
10
-7.1399996312786413
20
18.857291742727664
30
0
11
-7.1400002023999312
21
73.059759629076879
31
0
0
LINE
5
124
100
AcDbEntity
8
0
100
AcDbLine
10
5.8600006603108437
20
11.325887328136155
30
0
11
5.8600006603108437
21
11.325887328136155
31
0
0
LINE
5
125
100
AcDbEntity
8
0
100
AcDbLine
10
-10.13999955192164
20
11.325887328136155
30
0
11
-10.13999955192164
21
11.325887328136155
31
0
0
LINE
5
126
100
AcDbEntity
8
0
100
AcDbLine
10
-7.1399995203112043
20
-14.958112640253383
30
0
11
-9.2613196632356107
21
-12.836792497328965
31
0
0
LINE
5
127
100
AcDbEntity
8
0
100
AcDbLine
10
2.8600006287003987
20
-14.958112491241771
30
0
11
4.981320771624822
21
-12.836792348317317
31
0
0
ARC
5
128
100
AcDbEntity
8
0
100
AcDbCircle
10
-7.1399993196759626
20
-10.715472153769328
30
0
40
2.9999999999999982
100
AcDbArc
50
180
51
224.99999999999986
0
ARC
5
129
100
AcDbEntity
8
0
100
AcDbCircle
10
2.8600004280651521
20
-10.715472004757684
30
0
40
3.0000000000000115
100
AcDbArc
50
-44.999999999999496
51
0
0
CIRCLE
5
130
100
AcDbEntity
8
0
100
AcDbCircle
10
-2.1399994458054028
20
1.2548873597465882
30
0
40
1.5500000000000003
0
CIRCLE
5
131
100
AcDbEntity
8
0
100
AcDbCircle
10
-2.1399994458054028
20
8.3258873597465932
30
0
40
1.5500000000000007
0
LWPOLYLINE
5
132
100
AcDbEntity
8
0
100
AcDbPolyline
90
4
70
1
43
0.0
10
4.5399008835339041
20
88.249996826680956
10
2.4191205186737532
20
90.371857011524355
42
-0.99999999999999989
10
4.6117093763452477
20
92.563330055213157
10
6.7324897412053968
20
90.441469870369787
42
-0.99999999999999989
0
LWPOLYLINE
5
133
100
AcDbEntity
8
0
100
AcDbPolyline
90
4
70
1
43
0.0
10
2.4225579456204511
20
103.87759609474726
10
4.5444181304638445
20
105.99837645960744
42
-0.99999999999999989
10
6.7358911741526519
20
103.80578760193589
10
4.6140309893092581
20
101.68500723707575
42
-0.99999999999999989
0
LWPOLYLINE
5
134
100
AcDbEntity
8
0
100
AcDbPolyline
90
4
70
1
43
0.0
10
-8.8917080939136408
20
101.68844466402247
10
-11.012488458773792
20
103.81030484886585
42
-0.99999999999999989
10
-8.8198996011022928
20
106.00177789255467
10
-6.6991192362421446
20
103.87991770771129
42
-0.99999999999999989
0
LINE
5
135
100
AcDbEntity
8
0
100
AcDbLine
10
-8.8244168480322465
20
88.253398259628213
30
0
11
-6.7025566631888527
21
90.374178624488366
31
0
0
ARC
5
136
100
AcDbEntity
8
0
100
AcDbCircle
10
-7.7982931850332555
20
91.470473053324127
30
0
40
1.5499999999999927
100
AcDbArc
50
-45.014582693399291
51
134.98541730660114
0
LINE
5
137
100
AcDbEntity
8
0
100
AcDbLine
10
-8.8940297068776601
20
92.566767482159875
30
0
11
-11.015889891721052
21
90.445987117299723
31
0
0
ARC
5
138
100
AcDbEntity
8
0
100
AcDbCircle
10
-9.9201533698766493
20
89.349692688463989
30
0
40
1.5499999999999785
100
AcDbArc
50
134.98541730660148
51
314.98541730660037
0
LINE
5
139
100
AcDbEntity
8
0
100
AcDbLine
10
-10.139999319675962
20
-3.2765168097937942
30
0
11
-10.139999319675962
21
-10.715472153769328
31
0
0
LINE
5
140
100
AcDbEntity
8
0
100
AcDbLine
10
5.8600004280651641
20
-3.2765168097937751
30
0
11
5.8600004280651641
21
-10.715472004757684
31
0
0
LINE
5
141
100
AcDbEntity
8
0
100
AcDbLine
10
3.8736729497014988
20
9.9093169441517812
30
0
11
4.8463282180315046
21
5.6714575673095871
31
0
0
LINE
5
142
100
AcDbEntity
8
0
100
AcDbLine
10
-9.1263271096423146
20
5.6714575673095418
30
0
11
-8.1536718413122955
21
9.9093169441518185
31
0
0
ARC
5
143
100
AcDbEntity
8
0
100
AcDbCircle
10
29.860000680323118
20
-3.2765168097936503
30
0
40
39.999999999999076
100
AcDbArc
50
167.07359239223993
51
180
0
ARC
5
144
100
AcDbEntity
8
0
100
AcDbCircle
10
-34.139999571933444
20
-3.2765168097936117
30
0
40
39.999999999998607
100
AcDbArc
50
0
51
12.926407607760197
0
LINE
5
145
100
AcDbEntity
8
0
100
AcDbLine
10
-11.33045563973088
20
99.248155417091766
30
0
11
-17.618140434171966
21
107.6787986638371
31
0
0
LINE
5
146
100
AcDbEntity
8
0
100
AcDbLine
10
-11.188502802018093
20
114.0482352264179
30
0
11
-4.5704431219980943
21
108.9852420370529
31
0
0
LINE
5
147
100
AcDbEntity
8
0
100
AcDbLine
10
-17.618140434171966
20
107.6787986638371
30
0
11
-18.269922175030302
21
108.55271959205815
31
0
0
LINE
5
148
100
AcDbEntity
8
0
100
AcDbLine
10
-11.188502802018093
20
114.0482352264179
30
0
11
-12.390109131135398
21
114.96749630213556
31
0
0
LINE
5
149
100
AcDbEntity
8
0
100
AcDbLine
10
-17.8304774031491
20
114.43915043100907
30
0
11
-17.636367677810235
21
114.63154050961491
31
0
0
ARC
5
150
100
AcDbEntity
8
0
100
AcDbCircle
10
-14.662685772190873
20
111.24304402119867
30
0
40
4.5000000000000107
100
AcDbArc
50
134.74507658503993
51
216.71606085997894
0
ARC
5
151
100
AcDbEntity
8
0
100
AcDbCircle
10
-14.820552894736254
20
111.79055703422789
30
0
40
4.0000000000000018
100
AcDbArc
50
52.583041815544618
51
134.74507658503995
0
LINE
5
152
100
AcDbEntity
8
0
100
AcDbLine
10
7.0504569222717226
20
99.248155416618729
30
0
11
13.338141717146732
21
107.67879866304044
31
0
0
LINE
5
153
100
AcDbEntity
8
0
100
AcDbLine
10
13.338141717146732
20
107.67879866304044
30
0
11
13.98992345805005
21
108.55271959122794
31
0
0
ARC
5
154
100
AcDbEntity
8
0
100
AcDbCircle
10
10.382687055349093
20
111.24304402055412
30
0
40
4.5000000000000195
100
AcDbArc
50
-36.716060862927939
51
45.254923412011088
0
LINE
5
155
100
AcDbEntity
8
0
100
AcDbLine
10
13.550478686471825
20
114.43915043020148
30
0
11
13.356368961142858
21
114.6315405088173
31
0
0
ARC
5
156
100
AcDbEntity
8
0
100
AcDbCircle
10
10.540554177922651
20
111.79055703357521
30
0
40
4.0000000000000071
100
AcDbArc
50
45.254923412010982
51
127.41695818150635
0
LINE
5
157
100
AcDbEntity
8
0
100
AcDbLine
10
6.9085040853206934
20
114.04823522595217
30
0
11
8.1101104144853124
21
114.96749630160798
31
0
0
LINE
5
158
100
AcDbEntity
8
0
100
AcDbLine
10
6.9085040853206934
20
114.04823522595217
30
0
11
0.29044440504007318
21
108.98524203692776
31
0
0
ARC
5
159
100
AcDbEntity
8
0
100
AcDbCircle
10
-2.1399993583972394
20
112.16218130496044
30
0
40
3.9999999999999032
100
AcDbArc
50
232.58304181554351
51
307.4169581815068
0
ARC
5
160
100
AcDbEntity
8
0
100
AcDbCircle
10
-14.171608816167097
20
97.129185950194611
30
0
40
3.5443169967732704
100
AcDbArc
50
-36.782836355751016
51
36.716060859979457
0
ARC
5
161
100
AcDbEntity
8
0
100
AcDbCircle
10
9.89571589303727
20
97.126123793995234
30
0
40
3.5494389441341196
100
AcDbArc
50
143.28393913707194
51
216.7536199658596
0
LINE
5
162
100
AcDbEntity
8
0
100
AcDbLine
10
17.191403178095989
20
83.801066751789065
30
0
11
17.191403178095989
21
83.801066751789065
31
0
0
CIRCLE
5
163
100
AcDbEntity
8
0
100
AcDbCircle
10
-2.1399994458054028
20
-9.3521126402534112
30
0
40
1.5500000000000003
0
LINE
5
164
100
AcDbEntity
8
0
100
AcDbLine
10
4.5067207869965511
20
82.577634254248125
30
0
11
4.1895098201089525
21
81.585301804256588
31
0
0
ARC
5
165
100
AcDbEntity
8
0
100
AcDbCircle
10
7.1261440753744481
20
81.740304190113562
30
0
40
2.7500000000000275
100
AcDbArc
50
101.08420568264719
51
162.27289765826924
0
ARC
5
166
100
AcDbEntity
8
0
100
AcDbCircle
10
30.860001483594004
20
73.059759333068101
30
0
40
28.000000000001151
100
AcDbArc
50
162.27289765826944
51
180
0
ARC
5
167
100
AcDbEntity
8
0
100
AcDbCircle
10
-11.406142793734734
20
81.740304190590493
30
0
40
2.7500000000000115
100
AcDbArc
50
17.727102338781837
51
78.915794314403783
0
ARC
5
168
100
AcDbEntity
8
0
100
AcDbCircle
10
-35.140000202401076
20
73.059759334766596
30
0
40
28.000000000001144
100
AcDbArc
50
0
51
17.727102338781588
0
LINE
5
169
100
AcDbEntity
8
0
100
AcDbLine
10
-8.7867195053137426
20
82.577634254590237
30
0
11
-8.4695085384772177
21
81.585301804582372
31
0
0
LINE
5
170
100
AcDbEntity
8
0
100
AcDbLine
10
-10.877451297045743
20
84.439004859677169
30
0
11
-10.957467244494945
21
84.458478122988012
31
0
0
LINE
5
171
100
AcDbEntity
8
0
100
AcDbLine
10
7.5358613780184003
20
13.662014266274344
30
0
11
7.5358613780184003
21
13.662014266274344
31
0
0
LINE
5
172
100
AcDbEntity
8
0
100
AcDbLine
10
2.8600007396678349
20
18.857291742727636
30
0
11
2.8600013107631135
21
73.057291742727642
31
0
0
LINE
5
173
100
AcDbEntity
8
0
100
AcDbLine
10
7.5285979302932082
20
12.850707967704125
30
0
11
7.5285979302932082
21
12.850707967704125
31
0
0
LINE
5
174
100
AcDbEntity
8
0
100
AcDbLine
10
17.184139730370788
20
82.98976045321885
30
0
11
17.184139730370788
21
82.98976045321885
31
0
0
LINE
5
175
100
AcDbEntity
8
0
100
AcDbLine
10
-7.1399996312786413
20
18.857291742727664
30
0
11
-7.1399996312786405
21
17.647189645280022
31
0
0
LINE
5
176
100
AcDbEntity
8
0
100
AcDbLine
10
2.8600007396678349
20
18.857291742727636
30
0
11
2.860000723059279
21
17.647190102951296
31
0
0
LINE
5
177
100
AcDbEntity
8
0
100
AcDbLine
10
3.8736729497014988
20
9.9093169441517812
30
0
11
3.8025141128030215
21
10.186461047513276
31
0
0
LINE
5
178
100
AcDbEntity
8
0
100
AcDbLine
10
-8.1536718413122955
20
9.9093169441518185
30
0
11
-8.0825128993588145
21
10.186461475436083
31
0
0
ARC
5
179
100
AcDbEntity
8
0
100
AcDbCircle
10
-37.139999631278798
20
17.647189645280065
30
0
40
30.00000000000016
100
AcDbArc
50
345.5999377798135
51
360
0
ARC
5
180
100
AcDbEntity
8
0
100
AcDbCircle
10
32.860000723059464
20
17.647189691203447
30
0
40
30.000000000000192
100
AcDbArc
50
179.99999914622637
51
194.4000631545201
0
CIRCLE
5
181
100
AcDbEntity
8
0
100
AcDbCircle
10
28.860000641215819
20
-0.87411264038220071
30
0
40
3.4999999999999964
0
ARC
5
182
100
AcDbEntity
8
0
100
AcDbCircle
10
16.179447104508974
20
-15.53878231433961
30
0
40
4.0000000000000089
100
AcDbArc
50
225.25492341201098
51
307.4169581815064
0
LINE
5
183
100
AcDbEntity
8
0
100
AcDbLine
10
20.860000854366447
20
99.528291529029389
30
0
11
20.860000854366447
21
106.9672467239933
31
0
0
CIRCLE
5
184
100
AcDbEntity
8
0
100
AcDbCircle
10
28.860000641215819
20
-0.87411264038220071
30
0
40
3.4999999999999964
0
ARC
5
185
100
AcDbEntity
8
0
100
AcDbCircle
10
38.126144076166355
20
14.511470528645116
30
0
40
2.7500000000000115
100
AcDbArc
50
197.72710233878186
51
258.91579431440374
0
LINE
5
186
100
AcDbEntity
8
0
100
AcDbLine
10
22.846328332730113
20
86.34245777508383
30
0
11
21.873673064400101
21
90.58031715192601
31
0
0
ARC
5
187
100
AcDbEntity
8
0
100
AcDbCircle
10
16.33731422708253
20
-14.991269301318511
30
0
40
4.5000000000000195
100
AcDbArc
50
143.28393913707211
51
225.25492341201118
0
LINE
5
188
100
AcDbEntity
8
0
100
AcDbLine
10
35.846328392073929
20
90.580317151926053
30
0
11
34.873673123743906
21
86.342457775083801
31
0
0
ARC
5
189
100
AcDbEntity
8
0
100
AcDbCircle
10
28.860000640828861
20
-15.910406585724832
30
0
40
3.9999999999999032
100
AcDbArc
50
52.583041815543538
51
127.41695818150687
0
CIRCLE
5
190
100
AcDbEntity
8
0
100
AcDbCircle
10
28.860000641215819
20
-0.87411264038220071
30
0
40
3.4999999999999964
0
LINE
5
191
100
AcDbEntity
8
0
100
AcDbLine
10
23.860000653731213
20
111.20988721047738
30
0
11
21.738680510806788
21
109.0885670675529
31
0
0
LINE
5
192
100
AcDbEntity
8
0
100
AcDbLine
10
19.811497197110931
20
-17.796460506716567
30
0
11
26.429556877391551
21
-12.73346731769216
31
0
0
LINE
5
193
100
AcDbEntity
8
0
100
AcDbLine
10
36.860000602107576
20
99.528291529029389
30
0
11
36.860000602107569
21
106.96724687300491
31
0
0
ARC
5
194
100
AcDbEntity
8
0
100
AcDbCircle
10
61.860001484832701
20
23.192015384469009
30
0
40
28.000000000001151
100
AcDbArc
50
180
51
197.72710233878158
0
LWPOLYLINE
5
195
100
AcDbEntity
8
0
100
AcDbPolyline
90
4
70
1
43
0.0
10
22.105970293122365
20
-5.4332325178401497
42
-0.99999999999999989
10
24.297443336811174
20
-7.6258213755116522
10
22.175583151967778
20
-9.7466017403718297
42
-0.99999999999999989
10
19.984110108278973
20
-7.5540128827002917
0
LINE
5
196
100
AcDbEntity
8
0
100
AcDbLine
10
36.860000834353251
20
84.925887391099451
30
0
11
36.860000834353251
21
84.925887391099451
31
0
0
LINE
5
197
100
AcDbEntity
8
0
100
AcDbLine
10
13.169522595959799
20
-18.187375710965874
30
0
11
13.363632321288765
21
-18.379765789581697
31
0
0
LINE
5
198
100
AcDbEntity
8
0
100
AcDbLine
10
22.213280495435068
20
13.674140464987481
30
0
11
22.530491462322672
21
14.666472914979014
31
0
0
LINE
5
199
100
AcDbEntity
8
0
100
AcDbLine
10
33.86000080274281
20
111.20988735948899
30
0
11
35.981320945667221
21
109.08856721656456
31
0
0
LINE
5
200
100
AcDbEntity
8
0
100
AcDbLine
10
19.811497197110931
20
-17.796460506716567
30
0
11
18.609890867946312
21
-18.715721582372371
31
0
0
LINE
5
201
100
AcDbEntity
8
0
100
AcDbLine
10
35.506720787745365
20
13.674140464645372
30
0
11
35.189509820908839
21
14.66647291465323
31
0
0
LINE
5
202
100
AcDbEntity
8
0
100
AcDbLine
10
19.669544360159897
20
-2.9963806973831275
30
0
11
13.381859565284891
21
-11.427023943804837
31
0
0
LINE
5
203
100
AcDbEntity
8
0
100
AcDbLine
10
9.5358615520608314
20
13.262014266016759
30
0
11
9.5358615520608314
21
13.262014266016759
31
0
0
LINE
5
204
100
AcDbEntity
8
0
100
AcDbLine
10
20.860000622120765
20
84.925887391099451
30
0
11
20.860000622120765
21
84.925887391099451
31
0
0
LINE
5
205
100
AcDbEntity
8
0
100
AcDbLine
10
13.381859565284891
20
-11.427023943804837
30
0
11
12.730077824381571
21
-12.300944871992332
31
0
0
LINE
5
206
100
AcDbEntity
8
0
100
AcDbLine
10
23.860000542763778
20
77.394482976507959
30
0
11
23.859999798838764
21
23.192015090416067
31
0
0
LINE
5
207
100
AcDbEntity
8
0
100
AcDbLine
10
23.860000542763778
20
77.394482976507959
30
0
11
23.859999798838764
21
23.192015090416067
31
0
0
LINE
5
208
100
AcDbEntity
8
0
100
AcDbLine
10
33.860000913710252
20
77.394482976507931
30
0
11
33.86000148483155
21
23.192015090158726
31
0
0
LINE
5
209
100
AcDbEntity
8
0
100
AcDbLine
10
23.860000542763778
20
77.394482976507959
30
0
11
23.859999798838764
21
23.192015090416067
31
0
0
LINE
5
210
100
AcDbEntity
8
0
100
AcDbLine
10
33.860000913710252
20
77.394482976507931
30
0
11
33.86000148483155
21
23.192015090158726
31
0
0
LINE
5
211
100
AcDbEntity
8
0
100
AcDbLine
10
33.860000913710252
20
77.394482976507931
30
0
11
33.86000148483155
21
23.192015090158726
31
0
0
LINE
5
212
100
AcDbEntity
8
0
100
AcDbLine
10
23.860000542763778
20
77.394482976507959
30
0
11
23.859999971668504
21
23.19448297650796
31
0
0
LINE
5
213
100
AcDbEntity
8
0
100
AcDbLine
10
33.860000913710252
20
77.394482976507931
30
0
11
33.860000913710252
21
78.604585073955604
31
0
0
LINE
5
214
100
AcDbEntity
8
0
100
AcDbLine
10
23.860000542763778
20
77.394482976507959
30
0
11
23.860000559372338
21
78.604584616284285
31
0
0
LINE
5
215
100
AcDbEntity
8
0
100
AcDbLine
10
9.5285981043356305
20
12.450707967446544
30
0
11
9.5285981043356305
21
12.450707967446544
31
0
0
LINE
5
216
100
AcDbEntity
8
0
100
AcDbLine
10
25.028983711988509
20
112.37887026873469
30
0
11
23.860000653731213
21
111.20988721047738
31
0
0
LINE
5
217
100
AcDbEntity
8
0
100
AcDbLine
10
37.597452579477363
20
11.812769859558436
30
0
11
37.677468526926567
21
11.793296596247593
31
0
0
LINE
5
218
100
AcDbEntity
8
0
100
AcDbLine
10
37.908504084449717
20
-17.796460507182292
30
0
11
31.290444404429717
21
-12.733467317817286
31
0
0
LINE
5
219
100
AcDbEntity
8
0
100
AcDbLine
10
28.860000802742817
20
116.20988735948899
30
0
11
32.395534708675548
21
112.67435345355625
31
0
0
LINE
5
220
100
AcDbEntity
8
0
100
AcDbLine
10
33.860000802742817
20
116.20988735948899
30
0
11
34.27787713017068
21
116.20988735948899
31
0
0
LINE
5
221
100
AcDbEntity
8
0
100
AcDbLine
10
44.550478685580721
20
-18.187375711773459
30
0
11
44.356368960241852
21
-18.379765790379299
31
0
0
LINE
5
222
100
AcDbEntity
8
0
100
AcDbLine
10
38.052928408898453
20
1.2448680245058166
30
0
11
40.174788593741852
21
3.3656483893659583
31
0
0
LINE
5
223
100
AcDbEntity
8
0
100
AcDbLine
10
38.052928408898453
20
1.2448680245058166
30
0
11
40.174788593741852
21
3.3656483893659583
31
0
0
LWPOLYLINE
5
224
100
AcDbEntity
8
0
100
AcDbPolyline
90
4
70
1
43
0.0
10
37.73589117415267
20
5.8057876019358901
10
35.614030989309285
20
3.6850072370757303
42
-0.99999999999999989
10
33.422557945620476
20
5.8775960947472328
10
35.544418130463875
20
7.998376459607357
42
-0.99999999999999989
0
LINE
5
225
100
AcDbEntity
8
0
100
AcDbLine
10
28.860000802742817
20
116.20988735948899
30
0
11
25.028983711988509
21
112.37887026873469
31
0
0
LWPOLYLINE
5
226
100
AcDbEntity
8
0
100
AcDbPolyline
90
4
70
1
43
0.0
10
35.61170937634526
20
-5.4366699447868605
10
37.732489741205413
20
-7.5585301296302454
42
-0.99999999999999989
10
35.539900883533917
20
-9.7500031733190617
10
33.419120518673765
20
-7.6281429884756768
42
-0.99999999999999989
0
LINE
5
227
100
AcDbEntity
8
0
100
AcDbLine
10
17.547372328656319
20
3.3714074292766938
30
0
11
19.668152693516458
21
1.2495472444332913
31
0
0
LWPOLYLINE
5
228
100
AcDbEntity
8
0
100
AcDbPolyline
90
4
70
1
43
0.0
10
22.180100398897725
20
8.0017778925546477
10
24.300880763757881
20
5.8799177077112592
42
-0.99999999999999989
10
22.108291906086379
20
3.6884446640224473
10
19.98751154122623
20
5.8103048488658295
42
-0.99999999999999989
0
LINE
5
229
100
AcDbEntity
8
0
100
AcDbLine
10
38.050456922162503
20
-2.9963806978561536
30
0
11
44.338141716603587
21
-11.427023944601498
31
0
0
LINE
5
230
100
AcDbEntity
8
0
100
AcDbLine
10
32.395534708675548
20
112.67435345355625
30
0
11
33.86000080274281
21
111.20988735948899
31
0
0
LINE
5
231
100
AcDbEntity
8
0
100
AcDbLine
10
17.547372328656319
20
3.3714074292766938
30
0
11
19.668152693516458
21
1.2495472444332913
31
0
0
LINE
5
232
100
AcDbEntity
8
0
100
AcDbLine
10
17.547372328656319
20
3.3714074292766938
30
0
11
19.668152693516458
21
1.2495472444332913
31
0
0
LINE
5
233
100
AcDbEntity
8
0
100
AcDbLine
10
44.338141716603587
20
-11.427023944601498
30
0
11
44.98992345746192
21
-12.300944872822548
31
0
0
LINE
5
234
100
AcDbEntity
8
0
100
AcDbLine
10
37.908504084449717
20
-17.796460507182292
30
0
11
39.110110413567021
21
-18.715721582899949
31
0
0
LINE
5
235
100
AcDbEntity
8
0
100
AcDbLine
10
38.052928408898453
20
1.2448680245058166
30
0
11
40.174788593741852
21
3.3656483893659583
31
0
0
ARC
5
236
100
AcDbEntity
8
0
100
AcDbCircle
10
21.083805970061974
20
6.9060413707102342
30
0
40
4.9999999999999858
100
AcDbArc
50
101.08420568264739
51
224.98541730660082
0
ARC
5
237
100
AcDbEntity
8
0
100
AcDbCircle
10
41.382687054622487
20
-14.991269301963062
30
0
40
4.500000000000016
100
AcDbArc
50
-45.254923414960032
51
36.71606085997886
0
LINE
5
238
100
AcDbEntity
8
0
100
AcDbLine
10
19.184139904413211
20
82.589760452961258
30
0
11
19.184139904413211
21
82.589760452961258
31
0
0
ARC
5
239
100
AcDbEntity
8
0
100
AcDbCircle
10
21.083805970061977
20
6.9060413707102386
30
0
40
4.9999999999999813
100
AcDbArc
50
101.08420568264745
51
224.98541730660082
0
ARC
5
240
100
AcDbEntity
8
0
100
AcDbCircle
10
63.860000913710415
20
78.604585073955562
30
0
40
30.000000000000156
100
AcDbArc
50
165.59993777981362
51
180
0
ARC
5
241
100
AcDbEntity
8
0
100
AcDbCircle
10
60.86000085436504
20
99.528291529029218
30
0
40
39.999999999998593
100
AcDbArc
50
180
51
192.92640760776021
0
ARC
5
242
100
AcDbEntity
8
0
100
AcDbCircle
10
40.891610098598719
20
-0.87741123095900864
30
0
40
3.5443169967732677
100
AcDbArc
50
143.2171636442489
51
216.71606085997934
0
ARC
5
243
100
AcDbEntity
8
0
100
AcDbCircle
10
21.083805970061974
20
6.9060413707102342
30
0
40
4.9999999999999858
100
AcDbArc
50
101.08420568264739
51
224.98541730660082
0
ARC
5
244
100
AcDbEntity
8
0
100
AcDbCircle
10
41.54055417716787
20
-15.538782314992279
30
0
40
3.9999999999999964
100
AcDbArc
50
232.58304181554468
51
314.74507658503995
0
ARC
5
245
100
AcDbEntity
8
0
100
AcDbCircle
10
-6.1399994406278546
20
78.604585028032147
30
0
40
30.000000000000195
100
AcDbArc
50
-8.5377364625159387e-07
51
14.40006315452016
0
CIRCLE
5
246
100
AcDbEntity
8
0
100
AcDbCircle
10
28.860000728237011
20
105.60388735948902
30
0
40
1.5500000000000003
0
ARC
5
247
100
AcDbEntity
8
0
100
AcDbCircle
10
-4.140000201162386
20
23.192015386167508
30
0
40
28.000000000001151
100
AcDbArc
50
342.27289765826941
51
360
0
LINE
5
248
100
AcDbEntity
8
0
100
AcDbLine
10
34.873673123743906
20
86.342457775083801
30
0
11
34.802514181790428
21
86.065313243799508
31
0
0
ARC
5
249
100
AcDbEntity
8
0
100
AcDbCircle
10
19.593857207057173
20
14.51147052912205
30
0
40
2.7500000000000275
100
AcDbArc
50
281.08420568264717
51
342.27289765826902
0
LINE
5
250
100
AcDbEntity
8
0
100
AcDbLine
10
22.846328332730113
20
86.34245777508383
30
0
11
22.91748716962859
21
86.06531367172235
31
0
0
ARC
5
251
100
AcDbEntity
8
0
100
AcDbCircle
10
-3.1399993978915086
20
99.528291529029246
30
0
40
39.999999999999083
100
AcDbArc
50
-12.926407607760058
51
0
0
CIRCLE
5
252
100
AcDbEntity
8
0
100
AcDbCircle
10
28.860000728237015
20
87.925887359488996
30
0
40
1.5500000000000007
0
CIRCLE
5
253
100
AcDbEntity
8
0
100
AcDbCircle
10
28.860000728237015
20
94.996887359489008
30
0
40
1.5500000000000003
0
ARC
5
254
100
AcDbEntity
8
0
100
AcDbCircle
10
33.860000602107576
20
106.96724687300491
30
0
40
2.9999999999999938
100
AcDbArc
50
0
51
45
0
ARC
5
255
100
AcDbEntity
8
0
100
AcDbCircle
10
36.640154652308283
20
6.9020820307716235
30
0
40
4.999999999999992
100
AcDbArc
50
-45.014582693399042
51
78.026294326674702
0
LINE
5
256
100
AcDbEntity
8
0
100
AcDbLine
10
19.191403352138401
20
83.401066751531488
30
0
11
19.191403352138401
21
83.401066751531488
31
0
0
ARC
5
257
100
AcDbEntity
8
0
100
AcDbCircle
10
23.860000854366454
20
106.9672467239933
30
0
40
2.9999999999999876
100
AcDbArc
50
135.00000000000085
51
180
0
ARC
5
258
100
AcDbEntity
8
0
100
AcDbCircle
10
16.824285389394355
20
-0.8743490747596282
30
0
40
3.5494389441341188
100
AcDbArc
50
-36.716060862928146
51
36.753619965859599
0
ARC
5
259
100
AcDbEntity
8
0
100
AcDbCircle
10
93.860000723059471
20
17.647189691203447
30
0
40
30.000000000000192
100
AcDbArc
50
179.99999914622637
51
194.4000631545201
0
CIRCLE
5
260
100
AcDbEntity
8
0
100
AcDbCircle
10
89.860000641215834
20
-0.87411264038220071
30
0
40
3.4999999999999964
0
LINE
5
261
100
AcDbEntity
8
0
100
AcDbLine
10
70.535861552060837
20
13.262014266016759
30
0
11
70.535861552060837
21
13.262014266016759
31
0
0
LINE
5
262
100
AcDbEntity
8
0
100
AcDbLine
10
99.052928408898453
20
1.2448680245058166
30
0
11
101.17478859374185
21
3.3656483893659583
31
0
0
ARC
5
263
100
AcDbEntity
8
0
100
AcDbCircle
10
23.860000368721206
20
17.647189645280065
30
0
40
30.000000000000163
100
AcDbArc
50
345.5999377798135
51
360
0
LWPOLYLINE
5
264
100
AcDbEntity
8
0
100
AcDbPolyline
90
4
70
1
43
0.0
10
94.422557945620468
20
5.8775960947472328
10
96.544418130463868
20
7.998376459607357
42
-0.99999999999999989
10
98.73589117415267
20
5.8057876019358901
10
96.614030989309299
20
3.6850072370757303
42
-0.99999999999999989
0
LWPOLYLINE
5
265
100
AcDbEntity
8
0
100
AcDbPolyline
90
4
70
1
43
0.0
10
54.300880763757853
20
103.87991770771129
42
-0.99999999999999989
10
52.108291906086365
20
101.68844466402247
10
49.987511541226212
20
103.81030484886585
42
-0.99999999999999989
10
52.180100398897707
20
106.00177789255467
0
ARC
5
266
100
AcDbEntity
8
0
100
AcDbCircle
10
46.179447105263748
20
111.79055703422789
30
0
40
4.0000000000000018
100
AcDbArc
50
52.583041815544533
51
134.7450765850399
0
ARC
5
267
100
AcDbEntity
8
0
100
AcDbCircle
10
71.540554177922658
20
111.79055703357521
30
0
40
4.0000000000000053
100
AcDbArc
50
45.25492341201101
51
127.41695818150635
0
ARC
5
268
100
AcDbEntity
8
0
100
AcDbCircle
10
58.860000641602767
20
112.16218130496044
30
0
40
3.9999999999999032
100
AcDbArc
50
232.58304181554348
51
307.4169581815068
0
LINE
5
269
100
AcDbEntity
8
0
100
AcDbLine
10
67.9085040853207
20
114.04823522595217
30
0
11
61.290444405040077
21
108.98524203692776
31
0
0
ARC
5
270
100
AcDbEntity
8
0
100
AcDbCircle
10
97.640154652308283
20
6.9020820307716235
30
0
40
4.9999999999999858
100
AcDbArc
50
-45.014582693399042
51
78.02629432667446
0
ARC
5
271
100
AcDbEntity
8
0
100
AcDbCircle
10
77.824285389394362
20
-0.8743490747596282
30
0
40
3.5494389441341205
100
AcDbArc
50
-36.716060862928146
51
36.753619965859492
0
ARC
5
272
100
AcDbEntity
8
0
100
AcDbCircle
10
53.201706814966755
20
91.470473053324127
30
0
40
1.5499999999999896
100
AcDbArc
50
-45.01458269339949
51
134.98541730660142
0
ARC
5
273
100
AcDbEntity
8
0
100
AcDbCircle
10
51.079846630123356
20
89.349692688463989
30
0
40
1.5499999999999772
100
AcDbArc
50
134.98541730660142
51
314.98541730660031
0
LINE
5
274
100
AcDbEntity
8
0
100
AcDbLine
10
63.860000739667839
20
18.857291742727636
30
0
11
63.86000148359286
21
73.059759628819535
31
0
0
LWPOLYLINE
5
275
100
AcDbEntity
8
0
100
AcDbPolyline
90
4
70
1
43
0.0
10
63.422557945620454
20
103.87759609474726
10
65.544418130463853
20
105.99837645960744
42
-0.99999999999999989
10
67.735891174152655
20
103.80578760193589
10
65.614030989309271
20
101.68500723707575
42
-0.99999999999999989
0
ARC
5
276
100
AcDbEntity
8
0
100
AcDbCircle
10
46.828391183832906
20
97.129185950194611
30
0
40
3.5443169967732757
100
AcDbArc
50
-36.782836355751016
51
36.716060859979407
0
LINE
5
277
100
AcDbEntity
8
0
100
AcDbLine
10
53.860000368721366
20
18.857291742727664
30
0
11
53.859999797600075
21
73.059759629076879
31
0
0
ARC
5
278
100
AcDbEntity
8
0
100
AcDbCircle
10
70.895715893037277
20
97.126123793995234
30
0
40
3.5494389441341134
100
AcDbArc
50
143.28393913707188
51
216.75361996585954
0
ARC
5
279
100
AcDbEntity
8
0
100
AcDbCircle
10
68.126144075374455
20
81.740304190113562
30
0
40
2.7500000000000266
100
AcDbArc
50
101.08420568264705
51
162.2728976582693
0
ARC
5
280
100
AcDbEntity
8
0
100
AcDbCircle
10
49.59385720626527
20
81.740304190590493
30
0
40
2.7500000000000151
100
AcDbArc
50
17.727102338781862
51
78.91579431440374
0
LINE
5
281
100
AcDbEntity
8
0
100
AcDbLine
10
49.669544360269128
20
99.248155417091766
30
0
11
43.381859565828044
21
107.6787986638371
31
0
0
LINE
5
282
100
AcDbEntity
8
0
100
AcDbLine
10
49.811497197981907
20
114.0482352264179
30
0
11
56.429556878001904
21
108.9852420370529
31
0
0
LINE
5
283
100
AcDbEntity
8
0
100
AcDbLine
10
49.811497197981907
20
114.0482352264179
30
0
11
48.609890868864611
21
114.96749630213556
31
0
0
LINE
5
284
100
AcDbEntity
8
0
100
AcDbLine
10
68.050456922271735
20
99.248155416618729
30
0
11
74.33814171714674
21
107.67879866304044
31
0
0
LINE
5
285
100
AcDbEntity
8
0
100
AcDbLine
10
67.9085040853207
20
114.04823522595217
30
0
11
69.11011041448532
21
114.96749630160798
31
0
0
LINE
5
286
100
AcDbEntity
8
0
100
AcDbLine
10
53.860000368721366
20
18.857291742727664
30
0
11
53.859999797600075
21
73.059759629076879
31
0
0
LINE
5
287
100
AcDbEntity
8
0
100
AcDbLine
10
63.860000739667839
20
18.857291742727636
30
0
11
63.86000148359286
21
73.059759628819535
31
0
0
LINE
5
288
100
AcDbEntity
8
0
100
AcDbLine
10
86.028983711988502
20
112.37887026873469
30
0
11
84.86000065373122
21
111.20988721047738
31
0
0
CIRCLE
5
289
100
AcDbEntity
8
0
100
AcDbCircle
10
89.860000728237011
20
105.60388735948902
30
0
40
1.5500000000000003
0
LWPOLYLINE
5
290
100
AcDbEntity
8
0
100
AcDbPolyline
90
4
70
1
43
0.0
10
65.539900883533903
20
88.249996826680942
10
63.419120518673708
20
90.371857011524312
42
-0.99999999999999989
10
65.61170937634526
20
92.563330055213157
10
67.732489741205384
20
90.441469870369758
42
-0.99999999999999989
0
CIRCLE
5
291
100
AcDbEntity
8
0
100
AcDbCircle
10
58.860000641215812
20
97.125887359617806
30
0
40
3.4999999999999964
0
LINE
5
292
100
AcDbEntity
8
0
100
AcDbLine
10
65.506720786996553
20
82.577634254248125
30
0
11
65.189509820108952
21
81.585301804256588
31
0
0
CIRCLE
5
293
100
AcDbEntity
8
0
100
AcDbCircle
10
58.860000641215812
20
97.125887359617806
30
0
40
3.4999999999999964
0
LINE
5
294
100
AcDbEntity
8
0
100
AcDbLine
10
70.172628953775302
20
92.880367289958912
30
0
11
68.051848588915163
21
95.002227474802311
31
0
0
LINE
5
295
100
AcDbEntity
8
0
100
AcDbLine
10
50.122548702954262
20
84.439004859677169
30
0
11
50.042532755505064
21
84.458478122988012
31
0
0
ARC
5
296
100
AcDbEntity
8
0
100
AcDbCircle
10
51.079846630123349
20
89.349692688463989
30
0
40
4.999999999999992
100
AcDbArc
50
134.98541730660097
51
258.0262943266747
0
ARC
5
297
100
AcDbEntity
8
0
100
AcDbCircle
10
71.382687055349095
20
111.24304402055412
30
0
40
4.5000000000000195
100
AcDbArc
50
-36.71606086292789
51
45.254923412011024
0
LINE
5
298
100
AcDbEntity
8
0
100
AcDbLine
10
93.395534708675555
20
112.67435345355625
30
0
11
94.860000802742817
21
111.20988735948899
31
0
0
LINE
5
299
100
AcDbEntity
8
0
100
AcDbLine
10
53.860000368721366
20
18.857291742727664
30
0
11
53.859999797600075
21
73.059759629076879
31
0
0
ARC
5
300
100
AcDbEntity
8
0
100
AcDbCircle
10
66.636195312369637
20
89.345733348525357
30
0
40
4.9999999999999707
100
AcDbArc
50
-78.915794317352265
51
44.985417306600844
0
ARC
5
301
100
AcDbEntity
8
0
100
AcDbCircle
10
66.636195312369651
20
89.345733348525371
30
0
40
4.9999999999999858
100
AcDbArc
50
-78.915794317352479
51
44.985417306600844
0
LINE
5
302
100
AcDbEntity
8
0
100
AcDbLine
10
74.550478686471834
20
114.43915043020148
30
0
11
74.356368961142863
21
114.6315405088173
31
0
0
LINE
5
303
100
AcDbEntity
8
0
100
AcDbLine
10
89.860000802742817
20
116.20988735948899
30
0
11
86.028983711988502
21
112.37887026873469
31
0
0
ARC
5
304
100
AcDbEntity
8
0
100
AcDbCircle
10
94.860000602107576
20
106.96724687300491
30
0
40
2.9999999999999893
100
AcDbArc
50
0
51
44.999999999999808
0
LINE
5
305
100
AcDbEntity
8
0
100
AcDbLine
10
52.175583151967757
20
88.253398259628213
30
0
11
54.297443336811149
21
90.374178624488366
31
0
0
LINE
5
306
100
AcDbEntity
8
0
100
AcDbLine
10
70.172628953775302
20
92.880367289958912
30
0
11
68.051848588915163
21
95.002227474802311
31
0
0
LINE
5
307
100
AcDbEntity
8
0
100
AcDbLine
10
52.10597029312234
20
92.566767482159875
30
0
11
49.984110108278955
21
90.445987117299723
31
0
0
ARC
5
308
100
AcDbEntity
8
0
100
AcDbCircle
10
66.636195312369651
20
89.345733348525371
30
0
40
4.9999999999999858
100
AcDbArc
50
-78.915794317352479
51
44.985417306600844
0
LINE
5
309
100
AcDbEntity
8
0
100
AcDbLine
10
43.169522596850896
20
114.43915043100907
30
0
11
43.363632322189773
21
114.63154050961491
31
0
0
LINE
5
310
100
AcDbEntity
8
0
100
AcDbLine
10
94.860000802742817
20
111.20988735948899
30
0
11
96.981320945667235
21
109.08856721656456
31
0
0
ARC
5
311
100
AcDbEntity
8
0
100
AcDbCircle
10
46.337314227809131
20
111.24304402119867
30
0
40
4.500000000000016
100
AcDbArc
50
134.74507658503998
51
216.71606085997888
0
LINE
5
312
100
AcDbEntity
8
0
100
AcDbLine
10
49.667072873533172
20
95.006906694729793
30
0
11
47.54521268868978
21
92.886126329869654
31
0
0
LINE
5
313
100
AcDbEntity
8
0
100
AcDbLine
10
49.667072873533172
20
95.006906694729793
30
0
11
47.54521268868978
21
92.886126329869654
31
0
0
LINE
5
314
100
AcDbEntity
8
0
100
AcDbLine
10
94.860000802742817
20
116.20988735948899
30
0
11
95.277877130170694
21
116.20988735948899
31
0
0
LINE
5
315
100
AcDbEntity
8
0
100
AcDbLine
10
49.667072873533172
20
95.006906694729793
30
0
11
47.54521268868978
21
92.886126329869654
31
0
0
LINE
5
316
100
AcDbEntity
8
0
100
AcDbLine
10
70.172628953775302
20
92.880367289958912
30
0
11
68.051848588915163
21
95.002227474802311
31
0
0
CIRCLE
5
317
100
AcDbEntity
8
0
100
AcDbCircle
10
58.860000641215812
20
97.125887359617806
30
0
40
3.4999999999999964
0
LINE
5
318
100
AcDbEntity
8
0
100
AcDbLine
10
63.860000739667839
20
18.857291742727636
30
0
11
63.86000148359286
21
73.059759628819535
31
0
0
LINE
5
319
100
AcDbEntity
8
0
100
AcDbLine
10
89.860000802742817
20
116.20988735948899
30
0
11
93.395534708675555
21
112.67435345355625
31
0
0
ARC
5
320
100
AcDbEntity
8
0
100
AcDbCircle
10
84.860000854366461
20
106.9672467239933
30
0
40
2.9999999999999938
100
AcDbArc
50
135.00000000000077
51
180
0
LINE
5
321
100
AcDbEntity
8
0
100
AcDbLine
10
81.860000854366461
20
99.528291529029389
30
0
11
81.860000854366461
21
106.9672467239933
31
0
0
LINE
5
322
100
AcDbEntity
8
0
100
AcDbLine
10
43.381859565828044
20
107.6787986638371
30
0
11
42.730077824969698
21
108.55271959205815
31
0
0
LINE
5
323
100
AcDbEntity
8
0
100
AcDbLine
10
97.860000602107561
20
99.528291529029389
30
0
11
97.860000602107561
21
106.96724687300491
31
0
0
LINE
5
324
100
AcDbEntity
8
0
100
AcDbLine
10
52.213280494686259
20
82.577634254590237
30
0
11
52.530491461522786
21
81.585301804582372
31
0
0
LINE
5
325
100
AcDbEntity
8
0
100
AcDbLine
10
84.86000065373122
20
111.20988721047738
30
0
11
82.738680510806802
21
109.0885670675529
31
0
0
LINE
5
326
100
AcDbEntity
8
0
100
AcDbLine
10
63.860000739667839
20
18.857291742727636
30
0
11
63.860001310763117
21
73.057291742727642
31
0
0
LINE
5
327
100
AcDbEntity
8
0
100
AcDbLine
10
78.184139730370802
20
82.98976045321885
30
0
11
78.184139730370802
21
82.98976045321885
31
0
0
LINE
5
328
100
AcDbEntity
8
0
100
AcDbLine
10
84.860000542763771
20
77.394482976507959
30
0
11
84.860000559372338
21
78.604584616284285
31
0
0
LINE
5
329
100
AcDbEntity
8
0
100
AcDbLine
10
83.84632833273011
20
86.34245777508383
30
0
11
83.917487169628586
21
86.06531367172235
31
0
0
LINE
5
330
100
AcDbEntity
8
0
100
AcDbLine
10
80.191403352138408
20
83.401066751531488
30
0
11
80.191403352138408
21
83.401066751531488
31
0
0
ARC
5
331
100
AcDbEntity
8
0
100
AcDbCircle
10
124.86000091371042
20
78.604585073955562
30
0
40
30.000000000000174
100
AcDbArc
50
165.59993777981362
51
180
0
ARC
5
332
100
AcDbEntity
8
0
100
AcDbCircle
10
121.86000085436504
20
99.528291529029218
30
0
40
39.999999999998579
100
AcDbArc
50
180
51
192.92640760776021
0
LINE
5
333
100
AcDbEntity
8
0
100
AcDbLine
10
84.860000542763771
20
77.394482976507959
30
0
11
84.859999798838771
21
23.192015090416067
31
0
0
LINE
5
334
100
AcDbEntity
8
0
100
AcDbLine
10
97.860000834353258
20
84.925887391099451
30
0
11
97.860000834353258
21
84.925887391099451
31
0
0
LINE
5
335
100
AcDbEntity
8
0
100
AcDbLine
10
96.846328392073929
20
90.580317151926053
30
0
11
95.873673123743913
21
86.342457775083801
31
0
0
LINE
5
336
100
AcDbEntity
8
0
100
AcDbLine
10
84.860000542763771
20
77.394482976507959
30
0
11
84.859999798838771
21
23.192015090416067
31
0
0
LINE
5
337
100
AcDbEntity
8
0
100
AcDbLine
10
81.860000622120765
20
84.925887391099451
30
0
11
81.860000622120765
21
84.925887391099451
31
0
0
LINE
5
338
100
AcDbEntity
8
0
100
AcDbLine
10
95.873673123743913
20
86.342457775083801
30
0
11
95.802514181790428
21
86.065313243799508
31
0
0
ARC
5
339
100
AcDbEntity
8
0
100
AcDbCircle
10
57.860000602108492
20
99.528291529029246
30
0
40
39.999999999999076
100
AcDbArc
50
-12.926407607760058
51
0
0
CIRCLE
5
340
100
AcDbEntity
8
0
100
AcDbCircle
10
89.860000728237011
20
87.925887359488996
30
0
40
1.5500000000000007
0
LINE
5
341
100
AcDbEntity
8
0
100
AcDbLine
10
83.84632833273011
20
86.34245777508383
30
0
11
82.873673064400109
21
90.58031715192601
31
0
0
ARC
5
342
100
AcDbEntity
8
0
100
AcDbCircle
10
54.860000559372146
20
78.604585028032147
30
0
40
30.000000000000199
100
AcDbArc
50
-8.5377364625159387e-07
51
14.400063154520135
0
CIRCLE
5
343
100
AcDbEntity
8
0
100
AcDbCircle
10
89.860000728237011
20
94.996887359489008
30
0
40
1.5500000000000003
0
LINE
5
344
100
AcDbEntity
8
0
100
AcDbLine
10
74.33814171714674
20
107.67879866304044
30
0
11
74.989923458050058
21
108.55271959122794
31
0
0
ARC
5
345
100
AcDbEntity
8
0
100
AcDbCircle
10
25.859999797598931
20
73.059759334766596
30
0
40
28.000000000001144
100
AcDbArc
50
0
51
17.727102338781588
0
LINE
5
346
100
AcDbEntity
8
0
100
AcDbLine
10
94.860000913710252
20
77.394482976507931
30
0
11
94.860000913710252
21
78.604585073955604
31
0
0
LINE
5
347
100
AcDbEntity
8
0
100
AcDbLine
10
94.860000913710252
20
77.394482976507931
30
0
11
94.860001484831557
21
23.192015090158726
31
0
0
LINE
5
348
100
AcDbEntity
8
0
100
AcDbLine
10
94.860000913710252
20
77.394482976507931
30
0
11
94.860001484831557
21
23.192015090158726
31
0
0
LINE
5
349
100
AcDbEntity
8
0
100
AcDbLine
10
84.860000542763771
20
77.394482976507959
30
0
11
84.859999971668501
21
23.19448297650796
31
0
0
LINE
5
350
100
AcDbEntity
8
0
100
AcDbLine
10
80.1841399044132
20
82.589760452961258
30
0
11
80.1841399044132
21
82.589760452961258
31
0
0
LINE
5
351
100
AcDbEntity
8
0
100
AcDbLine
10
94.860000913710252
20
77.394482976507931
30
0
11
94.860001484831557
21
23.192015090158726
31
0
0
ARC
5
352
100
AcDbEntity
8
0
100
AcDbCircle
10
91.860001483594004
20
73.059759333068101
30
0
40
28.000000000001151
100
AcDbArc
50
162.27289765826944
51
180
0
LINE
5
353
100
AcDbEntity
8
0
100
AcDbLine
10
84.860000542763771
20
77.394482976507959
30
0
11
84.859999798838771
21
23.192015090416067
31
0
0
LINE
5
354
100
AcDbEntity
8
0
100
AcDbLine
10
78.191403178095996
20
83.801066751789065
30
0
11
78.191403178095996
21
83.801066751789065
31
0
0
CIRCLE
5
355
100
AcDbEntity
8
0
100
AcDbCircle
10
89.860000641215834
20
-0.87411264038220071
30
0
40
3.4999999999999964
0
ARC
5
356
100
AcDbEntity
8
0
100
AcDbCircle
10
99.126144076166369
20
14.511470528645116
30
0
40
2.7500000000000151
100
AcDbArc
50
197.72710233878175
51
258.91579431440346
0
CIRCLE
5
357
100
AcDbEntity
8
0
100
AcDbCircle
10
89.860000641215834
20
-0.87411264038220071
30
0
40
3.4999999999999964
0
ARC
5
358
100
AcDbEntity
8
0
100
AcDbCircle
10
82.083805970061974
20
6.9060413707102342
30
0
40
4.9999999999999858
100
AcDbArc
50
101.08420568264735
51
224.98541730660085
0
LINE
5
359
100
AcDbEntity
8
0
100
AcDbLine
10
70.528598104335629
20
12.450707967446544
30
0
11
70.528598104335629
21
12.450707967446544
31
0
0
LWPOLYLINE
5
360
100
AcDbEntity
8
0
100
AcDbPolyline
90
4
70
1
43
0.0
10
80.98751154122624
20
5.8103048488658358
42
-0.99999999999999989
10
83.180100398897736
20
8.0017778925546548
10
85.300880763757888
20
5.8799177077112681
42
-0.99999999999999989
10
83.108291906086379
20
3.6884446640224477
0
ARC
5
361
100
AcDbEntity
8
0
100
AcDbCircle
10
56.85999979883762
20
23.192015386167508
30
0
40
28.000000000001151
100
AcDbArc
50
342.27289765826941
51
360
0
ARC
5
362
100
AcDbEntity
8
0
100
AcDbCircle
10
80.593857207057184
20
14.51147052912205
30
0
40
2.7500000000000253
100
AcDbArc
50
281.084205682647
51
342.27289765826902
0
ARC
5
363
100
AcDbEntity
8
0
100
AcDbCircle
10
82.083805970061974
20
6.9060413707102342
30
0
40
4.9999999999999858
100
AcDbArc
50
101.08420568264735
51
224.98541730660085
0
ARC
5
364
100
AcDbEntity
8
0
100
AcDbCircle
10
122.86000148483271
20
23.192015384469009
30
0
40
28.000000000001162
100
AcDbArc
50
180
51
197.72710233878161
0
ARC
5
365
100
AcDbEntity
8
0
100
AcDbCircle
10
101.89161009859873
20
-0.87741123095900864
30
0
40
3.5443169967732757
100
AcDbArc
50
143.21716364424901
51
216.71606085997925
0
ARC
5
366
100
AcDbEntity
8
0
100
AcDbCircle
10
82.083805970061988
20
6.9060413707102448
30
0
40
4.9999999999999787
100
AcDbArc
50
101.08420568264754
51
224.98541730660082
0
LINE
5
367
100
AcDbEntity
8
0
100
AcDbLine
10
53.860000479688793
20
-14.958112640253383
30
0
11
51.738680336764403
21
-12.836792497328965
31
0
0
ARC
5
368
100
AcDbEntity
8
0
100
AcDbCircle
10
89.860000640828872
20
-15.910406585724832
30
0
40
3.9999999999999032
100
AcDbArc
50
52.583041815543453
51
127.41695818150703
0
LINE
5
369
100
AcDbEntity
8
0
100
AcDbLine
10
78.547372328656323
20
3.3714074292766938
30
0
11
80.668152693516475
21
1.2495472444332913
31
0
0
LINE
5
370
100
AcDbEntity
8
0
100
AcDbLine
10
68.528597930293216
20
12.850707967704125
30
0
11
68.528597930293216
21
12.850707967704125
31
0
0
LINE
5
371
100
AcDbEntity
8
0
100
AcDbLine
10
64.873672949701501
20
9.9093169441517812
30
0
11
64.802514112803038
21
10.186461047513276
31
0
0
ARC
5
372
100
AcDbEntity
8
0
100
AcDbCircle
10
63.860000428065156
20
-10.715472004757684
30
0
40
3.000000000000008
100
AcDbArc
50
-44.999999999999538
51
0
0
LINE
5
373
100
AcDbEntity
8
0
100
AcDbLine
10
96.506720787745365
20
13.674140464645372
30
0
11
96.189509820908853
21
14.66647291465323
31
0
0
LWPOLYLINE
5
374
100
AcDbEntity
8
0
100
AcDbPolyline
90
4
70
1
43
0.0
10
94.419120518673765
20
-7.6281429884756768
42
-0.99999999999999989
10
96.61170937634526
20
-5.4366699447868605
10
98.732489741205427
20
-7.5585301296302454
42
-0.99999999999999989
10
96.539900883533932
20
-9.7500031733190617
0
LINE
5
375
100
AcDbEntity
8
0
100
AcDbLine
10
64.873672949701501
20
9.9093169441517812
30
0
11
65.846328218031516
21
5.6714575673095871
31
0
0
LINE
5
376
100
AcDbEntity
8
0
100
AcDbLine
10
66.860000660310845
20
11.325887328136155
30
0
11
66.860000660310845
21
11.325887328136155
31
0
0
LINE
5
377
100
AcDbEntity
8
0
100
AcDbLine
10
66.860000428065177
20
-3.2765168097937751
30
0
11
66.860000428065177
21
-10.715472004757684
31
0
0
LINE
5
378
100
AcDbEntity
8
0
100
AcDbLine
10
62.691017570443108
20
-16.127095549499089
30
0
11
63.860000628700405
21
-14.958112491241771
31
0
0
ARC
5
379
100
AcDbEntity
8
0
100
AcDbCircle
10
26.860000428066563
20
-3.2765168097936117
30
0
40
39.999999999998607
100
AcDbArc
50
0
51
12.926407607760197
0
LINE
5
380
100
AcDbEntity
8
0
100
AcDbLine
10
80.811497197110938
20
-17.796460506716567
30
0
11
87.429556877391548
21
-12.73346731769216
31
0
0
LINE
5
381
100
AcDbEntity
8
0
100
AcDbLine
10
78.547372328656323
20
3.3714074292766938
30
0
11
80.668152693516475
21
1.2495472444332913
31
0
0
LINE
5
382
100
AcDbEntity
8
0
100
AcDbLine
10
63.860000739667839
20
18.857291742727636
30
0
11
63.860000723059287
21
17.647190102951296
31
0
0
LINE
5
383
100
AcDbEntity
8
0
100
AcDbLine
10
68.53586137801841
20
13.662014266274344
30
0
11
68.53586137801841
21
13.662014266274344
31
0
0
LINE
5
384
100
AcDbEntity
8
0
100
AcDbLine
10
98.597452579477363
20
11.812769859558436
30
0
11
98.677468526926589
21
11.793296596247593
31
0
0
LINE
5
385
100
AcDbEntity
8
0
100
AcDbLine
10
74.169522595959805
20
-18.187375710965874
30
0
11
74.363632321288776
21
-18.379765789581697
31
0
0
LINE
5
386
100
AcDbEntity
8
0
100
AcDbLine
10
53.860000368721366
20
18.857291742727664
30
0
11
53.860000368721366
21
17.647189645280022
31
0
0
LINE
5
387
100
AcDbEntity
8
0
100
AcDbLine
10
74.381859565284884
20
-11.427023943804837
30
0
11
73.730077824381581
21
-12.300944871992332
31
0
0
ARC
5
388
100
AcDbEntity
8
0
100
AcDbCircle
10
90.860000680323125
20
-3.2765168097936503
30
0
40
39.999999999999083
100
AcDbArc
50
167.07359239223993
51
180
0
LINE
5
389
100
AcDbEntity
8
0
100
AcDbLine
10
63.860000628700405
20
-14.958112491241771
30
0
11
65.981320771624823
21
-12.836792348317317
31
0
0
LINE
5
390
100
AcDbEntity
8
0
100
AcDbLine
10
83.213280495435072
20
13.674140464987481
30
0
11
83.530491462322672
21
14.666472914979014
31
0
0
LINE
5
391
100
AcDbEntity
8
0
100
AcDbLine
10
50.860000680324049
20
-3.2765168097937942
30
0
11
50.860000680324049
21
-10.715472153769328
31
0
0
LINE
5
392
100
AcDbEntity
8
0
100
AcDbLine
10
51.873672890357689
20
5.6714575673095418
30
0
11
52.846328158687712
21
9.9093169441518185
31
0
0
LINE
5
393
100
AcDbEntity
8
0
100
AcDbLine
10
52.846328158687712
20
9.9093169441518185
30
0
11
52.917487100641196
21
10.186461475436083
31
0
0
LINE
5
394
100
AcDbEntity
8
0
100
AcDbLine
10
99.052928408898453
20
1.2448680245058166
30
0
11
101.17478859374185
21
3.3656483893659583
31
0
0
CIRCLE
5
395
100
AcDbEntity
8
0
100
AcDbCircle
10
58.860000554194599
20
8.3258873597465932
30
0
40
1.5500000000000007
0
LINE
5
396
100
AcDbEntity
8
0
100
AcDbLine
10
58.860000479688793
20
-19.958112640253383
30
0
11
55.324466573756069
21
-16.422578734320652
31
0
0
ARC
5
397
100
AcDbEntity
8
0
100
AcDbCircle
10
77.33731422708253
20
-14.991269301318511
30
0
40
4.5000000000000115
100
AcDbArc
50
143.28393913707203
51
225.25492341201121
0
LINE
5
398
100
AcDbEntity
8
0
100
AcDbLine
10
55.324466573756069
20
-16.422578734320652
30
0
11
53.860000479688793
21
-14.958112640253383
31
0
0
LINE
5
399
100
AcDbEntity
8
0
100
AcDbLine
10
99.052928408898453
20
1.2448680245058166
30
0
11
101.17478859374185
21
3.3656483893659583
31
0
0
LINE
5
400
100
AcDbEntity
8
0
100
AcDbLine
10
53.860000479688793
20
-19.958112640253383
30
0
11
53.442124152260931
21
-19.958112640253383
31
0
0
ARC
5
401
100
AcDbEntity
8
0
100
AcDbCircle
10
53.860000680324035
20
-10.715472153769328
30
0
40
2.9999999999999893
100
AcDbArc
50
180
51
225.00000000000006
0
LINE
5
402
100
AcDbEntity
8
0
100
AcDbLine
10
78.547372328656323
20
3.3714074292766938
30
0
11
80.668152693516475
21
1.2495472444332913
31
0
0
LWPOLYLINE
5
403
100
AcDbEntity
8
0
100
AcDbPolyline
90
4
70
1
43
0.0
10
83.175583151967786
20
-9.7466017403718297
42
-0.99999999999999989
10
80.984110108278969
20
-7.5540128827002917
10
83.105970293122397
20
-5.4332325178401497
42
-0.99999999999999989
10
85.29744333681117
20
-7.6258213755116522
0
ARC
5
404
100
AcDbEntity
8
0
100
AcDbCircle
10
102.54055417716788
20
-15.538782314992279
30
0
40
4.0000000000000018
100
AcDbArc
50
232.58304181554468
51
314.74507658504001
0
LINE
5
405
100
AcDbEntity
8
0
100
AcDbLine
10
80.811497197110938
20
-17.796460506716567
30
0
11
79.609890867946319
21
-18.715721582372371
31
0
0
CIRCLE
5
406
100
AcDbEntity
8
0
100
AcDbCircle
10
58.860000554194599
20
1.2548873597465882
30
0
40
1.5500000000000003
0
LINE
5
407
100
AcDbEntity
8
0
100
AcDbLine
10
50.86000044807836
20
11.325887328136155
30
0
11
50.86000044807836
21
11.325887328136155
31
0
0
CIRCLE
5
408
100
AcDbEntity
8
0
100
AcDbCircle
10
58.860000554194599
20
-9.3521126402534112
30
0
40
1.5500000000000003
0
LINE
5
409
100
AcDbEntity
8
0
100
AcDbLine
10
58.860000479688793
20
-19.958112640253383
30
0
11
62.691017570443108
21
-16.127095549499089
31
0
0
LINE
5
410
100
AcDbEntity
8
0
100
AcDbLine
10
80.669544360159904
20
-2.9963806973831275
30
0
11
74.381859565284884
21
-11.427023943804837
31
0
0
ARC
5
411
100
AcDbEntity
8
0
100
AcDbCircle
10
102.38268705462249
20
-14.991269301963062
30
0
40
4.500000000000016
100
AcDbArc
50
-45.254923414959883
51
36.716060859978754
0
LINE
5
412
100
AcDbEntity
8
0
100
AcDbLine
10
105.55047868558074
20
-18.187375711773459
30
0
11
105.35636896024187
21
-18.379765790379299
31
0
0
LINE
5
413
100
AcDbEntity
8
0
100
AcDbLine
10
105.3381417166036
20
-11.427023944601498
30
0
11
105.98992345746194
21
-12.300944872822548
31
0
0
LINE
5
414
100
AcDbEntity
8
0
100
AcDbLine
10
98.908504084449731
20
-17.796460507182292
30
0
11
100.11011041356703
21
-18.715721582899949
31
0
0
ARC
5
415
100
AcDbEntity
8
0
100
AcDbCircle
10
77.179447104508967
20
-15.53878231433961
30
0
40
4.0000000000000053
100
AcDbArc
50
225.25492341201118
51
307.41695818150657
0
LINE
5
416
100
AcDbEntity
8
0
100
AcDbLine
10
98.908504084449731
20
-17.796460507182292
30
0
11
92.290444404429735
21
-12.733467317817286
31
0
0
LINE
5
417
100
AcDbEntity
8
0
100
AcDbLine
10
99.05045692216251
20
-2.9963806978561536
30
0
11
105.3381417166036
21
-11.427023944601498
31
0
0
ENDSEC
0
SECTION
2
OBJECTS
0
DICTIONARY
5
C
100
AcDbDictionary
3
ACAD_GROUP
350
D
3
ACAD_MLINESTYLE
350
17
0
DICTIONARY
5
D
100
AcDbDictionary
0
DICTIONARY
5
1A
330
C
100
AcDbDictionary
0
DICTIONARY
5
17
100
AcDbDictionary
0
ENDSEC
0
EOF
