0
SECTION
2
HEADER
9
$INSUNITS
70
4
9
$ACADVER
1
AC1014
9
$HANDSEED
5
FFFF
0
ENDSEC
0
SECTION
2
TABLES
0
TABLE
2
VPORT
5
8
100
AcDbSymbolTable
0
ENDTAB
0
TABLE
2
LTYPE
5
5
100
AcDbSymbolTable
0
LTYPE
5
14
100
AcDbSymbolTableRecord
100
AcDbLinetypeTableRecord
2
BYBLOCK
70
0
0
LTYPE
5
15
100
AcDbSymbolTableRecord
100
AcDbLinetypeTableRecord
2
BYLAYER
70
0
0
ENDTAB
0
TABLE
2
LAYER
5
2
100
AcDbSymbolTable
70
2
0
LAYER
5
50
100
AcDbSymbolTableRecord
100
AcDbLayerTableRecord
2
0
70
0
6
CONTINUOUS
0
ENDTAB
0
TABLE
2
STYLE
5
3
100
AcDbSymbolTable
70
1
0
STYLE
5
11
100
AcDbSymbolTableRecord
100
AcDbTextStyleTableRecord
2
STANDARD
70
0
0
ENDTAB
0
TABLE
2
VIEW
5
6
100
AcDbSymbolTable
70
0
0
ENDTAB
0
TABLE
2
UCS
5
7
100
AcDbSymbolTable
70
0
0
ENDTAB
0
TABLE
2
APPID
5
9
100
AcDbSymbolTable
70
2
0
APPID
5
12
100
AcDbSymbolTableRecord
100
AcDbRegAppTableRecord
2
ACAD
70
0
0
ENDTAB
0
TABLE
2
DIMSTYLE
5
A
100
AcDbSymbolTable
70
1
0
ENDTAB
0
TABLE
2
BLOCK_RECORD
5
1
100
AcDbSymbolTable
70
1
0
BLOCK_RECORD
5
1F
100
AcDbSymbolTableRecord
100
AcDbBlockTableRecord
2
*MODEL_SPACE
0
BLOCK_RECORD
5
1B
100
AcDbSymbolTableRecord
100
AcDbBlockTableRecord
2
*PAPER_SPACE
0
ENDTAB
0
ENDSEC
0
SECTION
2
BLOCKS
0
BLOCK
5
20
100
AcDbEntity
100
AcDbBlockBegin
2
*MODEL_SPACE
0
ENDBLK
5
21
100
AcDbEntity
100
AcDbBlockEnd
0
BLOCK
5
1C
100
AcDbEntity
100
AcDbBlockBegin
2
*PAPER_SPACE
0
ENDBLK
5
1D
100
AcDbEntity
100
AcDbBlockEnd
0
ENDSEC
0
SECTION
2
ENTITIES
0
LWPOLYLINE
5
100
100
AcDbEntity
8
0
100
AcDbPolyline
90
4
70
1
43
0.0
10
63.265516340149681
20
62.044571368307388
42
-0.99999999999999989
10
61.143656155360866
20
59.923791003392651
10
59.022875790446115
20
62.045651188181488
42
-0.99999999999999989
10
61.14473597523493
20
64.166431553096217
0
LINE
5
101
100
AcDbEntity
8
0
100
AcDbLine
10
58.667072786566486
20
53.206906694621892
30
0
11
56.545212601777671
21
51.086126329707149
31
0
0
LWPOLYLINE
5
102
100
AcDbEntity
8
0
100
AcDbPolyline
90
4
70
1
43
0.0
10
63.265516340149681
20
62.044571368307388
42
-0.99999999999999989
10
61.143656155360866
20
59.923791003392651
10
59.022875790446115
20
62.045651188181488
42
-0.99999999999999989
10
61.14473597523493
20
64.166431553096217
0
LWPOLYLINE
5
103
100
AcDbEntity
8
0
100
AcDbPolyline
90
4
70
1
43
0.0
10
61.1413165456337
20
50.731403145701606
42
-0.99999999999999989
10
63.262096910548451
20
48.60954296091279
10
61.140236725759621
20
46.48876259599804
42
-0.99999999999999989
10
59.019456360844877
20
48.610622780786855
0
LWPOLYLINE
5
104
100
AcDbEntity
8
0
100
AcDbPolyline
90
4
70
1
43
0.0
10
59.022875790446115
20
62.045651188181488
42
-0.99999999999999989
10
61.14473597523493
20
64.166431553096217
10
63.265516340149681
20
62.044571368307388
42
-0.99999999999999989
10
61.143656155360866
20
59.923791003392651
0
LWPOLYLINE
5
105
100
AcDbEntity
8
0
100
AcDbPolyline
90
4
70
1
43
0.0
10
63.262096910548451
20
48.60954296091279
10
61.140236725759621
20
46.48876259599804
42
-0.99999999999999989
10
59.019456360844877
20
48.610622780786855
10
61.1413165456337
20
50.731403145701606
42
-0.99999999999999989
0
ARC
5
106
100
AcDbEntity
8
0
100
AcDbCircle
10
60.859999612852398
20
40.593302734682851
30
0
40
2.0000000000000107
210
0
220
-0
230
1
100
AcDbArc
50
0
51
96.398933745210144
0
LWPOLYLINE
5
107
100
AcDbEntity
8
0
100
AcDbPolyline
90
4
70
1
43
0.0
10
59.019456360844877
20
48.610622780786855
10
61.1413165456337
20
50.731403145701606
42
-0.99999999999999989
10
63.262096910548451
20
48.60954296091279
10
61.140236725759621
20
46.48876259599804
42
-0.99999999999999989
0
ARC
5
108
100
AcDbEntity
8
0
100
AcDbCircle
10
60.859999612852398
20
40.593302734682851
30
0
40
2.0000000000000107
210
0
220
-0
230
1
100
AcDbArc
50
0
51
96.398933745210144
0
ARC
5
109
100
AcDbEntity
8
0
100
AcDbCircle
10
60.859999612852398
20
40.593302734682851
30
0
40
2.0000000000000107
210
0
220
-0
230
1
100
AcDbArc
50
0
51
96.398933745210144
0
ARC
5
110
100
AcDbEntity
8
0
100
AcDbCircle
10
60.079846543302253
20
47.549692688392454
30
0
40
4.9999999999999911
210
0
220
0
230
1
100
AcDbArc
50
134.98541730807557
51
276.39893374521023
0
ARC
5
111
100
AcDbEntity
8
0
100
AcDbCircle
10
60.079846543302253
20
47.549692688392454
30
0
40
4.9999999999999911
210
0
220
0
230
1
100
AcDbArc
50
134.98541730807557
51
276.39893374521023
0
SPLINE
5
112
100
AcDbEntity
8
0
100
AcDbSpline
70
12
71
2
41
1
41
0.66666666666666763
41
1
72
6
73
3
74
0
42
0.000000001
43
0.0000000001
44
0.0000000001
40
0
40
0
40
0
40
0.44873162610029849
40
0.44873162610029849
40
0.44873162610029849
10
58.669544273193289
20
57.448155416983937
30
0
10
60.500234835091163
20
55.327136324841
30
0
10
58.667072786566486
20
53.206906694621892
30
0
0
ARC
5
113
100
AcDbEntity
8
0
100
AcDbCircle
10
60.079846543302253
20
47.549692688392454
30
0
40
4.9999999999999911
210
0
220
0
230
1
100
AcDbArc
50
134.98541730807557
51
276.39893374521023
0
SPLINE
5
114
100
AcDbEntity
8
0
100
AcDbSpline
70
12
71
2
41
1
41
0.66666666666666763
41
1
72
6
73
3
74
0
42
0.000000001
43
0.0000000001
44
0.0000000001
40
0
40
0
40
0
40
0.44873162610029849
40
0.44873162610029849
40
0.44873162610029849
10
58.669544273193289
20
57.448155416983937
30
0
10
60.500234835091163
20
55.327136324841
30
0
10
58.667072786566486
20
53.206906694621892
30
0
0
SPLINE
5
115
100
AcDbEntity
8
0
100
AcDbSpline
70
12
71
2
41
1
41
0.66666666666666763
41
1
72
6
73
3
74
0
42
0.000000001
43
0.0000000001
44
0.0000000001
40
0
40
0
40
0
40
0.44873162610029849
40
0.44873162610029849
40
0.44873162610029849
10
58.669544273193289
20
57.448155416983937
30
0
10
60.500234835091163
20
55.327136324841
30
0
10
58.667072786566486
20
53.206906694621892
30
0
0
LINE
5
116
100
AcDbEntity
8
0
100
AcDbLine
10
58.667072786566486
20
53.206906694621892
30
0
11
56.545212601777671
21
51.086126329707149
31
0
0
LINE
5
117
100
AcDbEntity
8
0
100
AcDbLine
10
-41.140001402995622
20
42.860718109619107
30
0
11
-41.140002269785612
21
-39.402295051239207
31
0
0
LINE
5
118
100
AcDbEntity
8
0
100
AcDbLine
10
58.667072786566486
20
53.206906694621892
30
0
11
56.545212601777671
21
51.086126329707149
31
0
0
LINE
5
119
100
AcDbEntity
8
0
100
AcDbLine
10
28.859998597004378
20
42.860718109619107
30
0
11
28.859998671510183
21
49.931718162303156
31
0
0
LINE
5
120
100
AcDbEntity
8
0
100
AcDbLine
10
38.859998746015982
20
42.860718109619107
30
0
11
38.859998671510176
21
49.931718162303156
31
0
0
LINE
5
121
100
AcDbEntity
8
0
100
AcDbLine
10
38.859998746015982
20
42.860718109619107
30
0
11
38.859998671510176
21
49.931718162303156
31
0
0
LINE
5
122
100
AcDbEntity
8
0
100
AcDbLine
10
28.859998597004378
20
62.86071840764231
30
0
11
28.859998597004378
21
66.14471796060748
31
0
0
LINE
5
123
100
AcDbEntity
8
0
100
AcDbLine
10
28.859998597004378
20
42.860718109619107
30
0
11
28.859998671510183
21
49.931718162303156
31
0
0
LINE
5
124
100
AcDbEntity
8
0
100
AcDbLine
10
33.859998746015989
20
71.144718109619092
30
0
11
30.028981655261681
21
67.313701018864776
31
0
0
CIRCLE
5
125
100
AcDbEntity
8
0
100
AcDbCircle
10
33.859998671510183
20
42.860718109619107
30
0
40
1.5000000000000002
210
0
220
0
230
1
0
LINE
5
126
100
AcDbEntity
8
0
100
AcDbLine
10
38.859998746015982
20
62.86071840764231
30
0
11
38.859998746015982
21
66.144718109619092
31
0
0
CIRCLE
5
127
100
AcDbEntity
8
0
100
AcDbCircle
10
33.859998671510183
20
60.538718109619118
30
0
40
1.5000000000000036
210
0
220
0
230
1
0
LINE
5
128
100
AcDbEntity
8
0
100
AcDbLine
10
28.859998597004378
20
42.860718109619107
30
0
11
28.859998671510183
21
49.931718162303156
31
0
0
LINE
5
129
100
AcDbEntity
8
0
100
AcDbLine
10
38.859998746015982
20
71.144718109619092
30
0
11
39.277875073443845
21
71.144718109619092
31
0
0
LINE
5
130
100
AcDbEntity
8
0
100
AcDbLine
10
33.859998746015989
20
71.144718109619092
30
0
11
37.39553265194872
21
67.60918420368634
31
0
0
LINE
5
131
100
AcDbEntity
8
0
100
AcDbLine
10
30.028981655261681
20
67.313701018864776
30
0
11
28.859998597004378
21
66.14471796060748
31
0
0
LINE
5
132
100
AcDbEntity
8
0
100
AcDbLine
10
38.859998671510176
20
49.931718162303156
30
0
11
38.859998746015982
21
62.86071840764231
31
0
0
CIRCLE
5
133
100
AcDbEntity
8
0
100
AcDbCircle
10
33.859998671510183
20
49.931718109619112
30
0
40
1.5000000000000002
210
0
220
0
230
1
0
LINE
5
134
100
AcDbEntity
8
0
100
AcDbLine
10
28.859998671510183
20
49.931718162303156
30
0
11
28.859998597004378
21
62.86071840764231
31
0
0
LINE
5
135
100
AcDbEntity
8
0
100
AcDbLine
10
38.859998746015982
20
42.860718109619107
30
0
11
38.859998671510176
21
49.931718162303156
31
0
0
ARC
5
136
100
AcDbEntity
8
0
100
AcDbCircle
10
51.860000315776027
20
71.325889043577718
30
0
40
4.9999999999999911
210
0
220
-0
230
1
100
AcDbArc
50
45.007971534598987
51
225.00797153459933
0
ARC
5
137
100
AcDbEntity
8
0
100
AcDbCircle
10
51.860000315776027
20
71.325889043577718
30
0
40
4.9999999999999911
210
0
220
-0
230
1
100
AcDbArc
50
45.007971534598987
51
225.00797153459933
0
LINE
5
138
100
AcDbEntity
8
0
100
AcDbLine
10
2.8600006287004032
20
-41.674112640253405
30
0
11
2.8600014954904029
21
40.588900520604909
31
0
0
LINE
5
139
100
AcDbEntity
8
0
100
AcDbLine
10
-31.140001253984018
20
42.860718109619107
30
0
11
-31.140000387147619
21
-39.406697286390802
31
0
0
LINE
5
140
100
AcDbEntity
8
0
100
AcDbLine
10
38.859998746015982
20
42.860718109619107
30
0
11
38.859999612852377
21
-39.406697286390802
31
0
0
LINE
5
141
100
AcDbEntity
8
0
100
AcDbLine
10
37.39553265194872
20
67.60918420368634
30
0
11
38.859998746015982
21
66.144718109619092
31
0
0
LINE
5
142
100
AcDbEntity
8
0
100
AcDbLine
10
48.324958341214042
20
67.789863274711621
30
0
11
58.669544273193289
21
57.448155416983937
31
0
0
LINE
5
143
100
AcDbEntity
8
0
100
AcDbLine
10
48.324958341214042
20
67.789863274711621
30
0
11
58.669544273193289
21
57.448155416983937
31
0
0
LINE
5
144
100
AcDbEntity
8
0
100
AcDbLine
10
-41.140001402995622
20
42.860718109619107
30
0
11
-41.140002269785612
21
-39.402295051239207
31
0
0
LINE
5
145
100
AcDbEntity
8
0
100
AcDbLine
10
-31.140001253984018
20
42.860718109619107
30
0
11
-31.140000387147619
21
-39.406697286390802
31
0
0
LINE
5
146
100
AcDbEntity
8
0
100
AcDbLine
10
38.859998746015982
20
42.860718109619107
30
0
11
38.859999612852377
21
-39.406697286390802
31
0
0
ARC
5
147
100
AcDbEntity
8
0
100
AcDbCircle
10
51.860000315776027
20
71.325889043577718
30
0
40
4.9999999999999911
210
0
220
-0
230
1
100
AcDbArc
50
45.007971534598987
51
225.00797153459933
0
LINE
5
148
100
AcDbEntity
8
0
100
AcDbLine
10
-31.140001253984018
20
42.860718109619107
30
0
11
-31.140000387147619
21
-39.406697286390802
31
0
0
LINE
5
149
100
AcDbEntity
8
0
100
AcDbLine
10
28.859998597004378
20
42.860718109619107
30
0
11
28.859997730214388
21
-39.402295051239207
31
0
0
LINE
5
150
100
AcDbEntity
8
0
100
AcDbLine
10
-7.1399995203111999
20
-41.674112640253405
30
0
11
-7.1400003871475892
21
40.593302755756504
31
0
0
LINE
5
151
100
AcDbEntity
8
0
100
AcDbLine
10
2.8600006287004032
20
-41.674112640253405
30
0
11
2.8600014954904029
21
40.588900520604909
31
0
0
LINE
5
152
100
AcDbEntity
8
0
100
AcDbLine
10
62.8600004796888
20
-41.674112640253405
30
0
11
62.859999612852413
21
40.593302755756504
31
0
0
LINE
5
153
100
AcDbEntity
8
0
100
AcDbLine
10
-7.1399995203111999
20
-41.674112640253405
30
0
11
-7.1400003871475892
21
40.593302755756504
31
0
0
LINE
5
154
100
AcDbEntity
8
0
100
AcDbLine
10
62.8600004796888
20
-41.674112640253405
30
0
11
62.859999612852413
21
40.593302755756504
31
0
0
LINE
5
155
100
AcDbEntity
8
0
100
AcDbLine
10
-7.1399995203111999
20
-41.674112640253405
30
0
11
-7.1400003871475892
21
40.593302755756504
31
0
0
LINE
5
156
100
AcDbEntity
8
0
100
AcDbLine
10
62.8600004796888
20
-41.674112640253405
30
0
11
62.859999612852413
21
40.593302755756504
31
0
0
LINE
5
157
100
AcDbEntity
8
0
100
AcDbLine
10
2.8600006287004032
20
-41.674112640253405
30
0
11
2.8600014954904029
21
40.588900520604909
31
0
0
CIRCLE
5
158
100
AcDbEntity
8
0
100
AcDbCircle
10
67.860000554194585
20
55.325887359746503
30
0
40
3.4999999999999964
210
0
220
0
230
1
0
LINE
5
159
100
AcDbEntity
8
0
100
AcDbLine
10
38.859998746015982
20
42.860718109619107
30
0
11
38.859999612852377
21
-39.406697286390802
31
0
0
LINE
5
160
100
AcDbEntity
8
0
100
AcDbLine
10
28.859998597004378
20
42.860718109619107
30
0
11
28.859997730214388
21
-39.402295051239207
31
0
0
CIRCLE
5
161
100
AcDbEntity
8
0
100
AcDbCircle
10
67.860000554194585
20
55.325887359746503
30
0
40
3.4999999999999964
210
0
220
0
230
1
0
CIRCLE
5
162
100
AcDbEntity
8
0
100
AcDbCircle
10
-2.1399994458054072
20
55.325887359746503
30
0
40
3.4999999999999964
210
0
220
0
230
1
0
LINE
5
163
100
AcDbEntity
8
0
100
AcDbLine
10
72.860000628700405
20
-41.674112640253405
30
0
11
72.860001495490408
21
40.588900520604909
31
0
0
LINE
5
164
100
AcDbEntity
8
0
100
AcDbLine
10
72.860000628700405
20
-41.674112640253405
30
0
11
72.860001495490408
21
40.588900520604909
31
0
0
LINE
5
165
100
AcDbEntity
8
0
100
AcDbLine
10
28.859998597004378
20
42.860718109619107
30
0
11
28.859997730214388
21
-39.402295051239207
31
0
0
LINE
5
166
100
AcDbEntity
8
0
100
AcDbLine
10
72.860000628700405
20
-41.674112640253405
30
0
11
72.860001495490408
21
40.588900520604909
31
0
0
LINE
5
167
100
AcDbEntity
8
0
100
AcDbLine
10
-41.140001402995622
20
42.860718109619107
30
0
11
-41.140002269785612
21
-39.402295051239207
31
0
0
LINE
5
168
100
AcDbEntity
8
0
100
AcDbLine
10
48.324958341214042
20
67.789863274711621
30
0
11
58.669544273193289
21
57.448155416983937
31
0
0
LWPOLYLINE
5
169
100
AcDbEntity
8
0
100
AcDbPolyline
90
4
70
1
43
0.0
10
74.576344953028311
20
50.727983716100375
10
76.697125317943062
20
48.60612353131156
42
-0.99999999999999989
10
74.575265133154261
20
46.485343166396795
10
72.454484768239496
20
48.607203351185611
42
-0.99999999999999989
0
SPLINE
5
170
100
AcDbEntity
8
0
100
AcDbSpline
70
12
71
2
41
1
41
0.66666666666666674
41
1
72
6
73
3
74
0
42
0.000000001
43
0.0000000001
44
0.0000000001
40
0
40
0
40
0
40
0.4491714560178664
40
0.4491714560178664
40
0.4491714560178664
10
-45.334320923459401
20
-56.259654222258149
30
0
10
-43.494399871830616
20
-54.123775938542515
30
0
10
-45.331849276243815
20
-52.015622005801859
30
0
0
SPLINE
5
171
100
AcDbEntity
8
0
100
AcDbSpline
70
12
71
2
41
1
41
0.66666666666666674
41
1
72
6
73
3
74
0
42
0.000000001
43
0.0000000001
44
0.0000000001
40
0
40
0
40
0
40
0.44917145601786701
40
0.44917145601786701
40
0.44917145601786701
10
7.0543201491641927
20
57.446259691623851
30
0
10
5.2143990975354093
20
55.31038140790821
30
0
10
7.0518485019486032
20
53.202227475167554
30
0
0
ARC
5
172
100
AcDbEntity
8
0
100
AcDbCircle
10
74.860001495490394
20
40.588900499531292
30
0
40
1.9999999999999827
210
0
220
-0
230
1
100
AcDbArc
50
83.633676015968788
51
180
0
SPLINE
5
173
100
AcDbEntity
8
0
100
AcDbSpline
70
12
71
2
41
1
41
3
41
1
72
6
73
3
74
0
42
0.000000001
43
0.0000000001
44
0.0000000001
40
0
40
0
40
0
40
2.981525724826104
40
2.981525724826104
40
2.981525724826104
10
21.396021311534589
20
-73.674325548773979
30
0
10
33.850969845276694
20
-62.77124648551812
30
0
10
46.324956935366792
20
-73.675309343078069
30
0
0
LINE
5
174
100
AcDbEntity
8
0
100
AcDbLine
10
-41.140001328489817
20
49.931718162303156
30
0
11
-41.140001402995622
21
62.86071840764231
31
0
0
CIRCLE
5
175
100
AcDbEntity
8
0
100
AcDbCircle
10
-36.140001328489802
20
-54.139281890380808
30
0
40
3.4999999999999964
210
0
220
0
230
1
0
SPLINE
5
176
100
AcDbEntity
8
0
100
AcDbSpline
70
12
71
2
41
1
41
3
41
1
72
6
73
3
74
0
42
0.000000001
43
0.0000000001
44
0.0000000001
40
0
40
0
40
0
40
2.9815257248261022
40
2.9815257248261022
40
2.9815257248261022
10
10.323977914170204
20
74.860931018139667
30
0
10
-2.130970619571908
20
63.957851954883829
30
0
10
-14.604957709661996
20
74.861914812443771
30
0
0
SPLINE
5
177
100
AcDbEntity
8
0
100
AcDbSpline
70
12
71
2
41
1
41
0.66666666666666674
41
1
72
6
73
3
74
0
42
0.000000001
43
0.0000000001
44
0.0000000001
40
0
40
0
40
0
40
0.44917145601786701
40
0.44917145601786701
40
0.44917145601786701
10
7.0543201491641927
20
57.446259691623851
30
0
10
5.2143990975354093
20
55.31038140790821
30
0
10
7.0518485019486032
20
53.202227475167554
30
0
0
SPLINE
5
178
100
AcDbEntity
8
0
100
AcDbSpline
70
12
71
2
41
1
41
0.66666666666666674
41
1
72
6
73
3
74
0
42
0.000000001
43
0.0000000001
44
0.0000000001
40
0
40
0
40
0
40
0.4491714560178664
40
0.4491714560178664
40
0.4491714560178664
10
-45.334320923459401
20
-56.259654222258149
30
0
10
-43.494399871830616
20
-54.123775938542515
30
0
10
-45.331849276243815
20
-52.015622005801859
30
0
0
ARC
5
179
100
AcDbEntity
8
0
100
AcDbCircle
10
75.636195225548661
20
47.545733348854178
30
0
40
4.9999999999999964
210
0
220
0
230
1
100
AcDbArc
50
-96.366323984030956
51
44.985417308075441
0
ARC
5
180
100
AcDbEntity
8
0
100
AcDbCircle
10
-20.140001090071227
20
-70.139283574212001
30
0
40
4.9999999999999973
210
0
220
0
230
1
100
AcDbArc
50
-134.99202846540089
51
45.007971534599299
0
LINE
5
181
100
AcDbEntity
8
0
100
AcDbLine
10
-16.604959115509253
20
-66.603257805345919
30
0
11
-26.949545047488499
21
-56.261549947618235
31
0
0
CIRCLE
5
182
100
AcDbEntity
8
0
100
AcDbCircle
10
33.859998671510198
20
-54.139281890380808
30
0
40
3.4999999999999964
210
0
220
0
230
1
0
LINE
5
183
100
AcDbEntity
8
0
100
AcDbLine
10
-41.140001402995622
20
42.860718109619107
30
0
11
-41.140001328489817
21
49.931718162303156
31
0
0
CIRCLE
5
184
100
AcDbEntity
8
0
100
AcDbCircle
10
33.859998671510198
20
-54.139281890380808
30
0
40
3.4999999999999964
210
0
220
0
230
1
0
LINE
5
185
100
AcDbEntity
8
0
100
AcDbLine
10
79.172628866863349
20
51.080367290378739
30
0
11
77.051848501948598
21
53.202227475167554
31
0
0
ARC
5
186
100
AcDbEntity
8
0
100
AcDbCircle
10
75.636195225548661
20
47.545733348854178
30
0
40
4.9999999999999964
210
0
220
0
230
1
100
AcDbArc
50
-96.366323984030956
51
44.985417308075441
0
ARC
5
187
100
AcDbEntity
8
0
100
AcDbCircle
10
-18.139999684223977
20
71.325889043577718
30
0
40
4.9999999999999911
210
0
220
-0
230
1
100
AcDbArc
50
45.007971534599008
51
225.00797153459936
0
LINE
5
188
100
AcDbEntity
8
0
100
AcDbLine
10
2.8600006287004032
20
-41.674112640253405
30
0
11
2.8600005541945928
21
-48.745112692937454
31
0
0
LWPOLYLINE
5
189
100
AcDbEntity
8
0
100
AcDbPolyline
90
4
70
1
43
0.0
10
2.4544847682394977
20
48.607203351185611
42
-0.99999999999999989
10
4.5763449530283129
20
50.727983716100375
10
6.697125317943069
20
48.60612353131156
42
-0.99999999999999989
10
4.5752651331542538
20
46.485343166396795
0
SPLINE
5
190
100
AcDbEntity
8
0
100
AcDbSpline
70
12
71
2
41
1
41
0.66666666666666674
41
1
72
6
73
3
74
0
42
0.000000001
43
0.0000000001
44
0.0000000001
40
0
40
0
40
0
40
0.44917145601786701
40
0.44917145601786701
40
0.44917145601786701
10
7.0543201491641927
20
57.446259691623851
30
0
10
5.2143990975354093
20
55.31038140790821
30
0
10
7.0518485019486032
20
53.202227475167554
30
0
0
LINE
5
191
100
AcDbEntity
8
0
100
AcDbLine
10
72.860000628700405
20
-41.674112640253405
30
0
11
72.860000554194585
21
-48.745112692937454
31
0
0
LINE
5
192
100
AcDbEntity
8
0
100
AcDbLine
10
-2.1399995203112088
20
-69.958112640253376
30
0
11
1.6910175704430985
21
-66.127095549499089
31
0
0
CIRCLE
5
193
100
AcDbEntity
8
0
100
AcDbCircle
10
67.860000554194599
20
-59.352112640253409
30
0
40
1.5000000000000036
210
0
220
0
230
1
0
CIRCLE
5
194
100
AcDbEntity
8
0
100
AcDbCircle
10
-36.140001328489802
20
-54.139281890380808
30
0
40
3.4999999999999964
210
0
220
0
230
1
0
LWPOLYLINE
5
195
100
AcDbEntity
8
0
100
AcDbPolyline
90
4
70
1
43
0.0
10
-42.855265907449464
20
-45.298737697031086
10
-40.734485542534706
20
-47.420597881819901
42
-0.99999999999999989
10
-42.856345727323522
20
-49.541378246734666
10
-44.977126092238279
20
-47.419518061945851
42
-0.99999999999999989
0
LINE
5
196
100
AcDbEntity
8
0
100
AcDbLine
10
79.172628866863349
20
51.080367290378739
30
0
11
77.051848501948598
21
53.202227475167554
31
0
0
LINE
5
197
100
AcDbEntity
8
0
100
AcDbLine
10
-21.675041658785954
20
67.789863274711621
30
0
11
-11.33045572680671
21
57.448155416983937
31
0
0
LINE
5
198
100
AcDbEntity
8
0
100
AcDbLine
10
-21.675041658785954
20
67.789863274711621
30
0
11
-11.33045572680671
21
57.448155416983937
31
0
0
CIRCLE
5
199
100
AcDbEntity
8
0
100
AcDbCircle
10
-36.140001328489802
20
-54.139281890380808
30
0
40
3.4999999999999964
210
0
220
0
230
1
0
SPLINE
5
200
100
AcDbEntity
8
0
100
AcDbSpline
70
12
71
2
41
1
41
0.66666666666666674
41
1
72
6
73
3
74
0
42
0.000000001
43
0.0000000001
44
0.0000000001
40
0
40
0
40
0
40
0.44917145601786723
40
0.44917145601786723
40
0.44917145601786723
10
77.054320149164198
20
57.446259691623851
30
0
10
75.21439909753542
20
55.31038140790821
30
0
10
77.051848501948598
20
53.202227475167554
30
0
0
LINE
5
201
100
AcDbEntity
8
0
100
AcDbLine
10
-16.604959115509253
20
-66.603257805345919
30
0
11
-26.949545047488499
21
-56.261549947618235
31
0
0
CIRCLE
5
202
100
AcDbEntity
8
0
100
AcDbCircle
10
33.859998671510198
20
-54.139281890380808
30
0
40
3.4999999999999964
210
0
220
0
230
1
0
LINE
5
203
100
AcDbEntity
8
0
100
AcDbLine
10
-16.604959115509253
20
-66.603257805345919
30
0
11
-26.949545047488499
21
-56.261549947618235
31
0
0
CIRCLE
5
204
100
AcDbEntity
8
0
100
AcDbCircle
10
-2.1399994458054072
20
55.325887359746503
30
0
40
3.4999999999999964
210
0
220
0
230
1
0
SPLINE
5
205
100
AcDbEntity
8
0
100
AcDbSpline
70
12
71
2
41
1
41
3
41
1
72
6
73
3
74
0
42
0.000000001
43
0.0000000001
44
0.0000000001
40
0
40
0
40
0
40
2.9815257248261018
40
2.9815257248261018
40
2.9815257248261018
10
80.3239779141702
20
74.860931018139667
30
0
10
67.869029380428103
20
63.957851954883829
30
0
10
55.395042290338012
20
74.861914812443771
30
0
0
CIRCLE
5
206
100
AcDbEntity
8
0
100
AcDbCircle
10
-2.1399994458054072
20
55.325887359746503
30
0
40
3.4999999999999964
210
0
220
0
230
1
0
SPLINE
5
207
100
AcDbEntity
8
0
100
AcDbSpline
70
12
71
2
41
1
41
0.66666666666666674
41
1
72
6
73
3
74
0
42
0.000000001
43
0.0000000001
44
0.0000000001
40
0
40
0
40
0
40
0.44917145601786723
40
0.44917145601786723
40
0.44917145601786723
10
77.054320149164198
20
57.446259691623851
30
0
10
75.21439909753542
20
55.31038140790821
30
0
10
77.051848501948598
20
53.202227475167554
30
0
0
ARC
5
208
100
AcDbEntity
8
0
100
AcDbCircle
10
-18.139999684223977
20
71.325889043577718
30
0
40
4.9999999999999911
210
0
220
-0
230
1
100
AcDbArc
50
45.007971534599008
51
225.00797153459936
0
SPLINE
5
209
100
AcDbEntity
8
0
100
AcDbSpline
70
12
71
2
41
1
41
3
41
1
72
6
73
3
74
0
42
0.000000001
43
0.0000000001
44
0.0000000001
40
0
40
0
40
0
40
2.981525724826104
40
2.981525724826104
40
2.981525724826104
10
-48.603978688465411
20
-73.674325548773979
30
0
10
-36.149030154723306
20
-62.77124648551812
30
0
10
-23.675043064633208
20
-73.675309343078069
30
0
0
CIRCLE
5
210
100
AcDbEntity
8
0
100
AcDbCircle
10
67.860000554194585
20
55.325887359746503
30
0
40
3.4999999999999964
210
0
220
0
230
1
0
SPLINE
5
211
100
AcDbEntity
8
0
100
AcDbSpline
70
12
71
2
41
1
41
0.66666666666666674
41
1
72
6
73
3
74
0
42
0.000000001
43
0.0000000001
44
0.0000000001
40
0
40
0
40
0
40
0.4491714560178664
40
0.4491714560178664
40
0.4491714560178664
10
-45.334320923459401
20
-56.259654222258149
30
0
10
-43.494399871830616
20
-54.123775938542515
30
0
10
-45.331849276243815
20
-52.015622005801859
30
0
0
SPLINE
5
212
100
AcDbEntity
8
0
100
AcDbSpline
70
12
71
2
41
1
41
0.66666666666666674
41
1
72
6
73
3
74
0
42
0.000000001
43
0.0000000001
44
0.0000000001
40
0
40
0
40
0
40
0.44917145601786723
40
0.44917145601786723
40
0.44917145601786723
10
77.054320149164198
20
57.446259691623851
30
0
10
75.21439909753542
20
55.31038140790821
30
0
10
77.051848501948598
20
53.202227475167554
30
0
0
LINE
5
213
100
AcDbEntity
8
0
100
AcDbLine
10
-21.675041658785954
20
67.789863274711621
30
0
11
-11.33045572680671
21
57.448155416983937
31
0
0
ARC
5
214
100
AcDbEntity
8
0
100
AcDbCircle
10
-20.140001090071227
20
-70.139283574212001
30
0
40
4.9999999999999973
210
0
220
0
230
1
100
AcDbArc
50
-134.99202846540089
51
45.007971534599299
0
ARC
5
215
100
AcDbEntity
8
0
100
AcDbCircle
10
-18.139999684223977
20
71.325889043577718
30
0
40
4.9999999999999911
210
0
220
-0
230
1
100
AcDbArc
50
45.007971534599008
51
225.00797153459936
0
ARC
5
216
100
AcDbEntity
8
0
100
AcDbCircle
10
-9.1400003871475999
20
40.593302734682851
30
0
40
2.0000000000000107
210
0
220
-0
230
1
100
AcDbArc
50
0
51
96.398933745210186
0
LWPOLYLINE
5
217
100
AcDbEntity
8
0
100
AcDbPolyline
90
4
70
1
43
0.0
10
72.454484768239496
20
48.607203351185611
42
-0.99999999999999989
10
74.576344953028311
20
50.727983716100375
10
76.697125317943062
20
48.60612353131156
42
-0.99999999999999989
10
74.575265133154261
20
46.485343166396795
0
LINE
5
218
100
AcDbEntity
8
0
100
AcDbLine
10
-7.1399994458053984
20
-48.745112692937454
30
0
11
-7.1399995203112043
21
-61.674112938276622
31
0
0
LINE
5
219
100
AcDbEntity
8
0
100
AcDbLine
10
-7.1399995203112088
20
-69.958112640253376
30
0
11
-7.5578758477390728
21
-69.958112640253376
31
0
0
LINE
5
220
100
AcDbEntity
8
0
100
AcDbLine
10
-36.140001253984011
20
71.144718109619092
30
0
11
-32.60446734805128
21
67.60918420368634
31
0
0
LWPOLYLINE
5
221
100
AcDbEntity
8
0
100
AcDbPolyline
90
4
70
1
43
0.0
10
4.5786845627554751
20
59.920371573791428
42
-0.99999999999999989
10
2.4579041978407457
20
62.042231758580243
10
4.5797643826295609
20
64.16301212349498
42
-0.99999999999999989
10
6.7005447475443081
20
62.041151938706172
0
LWPOLYLINE
5
222
100
AcDbEntity
8
0
100
AcDbPolyline
90
4
70
1
43
0.0
10
4.5786845627554751
20
59.920371573791428
42
-0.99999999999999989
10
2.4579041978407457
20
62.042231758580243
10
4.5797643826295609
20
64.16301212349498
42
-0.99999999999999989
10
6.7005447475443081
20
62.041151938706172
0
LINE
5
223
100
AcDbEntity
8
0
100
AcDbLine
10
-47.452629641158559
20
-49.893761821013044
30
0
11
-45.331849276243815
21
-52.015622005801859
31
0
0
CIRCLE
5
224
100
AcDbEntity
8
0
100
AcDbCircle
10
-36.140001328489817
20
49.931718109619112
30
0
40
1.5000000000000002
210
0
220
0
230
1
0
LWPOLYLINE
5
225
100
AcDbEntity
8
0
100
AcDbPolyline
90
4
70
1
43
0.0
10
-42.858685337050687
20
-58.733766104425726
42
-0.99999999999999989
10
-40.737904972135951
20
-60.855626289214541
10
-42.859765156924766
20
-62.976406654129271
42
-0.99999999999999989
10
-44.980545521839517
20
-60.85454646934047
0
LWPOLYLINE
5
226
100
AcDbEntity
8
0
100
AcDbPolyline
90
4
70
1
43
0.0
10
74.576344953028311
20
50.727983716100375
10
76.697125317943062
20
48.60612353131156
42
-0.99999999999999989
10
74.575265133154261
20
46.485343166396795
10
72.454484768239496
20
48.607203351185611
42
-0.99999999999999989
0
LINE
5
227
100
AcDbEntity
8
0
100
AcDbLine
10
-7.1399995203111999
20
-41.674112640253405
30
0
11
-7.1399994458053984
21
-48.745112692937454
31
0
0
LINE
5
228
100
AcDbEntity
8
0
100
AcDbLine
10
64.324466573756055
20
-66.422578734320652
30
0
11
62.8600004796888
21
-64.958112640253376
31
0
0
LINE
5
229
100
AcDbEntity
8
0
100
AcDbLine
10
67.860000479688793
20
-69.958112640253376
30
0
11
64.324466573756055
21
-66.422578734320652
31
0
0
LINE
5
230
100
AcDbEntity
8
0
100
AcDbLine
10
62.860000479688793
20
-69.958112640253376
30
0
11
62.442124152260931
21
-69.958112640253376
31
0
0
LINE
5
231
100
AcDbEntity
8
0
100
AcDbLine
10
-41.140001402995622
20
42.860718109619107
30
0
11
-41.140001328489817
21
49.931718162303156
31
0
0
LINE
5
232
100
AcDbEntity
8
0
100
AcDbLine
10
22.547370358841441
20
-49.893761821013044
30
0
11
24.668150723756188
21
-52.015622005801859
31
0
0
LWPOLYLINE
5
233
100
AcDbEntity
8
0
100
AcDbPolyline
90
4
70
1
43
0.0
10
-42.856345727323522
20
-49.541378246734666
10
-44.977126092238279
20
-47.419518061945851
42
-0.99999999999999989
10
-42.855265907449464
20
-45.298737697031086
10
-40.734485542534706
20
-47.420597881819901
42
-0.99999999999999989
0
LINE
5
234
100
AcDbEntity
8
0
100
AcDbLine
10
-36.140001253984011
20
71.144718109619092
30
0
11
-39.971018344738319
21
67.313701018864776
31
0
0
LWPOLYLINE
5
235
100
AcDbEntity
8
0
100
AcDbPolyline
90
4
70
1
43
0.0
10
4.5752651331542538
20
46.485343166396795
10
2.4544847682394977
20
48.607203351185611
42
-0.99999999999999989
10
4.5763449530283129
20
50.727983716100375
10
6.697125317943069
20
48.60612353131156
42
-0.99999999999999989
0
LWPOLYLINE
5
236
100
AcDbEntity
8
0
100
AcDbPolyline
90
4
70
1
43
0.0
10
-40.734485542534706
20
-47.420597881819901
42
-0.99999999999999989
10
-42.856345727323522
20
-49.541378246734666
10
-44.977126092238279
20
-47.419518061945851
42
-0.99999999999999989
10
-42.855265907449464
20
-45.298737697031086
0
LWPOLYLINE
5
237
100
AcDbEntity
8
0
100
AcDbPolyline
90
4
70
1
43
0.0
10
25.022873907761721
20
-47.419518061945851
42
-0.99999999999999989
10
27.144734092550536
20
-45.298737697031086
10
29.265514457465294
20
-47.420597881819901
42
-0.99999999999999989
10
27.143654272676478
20
-49.541378246734666
0
LWPOLYLINE
5
238
100
AcDbEntity
8
0
100
AcDbPolyline
90
4
70
1
43
0.0
10
2.4544847682394977
20
48.607203351185611
42
-0.99999999999999989
10
4.5763449530283129
20
50.727983716100375
10
6.697125317943069
20
48.60612353131156
42
-0.99999999999999989
10
4.5752651331542538
20
46.485343166396795
0
LINE
5
239
100
AcDbEntity
8
0
100
AcDbLine
10
2.8600006287004032
20
-41.674112640253405
30
0
11
2.8600005541945928
21
-48.745112692937454
31
0
0
LINE
5
240
100
AcDbEntity
8
0
100
AcDbLine
10
62.8600004796888
20
-41.674112640253405
30
0
11
62.860000554194606
21
-48.745112692937454
31
0
0
LINE
5
241
100
AcDbEntity
8
0
100
AcDbLine
10
67.860000479688793
20
-69.958112640253376
30
0
11
71.691017570443094
21
-66.127095549499089
31
0
0
LINE
5
242
100
AcDbEntity
8
0
100
AcDbLine
10
-7.1399995203111999
20
-41.674112640253405
30
0
11
-7.1399994458053984
21
-48.745112692937454
31
0
0
LINE
5
243
100
AcDbEntity
8
0
100
AcDbLine
10
-41.140001402995622
20
62.86071840764231
30
0
11
-41.140001402995622
21
66.14471796060748
31
0
0
ARC
5
244
100
AcDbEntity
8
0
100
AcDbCircle
10
75.636195225548661
20
47.545733348854178
30
0
40
4.9999999999999964
210
0
220
0
230
1
100
AcDbArc
50
-96.366323984030956
51
44.985417308075441
0
ARC
5
245
100
AcDbEntity
8
0
100
AcDbCircle
10
-43.916195999843872
20
-46.359127879488469
30
0
40
4.9999999999999885
210
0
220
-0
230
1
100
AcDbArc
50
83.633676015968987
51
224.98541730807554
0
ARC
5
246
100
AcDbEntity
8
0
100
AcDbCircle
10
49.859998909928777
20
-70.139283574212001
30
0
40
4.9999999999999973
210
0
220
0
230
1
100
AcDbArc
50
-134.99202846540089
51
45.007971534599328
0
LINE
5
247
100
AcDbEntity
8
0
100
AcDbLine
10
72.860000628700405
20
-41.674112640253405
30
0
11
72.860000554194585
21
-48.745112692937454
31
0
0
ARC
5
248
100
AcDbEntity
8
0
100
AcDbCircle
10
26.859997730214403
20
-39.402295030165597
30
0
40
1.9999999999999827
210
0
220
0
230
1
100
AcDbArc
50
263.63367601596877
51
360
0
LINE
5
249
100
AcDbEntity
8
0
100
AcDbLine
10
-45.334320923459401
20
-56.259654222258149
30
0
11
-55.676030226197575
21
-66.604241599650024
31
0
0
LINE
5
250
100
AcDbEntity
8
0
100
AcDbLine
10
9.1726288668633504
20
51.080367290378739
30
0
11
7.0518485019486032
21
53.202227475167554
31
0
0
ARC
5
251
100
AcDbEntity
8
0
100
AcDbCircle
10
74.860001495490394
20
40.588900499531292
30
0
40
1.9999999999999827
210
0
220
-0
230
1
100
AcDbArc
50
83.633676015968788
51
180
0
ARC
5
252
100
AcDbEntity
8
0
100
AcDbCircle
10
13.860003683036268
20
71.325889043577718
30
0
40
5.0000000000000169
210
-0
220
0
230
1
100
AcDbArc
50
-44.992028465400722
51
135.00797153459936
0
LINE
5
253
100
AcDbEntity
8
0
100
AcDbLine
10
62.8600004796888
20
-41.674112640253405
30
0
11
62.860000554194606
21
-48.745112692937454
31
0
0
LINE
5
254
100
AcDbEntity
8
0
100
AcDbLine
10
62.860000554194606
20
-48.745112692937454
30
0
11
62.8600004796888
21
-61.674112938276622
31
0
0
SPLINE
5
255
100
AcDbEntity
8
0
100
AcDbSpline
70
12
71
2
41
1
41
0.66666666666666674
41
1
72
6
73
3
74
0
42
0.000000001
43
0.0000000001
44
0.0000000001
40
0
40
0
40
0
40
0.44917145601786612
40
0.44917145601786612
40
0.44917145601786612
10
24.665679076540599
20
-56.259654222258149
30
0
10
26.505600128169384
20
-54.123775938542515
30
0
10
24.668150723756188
20
-52.015622005801859
30
0
0
LINE
5
256
100
AcDbEntity
8
0
100
AcDbLine
10
-47.452629641158559
20
-49.893761821013044
30
0
11
-45.331849276243815
21
-52.015622005801859
31
0
0
ARC
5
257
100
AcDbEntity
8
0
100
AcDbCircle
10
4.860001495490387
20
40.588900499531292
30
0
40
1.9999999999999827
210
0
220
-0
230
1
100
AcDbArc
50
83.633676015968689
51
180
0
LINE
5
258
100
AcDbEntity
8
0
100
AcDbLine
10
-47.452629641158559
20
-49.893761821013044
30
0
11
-45.331849276243815
21
-52.015622005801859
31
0
0
LINE
5
259
100
AcDbEntity
8
0
100
AcDbLine
10
-7.1399995203111999
20
-41.674112640253405
30
0
11
-7.1399994458053984
21
-48.745112692937454
31
0
0
ARC
5
260
100
AcDbEntity
8
0
100
AcDbCircle
10
-20.140001090071227
20
-70.139283574212001
30
0
40
4.9999999999999973
210
0
220
0
230
1
100
AcDbArc
50
-134.99202846540089
51
45.007971534599299
0
LINE
5
261
100
AcDbEntity
8
0
100
AcDbLine
10
-31.140001253984018
20
42.860718109619107
30
0
11
-31.140001328489824
21
49.931718162303156
31
0
0
ARC
5
262
100
AcDbEntity
8
0
100
AcDbCircle
10
4.860001495490387
20
40.588900499531292
30
0
40
1.9999999999999827
210
0
220
-0
230
1
100
AcDbArc
50
83.633676015968689
51
180
0
LINE
5
263
100
AcDbEntity
8
0
100
AcDbLine
10
-5.6755334262439439
20
-66.422578734320652
30
0
11
-7.1399995203112043
21
-64.958112640253376
31
0
0
LWPOLYLINE
5
264
100
AcDbEntity
8
0
100
AcDbPolyline
90
4
70
1
43
0.0
10
-8.8586834543662984
20
50.731403145701606
42
-0.99999999999999989
10
-6.7379030894515513
20
48.60954296091279
10
-8.8597632742403754
20
46.48876259599804
42
-0.99999999999999989
10
-10.980543639155123
20
48.610622780786855
0
LINE
5
265
100
AcDbEntity
8
0
100
AcDbLine
10
1.6910175704430985
20
-66.127095549499089
30
0
11
2.8600006287003987
21
-64.958112491241764
31
0
0
LWPOLYLINE
5
266
100
AcDbEntity
8
0
100
AcDbPolyline
90
4
70
1
43
0.0
10
-6.7379030894515513
20
48.60954296091279
10
-8.8597632742403754
20
46.48876259599804
42
-0.99999999999999989
10
-10.980543639155123
20
48.610622780786855
10
-8.8586834543662984
20
50.731403145701606
42
-0.99999999999999989
0
LWPOLYLINE
5
267
100
AcDbEntity
8
0
100
AcDbPolyline
90
4
70
1
43
0.0
10
-44.980545521839517
20
-60.85454646934047
10
-42.858685337050687
20
-58.733766104425726
42
-0.99999999999999989
10
-40.737904972135951
20
-60.855626289214541
10
-42.859765156924766
20
-62.976406654129271
42
-0.99999999999999989
0
ARC
5
268
100
AcDbEntity
8
0
100
AcDbCircle
10
-9.920153456697749
20
47.549692688392454
30
0
40
4.9999999999999911
210
0
220
0
230
1
100
AcDbArc
50
134.98541730807551
51
276.39893374521023
0
CIRCLE
5
269
100
AcDbEntity
8
0
100
AcDbCircle
10
67.860000554194599
20
-48.74511264025341
30
0
40
1.5000000000000002
210
0
220
0
230
1
0
LINE
5
270
100
AcDbEntity
8
0
100
AcDbLine
10
9.1726288668633504
20
51.080367290378739
30
0
11
7.0518485019486032
21
53.202227475167554
31
0
0
ARC
5
271
100
AcDbEntity
8
0
100
AcDbCircle
10
-43.140002269785597
20
-39.402295030165597
30
0
40
1.9999999999999827
210
0
220
0
230
1
100
AcDbArc
50
263.63367601596877
51
360
0
LINE
5
272
100
AcDbEntity
8
0
100
AcDbLine
10
-2.1399995203112088
20
-69.958112640253376
30
0
11
-5.6755334262439439
21
-66.422578734320652
31
0
0
LINE
5
273
100
AcDbEntity
8
0
100
AcDbLine
10
-31.140001253984018
20
62.86071840764231
30
0
11
-31.140001253984018
21
66.144718109619092
31
0
0
LINE
5
274
100
AcDbEntity
8
0
100
AcDbLine
10
62.8600004796888
20
-41.674112640253405
30
0
11
62.860000554194606
21
-48.745112692937454
31
0
0
LWPOLYLINE
5
275
100
AcDbEntity
8
0
100
AcDbPolyline
90
4
70
1
43
0.0
10
-8.8563438446391363
20
59.923791003392651
10
-10.977124209553883
20
62.045651188181488
42
-0.99999999999999989
10
-8.8552640247650682
20
64.166431553096217
10
-6.734483659850321
20
62.044571368307388
42
-0.99999999999999989
0
ARC
5
276
100
AcDbEntity
8
0
100
AcDbCircle
10
-52.140004457331479
20
-70.139283574212001
30
0
40
5.0000000000000169
210
0
220
0
230
1
100
AcDbArc
50
135.00797153459936
51
315.00797153459916
0
LWPOLYLINE
5
277
100
AcDbEntity
8
0
100
AcDbPolyline
90
4
70
1
43
0.0
10
-42.859765156924766
20
-62.976406654129271
42
-0.99999999999999989
10
-44.980545521839517
20
-60.85454646934047
10
-42.858685337050687
20
-58.733766104425726
42
-0.99999999999999989
10
-40.737904972135951
20
-60.855626289214541
0
LWPOLYLINE
5
278
100
AcDbEntity
8
0
100
AcDbPolyline
90
4
70
1
43
0.0
10
4.5786845627554751
20
59.920371573791428
42
-0.99999999999999989
10
2.4579041978407457
20
62.042231758580243
10
4.5797643826295609
20
64.16301212349498
42
-0.99999999999999989
10
6.7005447475443081
20
62.041151938706172
0
CIRCLE
5
279
100
AcDbEntity
8
0
100
AcDbCircle
10
-2.1399994458054028
20
-41.674112640253405
30
0
40
1.5000000000000002
210
0
220
0
230
1
0
LINE
5
280
100
AcDbEntity
8
0
100
AcDbLine
10
7.0543201491641927
20
57.446259691623851
30
0
11
17.396029451902368
21
67.790847069015726
31
0
0
CIRCLE
5
281
100
AcDbEntity
8
0
100
AcDbCircle
10
-2.1399994458054028
20
-48.74511264025341
30
0
40
1.5000000000000002
210
0
220
0
230
1
0
LINE
5
282
100
AcDbEntity
8
0
100
AcDbLine
10
7.0543201491641927
20
57.446259691623851
30
0
11
17.396029451902368
21
67.790847069015726
31
0
0
LINE
5
283
100
AcDbEntity
8
0
100
AcDbLine
10
-31.140001253984018
20
42.860718109619107
30
0
11
-31.140001328489824
21
49.931718162303156
31
0
0
LWPOLYLINE
5
284
100
AcDbEntity
8
0
100
AcDbPolyline
90
4
70
1
43
0.0
10
29.265514457465294
20
-47.420597881819901
42
-0.99999999999999989
10
27.143654272676478
20
-49.541378246734666
10
25.022873907761721
20
-47.419518061945851
42
-0.99999999999999989
10
27.144734092550536
20
-45.298737697031086
0
ARC
5
285
100
AcDbEntity
8
0
100
AcDbCircle
10
-43.916195999843872
20
-46.359127879488469
30
0
40
4.9999999999999885
210
0
220
-0
230
1
100
AcDbArc
50
83.633676015968987
51
224.98541730807554
0
LWPOLYLINE
5
286
100
AcDbEntity
8
0
100
AcDbPolyline
90
4
70
1
43
0.0
10
74.579764382629563
20
64.16301212349498
42
-0.99999999999999989
10
76.700544747544313
20
62.041151938706172
10
74.57868456275547
20
59.920371573791428
42
-0.99999999999999989
10
72.457904197840747
20
62.042231758580243
0
LINE
5
287
100
AcDbEntity
8
0
100
AcDbLine
10
-41.140001402995622
20
42.860718109619107
30
0
11
-41.140001328489817
21
49.931718162303156
31
0
0
CIRCLE
5
288
100
AcDbEntity
8
0
100
AcDbCircle
10
-2.1399994458054028
20
-59.352112640253409
30
0
40
1.5000000000000036
210
0
220
0
230
1
0
CIRCLE
5
289
100
AcDbEntity
8
0
100
AcDbCircle
10
-36.140001328489817
20
60.538718109619118
30
0
40
1.5000000000000036
210
0
220
0
230
1
0
LWPOLYLINE
5
290
100
AcDbEntity
8
0
100
AcDbPolyline
90
4
70
1
43
0.0
10
27.144734092550536
20
-45.298737697031086
10
29.265514457465294
20
-47.420597881819901
42
-0.99999999999999989
10
27.143654272676478
20
-49.541378246734666
10
25.022873907761721
20
-47.419518061945851
42
-0.99999999999999989
0
LINE
5
291
100
AcDbEntity
8
0
100
AcDbLine
10
-7.1399995203112043
20
-61.674112938276622
30
0
11
-7.1399995203112043
21
-64.958112640253376
31
0
0
LINE
5
292
100
AcDbEntity
8
0
100
AcDbLine
10
-31.140001328489824
20
49.931718162303156
30
0
11
-31.140001253984018
21
62.86071840764231
31
0
0
LINE
5
293
100
AcDbEntity
8
0
100
AcDbLine
10
79.172628866863349
20
51.080367290378739
30
0
11
77.051848501948598
21
53.202227475167554
31
0
0
LWPOLYLINE
5
294
100
AcDbEntity
8
0
100
AcDbPolyline
90
4
70
1
43
0.0
10
-10.977124209553883
20
62.045651188181488
42
-0.99999999999999989
10
-8.8552640247650682
20
64.166431553096217
10
-6.734483659850321
20
62.044571368307388
42
-0.99999999999999989
10
-8.8563438446391363
20
59.923791003392651
0
CIRCLE
5
295
100
AcDbEntity
8
0
100
AcDbCircle
10
67.860000554194599
20
-41.674112640253405
30
0
40
1.5000000000000002
210
0
220
0
230
1
0
LINE
5
296
100
AcDbEntity
8
0
100
AcDbLine
10
-31.140001253984018
20
71.144718109619092
30
0
11
-30.722124926556155
21
71.144718109619092
31
0
0
LINE
5
297
100
AcDbEntity
8
0
100
AcDbLine
10
72.860000554194585
20
-48.745112692937454
30
0
11
72.860000628700391
21
-61.674112938276622
31
0
0
ARC
5
298
100
AcDbEntity
8
0
100
AcDbCircle
10
13.860003683036268
20
71.325889043577718
30
0
40
5.0000000000000169
210
-0
220
0
230
1
100
AcDbArc
50
-44.992028465400722
51
135.00797153459936
0
ARC
5
299
100
AcDbEntity
8
0
100
AcDbCircle
10
5.6361952255486614
20
47.545733348854178
30
0
40
4.9999999999999964
210
0
220
0
230
1
100
AcDbArc
50
-96.366323984030956
51
44.985417308075419
0
ARC
5
300
100
AcDbEntity
8
0
100
AcDbCircle
10
4.860001495490387
20
40.588900499531292
30
0
40
1.9999999999999827
210
0
220
-0
230
1
100
AcDbArc
50
83.633676015968689
51
180
0
ARC
5
301
100
AcDbEntity
8
0
100
AcDbCircle
10
74.860001495490394
20
40.588900499531292
30
0
40
1.9999999999999827
210
0
220
-0
230
1
100
AcDbArc
50
83.633676015968788
51
180
0
LINE
5
302
100
AcDbEntity
8
0
100
AcDbLine
10
71.691017570443094
20
-66.127095549499089
30
0
11
72.860000628700391
21
-64.958112491241764
31
0
0
ARC
5
303
100
AcDbEntity
8
0
100
AcDbCircle
10
26.083804000156128
20
-46.359127879488469
30
0
40
4.9999999999999885
210
0
220
-0
230
1
100
AcDbArc
50
83.633676015968987
51
224.98541730807554
0
LINE
5
304
100
AcDbEntity
8
0
100
AcDbLine
10
62.8600004796888
20
-61.674112938276622
30
0
11
62.8600004796888
21
-64.958112640253376
31
0
0
SPLINE
5
305
100
AcDbEntity
8
0
100
AcDbSpline
70
12
71
2
41
1
41
0.66666666666666763
41
1
72
6
73
3
74
0
42
0.000000001
43
0.0000000001
44
0.0000000001
40
0
40
0
40
0
40
0.44873162610029838
40
0.44873162610029838
40
0.44873162610029838
10
-11.33045572680671
20
57.448155416983937
30
0
10
-9.4997651649088439
20
55.327136324841
30
0
10
-11.332927213433512
20
53.206906694621892
30
0
0
ARC
5
306
100
AcDbEntity
8
0
100
AcDbCircle
10
5.6361952255486614
20
47.545733348854178
30
0
40
4.9999999999999964
210
0
220
0
230
1
100
AcDbArc
50
-96.366323984030956
51
44.985417308075419
0
LINE
5
307
100
AcDbEntity
8
0
100
AcDbLine
10
-31.140001253984018
20
42.860718109619107
30
0
11
-31.140001328489824
21
49.931718162303156
31
0
0
LINE
5
308
100
AcDbEntity
8
0
100
AcDbLine
10
-11.332927213433512
20
53.206906694621892
30
0
11
-13.454787398222328
21
51.086126329707149
31
0
0
CIRCLE
5
309
100
AcDbEntity
8
0
100
AcDbCircle
10
-36.140001328489817
20
42.860718109619107
30
0
40
1.5000000000000002
210
0
220
0
230
1
0
LINE
5
310
100
AcDbEntity
8
0
100
AcDbLine
10
-45.334320923459401
20
-56.259654222258149
30
0
11
-55.676030226197575
21
-66.604241599650024
31
0
0
LINE
5
311
100
AcDbEntity
8
0
100
AcDbLine
10
-39.971018344738319
20
67.313701018864776
30
0
11
-41.140001402995622
21
66.14471796060748
31
0
0
ARC
5
312
100
AcDbEntity
8
0
100
AcDbCircle
10
-9.1400003871475999
20
40.593302734682851
30
0
40
2.0000000000000107
210
0
220
-0
230
1
100
AcDbArc
50
0
51
96.398933745210186
0
ARC
5
313
100
AcDbEntity
8
0
100
AcDbCircle
10
26.859997730214403
20
-39.402295030165597
30
0
40
1.9999999999999827
210
0
220
0
230
1
100
AcDbArc
50
263.63367601596877
51
360
0
LINE
5
314
100
AcDbEntity
8
0
100
AcDbLine
10
72.860000628700405
20
-41.674112640253405
30
0
11
72.860000554194585
21
-48.745112692937454
31
0
0
LINE
5
315
100
AcDbEntity
8
0
100
AcDbLine
10
72.860000628700391
20
-61.674112938276622
30
0
11
72.860000628700391
21
-64.958112491241764
31
0
0
ARC
5
316
100
AcDbEntity
8
0
100
AcDbCircle
10
-43.916195999843872
20
-46.359127879488469
30
0
40
4.9999999999999885
210
0
220
-0
230
1
100
AcDbArc
50
83.633676015968987
51
224.98541730807554
0
LINE
5
317
100
AcDbEntity
8
0
100
AcDbLine
10
2.8600006287004032
20
-41.674112640253405
30
0
11
2.8600005541945928
21
-48.745112692937454
31
0
0
ARC
5
318
100
AcDbEntity
8
0
100
AcDbCircle
10
-52.140004457331479
20
-70.139283574212001
30
0
40
5.0000000000000169
210
0
220
0
230
1
100
AcDbArc
50
135.00797153459936
51
315.00797153459916
0
ARC
5
319
100
AcDbEntity
8
0
100
AcDbCircle
10
-43.140002269785597
20
-39.402295030165597
30
0
40
1.9999999999999827
210
0
220
0
230
1
100
AcDbArc
50
263.63367601596877
51
360
0
LWPOLYLINE
5
320
100
AcDbEntity
8
0
100
AcDbPolyline
90
4
70
1
43
0.0
10
74.579764382629563
20
64.16301212349498
42
-0.99999999999999989
10
76.700544747544313
20
62.041151938706172
10
74.57868456275547
20
59.920371573791428
42
-0.99999999999999989
10
72.457904197840747
20
62.042231758580243
0
LINE
5
321
100
AcDbEntity
8
0
100
AcDbLine
10
9.1726288668633504
20
51.080367290378739
30
0
11
7.0518485019486032
21
53.202227475167554
31
0
0
LINE
5
322
100
AcDbEntity
8
0
100
AcDbLine
10
2.8600005541945928
20
-48.745112692937454
30
0
11
2.8600006287003987
21
-61.674112938276622
31
0
0
LWPOLYLINE
5
323
100
AcDbEntity
8
0
100
AcDbPolyline
90
4
70
1
43
0.0
10
-10.980543639155123
20
48.610622780786855
10
-8.8586834543662984
20
50.731403145701606
42
-0.99999999999999989
10
-6.7379030894515513
20
48.60954296091279
10
-8.8597632742403754
20
46.48876259599804
42
-0.99999999999999989
0
LINE
5
324
100
AcDbEntity
8
0
100
AcDbLine
10
77.054320149164198
20
57.446259691623851
30
0
11
87.396029451902365
21
67.790847069015726
31
0
0
LINE
5
325
100
AcDbEntity
8
0
100
AcDbLine
10
2.8600006287003987
20
-61.674112938276622
30
0
11
2.8600006287003987
21
-64.958112491241764
31
0
0
LINE
5
326
100
AcDbEntity
8
0
100
AcDbLine
10
7.0543201491641927
20
57.446259691623851
30
0
11
17.396029451902368
21
67.790847069015726
31
0
0
LINE
5
327
100
AcDbEntity
8
0
100
AcDbLine
10
53.395040884490747
20
-66.603257805345919
30
0
11
43.050454952511501
21
-56.261549947618235
31
0
0
LINE
5
328
100
AcDbEntity
8
0
100
AcDbLine
10
-32.60446734805128
20
67.60918420368634
30
0
11
-31.140001253984018
21
66.144718109619092
31
0
0
ARC
5
329
100
AcDbEntity
8
0
100
AcDbCircle
10
83.860003683036268
20
71.325889043577718
30
0
40
5.0000000000000169
210
-0
220
0
230
1
100
AcDbArc
50
-44.992028465400722
51
135.00797153459936
0
ARC
5
330
100
AcDbEntity
8
0
100
AcDbCircle
10
5.6361952255486614
20
47.545733348854178
30
0
40
4.9999999999999964
210
0
220
0
230
1
100
AcDbArc
50
-96.366323984030956
51
44.985417308075419
0
SPLINE
5
331
100
AcDbEntity
8
0
100
AcDbSpline
70
12
71
2
41
1
41
0.66666666666666674
41
1
72
6
73
3
74
0
42
0.000000001
43
0.0000000001
44
0.0000000001
40
0
40
0
40
0
40
0.44917145601786612
40
0.44917145601786612
40
0.44917145601786612
10
24.665679076540599
20
-56.259654222258149
30
0
10
26.505600128169384
20
-54.123775938542515
30
0
10
24.668150723756188
20
-52.015622005801859
30
0
0
ARC
5
332
100
AcDbEntity
8
0
100
AcDbCircle
10
-52.140004457331479
20
-70.139283574212001
30
0
40
5.0000000000000169
210
0
220
0
230
1
100
AcDbArc
50
135.00797153459936
51
315.00797153459916
0
LINE
5
333
100
AcDbEntity
8
0
100
AcDbLine
10
-45.334320923459401
20
-56.259654222258149
30
0
11
-55.676030226197575
21
-66.604241599650024
31
0
0
LINE
5
334
100
AcDbEntity
8
0
100
AcDbLine
10
-11.332927213433512
20
53.206906694621892
30
0
11
-13.454787398222328
21
51.086126329707149
31
0
0
ARC
5
335
100
AcDbEntity
8
0
100
AcDbCircle
10
26.083804000156128
20
-46.359127879488469
30
0
40
4.9999999999999885
210
0
220
-0
230
1
100
AcDbArc
50
83.633676015968987
51
224.98541730807554
0
ARC
5
336
100
AcDbEntity
8
0
100
AcDbCircle
10
-9.920153456697749
20
47.549692688392454
30
0
40
4.9999999999999911
210
0
220
0
230
1
100
AcDbArc
50
134.98541730807551
51
276.39893374521023
0
LINE
5
337
100
AcDbEntity
8
0
100
AcDbLine
10
53.395040884490747
20
-66.603257805345919
30
0
11
43.050454952511501
21
-56.261549947618235
31
0
0
SPLINE
5
338
100
AcDbEntity
8
0
100
AcDbSpline
70
12
71
2
41
1
41
0.66666666666666763
41
1
72
6
73
3
74
0
42
0.000000001
43
0.0000000001
44
0.0000000001
40
0
40
0
40
0
40
0.44873162610029849
40
0.44873162610029849
40
0.44873162610029849
10
-26.949545047488499
20
-56.261549947618235
30
0
10
-28.780235609386366
20
-54.140530855475298
30
0
10
-26.947073560861696
20
-52.020301225256198
30
0
0
ARC
5
339
100
AcDbEntity
8
0
100
AcDbCircle
10
13.860003683036268
20
71.325889043577718
30
0
40
5.0000000000000169
210
-0
220
0
230
1
100
AcDbArc
50
-44.992028465400722
51
135.00797153459936
0
LINE
5
340
100
AcDbEntity
8
0
100
AcDbLine
10
77.054320149164198
20
57.446259691623851
30
0
11
87.396029451902365
21
67.790847069015726
31
0
0
LWPOLYLINE
5
341
100
AcDbEntity
8
0
100
AcDbPolyline
90
4
70
1
43
0.0
10
-8.8552640247650682
20
64.166431553096217
10
-6.734483659850321
20
62.044571368307388
42
-0.99999999999999989
10
-8.8563438446391363
20
59.923791003392651
10
-10.977124209553883
20
62.045651188181488
42
-0.99999999999999989
0
ARC
5
342
100
AcDbEntity
8
0
100
AcDbCircle
10
49.859998909928777
20
-70.139283574212001
30
0
40
4.9999999999999973
210
0
220
0
230
1
100
AcDbArc
50
-134.99202846540089
51
45.007971534599328
0
LWPOLYLINE
5
343
100
AcDbEntity
8
0
100
AcDbPolyline
90
4
70
1
43
0.0
10
74.579764382629563
20
64.16301212349498
42
-0.99999999999999989
10
76.700544747544313
20
62.041151938706172
10
74.57868456275547
20
59.920371573791428
42
-0.99999999999999989
10
72.457904197840747
20
62.042231758580243
0
SPLINE
5
344
100
AcDbEntity
8
0
100
AcDbSpline
70
12
71
2
41
1
41
0.66666666666666674
41
1
72
6
73
3
74
0
42
0.000000001
43
0.0000000001
44
0.0000000001
40
0
40
0
40
0
40
0.44917145601786612
40
0.44917145601786612
40
0.44917145601786612
10
24.665679076540599
20
-56.259654222258149
30
0
10
26.505600128169384
20
-54.123775938542515
30
0
10
24.668150723756188
20
-52.015622005801859
30
0
0
LINE
5
345
100
AcDbEntity
8
0
100
AcDbLine
10
53.395040884490747
20
-66.603257805345919
30
0
11
43.050454952511501
21
-56.261549947618235
31
0
0
ARC
5
346
100
AcDbEntity
8
0
100
AcDbCircle
10
83.860003683036268
20
71.325889043577718
30
0
40
5.0000000000000169
210
-0
220
0
230
1
100
AcDbArc
50
-44.992028465400722
51
135.00797153459936
0
LINE
5
347
100
AcDbEntity
8
0
100
AcDbLine
10
22.547370358841441
20
-49.893761821013044
30
0
11
24.668150723756188
21
-52.015622005801859
31
0
0
ARC
5
348
100
AcDbEntity
8
0
100
AcDbCircle
10
49.859998909928777
20
-70.139283574212001
30
0
40
4.9999999999999973
210
0
220
0
230
1
100
AcDbArc
50
-134.99202846540089
51
45.007971534599328
0
LINE
5
349
100
AcDbEntity
8
0
100
AcDbLine
10
77.054320149164198
20
57.446259691623851
30
0
11
87.396029451902365
21
67.790847069015726
31
0
0
ARC
5
350
100
AcDbEntity
8
0
100
AcDbCircle
10
-43.140002269785597
20
-39.402295030165597
30
0
40
1.9999999999999827
210
0
220
0
230
1
100
AcDbArc
50
263.63367601596877
51
360
0
ARC
5
351
100
AcDbEntity
8
0
100
AcDbCircle
10
41.636193342864267
20
-61.919435901273147
30
0
40
1.4999999999999898
210
0
220
0
230
1
100
AcDbArc
50
-135.01458269192477
51
44.985417308075405
0
LWPOLYLINE
5
352
100
AcDbEntity
8
0
100
AcDbPolyline
90
4
70
1
43
0.0
10
-27.299457135140088
20
-47.424017311421153
10
-29.42131731992891
20
-49.544797676335897
42
-0.99999999999999989
10
-31.542097684843657
20
-47.422937491547081
10
-29.420237500054832
20
-45.302157126632338
42
-0.99999999999999989
0
ARC
5
353
100
AcDbEntity
8
0
100
AcDbCircle
10
41.636193342864267
20
-61.919435901273147
30
0
40
1.4999999999999898
210
0
220
0
230
1
100
AcDbArc
50
-135.01458269192477
51
44.985417308075405
0
LINE
5
354
100
AcDbEntity
8
0
100
AcDbLine
10
-31.545517114444884
20
-60.857965898941693
30
0
11
-29.42473674953014
21
-62.979826083730508
31
0
0
LINE
5
355
100
AcDbEntity
8
0
100
AcDbLine
10
-11.332927213433512
20
53.206906694621892
30
0
11
-13.454787398222328
21
51.086126329707149
31
0
0
LWPOLYLINE
5
356
100
AcDbEntity
8
0
100
AcDbPolyline
90
4
70
1
43
0.0
10
-27.299457135140088
20
-47.424017311421153
10
-29.42131731992891
20
-49.544797676335897
42
-0.99999999999999989
10
-31.542097684843657
20
-47.422937491547081
10
-29.420237500054832
20
-45.302157126632338
42
-0.99999999999999989
0
ARC
5
357
100
AcDbEntity
8
0
100
AcDbCircle
10
17.859995542668521
20
-70.139283574212001
30
0
40
5.0000000000000169
210
0
220
0
230
1
100
AcDbArc
50
135.00797153459942
51
315.00797153459916
0
ARC
5
358
100
AcDbEntity
8
0
100
AcDbCircle
10
83.860003683036268
20
71.325889043577718
30
0
40
5.0000000000000169
210
-0
220
0
230
1
100
AcDbArc
50
-44.992028465400722
51
135.00797153459936
0
ARC
5
359
100
AcDbEntity
8
0
100
AcDbCircle
10
26.859997730214403
20
-39.402295030165597
30
0
40
1.9999999999999827
210
0
220
0
230
1
100
AcDbArc
50
263.63367601596877
51
360
0
LINE
5
360
100
AcDbEntity
8
0
100
AcDbLine
10
22.547370358841441
20
-49.893761821013044
30
0
11
24.668150723756188
21
-52.015622005801859
31
0
0
ARC
5
361
100
AcDbEntity
8
0
100
AcDbCircle
10
26.083804000156128
20
-46.359127879488469
30
0
40
4.9999999999999885
210
0
220
-0
230
1
100
AcDbArc
50
83.633676015968987
51
224.98541730807554
0
ARC
5
362
100
AcDbEntity
8
0
100
AcDbCircle
10
-9.1400003871475999
20
40.593302734682851
30
0
40
2.0000000000000107
210
0
220
-0
230
1
100
AcDbArc
50
0
51
96.398933745210186
0
LINE
5
363
100
AcDbEntity
8
0
100
AcDbLine
10
38.454482885555116
20
-60.857965898941693
30
0
11
40.57526325046986
21
-62.979826083730508
31
0
0
ARC
5
364
100
AcDbEntity
8
0
100
AcDbCircle
10
-28.363806657135733
20
-61.919435901273147
30
0
40
1.4999999999999898
210
0
220
0
230
1
100
AcDbArc
50
-135.01458269192477
51
44.985417308075405
0
LWPOLYLINE
5
365
100
AcDbEntity
8
0
100
AcDbPolyline
90
4
70
1
43
0.0
10
40.57868268007109
20
-49.544797676335897
42
-0.99999999999999989
10
38.457902315156346
20
-47.422937491547081
10
40.579762499945168
20
-45.302157126632338
42
-0.99999999999999989
10
42.700542864859912
20
-47.424017311421153
0
LINE
5
366
100
AcDbEntity
8
0
100
AcDbLine
10
43.052926439138304
20
-52.020301225256198
30
0
11
45.174786623927119
21
-49.899520860341454
31
0
0
LINE
5
367
100
AcDbEntity
8
0
100
AcDbLine
10
43.052926439138304
20
-52.020301225256198
30
0
11
45.174786623927119
21
-49.899520860341454
31
0
0
ARC
5
368
100
AcDbEntity
8
0
100
AcDbCircle
10
17.859995542668521
20
-70.139283574212001
30
0
40
5.0000000000000169
210
0
220
0
230
1
100
AcDbArc
50
135.00797153459942
51
315.00797153459916
0
LWPOLYLINE
5
369
100
AcDbEntity
8
0
100
AcDbPolyline
90
4
70
1
43
0.0
10
25.019454478160483
20
-60.85454646934047
10
27.141314662949316
20
-58.733766104425726
42
-0.99999999999999989
10
29.262095027864046
20
-60.855626289214541
10
27.14023484307523
20
-62.976406654129271
42
-0.99999999999999989
0
LINE
5
370
100
AcDbEntity
8
0
100
AcDbLine
10
-31.545517114444884
20
-60.857965898941693
30
0
11
-29.42473674953014
21
-62.979826083730508
31
0
0
SPLINE
5
371
100
AcDbEntity
8
0
100
AcDbSpline
70
12
71
2
41
1
41
0.66666666666666763
41
1
72
6
73
3
74
0
42
0.000000001
43
0.0000000001
44
0.0000000001
40
0
40
0
40
0
40
0.44873162610029838
40
0.44873162610029838
40
0.44873162610029838
10
-11.33045572680671
20
57.448155416983937
30
0
10
-9.4997651649088439
20
55.327136324841
30
0
10
-11.332927213433512
20
53.206906694621892
30
0
0
LWPOLYLINE
5
372
100
AcDbEntity
8
0
100
AcDbPolyline
90
4
70
1
43
0.0
10
38.457902315156346
20
-47.422937491547081
10
40.579762499945168
20
-45.302157126632338
42
-0.99999999999999989
10
42.700542864859912
20
-47.424017311421153
10
40.57868268007109
20
-49.544797676335897
42
-0.99999999999999989
0
ARC
5
373
100
AcDbEntity
8
0
100
AcDbCircle
10
-29.140000387147609
20
-39.406697265317149
30
0
40
2.0000000000000107
210
0
220
0
230
1
100
AcDbArc
50
180
51
276.39893374521012
0
LWPOLYLINE
5
374
100
AcDbEntity
8
0
100
AcDbPolyline
90
4
70
1
43
0.0
10
25.019454478160483
20
-60.85454646934047
10
27.141314662949316
20
-58.733766104425726
42
-0.99999999999999989
10
29.262095027864046
20
-60.855626289214541
10
27.14023484307523
20
-62.976406654129271
42
-0.99999999999999989
0
ARC
5
375
100
AcDbEntity
8
0
100
AcDbCircle
10
-29.140000387147609
20
-39.406697265317149
30
0
40
2.0000000000000107
210
0
220
0
230
1
100
AcDbArc
50
180
51
276.39893374521012
0
LINE
5
376
100
AcDbEntity
8
0
100
AcDbLine
10
42.697123435258675
20
-60.859045718815779
30
0
11
40.576343070343924
21
-58.737185534026956
31
0
0
ARC
5
377
100
AcDbEntity
8
0
100
AcDbCircle
10
-30.484587022050476
20
-59.797575716484317
30
0
40
1.4999999999999869
210
0
220
-0
230
1
100
AcDbArc
50
44.985417308075313
51
224.98541730807557
0
ARC
5
378
100
AcDbEntity
8
0
100
AcDbCircle
10
41.636193342864267
20
-61.919435901273147
30
0
40
1.4999999999999898
210
0
220
0
230
1
100
AcDbArc
50
-135.01458269192477
51
44.985417308075405
0
LINE
5
379
100
AcDbEntity
8
0
100
AcDbLine
10
-26.947073560861696
20
-52.020301225256198
30
0
11
-24.825213376072881
21
-49.899520860341454
31
0
0
ARC
5
380
100
AcDbEntity
8
0
100
AcDbCircle
10
-28.35984731759746
20
-46.363087219026738
30
0
40
5.0000000000000036
210
-0
220
0
230
1
100
AcDbArc
50
-45.014582691924637
51
96.398933745210314
0
ARC
5
381
100
AcDbEntity
8
0
100
AcDbCircle
10
-9.920153456697749
20
47.549692688392454
30
0
40
4.9999999999999911
210
0
220
0
230
1
100
AcDbArc
50
134.98541730807551
51
276.39893374521023
0
ARC
5
382
100
AcDbEntity
8
0
100
AcDbCircle
10
41.640152682402544
20
-46.363087219026738
30
0
40
5.0000000000000036
210
-0
220
0
230
1
100
AcDbArc
50
-45.01458269192468
51
96.398933745210357
0
LWPOLYLINE
5
383
100
AcDbEntity
8
0
100
AcDbPolyline
90
4
70
1
43
0.0
10
40.57868268007109
20
-49.544797676335897
42
-0.99999999999999989
10
38.457902315156346
20
-47.422937491547081
10
40.579762499945168
20
-45.302157126632338
42
-0.99999999999999989
10
42.700542864859912
20
-47.424017311421153
0
ARC
5
384
100
AcDbEntity
8
0
100
AcDbCircle
10
-28.363806657135733
20
-61.919435901273147
30
0
40
1.4999999999999898
210
0
220
0
230
1
100
AcDbArc
50
-135.01458269192477
51
44.985417308075405
0
ARC
5
385
100
AcDbEntity
8
0
100
AcDbCircle
10
17.859995542668521
20
-70.139283574212001
30
0
40
5.0000000000000169
210
0
220
0
230
1
100
AcDbArc
50
135.00797153459942
51
315.00797153459916
0
SPLINE
5
386
100
AcDbEntity
8
0
100
AcDbSpline
70
12
71
2
41
1
41
0.66666666666666763
41
1
72
6
73
3
74
0
42
0.000000001
43
0.0000000001
44
0.0000000001
40
0
40
0
40
0
40
0.44873162610029849
40
0.44873162610029849
40
0.44873162610029849
10
-26.949545047488499
20
-56.261549947618235
30
0
10
-28.780235609386366
20
-54.140530855475298
30
0
10
-26.947073560861696
20
-52.020301225256198
30
0
0
LINE
5
387
100
AcDbEntity
8
0
100
AcDbLine
10
-27.302876564741325
20
-60.859045718815779
30
0
11
-29.423656929656072
21
-58.737185534026956
31
0
0
LINE
5
388
100
AcDbEntity
8
0
100
AcDbLine
10
-26.947073560861696
20
-52.020301225256198
30
0
11
-24.825213376072881
21
-49.899520860341454
31
0
0
LINE
5
389
100
AcDbEntity
8
0
100
AcDbLine
10
24.665679076540599
20
-56.259654222258149
30
0
11
14.323969773802423
21
-66.604241599650024
31
0
0
SPLINE
5
390
100
AcDbEntity
8
0
100
AcDbSpline
70
12
71
2
41
1
41
0.66666666666666763
41
1
72
6
73
3
74
0
42
0.000000001
43
0.0000000001
44
0.0000000001
40
0
40
0
40
0
40
0.44873162610029838
40
0.44873162610029838
40
0.44873162610029838
10
-11.33045572680671
20
57.448155416983937
30
0
10
-9.4997651649088439
20
55.327136324841
30
0
10
-11.332927213433512
20
53.206906694621892
30
0
0
ARC
5
391
100
AcDbEntity
8
0
100
AcDbCircle
10
40.859999612852391
20
-39.406697265317149
30
0
40
2.0000000000000107
210
0
220
0
230
1
100
AcDbArc
50
180
51
276.39893374521012
0
LWPOLYLINE
5
392
100
AcDbEntity
8
0
100
AcDbPolyline
90
4
70
1
43
0.0
10
27.141314662949316
20
-58.733766104425726
42
-0.99999999999999989
10
29.262095027864046
20
-60.855626289214541
10
27.14023484307523
20
-62.976406654129271
42
-0.99999999999999989
10
25.019454478160483
20
-60.85454646934047
0
ARC
5
393
100
AcDbEntity
8
0
100
AcDbCircle
10
41.640152682402544
20
-46.363087219026738
30
0
40
5.0000000000000036
210
-0
220
0
230
1
100
AcDbArc
50
-45.01458269192468
51
96.398933745210357
0
ARC
5
394
100
AcDbEntity
8
0
100
AcDbCircle
10
-28.35984731759746
20
-46.363087219026738
30
0
40
5.0000000000000036
210
-0
220
0
230
1
100
AcDbArc
50
-45.014582691924637
51
96.398933745210314
0
SPLINE
5
395
100
AcDbEntity
8
0
100
AcDbSpline
70
12
71
2
41
1
41
0.66666666666666763
41
1
72
6
73
3
74
0
42
0.000000001
43
0.0000000001
44
0.0000000001
40
0
40
0
40
0
40
0.44873162610029849
40
0.44873162610029849
40
0.44873162610029849
10
43.050454952511501
20
-56.261549947618235
30
0
10
41.219764390613634
20
-54.140530855475298
30
0
10
43.052926439138304
20
-52.020301225256198
30
0
0
LINE
5
396
100
AcDbEntity
8
0
100
AcDbLine
10
-31.545517114444884
20
-60.857965898941693
30
0
11
-29.42473674953014
21
-62.979826083730508
31
0
0
LWPOLYLINE
5
397
100
AcDbEntity
8
0
100
AcDbPolyline
90
4
70
1
43
0.0
10
-29.42131731992891
20
-49.544797676335897
42
-0.99999999999999989
10
-31.542097684843657
20
-47.422937491547081
10
-29.420237500054832
20
-45.302157126632338
42
-0.99999999999999989
10
-27.299457135140088
20
-47.424017311421153
0
LINE
5
398
100
AcDbEntity
8
0
100
AcDbLine
10
-27.302876564741325
20
-60.859045718815779
30
0
11
-29.423656929656072
21
-58.737185534026956
31
0
0
LINE
5
399
100
AcDbEntity
8
0
100
AcDbLine
10
24.665679076540599
20
-56.259654222258149
30
0
11
14.323969773802423
21
-66.604241599650024
31
0
0
ARC
5
400
100
AcDbEntity
8
0
100
AcDbCircle
10
-30.484587022050476
20
-59.797575716484317
30
0
40
1.4999999999999869
210
0
220
-0
230
1
100
AcDbArc
50
44.985417308075313
51
224.98541730807557
0
LINE
5
401
100
AcDbEntity
8
0
100
AcDbLine
10
38.454482885555116
20
-60.857965898941693
30
0
11
40.57526325046986
21
-62.979826083730508
31
0
0
LINE
5
402
100
AcDbEntity
8
0
100
AcDbLine
10
43.052926439138304
20
-52.020301225256198
30
0
11
45.174786623927119
21
-49.899520860341454
31
0
0
ARC
5
403
100
AcDbEntity
8
0
100
AcDbCircle
10
39.515412977949524
20
-59.797575716484317
30
0
40
1.4999999999999869
210
0
220
-0
230
1
100
AcDbArc
50
44.985417308075405
51
224.98541730807557
0
ARC
5
404
100
AcDbEntity
8
0
100
AcDbCircle
10
-28.363806657135733
20
-61.919435901273147
30
0
40
1.4999999999999898
210
0
220
0
230
1
100
AcDbArc
50
-135.01458269192477
51
44.985417308075405
0
LINE
5
405
100
AcDbEntity
8
0
100
AcDbLine
10
24.665679076540599
20
-56.259654222258149
30
0
11
14.323969773802423
21
-66.604241599650024
31
0
0
ARC
5
406
100
AcDbEntity
8
0
100
AcDbCircle
10
39.515412977949524
20
-59.797575716484317
30
0
40
1.4999999999999869
210
0
220
-0
230
1
100
AcDbArc
50
44.985417308075405
51
224.98541730807557
0
ARC
5
407
100
AcDbEntity
8
0
100
AcDbCircle
10
40.859999612852391
20
-39.406697265317149
30
0
40
2.0000000000000107
210
0
220
0
230
1
100
AcDbArc
50
180
51
276.39893374521012
0
ARC
5
408
100
AcDbEntity
8
0
100
AcDbCircle
10
40.859999612852391
20
-39.406697265317149
30
0
40
2.0000000000000107
210
0
220
0
230
1
100
AcDbArc
50
180
51
276.39893374521012
0
LINE
5
409
100
AcDbEntity
8
0
100
AcDbLine
10
38.454482885555116
20
-60.857965898941693
30
0
11
40.57526325046986
21
-62.979826083730508
31
0
0
ARC
5
410
100
AcDbEntity
8
0
100
AcDbCircle
10
-30.484587022050476
20
-59.797575716484317
30
0
40
1.4999999999999869
210
0
220
-0
230
1
100
AcDbArc
50
44.985417308075313
51
224.98541730807557
0
ARC
5
411
100
AcDbEntity
8
0
100
AcDbCircle
10
41.640152682402544
20
-46.363087219026738
30
0
40
5.0000000000000036
210
-0
220
0
230
1
100
AcDbArc
50
-45.01458269192468
51
96.398933745210357
0
LINE
5
412
100
AcDbEntity
8
0
100
AcDbLine
10
-27.302876564741325
20
-60.859045718815779
30
0
11
-29.423656929656072
21
-58.737185534026956
31
0
0
SPLINE
5
413
100
AcDbEntity
8
0
100
AcDbSpline
70
12
71
2
41
1
41
0.66666666666666763
41
1
72
6
73
3
74
0
42
0.000000001
43
0.0000000001
44
0.0000000001
40
0
40
0
40
0
40
0.44873162610029849
40
0.44873162610029849
40
0.44873162610029849
10
43.050454952511501
20
-56.261549947618235
30
0
10
41.219764390613634
20
-54.140530855475298
30
0
10
43.052926439138304
20
-52.020301225256198
30
0
0
LINE
5
414
100
AcDbEntity
8
0
100
AcDbLine
10
-26.947073560861696
20
-52.020301225256198
30
0
11
-24.825213376072881
21
-49.899520860341454
31
0
0
ARC
5
415
100
AcDbEntity
8
0
100
AcDbCircle
10
39.515412977949524
20
-59.797575716484317
30
0
40
1.4999999999999869
210
0
220
-0
230
1
100
AcDbArc
50
44.985417308075405
51
224.98541730807557
0
ARC
5
416
100
AcDbEntity
8
0
100
AcDbCircle
10
-28.35984731759746
20
-46.363087219026738
30
0
40
5.0000000000000036
210
-0
220
0
230
1
100
AcDbArc
50
-45.014582691924637
51
96.398933745210314
0
SPLINE
5
417
100
AcDbEntity
8
0
100
AcDbSpline
70
12
71
2
41
1
41
0.66666666666666763
41
1
72
6
73
3
74
0
42
0.000000001
43
0.0000000001
44
0.0000000001
40
0
40
0
40
0
40
0.44873162610029849
40
0.44873162610029849
40
0.44873162610029849
10
43.050454952511501
20
-56.261549947618235
30
0
10
41.219764390613634
20
-54.140530855475298
30
0
10
43.052926439138304
20
-52.020301225256198
30
0
0
LINE
5
418
100
AcDbEntity
8
0
100
AcDbLine
10
42.697123435258675
20
-60.859045718815779
30
0
11
40.576343070343924
21
-58.737185534026956
31
0
0
SPLINE
5
419
100
AcDbEntity
8
0
100
AcDbSpline
70
12
71
2
41
1
41
0.66666666666666763
41
1
72
6
73
3
74
0
42
0.000000001
43
0.0000000001
44
0.0000000001
40
0
40
0
40
0
40
0.44873162610029849
40
0.44873162610029849
40
0.44873162610029849
10
-26.949545047488499
20
-56.261549947618235
30
0
10
-28.780235609386366
20
-54.140530855475298
30
0
10
-26.947073560861696
20
-52.020301225256198
30
0
0
ARC
5
420
100
AcDbEntity
8
0
100
AcDbCircle
10
-29.140000387147609
20
-39.406697265317149
30
0
40
2.0000000000000107
210
0
220
0
230
1
100
AcDbArc
50
180
51
276.39893374521012
0
LINE
5
421
100
AcDbEntity
8
0
100
AcDbLine
10
42.697123435258675
20
-60.859045718815779
30
0
11
40.576343070343924
21
-58.737185534026956
31
0
0
ENDSEC
0
SECTION
2
OBJECTS
0
DICTIONARY
5
C
100
AcDbDictionary
3
ACAD_GROUP
350
D
3
ACAD_MLINESTYLE
350
17
0
DICTIONARY
5
D
100
AcDbDictionary
0
DICTIONARY
5
1A
330
C
100
AcDbDictionary
0
DICTIONARY
5
17
100
AcDbDictionary
0
ENDSEC
0
EOF
