0
SECTION
2
HEADER
9
$INSUNITS
70
4
9
$ACADVER
1
AC1014
9
$HANDSEED
5
FFFF
0
ENDSEC
0
SECTION
2
TABLES
0
TABLE
2
VPORT
5
8
100
AcDbSymbolTable
0
ENDTAB
0
TABLE
2
LTYPE
5
5
100
AcDbSymbolTable
0
LTYPE
5
14
100
AcDbSymbolTableRecord
100
AcDbLinetypeTableRecord
2
BYBLOCK
70
0
0
LTYPE
5
15
100
AcDbSymbolTableRecord
100
AcDbLinetypeTableRecord
2
BYLAYER
70
0
0
ENDTAB
0
TABLE
2
LAYER
5
2
100
AcDbSymbolTable
70
2
0
LAYER
5
50
100
AcDbSymbolTableRecord
100
AcDbLayerTableRecord
2
0
70
0
6
CONTINUOUS
0
ENDTAB
0
TABLE
2
STYLE
5
3
100
AcDbSymbolTable
70
1
0
STYLE
5
11
100
AcDbSymbolTableRecord
100
AcDbTextStyleTableRecord
2
STANDARD
70
0
0
ENDTAB
0
TABLE
2
VIEW
5
6
100
AcDbSymbolTable
70
0
0
ENDTAB
0
TABLE
2
UCS
5
7
100
AcDbSymbolTable
70
0
0
ENDTAB
0
TABLE
2
APPID
5
9
100
AcDbSymbolTable
70
2
0
APPID
5
12
100
AcDbSymbolTableRecord
100
AcDbRegAppTableRecord
2
ACAD
70
0
0
ENDTAB
0
TABLE
2
DIMSTYLE
5
A
100
AcDbSymbolTable
70
1
0
ENDTAB
0
TABLE
2
BLOCK_RECORD
5
1
100
AcDbSymbolTable
70
1
0
BLOCK_RECORD
5
1F
100
AcDbSymbolTableRecord
100
AcDbBlockTableRecord
2
*MODEL_SPACE
0
BLOCK_RECORD
5
1B
100
AcDbSymbolTableRecord
100
AcDbBlockTableRecord
2
*PAPER_SPACE
0
ENDTAB
0
ENDSEC
0
SECTION
2
BLOCKS
0
BLOCK
5
20
100
AcDbEntity
100
AcDbBlockBegin
2
*MODEL_SPACE
0
ENDBLK
5
21
100
AcDbEntity
100
AcDbBlockEnd
0
BLOCK
5
1C
100
AcDbEntity
100
AcDbBlockBegin
2
*PAPER_SPACE
0
ENDBLK
5
1D
100
AcDbEntity
100
AcDbBlockEnd
0
ENDSEC
0
SECTION
2
ENTITIES
0
CIRCLE
5
100
100
AcDbEntity
8
0
100
AcDbCircle
10
0
20
0
30
0
40
4.0000000596046448
210
0
220
0
230
1
0
LINE
5
101
100
AcDbEntity
8
0
100
AcDbLine
10
24.999999817235391
20
-19.994798659670998
30
0
11
25
21
-20.000000298023224
31
0
0
CIRCLE
5
102
100
AcDbEntity
8
0
100
AcDbCircle
10
15.000000223517418
20
28.50000040978194
30
0
40
1.549999999999998
210
0
220
0
230
1
0
ARC
5
103
100
AcDbEntity
8
0
100
AcDbCircle
10
21.341670461739206
20
26.360025242745728
30
0
40
1.5000000000000044
210
0
220
0
230
1
100
AcDbArc
50
187.12501676922122
51
258.08790135723308
0
CIRCLE
5
104
100
AcDbEntity
8
0
100
AcDbCircle
10
20.000000298023227
20
20.00000029802322
30
0
40
1.5500000000000025
210
0
220
0
230
1
0
SPLINE
5
105
100
AcDbEntity
8
0
100
AcDbSpline
70
12
71
2
41
1
41
0.54840345595169993
41
1
72
6
73
3
74
0
42
0.000000001
43
0.0000000001
44
0.0000000001
40
0
40
0
40
0
40
3.0287875542296554
40
3.0287875542296554
40
3.0287875542296554
10
-23.483163909745404
20
-15.000000223517418
30
0
10
-17.601721573605356
20
-0.0011783245835195189
30
0
10
-23.482814258029006
20
15.000000298023227
30
0
0
SPLINE
5
106
100
AcDbEntity
8
0
100
AcDbSpline
70
12
71
2
41
1
41
0.54836831093621263
41
1
72
6
73
3
74
0
42
0.000000001
43
0.0000000001
44
0.0000000001
40
0
40
0
40
0
40
3.0287919839813977
40
3.0287919839813977
40
3.0287919839813977
10
23.483151142210772
20
15
30
0
10
17.601182517850265
20
-2.5231354117138949e-07
30
0
10
23.48315122985893
20
-15.000000223517418
30
0
0
SPLINE
5
107
100
AcDbEntity
8
0
100
AcDbSpline
70
12
71
2
41
1
41
3.0000000000000266
41
1
72
6
73
3
74
0
42
0.000000001
43
0.0000000001
44
0.0000000001
40
0
40
0
40
0
40
0.53376520969994745
40
0.53376520969994745
40
0.53376520969994745
10
23.48315122985893
20
-15.000000223517418
30
0
10
25
20
-17.500000260770324
30
0
10
25
20
-20.000000298023224
30
0
0
CIRCLE
5
108
100
AcDbEntity
8
0
100
AcDbCircle
10
15.000000223517427
20
-15.000000223517418
30
0
40
1.5499999999999992
210
0
220
0
230
1
0
ARC
5
109
100
AcDbEntity
8
0
100
AcDbCircle
10
7.500000111758709
20
45.000000670552254
30
0
40
1.5000000223517418
210
0
220
0
230
1
100
AcDbArc
50
-180
51
0
0
LINE
5
110
100
AcDbEntity
8
0
100
AcDbLine
10
11.922509847827207
20
67.958092238146165
30
0
11
11.989793623386685
21
67.932460321792149
31
0
0
ARC
5
111
100
AcDbEntity
8
0
100
AcDbCircle
10
-9.8704580197181446
20
-65.723464294354699
30
0
40
4.9999999999999236
210
0
220
0
230
1
100
AcDbArc
50
187.12792042918679
51
248.4384615651287
0
ARC
5
112
100
AcDbEntity
8
0
100
AcDbCircle
10
-3.2616165768217797e-07
20
-48.118957024521919
30
0
40
25.000000000000075
210
0
220
0
230
1
100
AcDbArc
50
248.43846156512836
51
291.56153601392901
0
LINE
5
113
100
AcDbEntity
8
0
100
AcDbLine
10
9.1875069051679503
20
-71.369542197249729
30
0
11
11.707959483696175
21
-70.373581187261308
31
0
0
CIRCLE
5
114
100
AcDbEntity
8
0
100
AcDbCircle
10
13.49999981373549
20
64.500000961124911
30
0
40
1.5500000000000025
210
0
220
0
230
1
0
LWPOLYLINE
5
115
100
AcDbEntity
8
0
100
AcDbPolyline
90
4
70
1
43
0.0
10
1.4999999999999991
20
55.000000819563866
10
1.4999999999999991
20
45.000000670552254
42
-0.99999999999999989
10
-1.4999999999999991
20
45.000000670552254
10
-1.4999999999999991
20
55.000000819563866
42
-0.99999999999999989
0
ARC
5
116
100
AcDbEntity
8
0
100
AcDbCircle
10
21.341670461739206
20
-26.360025242745728
30
0
40
1.4999999999999973
210
0
220
0
230
1
100
AcDbArc
50
101.91209864276694
51
172.87498323077878
0
SPLINE
5
117
100
AcDbEntity
8
0
100
AcDbSpline
70
12
71
2
41
1
41
2.9999999999999805
41
1
72
6
73
3
74
0
42
0.000000001
43
0.0000000001
44
0.0000000001
40
0
40
0
40
0
40
0.5337652334392593
40
0.5337652334392593
40
0.5337652334392593
10
23.483151142210772
20
15
30
0
10
25.000000000000007
20
17.500000260770317
30
0
10
25
20
20.000000298023224
30
0
0
LWPOLYLINE
5
118
100
AcDbEntity
8
0
100
AcDbPolyline
90
8
70
1
43
0.0
10
-9.5000001862645078
20
-38.66666718820732
10
-9.5000001862645078
20
-51.333334152897201
42
0.16227766016838002
10
-9.1000001862645075
20
-52.533334152897204
10
-4.8000000745058014
20
-59.600000968575479
42
0.7207592200561278
10
-3.0000000745058042
20
-59.000000968575478
10
-3.0000000745058042
20
-31.000000372529037
42
0.72075922005612647
10
-4.8000000745058014
20
-30.400000372529036
10
-9.1000001862645075
20
-37.46666718820731
42
0.16227766016837844
0
CIRCLE
5
119
100
AcDbEntity
8
0
100
AcDbCircle
10
-15.000000223517416
20
-28.500000409781929
30
0
40
1.5500000000000012
210
0
220
0
230
1
0
LWPOLYLINE
5
120
100
AcDbEntity
8
0
100
AcDbPolyline
90
8
70
1
43
0.0
10
4.7999982863664572
20
-59.600000968575479
42
-0.7207592200561278
10
2.9999982863664609
20
-59.000000968575478
10
2.9999982863664565
20
-31.000000372529037
42
-0.72075922005612647
10
4.7999982863664581
20
-30.400000372529036
10
9.099998398125166
20
-37.46666718820731
42
-0.16227766016837838
10
9.4999983981251646
20
-38.66666718820732
10
9.4999983981251663
20
-51.333334152897201
42
-0.16227766016837999
10
9.0999983981251642
20
-52.533334152897204
0
LINE
5
121
100
AcDbEntity
8
0
100
AcDbLine
10
-19.853253648033572
20
-26.173973129942951
30
0
11
-15.311940745142845
21
-62.50447234877106
31
0
0
ARC
5
122
100
AcDbEntity
8
0
100
AcDbCircle
10
-20.000000298023224
20
-20.000000298023224
30
0
40
4.9999997019767761
210
0
220
0
230
1
100
AcDbArc
50
180
51
258.08790135723348
0
LINE
5
123
100
AcDbEntity
8
0
100
AcDbLine
10
15.311978134925576
20
-62.504175069358112
30
0
11
14.831815980649958
21
-66.343889296670156
31
0
0
ARC
5
124
100
AcDbEntity
8
0
100
AcDbCircle
10
20.000000298023224
20
-20.000000298023224
30
0
40
4.9999997019767743
210
0
220
0
230
1
100
AcDbArc
50
-78.087901357233534
51
0
0
LINE
5
125
100
AcDbEntity
8
0
100
AcDbLine
10
19.853253648033569
20
26.173973129942951
30
0
11
15.461145739946884
21
61.31083252190006
31
0
0
CIRCLE
5
126
100
AcDbEntity
8
0
100
AcDbCircle
10
15.00000022351742
20
15.000000223517416
30
0
40
1.5499999999999992
210
0
220
0
230
1
0
ARC
5
127
100
AcDbEntity
8
0
100
AcDbCircle
10
20.000000298023224
20
20.000000298023224
30
0
40
4.9999997019767761
210
0
220
0
230
1
100
AcDbArc
50
0
51
78.087901357233534
0
CIRCLE
5
128
100
AcDbEntity
8
0
100
AcDbCircle
10
-15.000000223517418
20
-15.000000223517418
30
0
40
1.5499999999999992
210
0
220
0
230
1
0
ARC
5
129
100
AcDbEntity
8
0
100
AcDbCircle
10
13.49999981373549
20
64.500000961124911
30
0
40
3.7499999999999991
210
0
220
0
230
1
100
AcDbArc
50
-58.45329799909814
51
113.74843263621459
0
LINE
5
130
100
AcDbEntity
8
0
100
AcDbLine
10
24.99999981726954
20
20.000000298023224
30
0
11
24.999999817269533
21
19.994798857395175
31
0
0
LINE
5
131
100
AcDbEntity
8
0
100
AcDbLine
10
-25
20
-20.000000298023224
30
0
11
-25.000000000000004
21
-19.994798857377404
31
0
0
LINE
5
132
100
AcDbEntity
8
0
100
AcDbLine
10
-19.853253648033572
20
26.173973129942951
30
0
11
-15.461145358905828
21
61.310835570228193
31
0
0
LINE
5
133
100
AcDbEntity
8
0
100
AcDbLine
10
-20.001930399112595
20
25
30
0
11
-20
21
25
31
0
0
LWPOLYLINE
5
134
100
AcDbEntity
8
0
100
AcDbPolyline
90
8
70
1
43
0.0
10
-3.3333345760901789
20
30.500000385940083
42
-0.16227766016838249
10
-4.53333457609018
20
30.900000385940078
10
-11.600001391768462
20
36.200000497698781
42
-0.72075922005612514
10
-11.000001391768457
20
38.000000497698785
10
11.000000074505802
20
38.000000497698778
42
-0.72075924450973761
10
11.600000023007393
20
36.200000459074985
10
4.5333322081168408
20
30.900000308692452
42
-0.16227764365131578
10
3.3333323111136615
20
30.500000385940069
0
LINE
5
135
100
AcDbEntity
8
0
100
AcDbLine
10
-11.922501614960371
20
67.958095374476613
30
0
11
-1.4239814003700246
21
71.957531936168991
31
0
0
LINE
5
136
100
AcDbEntity
8
0
100
AcDbLine
10
14.807468377652562
20
-66.5385899381683
30
0
11
14.831815980649958
21
-66.343889296670156
31
0
0
CIRCLE
5
137
100
AcDbEntity
8
0
100
AcDbCircle
10
-10.000000149011612
20
-65.000000968575478
30
0
40
1.5500000000000025
210
0
220
0
230
1
0
ARC
5
138
100
AcDbEntity
8
0
100
AcDbCircle
10
-7.500000111758709
20
45.000000670552254
30
0
40
1.5000000223517418
210
0
220
0
230
1
100
AcDbArc
50
-180
51
0
0
ARC
5
139
100
AcDbEntity
8
0
100
AcDbCircle
10
-20.000000298023224
20
20.000000298023224
30
0
40
5.000000074505806
210
0
220
0
230
1
100
AcDbArc
50
179.97788267048938
51
180.02211732951062
0
CIRCLE
5
140
100
AcDbEntity
8
0
100
AcDbCircle
10
7.4997185954717107
20
7.4997185954717063
30
0
40
1.5500000000000003
210
0
220
0
230
1
0
LINE
5
141
100
AcDbEntity
8
0
100
AcDbLine
10
-14.807468377652526
20
-66.5385899381683
30
0
11
-14.831815962937771
21
-66.343889438309034
31
0
0
SPLINE
5
142
100
AcDbEntity
8
0
100
AcDbSpline
70
12
71
2
41
1
41
2.999999999999984
41
1
72
6
73
3
74
0
42
0.000000001
43
0.0000000001
44
0.0000000001
40
0
40
0
40
0
40
0.5337646774618916
40
0.5337646774618916
40
0.5337646774618916
10
-23.483163909745404
20
-15.000000223517418
30
0
10
-25
20
-17.500000260770317
30
0
10
-25
20
-20.000000298023224
30
0
0
CIRCLE
5
143
100
AcDbEntity
8
0
100
AcDbCircle
10
-7.4997185954717089
20
-7.4997185954717072
30
0
40
1.5500000000000003
210
0
220
0
230
1
0
CIRCLE
5
144
100
AcDbEntity
8
0
100
AcDbCircle
10
20.000000298023231
20
-20.000000298023224
30
0
40
1.5500000000000025
210
0
220
0
230
1
0
CIRCLE
5
145
100
AcDbEntity
8
0
100
AcDbCircle
10
7.4997185954717089
20
-7.4997185954717089
30
0
40
1.5500000000000003
210
0
220
0
230
1
0
CIRCLE
5
146
100
AcDbEntity
8
0
100
AcDbCircle
10
-20.000000298023224
20
-20.000000298023224
30
0
40
1.5500000000000025
210
0
220
0
230
1
0
CIRCLE
5
147
100
AcDbEntity
8
0
100
AcDbCircle
10
-20.00000029802322
20
20.000000298023227
30
0
40
1.5500000000000025
210
0
220
0
230
1
0
CIRCLE
5
148
100
AcDbEntity
8
0
100
AcDbCircle
10
-15.000000000000002
20
28.500000037252903
30
0
40
1.5500000000000016
210
0
220
0
230
1
0
ARC
5
149
100
AcDbEntity
8
0
100
AcDbCircle
10
-21.341670461739199
20
26.360025242745728
30
0
40
1.4999999999999958
210
-0
220
0
230
1
100
AcDbArc
50
281.91209864276641
51
352.8749832307787
0
LINE
5
150
100
AcDbEntity
8
0
100
AcDbLine
10
9.0000001341104507
20
50.00000074505806
30
0
11
9.0000001341104507
21
55.000000819563866
31
0
0
CIRCLE
5
151
100
AcDbEntity
8
0
100
AcDbCircle
10
-13.500000201165676
20
64.500000961124911
30
0
40
1.5500000000000025
210
0
220
0
230
1
0
LINE
5
152
100
AcDbEntity
8
0
100
AcDbLine
10
-15.311978134926861
20
-62.504175069347845
30
0
11
-14.831815962937771
21
-66.343889438309034
31
0
0
ARC
5
153
100
AcDbEntity
8
0
100
AcDbCircle
10
0
20
68.219581030739619
30
0
40
4.0000000000000027
210
0
220
-0
230
1
100
AcDbArc
50
69.145540580858651
51
110.85445941914138
0
ARC
5
154
100
AcDbEntity
8
0
100
AcDbCircle
10
-7.500000111758709
20
55.000000819563866
30
0
40
1.5000000223517418
210
0
220
0
230
1
100
AcDbArc
50
0
51
180
0
LINE
5
155
100
AcDbEntity
8
0
100
AcDbLine
10
-11.922501614960371
20
67.958095374476613
30
0
11
-11.989793831030038
21
67.932460242689913
31
0
0
LINE
5
156
100
AcDbEntity
8
0
100
AcDbLine
10
6.0000000894069672
20
55.000000819563866
30
0
11
6.0000000894069672
21
50.00000074505806
31
0
0
ARC
5
157
100
AcDbEntity
8
0
100
AcDbCircle
10
7.500000111758709
20
55.000000819563866
30
0
40
1.5000000223517418
210
0
220
0
230
1
100
AcDbArc
50
0
51
180
0
LINE
5
158
100
AcDbEntity
8
0
100
AcDbLine
10
-25
20
19.994800852753553
30
0
11
-25
21
20.001930399112595
31
0
0
ARC
5
159
100
AcDbEntity
8
0
100
AcDbCircle
10
-13.500000201165676
20
64.500000961124911
30
0
40
3.7500000000000022
210
0
220
-0
230
1
100
AcDbArc
50
66.251564362722391
51
238.45330445007036
0
LINE
5
160
100
AcDbEntity
8
0
100
AcDbLine
10
-9.0000001341104507
20
50.00000074505806
30
0
11
-9.0000001341104507
21
45.000000670552254
31
0
0
ARC
5
161
100
AcDbEntity
8
0
100
AcDbCircle
10
-20.000000298023224
20
20.000000298023224
30
0
40
4.9999997019767752
210
0
220
0
230
1
100
AcDbArc
50
101.91209864276654
51
180
0
LINE
5
162
100
AcDbEntity
8
0
100
AcDbLine
10
1.4239814003700246
20
71.957531936168991
30
0
11
11.922509847827207
21
67.958092238146165
31
0
0
CIRCLE
5
163
100
AcDbEntity
8
0
100
AcDbCircle
10
10.000000149011612
20
-65.000000968575478
30
0
40
1.5500000000000025
210
0
220
0
230
1
0
LINE
5
164
100
AcDbEntity
8
0
100
AcDbLine
10
-9.0000001341104507
20
55.000000819563866
30
0
11
-9.0000001341104507
21
50.00000074505806
31
0
0
ARC
5
165
100
AcDbEntity
8
0
100
AcDbCircle
10
-20.000000298023224
20
20.000000298023224
30
0
40
5.000000074505806
210
0
220
-0
230
1
100
AcDbArc
50
89.977882670489379
51
90.02211732951065
0
ARC
5
166
100
AcDbEntity
8
0
100
AcDbCircle
10
-21.341670461739199
20
-26.360025242745728
30
0
40
1.4999999999999956
210
0
220
-0
230
1
100
AcDbArc
50
7.1250167692213235
51
78.087901357233605
0
CIRCLE
5
167
100
AcDbEntity
8
0
100
AcDbCircle
10
-15.000000223517414
20
15.000000223517421
30
0
40
1.5499999999999992
210
0
220
0
230
1
0
LINE
5
168
100
AcDbEntity
8
0
100
AcDbLine
10
-6.0000000894069672
20
45.000000670552254
30
0
11
-6.0000000894069672
21
50.00000074505806
31
0
0
CIRCLE
5
169
100
AcDbEntity
8
0
100
AcDbCircle
10
-7.4997185954717063
20
7.4997185954717107
30
0
40
1.5500000000000003
210
0
220
0
230
1
0
ARC
5
170
100
AcDbEntity
8
0
100
AcDbCircle
10
9.8704580374303141
20
-65.723464152715806
30
0
40
4.9999999999999476
210
-0
220
0
230
1
100
AcDbArc
50
291.56153601392862
51
352.87207957081301
0
LINE
5
171
100
AcDbEntity
8
0
100
AcDbLine
10
19.853253648033569
20
-26.173973129942951
30
0
11
15.311940745144916
21
-62.504472348754547
31
0
0
LINE
5
172
100
AcDbEntity
8
0
100
AcDbLine
10
6.0000000894069672
20
50.00000074505806
30
0
11
6.0000000894069672
21
45.000000670552254
31
0
0
LINE
5
173
100
AcDbEntity
8
0
100
AcDbLine
10
9.0000001341104507
20
45.000000670552254
30
0
11
9.0000001341104507
21
50.00000074505806
31
0
0
LINE
5
174
100
AcDbEntity
8
0
100
AcDbLine
10
-6.0000000894069672
20
50.00000074505806
30
0
11
-6.0000000894069672
21
55.000000819563866
31
0
0
CIRCLE
5
175
100
AcDbEntity
8
0
100
AcDbCircle
10
15.000000223517418
20
-28.50000040978194
30
0
40
1.5500000000000005
210
0
220
0
230
1
0
LINE
5
176
100
AcDbEntity
8
0
100
AcDbLine
10
-11.707959662467351
20
-70.373581251259466
30
0
11
-9.1875085399080092
21
-71.369541809046098
31
0
0
SPLINE
5
177
100
AcDbEntity
8
0
100
AcDbSpline
70
12
71
2
41
1
41
2.9999999999999538
41
1
72
6
73
3
74
0
42
0.000000001
43
0.0000000001
44
0.0000000001
40
0
40
0
40
0
40
0.53377110441732856
40
0.53377110441732856
40
0.53377110441732856
10
-23.482814258029006
20
15.000000298023227
30
0
10
-25
20
17.500965311315007
30
0
10
-25
20
20.000000298023224
30
0
0
ENDSEC
0
SECTION
2
OBJECTS
0
DICTIONARY
5
C
100
AcDbDictionary
3
ACAD_GROUP
350
D
3
ACAD_MLINESTYLE
350
17
0
DICTIONARY
5
D
100
AcDbDictionary
0
DICTIONARY
5
1A
330
C
100
AcDbDictionary
0
DICTIONARY
5
17
100
AcDbDictionary
0
ENDSEC
0
EOF
