0
SECTION
2
HEADER
9
$INSUNITS
70
4
9
$ACADVER
1
AC1014
9
$HANDSEED
5
FFFF
0
ENDSEC
0
SECTION
2
TABLES
0
TABLE
2
VPORT
5
8
100
AcDbSymbolTable
0
ENDTAB
0
TABLE
2
LTYPE
5
5
100
AcDbSymbolTable
0
LTYPE
5
14
100
AcDbSymbolTableRecord
100
AcDbLinetypeTableRecord
2
BYBLOCK
70
0
0
LTYPE
5
15
100
AcDbSymbolTableRecord
100
AcDbLinetypeTableRecord
2
BYLAYER
70
0
0
ENDTAB
0
TABLE
2
LAYER
5
2
100
AcDbSymbolTable
70
2
0
LAYER
5
50
100
AcDbSymbolTableRecord
100
AcDbLayerTableRecord
2
0
70
0
6
CONTINUOUS
0
ENDTAB
0
TABLE
2
STYLE
5
3
100
AcDbSymbolTable
70
1
0
STYLE
5
11
100
AcDbSymbolTableRecord
100
AcDbTextStyleTableRecord
2
STANDARD
70
0
0
ENDTAB
0
TABLE
2
VIEW
5
6
100
AcDbSymbolTable
70
0
0
ENDTAB
0
TABLE
2
UCS
5
7
100
AcDbSymbolTable
70
0
0
ENDTAB
0
TABLE
2
APPID
5
9
100
AcDbSymbolTable
70
2
0
APPID
5
12
100
AcDbSymbolTableRecord
100
AcDbRegAppTableRecord
2
ACAD
70
0
0
ENDTAB
0
TABLE
2
DIMSTYLE
5
A
100
AcDbSymbolTable
70
1
0
ENDTAB
0
TABLE
2
BLOCK_RECORD
5
1
100
AcDbSymbolTable
70
1
0
BLOCK_RECORD
5
1F
100
AcDbSymbolTableRecord
100
AcDbBlockTableRecord
2
*MODEL_SPACE
0
BLOCK_RECORD
5
1B
100
AcDbSymbolTableRecord
100
AcDbBlockTableRecord
2
*PAPER_SPACE
0
ENDTAB
0
ENDSEC
0
SECTION
2
BLOCKS
0
BLOCK
5
20
100
AcDbEntity
100
AcDbBlockBegin
2
*MODEL_SPACE
0
ENDBLK
5
21
100
AcDbEntity
100
AcDbBlockEnd
0
BLOCK
5
1C
100
AcDbEntity
100
AcDbBlockBegin
2
*PAPER_SPACE
0
ENDBLK
5
1D
100
AcDbEntity
100
AcDbBlockEnd
0
ENDSEC
0
SECTION
2
ENTITIES
0
LWPOLYLINE
5
100
100
AcDbEntity
8
0
100
AcDbPolyline
90
24
70
1
43
0.0
10
-18.535533235380512
20
-11.464466988136959
10
-23.535533235380495
20
-16.464466988136941
42
0.99999999999999989
10
-16.464465423515016
20
-23.535534800002409
10
-11.464465423515007
20
-18.535534800002409
10
-2.828425864913493
20
-9.8994952414008885
42
-0.41421355582641978
10
2.8284283213586203
20
-9.8994951781806186
10
11.464467658689212
20
-18.535534129450181
10
16.464467658689195
20
-23.535534129450156
42
0.99999999999999989
10
23.535535470554656
20
-16.464466317584684
10
18.535535470554656
20
-11.464466317584678
10
9.899495589112437
20
-2.8284268222035025
42
-0.41421356891977057
10
9.8994955258921458
20
2.8284274905091236
10
18.535534800002438
20
11.464466764619541
10
23.535534800002402
20
16.464466764619505
42
0.99999999999999989
10
16.464466988136941
20
23.535534576484991
10
11.464466988136941
20
18.535534576484991
10
2.828427429535401
20
9.8994950178834671
42
-0.41421355582642233
10
-2.8284267567367039
20
9.8994949546632025
10
-11.464466094067287
20
18.535533905932763
10
-16.464466094067262
20
23.535533905932738
42
0.99999999999999989
10
-23.535533905932738
20
16.464466094067266
10
-18.535533905932738
20
11.464466094067259
10
-9.8994940244905116
20
2.8284265986860868
42
-0.41421356891976729
10
-9.8994939612702204
20
-2.8284277140265468
0
CIRCLE
5
101
100
AcDbEntity
8
0
100
AcDbCircle
10
20.000000894069672
20
20.000000894069672
30
0
40
1.5500000000000005
210
0
220
0
230
1
0
CIRCLE
5
102
100
AcDbEntity
8
0
100
AcDbCircle
10
7.4997201600936503
20
-7.4997183719542981
30
0
40
1.5500000000000003
210
0
220
0
230
1
0
CIRCLE
5
103
100
AcDbEntity
8
0
100
AcDbCircle
10
-14.999999105930328
20
-15.000000894069681
30
0
40
1.5500000000000003
210
0
220
0
230
1
0
CIRCLE
5
104
100
AcDbEntity
8
0
100
AcDbCircle
10
15.000001788139343
20
-15.000000000000002
30
0
40
1.5500000000000003
210
0
220
0
230
1
0
CIRCLE
5
105
100
AcDbEntity
8
0
100
AcDbCircle
10
-20
20
20
30
0
40
1.5500000000000005
210
0
220
0
230
1
0
CIRCLE
5
106
100
AcDbEntity
8
0
100
AcDbCircle
10
15.000000894069681
20
15.000000894069672
30
0
40
1.5500000000000003
210
0
220
0
230
1
0
CIRCLE
5
107
100
AcDbEntity
8
0
100
AcDbCircle
10
-19.999999105930328
20
-20.000000894069689
30
0
40
1.5500000000000005
210
0
220
0
230
1
0
CIRCLE
5
108
100
AcDbEntity
8
0
100
AcDbCircle
10
-7.4997174778846176
20
-7.4997192660239715
30
0
40
1.5500000000000003
210
0
220
0
230
1
0
CIRCLE
5
109
100
AcDbEntity
8
0
100
AcDbCircle
10
-15
20
15
30
0
40
1.5500000000000003
210
0
220
0
230
1
0
CIRCLE
5
110
100
AcDbEntity
8
0
100
AcDbCircle
10
7.4997192660239609
20
7.4997192660239707
30
0
40
1.5500000000000003
210
0
220
0
230
1
0
CIRCLE
5
111
100
AcDbEntity
8
0
100
AcDbCircle
10
-7.4997183719542981
20
7.4997183719542893
30
0
40
1.5500000000000003
210
0
220
0
230
1
0
CIRCLE
5
112
100
AcDbEntity
8
0
100
AcDbCircle
10
20.000001788139343
20
-20.000000000000004
30
0
40
1.5500000000000005
210
0
220
0
230
1
0
ENDSEC
0
SECTION
2
OBJECTS
0
DICTIONARY
5
C
100
AcDbDictionary
3
ACAD_GROUP
350
D
3
ACAD_MLINESTYLE
350
17
0
DICTIONARY
5
D
100
AcDbDictionary
0
DICTIONARY
5
1A
330
C
100
AcDbDictionary
0
DICTIONARY
5
17
100
AcDbDictionary
0
ENDSEC
0
EOF
