0
SECTION
2
HEADER
9
$INSUNITS
70
4
9
$ACADVER
1
AC1014
9
$HANDSEED
5
FFFF
0
ENDSEC
0
SECTION
2
TABLES
0
TABLE
2
VPORT
5
8
100
AcDbSymbolTable
0
ENDTAB
0
TABLE
2
LTYPE
5
5
100
AcDbSymbolTable
0
LTYPE
5
14
100
AcDbSymbolTableRecord
100
AcDbLinetypeTableRecord
2
BYBLOCK
70
0
0
LTYPE
5
15
100
AcDbSymbolTableRecord
100
AcDbLinetypeTableRecord
2
BYLAYER
70
0
0
ENDTAB
0
TABLE
2
LAYER
5
2
100
AcDbSymbolTable
70
2
0
LAYER
5
50
100
AcDbSymbolTableRecord
100
AcDbLayerTableRecord
2
0
70
0
6
CONTINUOUS
0
ENDTAB
0
TABLE
2
STYLE
5
3
100
AcDbSymbolTable
70
1
0
STYLE
5
11
100
AcDbSymbolTableRecord
100
AcDbTextStyleTableRecord
2
STANDARD
70
0
0
ENDTAB
0
TABLE
2
VIEW
5
6
100
AcDbSymbolTable
70
0
0
ENDTAB
0
TABLE
2
UCS
5
7
100
AcDbSymbolTable
70
0
0
ENDTAB
0
TABLE
2
APPID
5
9
100
AcDbSymbolTable
70
2
0
APPID
5
12
100
AcDbSymbolTableRecord
100
AcDbRegAppTableRecord
2
ACAD
70
0
0
ENDTAB
0
TABLE
2
DIMSTYLE
5
A
100
AcDbSymbolTable
70
1
0
ENDTAB
0
TABLE
2
BLOCK_RECORD
5
1
100
AcDbSymbolTable
70
1
0
BLOCK_RECORD
5
1F
100
AcDbSymbolTableRecord
100
AcDbBlockTableRecord
2
*MODEL_SPACE
0
BLOCK_RECORD
5
1B
100
AcDbSymbolTableRecord
100
AcDbBlockTableRecord
2
*PAPER_SPACE
0
ENDTAB
0
ENDSEC
0
SECTION
2
BLOCKS
0
BLOCK
5
20
100
AcDbEntity
100
AcDbBlockBegin
2
*MODEL_SPACE
0
ENDBLK
5
21
100
AcDbEntity
100
AcDbBlockEnd
0
BLOCK
5
1C
100
AcDbEntity
100
AcDbBlockBegin
2
*PAPER_SPACE
0
ENDBLK
5
1D
100
AcDbEntity
100
AcDbBlockEnd
0
ENDSEC
0
SECTION
2
ENTITIES
0
LINE
5
100
100
AcDbEntity
8
0
100
AcDbLine
10
-18.000001162290573
20
19.000000298023224
30
0
11
-18.000001162290573
21
-19.000000298023224
31
0
0
ARC
5
101
100
AcDbEntity
8
0
100
AcDbCircle
10
10.999998627300309
20
66.99796165188917
30
0
40
1.0000000000000053
210
0
220
0
230
1
100
AcDbArc
50
90.000000000000512
51
179.99985732014378
0
CIRCLE
5
102
100
AcDbEntity
8
0
100
AcDbCircle
10
-13.499998357146969
20
64.49999855831264
30
0
40
1.5499999999999976
210
0
220
0
230
1
0
LWPOLYLINE
5
103
100
AcDbEntity
8
0
100
AcDbPolyline
90
8
70
1
43
0.0
10
11.600000023007393
20
44.800000685334204
10
4.5333322081168514
20
50.100000835716727
42
0.16227764365132319
10
3.3333323111136703
20
50.500000758469113
10
-3.33333457609017
20
50.500000758469113
42
0.16227766016838097
10
-4.53333457609018
20
50.100000758469115
10
-11.600001391768453
20
44.800000646710394
42
0.7207592200561278
10
-11.000001391768457
20
43.000000646710397
10
11.000000074505802
20
43.000000646710397
42
0.72075924450973761
0
LINE
5
104
100
AcDbEntity
8
0
100
AcDbLine
10
-19.972929632769343
20
-20.376855062486214
30
0
11
-19.026386122438215
21
-32.676855256201307
31
0
0
LINE
5
105
100
AcDbEntity
8
0
100
AcDbLine
10
13.125000932368724
20
67.499998450403766
30
0
11
13.128352868035975
21
67.495529202761304
31
0
0
LWPOLYLINE
5
106
100
AcDbEntity
8
0
100
AcDbPolyline
90
8
70
1
43
0.0
10
2.9999982863664565
20
-31.000000372529037
42
-0.72075922005612647
10
4.7999982863664581
20
-30.400000372529036
10
9.099998398125166
20
-37.46666718820731
42
-0.16227766016837838
10
9.4999983981251646
20
-38.66666718820732
10
9.4999983981251663
20
-51.333334152897201
42
-0.16227766016837999
10
9.0999983981251642
20
-52.533334152897204
10
4.7999982863664572
20
-59.600000968575479
42
-0.7207592200561278
10
2.9999982863664609
20
-59.000000968575478
0
LINE
5
107
100
AcDbEntity
8
0
100
AcDbLine
10
-12.627716277114498
20
67.99795906687072
30
0
11
-13.491815331009507
21
67.999979348000323
31
0
0
CIRCLE
5
108
100
AcDbEntity
8
0
100
AcDbCircle
10
10.000000149011612
20
-65.000000968575478
30
0
40
1.5500000000000025
210
0
220
0
230
1
0
ARC
5
109
100
AcDbEntity
8
0
100
AcDbCircle
10
18.999999374151226
20
-19.000000298023224
30
0
40
0.99999999999999645
210
0
220
0
230
1
100
AcDbArc
50
180
51
270
0
LINE
5
110
100
AcDbEntity
8
0
100
AcDbLine
10
-6.8000000745058031
20
62.600000968575472
30
0
11
-6.8396218577927037
21
62.547171924192938
31
0
0
ARC
5
111
100
AcDbEntity
8
0
100
AcDbCircle
10
-7.4999984353780569
20
58.50000081956388
30
0
40
2.5000000000000178
210
0
220
0
230
1
100
AcDbArc
50
180
51
269.99999999999983
0
ARC
5
112
100
AcDbEntity
8
0
100
AcDbCircle
10
16.799999344348898
20
-49.20000074505807
30
0
40
0.79999999999999183
210
0
220
0
230
1
100
AcDbArc
50
180
51
270.00000000000074
0
LINE
5
113
100
AcDbEntity
8
0
100
AcDbLine
10
12.62771284013315
20
67.997961651889185
30
0
11
10.9999986273003
21
67.997961651889185
31
0
0
LWPOLYLINE
5
114
100
AcDbEntity
8
0
100
AcDbPolyline
90
8
70
1
43
0.0
10
-3.0000000745058024
20
-59.000000968575478
42
-0.7207592200561278
10
-4.8000000745058014
20
-59.600000968575479
10
-9.1000001862645057
20
-52.533334152897204
42
-0.16227766016837999
10
-9.5000001862645078
20
-51.333334152897201
10
-9.5000001862645078
20
-38.66666718820732
42
-0.16227766016837838
10
-9.1000001862645075
20
-37.46666718820731
10
-4.8000000745057978
20
-30.400000372529039
42
-0.72075922005612647
10
-3.0000000745058042
20
-31.000000372529037
0
LINE
5
115
100
AcDbEntity
8
0
100
AcDbLine
10
-15.312499902211067
20
-62.500000931322582
30
0
11
-14.807468377652526
21
-66.5385899381683
31
0
0
ARC
5
116
100
AcDbEntity
8
0
100
AcDbCircle
10
-16.800001132488241
20
-49.20000074505807
30
0
40
0.79999999999999183
210
0
220
0
230
1
100
AcDbArc
50
-90.000000000000767
51
0
0
LINE
5
117
100
AcDbEntity
8
0
100
AcDbLine
10
9.1875069051679503
20
-71.369542197249729
30
0
11
11.707959483696175
21
-70.373581187261308
31
0
0
CIRCLE
5
118
100
AcDbEntity
8
0
100
AcDbCircle
10
-10.000000149011612
20
-65.000000968575478
30
0
40
1.5500000000000025
210
0
220
0
230
1
0
LINE
5
119
100
AcDbEntity
8
0
100
AcDbLine
10
8.5022602937468861
20
68.499998468905687
30
0
11
8.5000011697411537
21
68.499998468905687
31
0
0
ARC
5
120
100
AcDbEntity
8
0
100
AcDbCircle
10
13.500001642853032
20
64.49999855831264
30
0
40
3.4999999999999982
210
0
220
0
230
1
100
AcDbArc
50
-27.259549324950104
51
90.134425491109042
0
ARC
5
121
100
AcDbEntity
8
0
100
AcDbCircle
10
-13.499998357146969
20
64.49999855831264
30
0
40
3.4999903557152194
210
0
220
-0
230
1
100
AcDbArc
50
89.866041548455598
51
207.25953929701285
0
ARC
5
122
100
AcDbEntity
8
0
100
AcDbCircle
10
-8.4999990835785866
20
67.500001005828381
30
0
40
1.0000000149011614
210
0
220
-0
230
1
100
AcDbArc
50
89.870561620902308
51
90.129438379097721
0
LINE
5
123
100
AcDbEntity
8
0
100
AcDbLine
10
15.312499902211094
20
-62.500000931322589
30
0
11
14.807468377652562
21
-66.5385899381683
31
0
0
LINE
5
124
100
AcDbEntity
8
0
100
AcDbLine
10
9.9999992549419403
20
58.500000819563844
30
0
11
9.9999986273034036
21
66.997964142179072
31
0
0
ARC
5
125
100
AcDbEntity
8
0
100
AcDbCircle
10
-3.2616165768217797e-07
20
-48.118957024521919
30
0
40
25.000000000000075
210
0
220
0
230
1
100
AcDbArc
50
248.43846156512836
51
291.56153601392901
0
LINE
5
126
100
AcDbEntity
8
0
100
AcDbLine
10
-14.807468377652526
20
-66.5385899381683
30
0
11
-14.831815962937771
21
-66.343889438309034
31
0
0
LINE
5
127
100
AcDbEntity
8
0
100
AcDbLine
10
-8.5022582075843189
20
68.499998468905687
30
0
11
-8.4999990835785866
21
68.499998468905687
31
0
0
ARC
5
128
100
AcDbEntity
8
0
100
AcDbCircle
10
18.67741789806005
20
-32.650000491738325
30
0
40
0.34999999999999698
210
0
220
0
230
1
100
AcDbArc
50
270
51
355.59949026453074
0
ARC
5
129
100
AcDbEntity
8
0
100
AcDbCircle
10
-18.677417898060071
20
-32.650000491738325
30
0
40
0.34999999999999731
210
0
220
0
230
1
100
AcDbArc
50
184.40050973546931
51
270
0
LINE
5
130
100
AcDbEntity
8
0
100
AcDbLine
10
4.9999991804361343
20
56.000000819563866
30
0
11
7.4999992549419492
21
56.000000819563866
31
0
0
LINE
5
131
100
AcDbEntity
8
0
100
AcDbLine
10
6.8050858279846782
20
62.593219963936988
30
0
11
6.8000000745056877
21
62.600000968575486
31
0
0
LINE
5
132
100
AcDbEntity
8
0
100
AcDbLine
10
16.999999344348904
20
-33.000000491738327
30
0
11
18.67741789806005
21
-33.000000491738319
31
0
0
ARC
5
133
100
AcDbEntity
8
0
100
AcDbCircle
10
-10.999998435378071
20
66.997959066870735
30
0
40
0.99999999999999645
210
0
220
0
230
1
100
AcDbArc
50
0
51
90
0
ARC
5
134
100
AcDbEntity
8
0
100
AcDbCircle
10
7.4999992549419581
20
58.500000819563844
30
0
40
2.4999999999999822
210
0
220
0
230
1
100
AcDbArc
50
-90.000000000000199
51
0
0
LINE
5
135
100
AcDbEntity
8
0
100
AcDbLine
10
16.875643401178255
20
-50.00000074505806
30
0
11
15.312499902211094
21
-62.500000931322589
31
0
0
LINE
5
136
100
AcDbEntity
8
0
100
AcDbLine
10
-6.8000000745058031
20
62.600000968575472
30
0
11
-6.8396218577927037
21
62.547171924192938
31
0
0
ARC
5
137
100
AcDbEntity
8
0
100
AcDbCircle
10
19.623961408391189
20
-20.350000298023218
30
0
40
0.34999999999998949
210
-0
220
0
230
1
100
AcDbArc
50
-4.4005097354716511
51
90.00000000000118
0
ARC
5
138
100
AcDbEntity
8
0
100
AcDbCircle
10
8.5000011697411537
20
67.500001005828381
30
0
40
1.0000000149011614
210
0
220
-0
230
1
100
AcDbArc
50
89.870561620902308
51
90.129438379103306
0
LINE
5
139
100
AcDbEntity
8
0
100
AcDbLine
10
-16.800001132488251
20
-50.00000074505806
30
0
11
-16.875643401178245
21
-50.00000074505806
31
0
0
ARC
5
140
100
AcDbEntity
8
0
100
AcDbCircle
10
11.249999254941949
20
67.249998468905673
30
0
40
1.2500000000000089
210
0
220
0
230
1
100
AcDbArc
50
180
51
180
0
LWPOLYLINE
5
141
100
AcDbEntity
8
0
100
AcDbPolyline
90
4
70
1
43
0.0
10
11.50000018626451
20
-18.503378097240265
10
-11.50000018626451
20
-18.503378097240265
42
-0.99999999999999989
10
-11.50000018626451
20
-15.493787668303977
10
11.50000018626451
20
-15.493787668303977
42
-0.99999999999999989
0
LINE
5
142
100
AcDbEntity
8
0
100
AcDbLine
10
6.8050858279846782
20
62.593219963936988
30
0
11
6.800000074505812
21
62.600000968575472
31
0
0
LINE
5
143
100
AcDbEntity
8
0
100
AcDbLine
10
17.99999937415123
20
19.000000298023224
30
0
11
17.99999937415123
21
-19.000000298023224
31
0
0
ARC
5
144
100
AcDbEntity
8
0
100
AcDbCircle
10
19.651930399112565
20
20.35000029802324
30
0
40
0.35000000000001474
210
0
220
0
230
1
100
AcDbArc
50
270.00000000000171
51
360
0
LWPOLYLINE
5
145
100
AcDbEntity
8
0
100
AcDbPolyline
90
8
70
1
43
0.0
10
-11.600001391768462
20
32.200000497698781
10
-4.53333457609018
20
26.900000385940078
42
0.16227766016838255
10
-3.3333345760901789
20
26.500000385940087
10
3.3333323111136615
20
26.500000385940069
42
0.16227764365131578
10
4.5333322081168426
20
26.900000308692448
10
11.600000023007393
20
32.200000459074985
42
0.72075924450973761
10
11.000000074505802
20
34.000000497698785
10
-11.000001391768457
20
34.000000497698785
42
0.72075922005612514
0
ARC
5
146
100
AcDbEntity
8
0
100
AcDbCircle
10
-19.00000116229057
20
19.000000298023224
30
0
40
0.99999999999999645
210
0
220
0
230
1
100
AcDbArc
50
0
51
90
0
LINE
5
147
100
AcDbEntity
8
0
100
AcDbLine
10
15.999999344348907
20
-49.200000745058063
30
0
11
15.999999344348907
21
-34.000000491738319
31
0
0
ARC
5
148
100
AcDbEntity
8
0
100
AcDbCircle
10
18.999999374151226
20
19.000000298023224
30
0
40
0.99999999999999867
210
0
220
-0
230
1
100
AcDbArc
50
90
51
180
0
LWPOLYLINE
5
149
100
AcDbEntity
8
0
100
AcDbPolyline
90
4
70
1
43
0.0
10
-11.000001391768457
20
14.500000298023224
42
-0.99999999999999989
10
-11.000001391768457
20
17.50000029802322
10
11.00000007450582
20
17.50000029802322
42
-0.99999999999999989
10
11.00000007450582
20
14.500000298023224
0
LINE
5
150
100
AcDbEntity
8
0
100
AcDbLine
10
16.611294500927471
20
62.896921282790657
30
0
11
20.001930399112577
21
24.797785987083898
31
0
0
ARC
5
151
100
AcDbEntity
8
0
100
AcDbCircle
10
-19.62396140839121
20
-20.350000298023218
30
0
40
0.34999999999999254
210
0
220
-0
230
1
100
AcDbArc
50
89.999999999998266
51
184.4005097354717
0
LINE
5
152
100
AcDbEntity
8
0
100
AcDbLine
10
-19.00000116229057
20
20.000000298023224
30
0
11
-19.651930399112594
21
20.000000298023224
31
0
0
ARC
5
153
100
AcDbEntity
8
0
100
AcDbCircle
10
-19.651930399112587
20
20.35000029802324
30
0
40
0.3500000000000103
210
0
220
0
230
1
100
AcDbArc
50
180
51
269.99999999999881
0
LINE
5
154
100
AcDbEntity
8
0
100
AcDbLine
10
20.001930399112577
20
24.797785987083898
30
0
11
20.001930399112581
21
20.350000298023225
31
0
0
CIRCLE
5
155
100
AcDbEntity
8
0
100
AcDbCircle
10
13.500001642853032
20
64.49999855831264
30
0
40
1.5500000000000025
210
0
220
0
230
1
0
CIRCLE
5
156
100
AcDbEntity
8
0
100
AcDbCircle
10
15.000001266598737
20
-28.50000040978194
30
0
40
1.549999999999998
210
0
220
0
230
1
0
LINE
5
157
100
AcDbEntity
8
0
100
AcDbLine
10
-20.001930399112595
20
24.797785987083763
30
0
11
-20.001930399112595
21
20.350000298023225
31
0
0
LINE
5
158
100
AcDbEntity
8
0
100
AcDbLine
10
-7.4999984353780658
20
56.000000819563866
30
0
11
-5.0000009685754776
21
56.000000819563866
31
0
0
ARC
5
159
100
AcDbEntity
8
0
100
AcDbCircle
10
-17.000001132488237
20
-34.000000491738312
30
0
40
0.99999999999998757
210
0
220
0
230
1
100
AcDbArc
50
0
51
90.000000000000611
0
LINE
5
160
100
AcDbEntity
8
0
100
AcDbLine
10
-12.627716277114498
20
67.99795906687072
30
0
11
-10.999998435378071
21
67.99795906687072
31
0
0
ARC
5
161
100
AcDbEntity
8
0
100
AcDbCircle
10
-19.00000116229057
20
-19.000000298023224
30
0
40
0.99999999999999867
210
-0
220
0
230
1
100
AcDbArc
50
-90
51
0
0
ARC
5
162
100
AcDbEntity
8
0
100
AcDbCircle
10
-9.8704580197181446
20
-65.723464294354699
30
0
40
4.9999999999999236
210
0
220
0
230
1
100
AcDbArc
50
187.12792042918679
51
248.4384615651287
0
LINE
5
163
100
AcDbEntity
8
0
100
AcDbLine
10
-20
20
25
30
0
11
-20
21
25
31
0
0
LINE
5
164
100
AcDbEntity
8
0
100
AcDbLine
10
-13.128352722721628
20
67.495529396540348
30
0
11
-13.125000932387438
21
67.499998450405386
31
0
0
LINE
5
165
100
AcDbEntity
8
0
100
AcDbLine
10
19.972929632769329
20
-20.376855062486214
30
0
11
19.026386122438197
21
-32.676855256201307
31
0
0
LINE
5
166
100
AcDbEntity
8
0
100
AcDbLine
10
12.62771284013315
20
67.997961651889185
30
0
11
13.491790064421858
21
67.999988925439339
31
0
0
LINE
5
167
100
AcDbEntity
8
0
100
AcDbLine
10
-16.611289841288936
20
62.89693967268019
30
0
11
-20.001930399112595
21
24.797785987083763
31
0
0
LINE
5
168
100
AcDbEntity
8
0
100
AcDbLine
10
-19.00000116229057
20
-20.000000298023224
30
0
11
-19.6239614083912
21
-20.000000298023224
31
0
0
ARC
5
169
100
AcDbEntity
8
0
100
AcDbCircle
10
9.8704580374303141
20
-65.723464152715806
30
0
40
4.9999999999999476
210
-0
220
0
230
1
100
AcDbArc
50
291.56153601392862
51
352.87207957081301
0
LINE
5
170
100
AcDbEntity
8
0
100
AcDbLine
10
-17.000001132488247
20
-33.000000491738327
30
0
11
-18.677417898060071
21
-33.000000491738319
31
0
0
LINE
5
171
100
AcDbEntity
8
0
100
AcDbLine
10
-11.707959662467351
20
-70.373581251259466
30
0
11
-9.1875085399080092
21
-71.369541809046098
31
0
0
ARC
5
172
100
AcDbEntity
8
0
100
AcDbCircle
10
16.999999344348893
20
-34.000000491738312
30
0
40
0.99999999999998757
210
0
220
-0
230
1
100
AcDbArc
50
89.999999999999389
51
180
0
LINE
5
173
100
AcDbEntity
8
0
100
AcDbLine
10
16.799999344348908
20
-50.00000074505806
30
0
11
16.875643401178255
21
-50.00000074505806
31
0
0
LINE
5
174
100
AcDbEntity
8
0
100
AcDbLine
10
-9.9999984353780746
20
66.997959066870735
30
0
11
-9.9999984353780746
21
58.50000081956388
31
0
0
LINE
5
175
100
AcDbEntity
8
0
100
AcDbLine
10
-16.875643401178245
20
-50.00000074505806
30
0
11
-15.312499902211067
21
-62.500000931322582
31
0
0
LINE
5
176
100
AcDbEntity
8
0
100
AcDbLine
10
-5.9999990686774396
20
56.000000819563866
30
0
11
6.0000011548400067
21
56.000000819563866
31
0
0
LINE
5
177
100
AcDbEntity
8
0
100
AcDbLine
10
14.807468377652562
20
-66.5385899381683
30
0
11
14.831815980649958
21
-66.343889296670156
31
0
0
CIRCLE
5
178
100
AcDbEntity
8
0
100
AcDbCircle
10
-14.999999180436143
20
-28.500000409781929
30
0
40
1.549999999999998
210
0
220
0
230
1
0
LINE
5
179
100
AcDbEntity
8
0
100
AcDbLine
10
18.999999374151226
20
-20.000000298023224
30
0
11
19.623961408391182
21
-20.000000298023224
31
0
0
LINE
5
180
100
AcDbEntity
8
0
100
AcDbLine
10
19.651930399112576
20
20.000000298023224
30
0
11
18.999999374151226
21
20.000000298023224
31
0
0
CIRCLE
5
181
100
AcDbEntity
8
0
100
AcDbCircle
10
15.000001266598719
20
28.50000040978194
30
0
40
1.549999999999998
210
0
220
0
230
1
0
LINE
5
182
100
AcDbEntity
8
0
100
AcDbLine
10
-16.000001132488251
20
-49.200000745058063
30
0
11
-16.000001132488251
21
-34.000000491738319
31
0
0
CIRCLE
5
183
100
AcDbEntity
8
0
100
AcDbCircle
10
-14.999999180436117
20
28.500000409781943
30
0
40
1.5499999999999992
210
0
220
0
230
1
0
ENDSEC
0
SECTION
2
OBJECTS
0
DICTIONARY
5
C
100
AcDbDictionary
3
ACAD_GROUP
350
D
3
ACAD_MLINESTYLE
350
17
0
DICTIONARY
5
D
100
AcDbDictionary
0
DICTIONARY
5
1A
330
C
100
AcDbDictionary
0
DICTIONARY
5
17
100
AcDbDictionary
0
ENDSEC
0
EOF
