0
SECTION
2
HEADER
9
$INSUNITS
70
4
9
$ACADVER
1
AC1014
9
$HANDSEED
5
FFFF
0
ENDSEC
0
SECTION
2
TABLES
0
TABLE
2
VPORT
5
8
100
AcDbSymbolTable
0
ENDTAB
0
TABLE
2
LTYPE
5
5
100
AcDbSymbolTable
0
LTYPE
5
14
100
AcDbSymbolTableRecord
100
AcDbLinetypeTableRecord
2
BYBLOCK
70
0
0
LTYPE
5
15
100
AcDbSymbolTableRecord
100
AcDbLinetypeTableRecord
2
BYLAYER
70
0
0
ENDTAB
0
TABLE
2
LAYER
5
2
100
AcDbSymbolTable
70
2
0
LAYER
5
50
100
AcDbSymbolTableRecord
100
AcDbLayerTableRecord
2
0
70
0
6
CONTINUOUS
0
ENDTAB
0
TABLE
2
STYLE
5
3
100
AcDbSymbolTable
70
1
0
STYLE
5
11
100
AcDbSymbolTableRecord
100
AcDbTextStyleTableRecord
2
STANDARD
70
0
0
ENDTAB
0
TABLE
2
VIEW
5
6
100
AcDbSymbolTable
70
0
0
ENDTAB
0
TABLE
2
UCS
5
7
100
AcDbSymbolTable
70
0
0
ENDTAB
0
TABLE
2
APPID
5
9
100
AcDbSymbolTable
70
2
0
APPID
5
12
100
AcDbSymbolTableRecord
100
AcDbRegAppTableRecord
2
ACAD
70
0
0
ENDTAB
0
TABLE
2
DIMSTYLE
5
A
100
AcDbSymbolTable
70
1
0
ENDTAB
0
TABLE
2
BLOCK_RECORD
5
1
100
AcDbSymbolTable
70
1
0
BLOCK_RECORD
5
1F
100
AcDbSymbolTableRecord
100
AcDbBlockTableRecord
2
*MODEL_SPACE
0
BLOCK_RECORD
5
1B
100
AcDbSymbolTableRecord
100
AcDbBlockTableRecord
2
*PAPER_SPACE
0
ENDTAB
0
ENDSEC
0
SECTION
2
BLOCKS
0
BLOCK
5
20
100
AcDbEntity
100
AcDbBlockBegin
2
*MODEL_SPACE
0
ENDBLK
5
21
100
AcDbEntity
100
AcDbBlockEnd
0
BLOCK
5
1C
100
AcDbEntity
100
AcDbBlockBegin
2
*PAPER_SPACE
0
ENDBLK
5
1D
100
AcDbEntity
100
AcDbBlockEnd
0
ENDSEC
0
SECTION
2
ENTITIES
0
CIRCLE
5
100
100
AcDbEntity
8
0
100
AcDbCircle
10
0
20
47.000000000000014
30
0
40
3.4999999999999964
210
0
220
0
230
1
0
LWPOLYLINE
5
101
100
AcDbEntity
8
0
100
AcDbPolyline
90
4
70
1
43
0.0
10
-6.7186840085608956
20
42.405515785955089
10
-8.8405441933497197
20
40.284735421040345
42
0.99999999999999989
10
-6.7197638284349726
20
38.16287523625153
10
-4.5979036436461485
20
40.283655601166274
42
0.99999999999999989
0
LINE
5
102
100
AcDbEntity
8
0
100
AcDbLine
10
5.000000074505806
20
-50
30
0
11
5.0000009412958146
21
32.263013160858392
31
0
0
LINE
5
103
100
AcDbEntity
8
0
100
AcDbLine
10
5.000000074505806
20
-50
30
0
11
5.0000009412958146
21
32.263013160858392
31
0
0
LWPOLYLINE
5
104
100
AcDbEntity
8
0
100
AcDbPolyline
90
4
70
1
43
0.0
10
-6.7197638284349726
20
38.16287523625153
10
-4.5979036436461485
20
40.283655601166274
42
0.99999999999999989
10
-6.7186840085608956
20
42.405515785955089
10
-8.8405441933497197
20
40.284735421040345
42
0.99999999999999989
0
LWPOLYLINE
5
105
100
AcDbEntity
8
0
100
AcDbPolyline
90
4
70
1
43
0.0
10
-6.7197638284349726
20
38.16287523625153
10
-4.5979036436461485
20
40.283655601166274
42
0.99999999999999989
10
-6.7186840085608956
20
42.405515785955089
10
-8.8405441933497197
20
40.284735421040345
42
0.99999999999999989
0
LINE
5
106
100
AcDbEntity
8
0
100
AcDbLine
10
-9.1929277676281096
20
44.881019334875404
30
0
11
-11.314787952416934
21
42.760238969960653
31
0
0
LINE
5
107
100
AcDbEntity
8
0
100
AcDbLine
10
-9.1929277676281096
20
44.881019334875404
30
0
11
-11.314787952416934
21
42.760238969960653
31
0
0
LINE
5
108
100
AcDbEntity
8
0
100
AcDbLine
10
9.1943195949696133
20
49.120372331877356
30
0
11
19.536028897707798
21
59.464959709269237
31
0
0
LINE
5
109
100
AcDbEntity
8
0
100
AcDbLine
10
9.1943195949696133
20
49.120372331877356
30
0
11
19.536028897707798
21
59.464959709269237
31
0
0
LINE
5
110
100
AcDbEntity
8
0
100
AcDbLine
10
9.1943195949696133
20
49.120372331877356
30
0
11
19.536028897707798
21
59.464959709269237
31
0
0
LINE
5
111
100
AcDbEntity
8
0
100
AcDbLine
10
-9.1929277676281096
20
44.881019334875404
30
0
11
-11.314787952416934
21
42.760238969960653
31
0
0
CIRCLE
5
112
100
AcDbEntity
8
0
100
AcDbCircle
10
0
20
47.000000000000014
30
0
40
3.4999999999999964
210
0
220
0
230
1
0
LINE
5
113
100
AcDbEntity
8
0
100
AcDbLine
10
11.312628312668771
20
42.754479930632243
30
0
11
9.1918479477540238
21
44.876340115421058
31
0
0
ARC
5
114
100
AcDbEntity
8
0
100
AcDbCircle
10
-7.0000009413421971
20
32.267415374936341
30
0
40
2.0000000000000107
210
0
220
-0
230
1
100
AcDbArc
50
0
51
96.398933745210186
0
LWPOLYLINE
5
115
100
AcDbEntity
8
0
100
AcDbPolyline
90
4
70
1
43
0.0
10
6.7186840085609045
20
51.594484214044925
10
8.8405441933497286
20
53.715264578959676
42
0.99999999999999989
10
6.7197638284349814
20
55.837124763748491
10
4.5979036436461662
20
53.716344398833741
42
0.99999999999999989
0
LINE
5
116
100
AcDbEntity
8
0
100
AcDbLine
10
-2.1203723318773537
20
56.194319594969606
30
0
11
-12.464958263856598
21
66.536027452697297
31
0
0
LWPOLYLINE
5
117
100
AcDbEntity
8
0
100
AcDbPolyline
90
4
70
1
43
0.0
10
6.7186840085609045
20
51.594484214044925
10
8.8405441933497286
20
53.715264578959676
42
0.99999999999999989
10
6.7197638284349814
20
55.837124763748491
10
4.5979036436461662
20
53.716344398833741
42
0.99999999999999989
0
CIRCLE
5
118
100
AcDbEntity
8
0
100
AcDbCircle
10
0
20
-57.070999999999998
30
0
40
1.5000000000000002
210
0
220
0
230
1
0
LINE
5
119
100
AcDbEntity
8
0
100
AcDbLine
10
-2.1203723318773537
20
56.194319594969606
30
0
11
-12.464958263856598
21
66.536027452697297
31
0
0
LWPOLYLINE
5
120
100
AcDbEntity
8
0
100
AcDbPolyline
90
4
70
1
43
0.0
10
8.8371247637484807
20
40.280236171565029
10
6.7163443988337335
20
42.402096356353866
42
0.99999999999999989
10
4.5944842140449182
20
40.281315991439115
10
6.7152645789596654
20
38.159455806650286
42
0.99999999999999989
0
CIRCLE
5
121
100
AcDbEntity
8
0
100
AcDbCircle
10
0
20
-50
30
0
40
1.5000000000000002
210
0
220
0
230
1
0
ARC
5
122
100
AcDbEntity
8
0
100
AcDbCircle
10
-7.7801540108923462
20
39.223805328645938
30
0
40
5.0000000000000098
210
0
220
0
230
1
100
AcDbArc
50
134.98541730807543
51
276.39893374521034
0
LINE
5
123
100
AcDbEntity
8
0
100
AcDbLine
10
12.463977359975633
20
66.535043658393192
30
0
11
2.1222680572374486
21
56.190456281001318
31
0
0
LINE
5
124
100
AcDbEntity
8
0
100
AcDbLine
10
-5.000000074505806
20
-50
30
0
11
-5
21
-57.07100005268407
31
0
0
ARC
5
125
100
AcDbEntity
8
0
100
AcDbCircle
10
-7.0000009413421971
20
32.267415374936341
30
0
40
2.0000000000000107
210
0
220
-0
230
1
100
AcDbArc
50
0
51
96.398933745210186
0
LINE
5
126
100
AcDbEntity
8
0
100
AcDbLine
10
5.000000074505806
20
-50
30
0
11
5
21
-57.07100005268407
31
0
0
LWPOLYLINE
5
127
100
AcDbEntity
8
0
100
AcDbPolyline
90
4
70
1
43
0.0
10
6.7186840085609045
20
51.594484214044925
10
8.8405441933497286
20
53.715264578959676
42
0.99999999999999989
10
6.7197638284349814
20
55.837124763748491
10
4.5979036436461662
20
53.716344398833741
42
0.99999999999999989
0
SPLINE
5
128
100
AcDbEntity
8
0
100
AcDbSpline
70
12
71
2
41
1
41
0.66666666666666763
41
1
72
6
73
3
74
0
42
0.000000001
43
0.0000000001
44
0.0000000001
40
0
40
0
40
0
40
0.44873162610029838
40
0.44873162610029838
40
0.44873162610029838
10
-9.1904562810013068
20
49.122268057237441
30
0
10
-7.3597657191034394
20
47.001248965094504
30
0
10
-9.1929277676281096
20
44.881019334875404
30
0
0
ARC
5
129
100
AcDbEntity
8
0
100
AcDbCircle
10
-7.7801540108923462
20
39.223805328645938
30
0
40
5.0000000000000098
210
0
220
0
230
1
100
AcDbArc
50
134.98541730807543
51
276.39893374521034
0
SPLINE
5
130
100
AcDbEntity
8
0
100
AcDbSpline
70
12
71
2
41
1
41
0.66666666666666763
41
1
72
6
73
3
74
0
42
0.000000001
43
0.0000000001
44
0.0000000001
40
0
40
0
40
0
40
0.44873162610029838
40
0.44873162610029838
40
0.44873162610029838
10
-9.1904562810013068
20
49.122268057237441
30
0
10
-7.3597657191034394
20
47.001248965094504
30
0
10
-9.1929277676281096
20
44.881019334875404
30
0
0
LWPOLYLINE
5
131
100
AcDbEntity
8
0
100
AcDbPolyline
90
4
70
1
43
0.0
10
4.5944842140449182
20
40.281315991439115
10
6.7152645789596654
20
38.159455806650286
42
0.99999999999999989
10
8.8371247637484807
20
40.280236171565029
10
6.7163443988337335
20
42.402096356353866
42
0.99999999999999989
0
LWPOLYLINE
5
132
100
AcDbEntity
8
0
100
AcDbPolyline
90
4
70
1
43
0.0
10
-4.5944842140449182
20
53.718684008560906
10
-6.7152645789596654
20
55.840544193349722
42
0.99999999999999989
10
-8.8371247637484807
20
53.719763828434992
10
-6.7163443988337335
20
51.597903643646163
42
0.99999999999999989
0
LWPOLYLINE
5
133
100
AcDbEntity
8
0
100
AcDbPolyline
90
4
70
1
43
0.0
10
-6.7163443988337335
20
51.597903643646163
42
0.99999999999999989
10
-4.5944842140449182
20
53.718684008560906
10
-6.7152645789596654
20
55.840544193349722
42
0.99999999999999989
10
-8.8371247637484807
20
53.719763828434992
0
LWPOLYLINE
5
134
100
AcDbEntity
8
0
100
AcDbPolyline
90
4
70
1
43
0.0
10
4.5944842140449182
20
40.281315991439115
10
6.7152645789596654
20
38.159455806650286
42
0.99999999999999989
10
8.8371247637484807
20
40.280236171565029
10
6.7163443988337335
20
42.402096356353866
42
0.99999999999999989
0
CIRCLE
5
135
100
AcDbEntity
8
0
100
AcDbCircle
10
0
20
47.000000000000014
30
0
40
3.4999999999999964
210
0
220
0
230
1
0
ARC
5
136
100
AcDbEntity
8
0
100
AcDbCircle
10
0
20
-70.000000298023224
30
0
40
5.000000074505806
210
0
220
0
230
1
100
AcDbArc
50
-180
51
0
0
CIRCLE
5
137
100
AcDbEntity
8
0
100
AcDbCircle
10
-7.4505805969238281e-08
20
-64.141999999999996
30
0
40
1.4999999999999993
210
0
220
0
230
1
0
LINE
5
138
100
AcDbEntity
8
0
100
AcDbLine
10
11.312628312668771
20
42.754479930632243
30
0
11
9.1918479477540238
21
44.876340115421058
31
0
0
SPLINE
5
139
100
AcDbEntity
8
0
100
AcDbSpline
70
12
71
2
41
1
41
0.88679245283018071
41
1
72
6
73
3
74
0
42
0.000000001
43
0.0000000001
44
0.0000000001
40
0
40
0
40
0
40
0.43881989657764897
40
0.43881989657764897
40
0.43881989657764897
10
-2.1203723318773537
20
56.194319594969606
30
0
10
0.0090288262335036507
20
55.000001559258379
30
0
10
2.1222680572374486
20
56.190456281001318
30
0
0
LINE
5
140
100
AcDbEntity
8
0
100
AcDbLine
10
-19.53504221298056
20
59.463975914965133
30
0
11
-9.1904562810013068
21
49.122268057237441
31
0
0
LINE
5
141
100
AcDbEntity
8
0
100
AcDbLine
10
12.463977359975633
20
66.535043658393192
30
0
11
2.1222680572374486
21
56.190456281001318
31
0
0
LINE
5
142
100
AcDbEntity
8
0
100
AcDbLine
10
-19.53504221298056
20
59.463975914965133
30
0
11
-9.1904562810013068
21
49.122268057237441
31
0
0
LINE
5
143
100
AcDbEntity
8
0
100
AcDbLine
10
11.312628312668771
20
42.754479930632243
30
0
11
9.1918479477540238
21
44.876340115421058
31
0
0
LWPOLYLINE
5
144
100
AcDbEntity
8
0
100
AcDbPolyline
90
4
70
1
43
0.0
10
-4.5944842140449182
20
53.718684008560906
10
-6.7152645789596654
20
55.840544193349722
42
0.99999999999999989
10
-8.8371247637484807
20
53.719763828434992
10
-6.7163443988337335
20
51.597903643646163
42
0.99999999999999989
0
LINE
5
145
100
AcDbEntity
8
0
100
AcDbLine
10
-5.000000074505806
20
-50
30
0
11
-5
21
-57.07100005268407
31
0
0
LINE
5
146
100
AcDbEntity
8
0
100
AcDbLine
10
-2.1203723318773537
20
56.194319594969606
30
0
11
-12.464958263856598
21
66.536027452697297
31
0
0
SPLINE
5
147
100
AcDbEntity
8
0
100
AcDbSpline
70
12
71
2
41
1
41
0.66666666666666763
41
1
72
6
73
3
74
0
42
0.000000001
43
0.0000000001
44
0.0000000001
40
0
40
0
40
0
40
0.44873162610029838
40
0.44873162610029838
40
0.44873162610029838
10
-9.1904562810013068
20
49.122268057237441
30
0
10
-7.3597657191034394
20
47.001248965094504
30
0
10
-9.1929277676281096
20
44.881019334875404
30
0
0
ARC
5
148
100
AcDbEntity
8
0
100
AcDbCircle
10
-7.7801540108923462
20
39.223805328645938
30
0
40
5.0000000000000098
210
0
220
0
230
1
100
AcDbArc
50
134.98541730807543
51
276.39893374521034
0
ARC
5
149
100
AcDbEntity
8
0
100
AcDbCircle
10
-7.0000009413421971
20
32.267415374936341
30
0
40
2.0000000000000107
210
0
220
-0
230
1
100
AcDbArc
50
0
51
96.398933745210186
0
LINE
5
150
100
AcDbEntity
8
0
100
AcDbLine
10
12.463977359975633
20
66.535043658393192
30
0
11
2.1222680572374486
21
56.190456281001318
31
0
0
LINE
5
151
100
AcDbEntity
8
0
100
AcDbLine
10
-19.53504221298056
20
59.463975914965133
30
0
11
-9.1904562810013068
21
49.122268057237441
31
0
0
ARC
5
152
100
AcDbEntity
8
0
100
AcDbCircle
10
7.0000009412957986
20
32.263013139784782
30
0
40
1.9999999999999827
210
0
220
-0
230
1
100
AcDbArc
50
83.633676015968675
51
180
0
SPLINE
5
153
100
AcDbEntity
8
0
100
AcDbSpline
70
12
71
2
41
1
41
0.66666666666666674
41
1
72
6
73
3
74
0
42
0.000000001
43
0.0000000001
44
0.0000000001
40
0
40
0
40
0
40
0.4491714560178669
40
0.4491714560178669
40
0.4491714560178669
10
9.1943195949696133
20
49.120372331877356
30
0
10
7.3543985433408299
20
46.984494048161721
30
0
10
9.1918479477540238
20
44.876340115421058
30
0
0
ARC
5
154
100
AcDbEntity
8
0
100
AcDbCircle
10
7.7761946713540731
20
39.219845989107668
30
0
40
4.9999999999999964
210
0
220
0
230
1
100
AcDbArc
50
-96.366323984030956
51
44.985417308075476
0
LINE
5
155
100
AcDbEntity
8
0
100
AcDbLine
10
-5
20
-57.07100005268407
30
0
11
-5.000000074505806
21
-70.000000298023224
31
0
0
ARC
5
156
100
AcDbEntity
8
0
100
AcDbCircle
10
-16.000000238418579
20
63.000001683831215
30
0
40
5.0000000000000036
210
0
220
-0
230
1
100
AcDbArc
50
45.00797153459925
51
225.00797153459922
0
SPLINE
5
157
100
AcDbEntity
8
0
100
AcDbSpline
70
12
71
2
41
1
41
0.88679245283018071
41
1
72
6
73
3
74
0
42
0.000000001
43
0.0000000001
44
0.0000000001
40
0
40
0
40
0
40
0.43881989657764897
40
0.43881989657764897
40
0.43881989657764897
10
-2.1203723318773537
20
56.194319594969606
30
0
10
0.0090288262335036507
20
55.000001559258379
30
0
10
2.1222680572374486
20
56.190456281001318
30
0
0
LINE
5
158
100
AcDbEntity
8
0
100
AcDbLine
10
-5.000000074505806
20
-50
30
0
11
-5.0000009413421864
21
32.267415396009994
31
0
0
ARC
5
159
100
AcDbEntity
8
0
100
AcDbCircle
10
7.7761946713540731
20
39.219845989107668
30
0
40
4.9999999999999964
210
0
220
0
230
1
100
AcDbArc
50
-96.366323984030956
51
44.985417308075476
0
ARC
5
160
100
AcDbEntity
8
0
100
AcDbCircle
10
7.0000009412957986
20
32.263013139784782
30
0
40
1.9999999999999827
210
0
220
-0
230
1
100
AcDbArc
50
83.633676015968675
51
180
0
ARC
5
161
100
AcDbEntity
8
0
100
AcDbCircle
10
7.7761946713540731
20
39.219845989107668
30
0
40
4.9999999999999964
210
0
220
0
230
1
100
AcDbArc
50
-96.366323984030956
51
44.985417308075476
0
SPLINE
5
162
100
AcDbEntity
8
0
100
AcDbSpline
70
12
71
2
41
1
41
0.66666666666666674
41
1
72
6
73
3
74
0
42
0.000000001
43
0.0000000001
44
0.0000000001
40
0
40
0
40
0
40
0.4491714560178669
40
0.4491714560178669
40
0.4491714560178669
10
9.1943195949696133
20
49.120372331877356
30
0
10
7.3543985433408299
20
46.984494048161721
30
0
10
9.1918479477540238
20
44.876340115421058
30
0
0
SPLINE
5
163
100
AcDbEntity
8
0
100
AcDbSpline
70
12
71
2
41
1
41
0.88679245283018071
41
1
72
6
73
3
74
0
42
0.000000001
43
0.0000000001
44
0.0000000001
40
0
40
0
40
0
40
0.43881989657764897
40
0.43881989657764897
40
0.43881989657764897
10
-2.1203723318773537
20
56.194319594969606
30
0
10
0.0090288262335036507
20
55.000001559258379
30
0
10
2.1222680572374486
20
56.190456281001318
30
0
0
LINE
5
164
100
AcDbEntity
8
0
100
AcDbLine
10
-5.000000074505806
20
-50
30
0
11
-5
21
-57.07100005268407
31
0
0
LINE
5
165
100
AcDbEntity
8
0
100
AcDbLine
10
5.000000074505806
20
-50
30
0
11
5
21
-57.07100005268407
31
0
0
ARC
5
166
100
AcDbEntity
8
0
100
AcDbCircle
10
-16.000000238418579
20
63.000001683831215
30
0
40
5.0000000000000036
210
0
220
-0
230
1
100
AcDbArc
50
45.00797153459925
51
225.00797153459922
0
LINE
5
167
100
AcDbEntity
8
0
100
AcDbLine
10
5.000000074505806
20
-50
30
0
11
5
21
-57.07100005268407
31
0
0
ARC
5
168
100
AcDbEntity
8
0
100
AcDbCircle
10
16.000003128841698
20
63.000001683831215
30
0
40
5.0000000000000169
210
0
220
0
230
1
100
AcDbArc
50
-44.992028465400573
51
135.00797153459914
0
ARC
5
169
100
AcDbEntity
8
0
100
AcDbCircle
10
7.0000009412957986
20
32.263013139784782
30
0
40
1.9999999999999827
210
0
220
-0
230
1
100
AcDbArc
50
83.633676015968675
51
180
0
LINE
5
170
100
AcDbEntity
8
0
100
AcDbLine
10
5
20
-57.07100005268407
30
0
11
5.000000074505806
21
-70.000000298023224
31
0
0
ARC
5
171
100
AcDbEntity
8
0
100
AcDbCircle
10
16.000003128841698
20
63.000001683831215
30
0
40
5.0000000000000169
210
0
220
0
230
1
100
AcDbArc
50
-44.992028465400573
51
135.00797153459914
0
LINE
5
172
100
AcDbEntity
8
0
100
AcDbLine
10
-5.000000074505806
20
-50
30
0
11
-5.0000009413421864
21
32.267415396009994
31
0
0
ARC
5
173
100
AcDbEntity
8
0
100
AcDbCircle
10
16.000003128841698
20
63.000001683831215
30
0
40
5.0000000000000169
210
0
220
0
230
1
100
AcDbArc
50
-44.992028465400573
51
135.00797153459914
0
ARC
5
174
100
AcDbEntity
8
0
100
AcDbCircle
10
-16.000000238418579
20
63.000001683831215
30
0
40
5.0000000000000036
210
0
220
-0
230
1
100
AcDbArc
50
45.00797153459925
51
225.00797153459922
0
LINE
5
175
100
AcDbEntity
8
0
100
AcDbLine
10
-5.000000074505806
20
-50
30
0
11
-5.0000009413421864
21
32.267415396009994
31
0
0
LINE
5
176
100
AcDbEntity
8
0
100
AcDbLine
10
5.000000074505806
20
-50
30
0
11
5.0000009412958146
21
32.263013160858392
31
0
0
SPLINE
5
177
100
AcDbEntity
8
0
100
AcDbSpline
70
12
71
2
41
1
41
0.66666666666666674
41
1
72
6
73
3
74
0
42
0.000000001
43
0.0000000001
44
0.0000000001
40
0
40
0
40
0
40
0.4491714560178669
40
0.4491714560178669
40
0.4491714560178669
10
9.1943195949696133
20
49.120372331877356
30
0
10
7.3543985433408299
20
46.984494048161721
30
0
10
9.1918479477540238
20
44.876340115421058
30
0
0
ENDSEC
0
SECTION
2
OBJECTS
0
DICTIONARY
5
C
100
AcDbDictionary
3
ACAD_GROUP
350
D
3
ACAD_MLINESTYLE
350
17
0
DICTIONARY
5
D
100
AcDbDictionary
0
DICTIONARY
5
1A
330
C
100
AcDbDictionary
0
DICTIONARY
5
17
100
AcDbDictionary
0
ENDSEC
0
EOF
