0
SECTION
2
HEADER
9
$INSUNITS
70
4
9
$ACADVER
1
AC1014
9
$HANDSEED
5
FFFF
0
ENDSEC
0
SECTION
2
TABLES
0
TABLE
2
VPORT
5
8
100
AcDbSymbolTable
0
ENDTAB
0
TABLE
2
LTYPE
5
5
100
AcDbSymbolTable
0
LTYPE
5
14
100
AcDbSymbolTableRecord
100
AcDbLinetypeTableRecord
2
BYBLOCK
70
0
0
LTYPE
5
15
100
AcDbSymbolTableRecord
100
AcDbLinetypeTableRecord
2
BYLAYER
70
0
0
ENDTAB
0
TABLE
2
LAYER
5
2
100
AcDbSymbolTable
70
2
0
LAYER
5
50
100
AcDbSymbolTableRecord
100
AcDbLayerTableRecord
2
0
70
0
6
CONTINUOUS
0
ENDTAB
0
TABLE
2
STYLE
5
3
100
AcDbSymbolTable
70
1
0
STYLE
5
11
100
AcDbSymbolTableRecord
100
AcDbTextStyleTableRecord
2
STANDARD
70
0
0
ENDTAB
0
TABLE
2
VIEW
5
6
100
AcDbSymbolTable
70
0
0
ENDTAB
0
TABLE
2
UCS
5
7
100
AcDbSymbolTable
70
0
0
ENDTAB
0
TABLE
2
APPID
5
9
100
AcDbSymbolTable
70
2
0
APPID
5
12
100
AcDbSymbolTableRecord
100
AcDbRegAppTableRecord
2
ACAD
70
0
0
ENDTAB
0
TABLE
2
DIMSTYLE
5
A
100
AcDbSymbolTable
70
1
0
ENDTAB
0
TABLE
2
BLOCK_RECORD
5
1
100
AcDbSymbolTable
70
1
0
BLOCK_RECORD
5
1F
100
AcDbSymbolTableRecord
100
AcDbBlockTableRecord
2
*MODEL_SPACE
0
BLOCK_RECORD
5
1B
100
AcDbSymbolTableRecord
100
AcDbBlockTableRecord
2
*PAPER_SPACE
0
ENDTAB
0
ENDSEC
0
SECTION
2
BLOCKS
0
BLOCK
5
20
100
AcDbEntity
100
AcDbBlockBegin
2
*MODEL_SPACE
0
ENDBLK
5
21
100
AcDbEntity
100
AcDbBlockEnd
0
BLOCK
5
1C
100
AcDbEntity
100
AcDbBlockBegin
2
*PAPER_SPACE
0
ENDBLK
5
1D
100
AcDbEntity
100
AcDbBlockEnd
0
ENDSEC
0
SECTION
2
ENTITIES
0
LWPOLYLINE
5
100
100
AcDbEntity
8
0
100
AcDbPolyline
90
8
70
1
43
0.0
10
-5.8000000745058022
20
-59.600000968575479
10
-11.100000186264518
20
-52.533334152897204
42
-0.16227766016838022
10
-11.50000018626452
20
-51.333334152897201
10
-11.500000186264517
20
-38.66666718820732
42
-0.16227766016837861
10
-11.100000186264516
20
-37.46666718820731
10
-5.8000000745058067
20
-30.400000372529036
42
-0.72075922005612647
10
-4.0000000745058051
20
-31.000000372529037
10
-4.0000000745058033
20
-59.000000968575478
42
-0.7207592200561278
0
LWPOLYLINE
5
101
100
AcDbEntity
8
0
100
AcDbPolyline
90
8
70
1
43
0.0
10
-11.100000186264516
20
-37.46666718820731
10
-5.8000000745058067
20
-30.400000372529036
42
-0.72075922005612647
10
-4.0000000745058051
20
-31.000000372529037
10
-4.0000000745058033
20
-59.000000968575478
42
-0.7207592200561278
10
-5.8000000745058022
20
-59.600000968575479
10
-11.100000186264518
20
-52.533334152897204
42
-0.16227766016838022
10
-11.50000018626452
20
-51.333334152897201
10
-11.500000186264517
20
-38.66666718820732
42
-0.16227766016837861
0
CIRCLE
5
102
100
AcDbEntity
8
0
100
AcDbCircle
10
-15.000000223517416
20
-27.500000409781929
30
0
40
2.2500000000000009
210
0
220
0
230
1
0
LINE
5
103
100
AcDbEntity
8
0
100
AcDbLine
10
-25
20
-20.000000298023224
30
0
11
-25
21
-15.000000223517418
31
0
0
CIRCLE
5
104
100
AcDbEntity
8
0
100
AcDbCircle
10
-9.9999992549419403
20
-10.000000149011612
30
0
40
1.4999999999999991
210
0
220
0
230
1
0
SPLINE
5
105
100
AcDbEntity
8
0
100
AcDbSpline
70
12
71
2
41
1
41
2.3333333333333131
41
1
72
6
73
3
74
0
42
0.000000001
43
0.0000000001
44
0.0000000001
40
0
40
0
40
0
40
0.55493750977114109
40
0.55493750977114109
40
0.55493750977114109
10
-15.312499902211123
20
-62.500000931322575
30
0
10
-15
20
-65
30
0
10
-13.124999245628715
20
-67.500001005828381
30
0
0
ARC
5
106
100
AcDbEntity
8
0
100
AcDbCircle
10
-7.500000111758709
20
45.000000670552254
30
0
40
1.5000000223517418
210
0
220
0
230
1
100
AcDbArc
50
-180
51
0
0
LWPOLYLINE
5
107
100
AcDbEntity
8
0
100
AcDbPolyline
90
8
70
1
43
0.0
10
-11.000001391768457
20
38.000000497698785
42
0.72075922005612514
10
-11.600001391768462
20
36.200000497698781
10
-4.53333457609018
20
30.900000385940078
42
0.16227766016838255
10
-3.3333345760901789
20
30.500000385940087
10
3.3333323111136615
20
30.500000385940069
42
0.16227764365131578
10
4.5333322081168426
20
30.900000308692448
10
11.600000023007393
20
36.200000459074985
42
0.72075924450973761
10
11.000000074505802
20
38.000000497698785
0
CIRCLE
5
108
100
AcDbEntity
8
0
100
AcDbCircle
10
-13.500000201165676
20
64.500000961124911
30
0
40
2.2499999999999964
210
0
220
0
230
1
0
CIRCLE
5
109
100
AcDbEntity
8
0
100
AcDbCircle
10
-15
20
15
30
0
40
1.4999999999999987
210
0
220
0
230
1
0
LINE
5
110
100
AcDbEntity
8
0
100
AcDbLine
10
-9.0000001341104507
20
55.000000819563866
30
0
11
-9.0000001341104507
21
50.00000074505806
31
0
0
ARC
5
111
100
AcDbEntity
8
0
100
AcDbCircle
10
-21.341670461739199
20
26.360025242745728
30
0
40
1.4999999999999958
210
-0
220
0
230
1
100
AcDbArc
50
281.91209864276641
51
352.8749832307787
0
ARC
5
112
100
AcDbEntity
8
0
100
AcDbCircle
10
-20.000000298023224
20
20.000000298023224
30
0
40
5.000000074505806
210
0
220
0
230
1
100
AcDbArc
50
179.97788267048938
51
180.02211732951062
0
CIRCLE
5
113
100
AcDbEntity
8
0
100
AcDbCircle
10
-20.000000298023224
20
20.000000298023224
30
0
40
1.4999999999999991
210
0
220
0
230
1
0
LINE
5
114
100
AcDbEntity
8
0
100
AcDbLine
10
-25
20
15.000000223517418
30
0
11
-25
21
20.001930399112595
31
0
0
LWPOLYLINE
5
115
100
AcDbEntity
8
0
100
AcDbPolyline
90
4
70
1
43
0.0
10
-1.4999999999999991
20
55.000000819563866
10
-1.4999999999999991
20
45.000000670552254
42
0.99999999999999989
10
1.4999999999999991
20
45.000000670552254
10
1.4999999999999991
20
55.000000819563866
42
0.99999999999999989
0
CIRCLE
5
116
100
AcDbEntity
8
0
100
AcDbCircle
10
-9.9999992549419403
20
10.000000149011612
30
0
40
1.5000000000000002
210
0
220
0
230
1
0
ARC
5
117
100
AcDbEntity
8
0
100
AcDbCircle
10
-12.500000593718141
20
64.000003039836884
30
0
40
4.0000000000000018
210
0
220
-0
230
1
100
AcDbArc
50
81.69892627706119
51
222.24419961492788
0
LINE
5
118
100
AcDbEntity
8
0
100
AcDbLine
10
-5.0000000745058015
20
52.500000782310963
30
0
11
-4.7657119155601313
21
52.500000782310963
31
0
0
ARC
5
119
100
AcDbEntity
8
0
100
AcDbCircle
10
-7.500000111758709
20
55.000000819563866
30
0
40
1.5000000223517418
210
0
220
0
230
1
100
AcDbArc
50
0
51
180
0
LINE
5
120
100
AcDbEntity
8
0
100
AcDbLine
10
-6.0000000894069672
20
45.000000670552254
30
0
11
-6.0000000894069672
21
50.00000074505806
31
0
0
ARC
5
121
100
AcDbEntity
8
0
100
AcDbCircle
10
-20.000000298023224
20
20.000000298023224
30
0
40
4.9999997019767752
210
0
220
0
230
1
100
AcDbArc
50
101.91209864276654
51
180
0
ARC
5
122
100
AcDbEntity
8
0
100
AcDbCircle
10
-20.000000298023224
20
20.000000298023224
30
0
40
5.000000074505806
210
0
220
-0
230
1
100
AcDbArc
50
89.977882670489379
51
90.02211732951065
0
LINE
5
123
100
AcDbEntity
8
0
100
AcDbLine
10
-20.001930399112595
20
25
30
0
11
-20
21
25
31
0
0
CIRCLE
5
124
100
AcDbEntity
8
0
100
AcDbCircle
10
20.000000298023224
20
20.000000298023224
30
0
40
1.4999999999999991
210
0
220
0
230
1
0
LWPOLYLINE
5
125
100
AcDbEntity
8
0
100
AcDbPolyline
90
11
70
1
43
0.0
10
-7.2071068929452586
20
-72.29289426189473
10
-5.000000074505806
20
-74.500001080334187
10
-3.3535534278461832
20
-76.146447726993813
42
0.66817863791929888
10
-2.500000037252903
20
-75.792894336400536
10
-2.500000037252903
20
-72.414214605454376
42
0.19891236737965415
10
-2.7928932560663533
20
-71.707107824267837
10
-4.7071068556923468
20
-69.792894224641827
42
0.19891236737965476
10
-5.4142136368788929
20
-69.500001005828381
10
-6.5000001117587081
20
-69.500001005828381
42
0.41421356237309631
10
-7.500000111758709
20
-70.500001005828381
10
-7.500000111758709
20
-71.585787480708206
42
0.19891236737966125
0
LWPOLYLINE
5
126
100
AcDbEntity
8
0
100
AcDbPolyline
90
11
70
1
43
0.0
10
2.500000037252903
20
-75.792894336400551
42
0.66817863791929022
10
3.3535534278461698
20
-76.146447726993813
10
5.0000000745058149
20
-74.500001080334187
10
7.2071068929452586
20
-72.292894261894745
42
0.19891236737965243
10
7.500000111758709
20
-71.585787480708177
10
7.500000111758709
20
-70.500001005828381
42
0.41421356237309503
10
6.5000001117587125
20
-69.500001005828381
10
5.4142136368789018
20
-69.500001005828381
42
0.19891236737966442
10
4.7071068556923512
20
-69.792894224641842
10
2.7928932560663533
20
-71.707107824267837
42
0.19891236737965801
10
2.500000037252903
20
-72.414214605454376
0
CIRCLE
5
127
100
AcDbEntity
8
0
100
AcDbCircle
10
13.49999981373549
20
64.500000961124911
30
0
40
2.2499999999999964
210
0
220
0
230
1
0
LINE
5
128
100
AcDbEntity
8
0
100
AcDbLine
10
19.853253648033569
20
-26.173973129942951
30
0
11
15.311940745144916
21
-62.504472348754547
31
0
0
ARC
5
129
100
AcDbEntity
8
0
100
AcDbCircle
10
20.000000298023224
20
-20.000000298023224
30
0
40
4.9999997019767743
210
0
220
0
230
1
100
AcDbArc
50
-78.087901357233534
51
0
0
CIRCLE
5
130
100
AcDbEntity
8
0
100
AcDbCircle
10
20.000000298023224
20
-20.000000298023224
30
0
40
1.4999999999999991
210
0
220
0
230
1
0
LINE
5
131
100
AcDbEntity
8
0
100
AcDbLine
10
1.4239814003700246
20
71.957531936168991
30
0
11
11.922509847827207
21
67.958092238146165
31
0
0
CIRCLE
5
132
100
AcDbEntity
8
0
100
AcDbCircle
10
10.000000149011612
20
-10.000000149011612
30
0
40
1.4999999999999991
210
0
220
0
230
1
0
LINE
5
133
100
AcDbEntity
8
0
100
AcDbLine
10
19.853253648033569
20
26.173973129942951
30
0
11
15.461145739946884
21
61.31083252190006
31
0
0
ARC
5
134
100
AcDbEntity
8
0
100
AcDbCircle
10
7.500000111758709
20
55.000000819563866
30
0
40
1.5000000223517418
210
0
220
0
230
1
100
AcDbArc
50
0
51
180
0
CIRCLE
5
135
100
AcDbEntity
8
0
100
AcDbCircle
10
15.000000223517418
20
-27.500000409781936
30
0
40
2.2500000000000009
210
0
220
0
230
1
0
ARC
5
136
100
AcDbEntity
8
0
100
AcDbCircle
10
21.341670461739206
20
26.360025242745728
30
0
40
1.5000000000000044
210
0
220
0
230
1
100
AcDbArc
50
187.12501676922122
51
258.08790135723308
0
ARC
5
137
100
AcDbEntity
8
0
100
AcDbCircle
10
7.500000111758709
20
45.000000670552254
30
0
40
1.5000000223517418
210
0
220
0
230
1
100
AcDbArc
50
-180
51
0
0
CIRCLE
5
138
100
AcDbEntity
8
0
100
AcDbCircle
10
15.000000223517418
20
-15.000000223517418
30
0
40
1.5020000000000002
210
0
220
0
230
1
0
LWPOLYLINE
5
139
100
AcDbEntity
8
0
100
AcDbPolyline
90
8
70
1
43
0.0
10
5.8000000745058067
20
-30.400000372529036
42
0.72075922005612481
10
4.0000000745058051
20
-31.00000037252903
10
4.0000000745058051
20
-59.00000096857547
42
0.72075922005612514
10
5.8000000745058156
20
-59.600000968575479
10
11.100000186264518
20
-52.533334152897204
42
0.16227766016838385
10
11.500000186264518
20
-51.333334152897201
10
11.500000186264518
20
-38.666667188207313
42
0.1622776601683793
10
11.100000186264518
20
-37.46666718820731
0
LINE
5
140
100
AcDbEntity
8
0
100
AcDbLine
10
9.0000001341104507
20
45.000000670552254
30
0
11
9.0000001341104507
21
50.00000074505806
31
0
0
LINE
5
141
100
AcDbEntity
8
0
100
AcDbLine
10
1.2000000000000011
20
-83.400000000000006
30
0
11
13.128352868035966
21
-67.495529202761304
31
0
0
LINE
5
142
100
AcDbEntity
8
0
100
AcDbLine
10
25
20
-15.000000223517418
30
0
11
25
21
-20.000000298023224
31
0
0
LINE
5
143
100
AcDbEntity
8
0
100
AcDbLine
10
6.0000000894069672
20
50.00000074505806
30
0
11
6.0000000894069672
21
45.000000670552254
31
0
0
ARC
5
144
100
AcDbEntity
8
0
100
AcDbCircle
10
12.499999683350325
20
63.99999856948854
30
0
40
4.0000000000000027
210
0
220
0
230
1
100
AcDbArc
50
-42.244172099981803
51
98.300941369111754
0
LINE
5
145
100
AcDbEntity
8
0
100
AcDbLine
10
-19.853253648033572
20
-26.173973129942951
30
0
11
-15.311940745142845
21
-62.50447234877106
31
0
0
ARC
5
146
100
AcDbEntity
8
0
100
AcDbCircle
10
21.341670461739206
20
-26.360025242745728
30
0
40
1.4999999999999973
210
0
220
0
230
1
100
AcDbArc
50
101.91209864276694
51
172.87498323077878
0
CIRCLE
5
147
100
AcDbEntity
8
0
100
AcDbCircle
10
10.000000149011612
20
10.000000149011612
30
0
40
1.5000000000000002
210
0
220
0
230
1
0
LINE
5
148
100
AcDbEntity
8
0
100
AcDbLine
10
9.0000001341104507
20
50.00000074505806
30
0
11
9.0000001341104507
21
55.000000819563866
31
0
0
LINE
5
149
100
AcDbEntity
8
0
100
AcDbLine
10
-25
20
15.000000223517418
30
0
11
-25
21
-15.000000223517418
31
0
0
ARC
5
150
100
AcDbEntity
8
0
100
AcDbCircle
10
20.000000298023224
20
20.000000298023224
30
0
40
4.9999997019767761
210
0
220
0
230
1
100
AcDbArc
50
0
51
78.087901357233534
0
LINE
5
151
100
AcDbEntity
8
0
100
AcDbLine
10
6.0000000894069672
20
55.000000819563866
30
0
11
6.0000000894069672
21
50.00000074505806
31
0
0
LINE
5
152
100
AcDbEntity
8
0
100
AcDbLine
10
25.000000000000007
20
20.000000298023224
30
0
11
25.000000000000007
21
15.000000223517418
31
0
0
LINE
5
153
100
AcDbEntity
8
0
100
AcDbLine
10
25.000000000000007
20
15.000000223517418
30
0
11
25
21
-15.000000223517418
31
0
0
CIRCLE
5
154
100
AcDbEntity
8
0
100
AcDbCircle
10
15
20
15
30
0
40
1.5000000000000002
210
0
220
0
230
1
0
CIRCLE
5
155
100
AcDbEntity
8
0
100
AcDbCircle
10
15.000000223517418
20
27.500000409781936
30
0
40
2.2500000000000009
210
0
220
0
230
1
0
SPLINE
5
156
100
AcDbEntity
8
0
100
AcDbSpline
70
12
71
2
41
1
41
2.3333333333333228
41
1
72
6
73
3
74
0
42
0.000000001
43
0.0000000001
44
0.0000000001
40
0
40
0
40
0
40
0.55493750977114109
40
0.55493750977114109
40
0.55493750977114109
10
15.312499902211121
20
-62.500000931322575
30
0
10
15
20
-65
30
0
10
13.124999245628715
20
-67.500001005828381
30
0
0
CIRCLE
5
157
100
AcDbEntity
8
0
100
AcDbCircle
10
10.000000149011612
20
-65.000000968575478
30
0
40
2.2499999999999964
210
0
220
0
230
1
0
ARC
5
158
100
AcDbEntity
8
0
100
AcDbCircle
10
0
20
68.219581030739619
30
0
40
4.0000000000000027
210
0
220
-0
230
1
100
AcDbArc
50
69.145540580858651
51
110.85445941914138
0
ARC
5
159
100
AcDbEntity
8
0
100
AcDbCircle
10
-21.341670461739199
20
-26.360025242745728
30
0
40
1.4999999999999956
210
0
220
-0
230
1
100
AcDbArc
50
7.1250167692213235
51
78.087901357233605
0
CIRCLE
5
160
100
AcDbEntity
8
0
100
AcDbCircle
10
-20.000000298023224
20
-20.000000298023224
30
0
40
1.4999999999999991
210
0
220
0
230
1
0
LINE
5
161
100
AcDbEntity
8
0
100
AcDbLine
10
-11.922501614960371
20
67.958095374476613
30
0
11
-1.4239814003700246
21
71.957531936168991
31
0
0
LINE
5
162
100
AcDbEntity
8
0
100
AcDbLine
10
-19.853253648033572
20
26.173973129942951
30
0
11
-15.461145358905828
21
61.310835570228193
31
0
0
CIRCLE
5
163
100
AcDbEntity
8
0
100
AcDbCircle
10
-15.000000000000002
20
27.500000037252903
30
0
40
2.2500000000000009
210
0
220
0
230
1
0
LINE
5
164
100
AcDbEntity
8
0
100
AcDbLine
10
-9.0000001341104507
20
50.00000074505806
30
0
11
-9.0000001341104507
21
45.000000670552254
31
0
0
LINE
5
165
100
AcDbEntity
8
0
100
AcDbLine
10
-6.0000000894069672
20
50.00000074505806
30
0
11
-6.0000000894069672
21
55.000000819563866
31
0
0
CIRCLE
5
166
100
AcDbEntity
8
0
100
AcDbCircle
10
-14.999999329447746
20
-15.000000894069672
30
0
40
1.4999999999999987
210
0
220
0
230
1
0
ARC
5
167
100
AcDbEntity
8
0
100
AcDbCircle
10
-20.000000298023224
20
-20.000000298023224
30
0
40
4.9999997019767761
210
0
220
0
230
1
100
AcDbArc
50
180
51
258.08790135723348
0
LINE
5
168
100
AcDbEntity
8
0
100
AcDbLine
10
-13.12835272272163
20
-67.495529396540348
30
0
11
-1.2000000000000011
21
-83.400000000000006
31
0
0
ARC
5
169
100
AcDbEntity
8
0
100
AcDbCircle
10
0
20
-82.500000000000014
30
0
40
1.4999999999999893
210
0
220
0
230
1
100
AcDbArc
50
216.86989764584376
51
323.13010235415629
0
CIRCLE
5
170
100
AcDbEntity
8
0
100
AcDbCircle
10
-10.000000149011612
20
-65.000000968575478
30
0
40
2.2499999999999964
210
0
220
0
230
1
0
ENDSEC
0
SECTION
2
OBJECTS
0
DICTIONARY
5
C
100
AcDbDictionary
3
ACAD_GROUP
350
D
3
ACAD_MLINESTYLE
350
17
0
DICTIONARY
5
D
100
AcDbDictionary
0
DICTIONARY
5
1A
330
C
100
AcDbDictionary
0
DICTIONARY
5
17
100
AcDbDictionary
0
ENDSEC
0
EOF
