0
SECTION
2
HEADER
9
$INSUNITS
70
4
9
$ACADVER
1
AC1014
9
$HANDSEED
5
FFFF
0
ENDSEC
0
SECTION
2
TABLES
0
TABLE
2
VPORT
5
8
100
AcDbSymbolTable
0
ENDTAB
0
TABLE
2
LTYPE
5
5
100
AcDbSymbolTable
0
LTYPE
5
14
100
AcDbSymbolTableRecord
100
AcDbLinetypeTableRecord
2
BYBLOCK
70
0
0
LTYPE
5
15
100
AcDbSymbolTableRecord
100
AcDbLinetypeTableRecord
2
BYLAYER
70
0
0
ENDTAB
0
TABLE
2
LAYER
5
2
100
AcDbSymbolTable
70
2
0
LAYER
5
50
100
AcDbSymbolTableRecord
100
AcDbLayerTableRecord
2
0
70
0
6
CONTINUOUS
0
ENDTAB
0
TABLE
2
STYLE
5
3
100
AcDbSymbolTable
70
1
0
STYLE
5
11
100
AcDbSymbolTableRecord
100
AcDbTextStyleTableRecord
2
STANDARD
70
0
0
ENDTAB
0
TABLE
2
VIEW
5
6
100
AcDbSymbolTable
70
0
0
ENDTAB
0
TABLE
2
UCS
5
7
100
AcDbSymbolTable
70
0
0
ENDTAB
0
TABLE
2
APPID
5
9
100
AcDbSymbolTable
70
2
0
APPID
5
12
100
AcDbSymbolTableRecord
100
AcDbRegAppTableRecord
2
ACAD
70
0
0
ENDTAB
0
TABLE
2
DIMSTYLE
5
A
100
AcDbSymbolTable
70
1
0
ENDTAB
0
TABLE
2
BLOCK_RECORD
5
1
100
AcDbSymbolTable
70
1
0
BLOCK_RECORD
5
1F
100
AcDbSymbolTableRecord
100
AcDbBlockTableRecord
2
*MODEL_SPACE
0
BLOCK_RECORD
5
1B
100
AcDbSymbolTableRecord
100
AcDbBlockTableRecord
2
*PAPER_SPACE
0
ENDTAB
0
ENDSEC
0
SECTION
2
BLOCKS
0
BLOCK
5
20
100
AcDbEntity
100
AcDbBlockBegin
2
*MODEL_SPACE
0
ENDBLK
5
21
100
AcDbEntity
100
AcDbBlockEnd
0
BLOCK
5
1C
100
AcDbEntity
100
AcDbBlockBegin
2
*PAPER_SPACE
0
ENDBLK
5
1D
100
AcDbEntity
100
AcDbBlockEnd
0
ENDSEC
0
SECTION
2
ENTITIES
0
LWPOLYLINE
5
100
100
AcDbEntity
8
0
100
AcDbPolyline
90
8
70
1
43
0.0
10
-4.0000000745058006
20
-31.000000372529037
42
0.72075922005612647
10
-5.8000000745057978
20
-30.400000372529036
10
-11.100000186264509
20
-37.46666718820731
42
0.16227766016837844
10
-11.50000018626451
20
-38.66666718820732
10
-11.50000018626451
20
-51.333334152897201
42
0.16227766016838002
10
-11.100000186264509
20
-52.533334152897204
10
-5.8000000745057978
20
-59.600000968575479
42
0.7207592200561278
10
-4.0000000745058006
20
-59.000000968575478
0
LWPOLYLINE
5
101
100
AcDbEntity
8
0
100
AcDbPolyline
90
8
70
1
43
0.0
10
-5.8000000745057978
20
-17.600000968575475
42
0.7207592200561278
10
-4.0000000745058006
20
-17.000000968575478
10
-4.0000000745058006
20
16.999999627470967
42
0.72075922005612647
10
-5.8000000745057978
20
17.599999627470968
10
-11.100000186264509
20
10.53333281179269
42
0.16227766016837786
10
-11.50000018626451
20
9.3333328117926904
10
-11.50000018626451
20
-9.3333341528972014
42
0.16227766016838002
10
-11.100000186264509
20
-10.533334152897202
0
ARC
5
102
100
AcDbEntity
8
0
100
AcDbCircle
10
-19.00000116229057
20
-19.000000298023224
30
0
40
0.99999999999999867
210
-0
220
0
230
1
100
AcDbArc
50
-90
51
0
0
LWPOLYLINE
5
103
100
AcDbEntity
8
0
100
AcDbPolyline
90
8
70
1
43
0.0
10
5.8000000745057978
20
-30.400000372529036
42
0.72075922005612481
10
4.0000000745058006
20
-31.00000037252903
10
4.0000000745058006
20
-59.00000096857547
42
0.72075922005612514
10
5.8000000745058067
20
-59.600000968575479
10
11.100000186264518
20
-52.533334152897204
42
0.16227766016838022
10
11.50000018626451
20
-51.333334152897223
10
11.50000018626451
20
-38.666667188207313
42
0.1622776601683793
10
11.100000186264518
20
-37.46666718820731
0
CIRCLE
5
104
100
AcDbEntity
8
0
100
AcDbCircle
10
-14.999999180436143
20
-27.500000409781929
30
0
40
1.4999999999999991
210
0
220
0
230
1
0
LINE
5
105
100
AcDbEntity
8
0
100
AcDbLine
10
15.999999344348907
20
-49.200000745058063
30
0
11
15.999999344348907
21
-34.000000491738319
31
0
0
LWPOLYLINE
5
106
100
AcDbEntity
8
0
100
AcDbPolyline
90
8
70
1
43
0.0
10
11.000000074505802
20
43.000000646710397
10
-11.000001391768457
20
43.000000646710397
42
-0.7207592200561278
10
-11.600001391768453
20
44.800000646710394
10
-4.5333345760901764
20
50.100000758469108
42
-0.16227766016838102
10
-3.33333457609017
20
50.500000758469113
10
3.3333323111136695
20
50.500000758469113
42
-0.16227764365132319
10
4.5333322081168514
20
50.100000835716727
10
11.600000023007395
20
44.800000685334211
42
-0.72075924450973761
0
LINE
5
107
100
AcDbEntity
8
0
100
AcDbLine
10
-7.4999984353780658
20
55.000000819563866
30
0
11
-5.0000009685754776
21
55.000000819563866
31
0
0
LINE
5
108
100
AcDbEntity
8
0
100
AcDbLine
10
4.9999991804361343
20
55.000000819563866
30
0
11
7.4999992549419492
21
55.000000819563866
31
0
0
LINE
5
109
100
AcDbEntity
8
0
100
AcDbLine
10
-8.5022582075843189
20
68.499998468905687
30
0
11
-8.4999990835785866
21
68.499998468905687
31
0
0
ARC
5
110
100
AcDbEntity
8
0
100
AcDbCircle
10
-8.4999990835785866
20
67.500001005828381
30
0
40
1.0000000149011614
210
0
220
-0
230
1
100
AcDbArc
50
89.870561620902308
51
90.129438379097721
0
LINE
5
111
100
AcDbEntity
8
0
100
AcDbLine
10
-6.8000000745058031
20
62.600000968575472
30
0
11
-6.8396218577927037
21
62.547171924192938
31
0
0
SPLINE
5
112
100
AcDbEntity
8
0
100
AcDbSpline
70
12
71
2
41
1
41
2.3333333333333131
41
1
72
6
73
3
74
0
42
0.000000001
43
0.0000000001
44
0.0000000001
40
0
40
0
40
0
40
0.55493750977113865
40
0.55493750977113865
40
0.55493750977113865
10
-15.312499902211067
20
-62.500000931322582
30
0
10
-15
20
-65
30
0
10
-13.124999245628715
20
-67.500001005828381
30
0
0
LINE
5
113
100
AcDbEntity
8
0
100
AcDbLine
10
8.5022602937468861
20
68.499998468905687
30
0
11
8.5000011697411537
21
68.499998468905687
31
0
0
LWPOLYLINE
5
114
100
AcDbEntity
8
0
100
AcDbPolyline
90
2
70
1
43
0.0
10
-25
20
20.001930399112595
42
0.00019301011325131742
10
-25
20
19.998070196933853
0
LINE
5
115
100
AcDbEntity
8
0
100
AcDbLine
10
20.001930399112577
20
24.797785987083898
30
0
11
20.001930399112577
21
20.000000298023224
31
0
0
LINE
5
116
100
AcDbEntity
8
0
100
AcDbLine
10
1.2000000000000011
20
-83.400000000000006
30
0
11
13.128352868035975
21
-67.495529202761304
31
0
0
LINE
5
117
100
AcDbEntity
8
0
100
AcDbLine
10
-16.000001132488251
20
-49.200000745058063
30
0
11
-16.000001132488251
21
-34.000000491738319
31
0
0
LWPOLYLINE
5
118
100
AcDbEntity
8
0
100
AcDbPolyline
90
8
70
1
43
0.0
10
-4.53333457609018
20
25.900000385940078
10
-11.600001391768462
20
31.200000497698781
42
-0.72075922005612514
10
-11.000001391768457
20
33.000000497698785
10
11.000000074505802
20
33.000000497698778
42
-0.72075924450973761
10
11.600000023007393
20
31.200000459074985
10
4.5333322081168408
20
25.900000308692452
42
-0.16227764365131578
10
3.3333323111136615
20
25.500000385940069
10
-3.3333345760901789
20
25.500000385940083
42
-0.16227766016838249
0
CIRCLE
5
119
100
AcDbEntity
8
0
100
AcDbCircle
10
13.500001642853032
20
64.49999855831264
30
0
40
1.5000000000000036
210
0
220
0
230
1
0
ARC
5
120
100
AcDbEntity
8
0
100
AcDbCircle
10
12.500001229345807
20
64.000000953674402
30
0
40
4.0000000000000071
210
0
220
-0
230
1
100
AcDbArc
50
2.990568528413275
51
88.170354983001786
0
ARC
5
121
100
AcDbEntity
8
0
100
AcDbCircle
10
-16.800001132488241
20
-49.20000074505807
30
0
40
0.79999999999999183
210
0
220
0
230
1
100
AcDbArc
50
-90.000000000000767
51
0
0
LINE
5
122
100
AcDbEntity
8
0
100
AcDbLine
10
-6.8000000745058031
20
62.600000968575472
30
0
11
-6.8396218577927037
21
62.547171924192938
31
0
0
ARC
5
123
100
AcDbEntity
8
0
100
AcDbCircle
10
11.249999254941949
20
67.249998468905673
30
0
40
1.2500000000000089
210
0
220
-0
230
1
100
AcDbArc
50
90
51
180
0
LINE
5
124
100
AcDbEntity
8
0
100
AcDbLine
10
-20.001930399112595
20
24.797785987083763
30
0
11
-20.001930399112595
21
20.000000298023224
31
0
0
LWPOLYLINE
5
125
100
AcDbEntity
8
0
100
AcDbPolyline
90
8
70
1
43
0.0
10
11.50000018626451
20
9.3333328117926904
42
0.1622776601683793
10
11.100000186264518
20
10.53333281179269
10
5.8000000745057978
20
17.599999627470968
42
0.72075922005612481
10
4.0000000745058006
20
16.99999962747097
10
4.0000000745058006
20
-17.00000096857547
42
0.72075922005612514
10
5.8000000745058067
20
-17.600000968575475
10
11.100000186264518
20
-10.533334152897202
42
0.16227766016838255
10
11.50000018626451
20
-9.3333341528972014
0
LINE
5
126
100
AcDbEntity
8
0
100
AcDbLine
10
16.799999344348908
20
-50.00000074505806
30
0
11
16.875643401178255
21
-50.00000074505806
31
0
0
LINE
5
127
100
AcDbEntity
8
0
100
AcDbLine
10
-13.128352722721628
20
-67.495529396540348
30
0
11
-1.2000000000000011
21
-83.400000000000006
31
0
0
CIRCLE
5
128
100
AcDbEntity
8
0
100
AcDbCircle
10
1.0430812835693359e-06
20
-72.500001080334187
30
0
40
3.5000000521540642
210
0
220
0
230
1
0
LINE
5
129
100
AcDbEntity
8
0
100
AcDbLine
10
-16.875643401178245
20
-50.00000074505806
30
0
11
-15.312499902211067
21
-62.500000931322582
31
0
0
LINE
5
130
100
AcDbEntity
8
0
100
AcDbLine
10
-20
20
25
30
0
11
-20
21
25
31
0
0
ARC
5
131
100
AcDbEntity
8
0
100
AcDbCircle
10
-19.00000116229057
20
19.000000298023224
30
0
40
0.99999999999999645
210
0
220
0
230
1
100
AcDbArc
50
0
51
90
0
LINE
5
132
100
AcDbEntity
8
0
100
AcDbLine
10
16.875643401178255
20
-50.00000074505806
30
0
11
15.312499902211094
21
-62.500000931322589
31
0
0
LINE
5
133
100
AcDbEntity
8
0
100
AcDbLine
10
20.001930399112577
20
20.000000298023224
30
0
11
18.999999374151226
21
20.000000298023224
31
0
0
LINE
5
134
100
AcDbEntity
8
0
100
AcDbLine
10
-19.00000116229057
20
20.000000298023224
30
0
11
-20.001930399112595
21
20.000000298023224
31
0
0
LINE
5
135
100
AcDbEntity
8
0
100
AcDbLine
10
-16.468625347503618
20
64.49999855831264
30
0
11
-20.001930399112595
21
24.797785987083763
31
0
0
LINE
5
136
100
AcDbEntity
8
0
100
AcDbLine
10
16.468628497729174
20
64.49999855831264
30
0
11
20.001930399112577
21
24.797785987083898
31
0
0
LINE
5
137
100
AcDbEntity
8
0
100
AcDbLine
10
6.8050858279846782
20
62.593219963936988
30
0
11
6.800000074505812
21
62.600000968575472
31
0
0
LINE
5
138
100
AcDbEntity
8
0
100
AcDbLine
10
-16.800001132488251
20
-50.00000074505806
30
0
11
-16.875643401178245
21
-50.00000074505806
31
0
0
CIRCLE
5
139
100
AcDbEntity
8
0
100
AcDbCircle
10
15.000001266598719
20
27.500000409781936
30
0
40
1.5000000000000033
210
0
220
0
230
1
0
ARC
5
140
100
AcDbEntity
8
0
100
AcDbCircle
10
-7.4999984353780569
20
57.50000081956388
30
0
40
2.5000000000000178
210
0
220
0
230
1
100
AcDbArc
50
180
51
269.99999999999983
0
ARC
5
141
100
AcDbEntity
8
0
100
AcDbCircle
10
7.4999992549419581
20
57.500000819563851
30
0
40
2.4999999999999822
210
0
220
0
230
1
100
AcDbArc
50
-90.000000000000199
51
0
0
LINE
5
142
100
AcDbEntity
8
0
100
AcDbLine
10
-9.9999984353780746
20
67.249998468905687
30
0
11
-9.9999984353780746
21
57.500000819563873
31
0
0
ARC
5
143
100
AcDbEntity
8
0
100
AcDbCircle
10
11.125000918492276
20
65.999998468905687
30
0
40
2.4999999999998295
210
0
220
-0
230
1
100
AcDbArc
50
53.052371953221972
51
90
0
LINE
5
144
100
AcDbEntity
8
0
100
AcDbLine
10
6.8050858279846782
20
62.593219963936988
30
0
11
6.8000000745056877
21
62.600000968575486
31
0
0
ARC
5
145
100
AcDbEntity
8
0
100
AcDbCircle
10
-11.249998435378075
20
67.249998468905687
30
0
40
1.25
210
0
220
-0
230
1
100
AcDbArc
50
0
51
90
0
ARC
5
146
100
AcDbEntity
8
0
100
AcDbCircle
10
8.5000011697411537
20
67.500001005828381
30
0
40
1.0000000149011614
210
0
220
-0
230
1
100
AcDbArc
50
89.870561620902308
51
90.129438379103306
0
ARC
5
147
100
AcDbEntity
8
0
100
AcDbCircle
10
-11.125000918512189
20
65.99999846890563
30
0
40
2.5000000000000533
210
0
220
0
230
1
100
AcDbArc
50
90.000000000000398
51
126.94772660890666
0
LINE
5
148
100
AcDbEntity
8
0
100
AcDbLine
10
13.125000932368724
20
67.499998450403766
30
0
11
13.128352868035975
21
67.495529202761304
31
0
0
CIRCLE
5
149
100
AcDbEntity
8
0
100
AcDbCircle
10
-13.499998357146969
20
64.49999855831264
30
0
40
1.5000000000000036
210
0
220
0
230
1
0
LINE
5
150
100
AcDbEntity
8
0
100
AcDbLine
10
-13.128352722721628
20
67.495529396540348
30
0
11
-13.125000932387438
21
67.499998450405386
31
0
0
ARC
5
151
100
AcDbEntity
8
0
100
AcDbCircle
10
-12.49999837949872
20
63.999998569488525
30
0
40
3.9999999999999902
210
0
220
0
230
1
100
AcDbArc
50
91.829735115118766
51
177.0094568715306
0
LINE
5
152
100
AcDbEntity
8
0
100
AcDbLine
10
11.125000918492276
20
68.499998468905687
30
0
11
11.249999254941949
21
68.499998468905687
31
0
0
LINE
5
153
100
AcDbEntity
8
0
100
AcDbLine
10
-11.125000918512207
20
68.499998468905687
30
0
11
-11.249998435378075
21
68.499998468905687
31
0
0
LINE
5
154
100
AcDbEntity
8
0
100
AcDbLine
10
9.9999992549419403
20
57.500000819563859
30
0
11
9.9999992549419403
21
67.249998468905673
31
0
0
LINE
5
155
100
AcDbEntity
8
0
100
AcDbLine
10
-5.9999990686774396
20
55.000000819563866
30
0
11
6.0000011548400067
21
55.000000819563866
31
0
0
ARC
5
156
100
AcDbEntity
8
0
100
AcDbCircle
10
18.999999374151226
20
19.000000298023224
30
0
40
0.99999999999999867
210
0
220
-0
230
1
100
AcDbArc
50
90
51
180
0
LINE
5
157
100
AcDbEntity
8
0
100
AcDbLine
10
-17.000001132488247
20
-33.000000491738327
30
0
11
-19.001518559773601
21
-33.000000491738319
31
0
0
CIRCLE
5
158
100
AcDbEntity
8
0
100
AcDbCircle
10
-14.999999180436117
20
27.50000040978194
30
0
40
1.4999999999999991
210
0
220
0
230
1
0
ARC
5
159
100
AcDbEntity
8
0
100
AcDbCircle
10
16.799999344348898
20
-49.20000074505807
30
0
40
0.79999999999999183
210
0
220
0
230
1
100
AcDbArc
50
180
51
270.00000000000074
0
CIRCLE
5
160
100
AcDbEntity
8
0
100
AcDbCircle
10
10.000000149011612
20
-65.000000968575478
30
0
40
1.5000000000000036
210
0
220
0
230
1
0
SPLINE
5
161
100
AcDbEntity
8
0
100
AcDbSpline
70
12
71
2
41
1
41
2.3333333333333228
41
1
72
6
73
3
74
0
42
0.000000001
43
0.0000000001
44
0.0000000001
40
0
40
0
40
0
40
0.55493750977113854
40
0.55493750977113854
40
0.55493750977113854
10
15.312499902211094
20
-62.500000931322589
30
0
10
15
20
-65
30
0
10
13.124999245628715
20
-67.500001005828381
30
0
0
ARC
5
162
100
AcDbEntity
8
0
100
AcDbCircle
10
-17.000001132488237
20
-34.000000491738312
30
0
40
0.99999999999998757
210
0
220
0
230
1
100
AcDbArc
50
0
51
90.000000000000611
0
ARC
5
163
100
AcDbEntity
8
0
100
AcDbCircle
10
16.999999344348893
20
-34.000000491738312
30
0
40
0.99999999999998757
210
0
220
-0
230
1
100
AcDbArc
50
89.999999999999389
51
180
0
CIRCLE
5
164
100
AcDbEntity
8
0
100
AcDbCircle
10
15.000001266598737
20
-27.500000409781936
30
0
40
1.5000000000000002
210
0
220
0
230
1
0
LINE
5
165
100
AcDbEntity
8
0
100
AcDbLine
10
20.001930399112577
20
-20.000000298023224
30
0
11
19.001518559773587
21
-33.000000491738319
31
0
0
LINE
5
166
100
AcDbEntity
8
0
100
AcDbLine
10
-18.000001162290573
20
19.000000298023224
30
0
11
-18.000001162290573
21
-19.000000298023224
31
0
0
LINE
5
167
100
AcDbEntity
8
0
100
AcDbLine
10
17.99999937415123
20
19.000000298023224
30
0
11
17.99999937415123
21
-19.000000298023224
31
0
0
LINE
5
168
100
AcDbEntity
8
0
100
AcDbLine
10
18.999999374151226
20
-20.000000298023224
30
0
11
20.001930399112577
21
-20.000000298023224
31
0
0
LINE
5
169
100
AcDbEntity
8
0
100
AcDbLine
10
16.999999344348904
20
-33.000000491738327
30
0
11
19.001518559773587
21
-33.000000491738319
31
0
0
LINE
5
170
100
AcDbEntity
8
0
100
AcDbLine
10
-19.00000116229057
20
-20.000000298023224
30
0
11
-20.001930399112595
21
-20.000000298023224
31
0
0
CIRCLE
5
171
100
AcDbEntity
8
0
100
AcDbCircle
10
-10.000000149011612
20
-65.000000968575478
30
0
40
1.5000000000000036
210
0
220
0
230
1
0
LINE
5
172
100
AcDbEntity
8
0
100
AcDbLine
10
-1.5000000372528977
20
-14.79019945145215
30
0
11
-1.5000000372528977
21
-15
31
0
0
ARC
5
173
100
AcDbEntity
8
0
100
AcDbCircle
10
18.999999374151226
20
-19.000000298023224
30
0
40
0.99999999999999645
210
0
220
0
230
1
100
AcDbArc
50
180
51
270
0
LINE
5
174
100
AcDbEntity
8
0
100
AcDbLine
10
-20.001930399112595
20
-20.000000298023224
30
0
11
-19.001518559773601
21
-33.000000491738319
31
0
0
ARC
5
175
100
AcDbEntity
8
0
100
AcDbCircle
10
0
20
-82.500000000000014
30
0
40
1.4999999999999893
210
0
220
0
230
1
100
AcDbArc
50
216.86989764584376
51
323.13010235415629
0
ENDSEC
0
SECTION
2
OBJECTS
0
DICTIONARY
5
C
100
AcDbDictionary
3
ACAD_GROUP
350
D
3
ACAD_MLINESTYLE
350
17
0
DICTIONARY
5
D
100
AcDbDictionary
0
DICTIONARY
5
1A
330
C
100
AcDbDictionary
0
DICTIONARY
5
17
100
AcDbDictionary
0
ENDSEC
0
EOF
