0
SECTION
2
HEADER
9
$INSUNITS
70
4
9
$ACADVER
1
AC1014
9
$HANDSEED
5
FFFF
0
ENDSEC
0
SECTION
2
TABLES
0
TABLE
2
VPORT
5
8
100
AcDbSymbolTable
0
ENDTAB
0
TABLE
2
LTYPE
5
5
100
AcDbSymbolTable
0
LTYPE
5
14
100
AcDbSymbolTableRecord
100
AcDbLinetypeTableRecord
2
BYBLOCK
70
0
0
LTYPE
5
15
100
AcDbSymbolTableRecord
100
AcDbLinetypeTableRecord
2
BYLAYER
70
0
0
ENDTAB
0
TABLE
2
LAYER
5
2
100
AcDbSymbolTable
70
2
0
LAYER
5
50
100
AcDbSymbolTableRecord
100
AcDbLayerTableRecord
2
0
70
0
6
CONTINUOUS
0
ENDTAB
0
TABLE
2
STYLE
5
3
100
AcDbSymbolTable
70
1
0
STYLE
5
11
100
AcDbSymbolTableRecord
100
AcDbTextStyleTableRecord
2
STANDARD
70
0
0
ENDTAB
0
TABLE
2
VIEW
5
6
100
AcDbSymbolTable
70
0
0
ENDTAB
0
TABLE
2
UCS
5
7
100
AcDbSymbolTable
70
0
0
ENDTAB
0
TABLE
2
APPID
5
9
100
AcDbSymbolTable
70
2
0
APPID
5
12
100
AcDbSymbolTableRecord
100
AcDbRegAppTableRecord
2
ACAD
70
0
0
ENDTAB
0
TABLE
2
DIMSTYLE
5
A
100
AcDbSymbolTable
70
1
0
ENDTAB
0
TABLE
2
BLOCK_RECORD
5
1
100
AcDbSymbolTable
70
1
0
BLOCK_RECORD
5
1F
100
AcDbSymbolTableRecord
100
AcDbBlockTableRecord
2
*MODEL_SPACE
0
BLOCK_RECORD
5
1B
100
AcDbSymbolTableRecord
100
AcDbBlockTableRecord
2
*PAPER_SPACE
0
ENDTAB
0
ENDSEC
0
SECTION
2
BLOCKS
0
BLOCK
5
20
100
AcDbEntity
100
AcDbBlockBegin
2
*MODEL_SPACE
0
ENDBLK
5
21
100
AcDbEntity
100
AcDbBlockEnd
0
BLOCK
5
1C
100
AcDbEntity
100
AcDbBlockBegin
2
*PAPER_SPACE
0
ENDBLK
5
1D
100
AcDbEntity
100
AcDbBlockEnd
0
ENDSEC
0
SECTION
2
ENTITIES
0
ARC
5
100
100
AcDbEntity
8
0
100
AcDbCircle
10
-32.384574890752504
20
31.800287004717717
30
0
40
4.0000000000000044
210
0
220
0
230
1
100
AcDbArc
50
-102.37791723660047
51
18.599999999999149
0
ARC
5
101
100
AcDbEntity
8
0
100
AcDbCircle
10
-52.148086869967621
20
31.860303902384747
30
0
40
5.000000000000032
210
-0
220
0
230
1
100
AcDbArc
50
-26.411386328455496
51
49.629854427683945
0
LINE
5
102
100
AcDbEntity
8
0
100
AcDbLine
10
-45.824192873724748
20
37.248146077029524
30
0
11
-42.980887643695965
21
38.205024004923665
31
0
0
ARC
5
103
100
AcDbEntity
8
0
100
AcDbCircle
10
-40.996476241800352
20
57.390034074976526
30
0
40
3.9999999999999067
210
0
220
-0
230
1
100
AcDbArc
50
18.599999999999508
51
198.60000000000045
0
LINE
5
104
100
AcDbEntity
8
0
100
AcDbLine
10
-22.004669970070143
20
51.120162103630598
30
0
11
-25.795743610108435
21
49.844324866438441
31
0
0
LWPOLYLINE
5
105
100
AcDbEntity
8
0
100
AcDbPolyline
90
4
70
1
43
0.0
10
-36.975760731900984
20
50.302273724311775
42
-0.99999999999999989
10
-39.91384280293066
20
49.313499865487827
10
-40.870720730824829
20
52.156805095516525
42
-0.99999999999999989
10
-37.932638659795117
20
53.145578954340557
0
LINE
5
106
100
AcDbEntity
8
0
100
AcDbLine
10
-30.915533855237634
20
32.294673934129719
30
0
11
-31.872411783131831
21
35.137979164158473
31
0
0
CIRCLE
5
107
100
AcDbEntity
8
0
100
AcDbCircle
10
-35.893127293031242
20
42.22573951482314
30
0
40
3.4999999999999964
210
-0
220
0
230
1
0
LINE
5
108
100
AcDbEntity
8
0
100
AcDbLine
10
-43.969661502519969
20
41.143106075953462
30
0
11
-46.812966732548716
21
40.186228148059229
31
0
0
ARC
5
109
100
AcDbEntity
8
0
100
AcDbCircle
10
-20.728832732877915
20
47.329088463592228
30
0
40
4.0000000000000249
210
-0
220
0
230
1
100
AcDbArc
50
-71.399999999999835
51
108.59999999999917
0
ARC
5
110
100
AcDbEntity
8
0
100
AcDbCircle
10
-25.467674782925798
20
45.734291917101899
30
0
40
1.5500000000000331
210
-0
220
0
230
1
100
AcDbArc
50
-71.400000000001555
51
108.60000000000026
0
ARC
5
111
100
AcDbEntity
8
0
100
AcDbCircle
10
-72.533536249075667
20
-47.675685314088867
30
0
40
2.5000000000000124
210
-0
220
0
230
1
100
AcDbArc
50
-25.000000000000227
51
20.00001031254212
0
LINE
5
112
100
AcDbEntity
8
0
100
AcDbLine
10
-35.929565364569804
20
54.874797672130541
30
0
11
-37.205402601762081
21
58.665871312168747
31
0
0
LINE
5
113
100
AcDbEntity
8
0
100
AcDbLine
10
-69.909094290512499
20
-15.134211576737826
30
0
11
-71.729062821422843
21
-18.805468659634336
31
0
0
ARC
5
114
100
AcDbEntity
8
0
100
AcDbCircle
10
-43.475274573107932
20
39.674065040438528
30
0
40
1.5499999999999894
210
-0
220
0
230
1
100
AcDbArc
50
-71.400000000001512
51
108.60000000000014
0
ARC
5
115
100
AcDbEntity
8
0
100
AcDbCircle
10
-55.000491275956946
20
-30.061737022927719
30
0
40
19.999999999999964
210
0
220
0
230
1
100
AcDbArc
50
155.65888580860747
51
200.00001031254237
0
LINE
5
116
100
AcDbEntity
8
0
100
AcDbLine
10
-69.822441919787224
20
-14.967368539894451
30
0
11
-69.909094290512499
21
-15.134211576737826
31
0
0
LINE
5
117
100
AcDbEntity
8
0
100
AcDbLine
10
-59.151491999694116
20
-44.971189289007796
30
0
11
-59.494692720476735
21
-44.811152164622527
31
0
0
LINE
5
118
100
AcDbEntity
8
0
100
AcDbLine
10
-38.7957792537091
20
25.225774200578719
30
0
11
-60.949587668271342
21
-19.575747469423639
31
0
0
LINE
5
119
100
AcDbEntity
8
0
100
AcDbLine
10
-60.091186594834113
20
-45.313210150939582
30
0
11
-59.151491999694116
21
-44.971189289007796
31
0
0
CIRCLE
5
120
100
AcDbEntity
8
0
100
AcDbCircle
10
-68.715194646151588
20
-24.053660830448045
30
0
40
1.549999999999998
210
-0
220
0
230
1
0
LINE
5
121
100
AcDbEntity
8
0
100
AcDbLine
10
-47.669969966551463
20
29.63623803120673
30
0
11
-69.822441919787224
21
-14.967368539894451
31
0
0
ARC
5
122
100
AcDbEntity
8
0
100
AcDbCircle
10
-35.066835067572271
20
-34.909025938332135
30
0
40
29.999999999999712
210
0
220
0
230
1
100
AcDbArc
50
153.63080163835792
51
154.78761945269554
0
LINE
5
123
100
AcDbEntity
8
0
100
AcDbLine
10
-64.789649768776201
20
-47.023310893050407
30
0
11
-69.488112942718317
21
-48.733411635161239
31
0
0
LINE
5
124
100
AcDbEntity
8
0
100
AcDbLine
10
-62.040490407450839
20
-21.790889384116568
30
0
11
-62.208885919403521
21
-22.129782003083477
31
0
0
LINE
5
125
100
AcDbEntity
8
0
100
AcDbLine
10
-28.639048840137367
20
48.887446938544173
30
0
11
-25.795743610108435
21
49.844324866438441
31
0
0
ARC
5
126
100
AcDbEntity
8
0
100
AcDbCircle
10
-44.129787616518627
20
-30.69070542350331
30
0
40
20.000000000000814
210
0
220
0
230
1
100
AcDbArc
50
153.5772497198694
51
199.99999999999895
0
ARC
5
127
100
AcDbEntity
8
0
100
AcDbCircle
10
-32.384574890752504
20
31.800287004717717
30
0
40
1.5499999999999379
210
0
220
0
230
1
100
AcDbArc
50
-161.39999999999958
51
18.599999999999625
0
LINE
5
128
100
AcDbEntity
8
0
100
AcDbLine
10
-28.593501250714155
20
33.076124241909937
30
0
11
-28.75298090536317
21
33.550008446914823
31
0
0
LINE
5
129
100
AcDbEntity
8
0
100
AcDbLine
10
-24.66572175073825
20
41.783738622414518
30
0
11
-19.452995495685617
21
43.538014823553866
31
0
0
ARC
5
130
100
AcDbEntity
8
0
100
AcDbCircle
10
-22.592486240300858
20
35.623243957352244
30
0
40
6.499999999999952
210
0
220
0
230
1
100
AcDbArc
50
108.59999999999957
51
198.59999999999965
0
LINE
5
131
100
AcDbEntity
8
0
100
AcDbLine
10
-71.729062821422843
20
-18.805468659634336
30
0
11
-73.209451774939254
21
-21.791722728719929
31
0
0
LINE
5
132
100
AcDbEntity
8
0
100
AcDbLine
10
-60.787378373117591
20
-43.400433728400344
30
0
11
-62.923640032237685
21
-37.531108290016618
31
0
0
ARC
5
133
100
AcDbEntity
8
0
100
AcDbCircle
10
-30.233845386627614
20
53.626288988592236
30
0
40
5.0000000000000977
210
0
220
0
230
1
100
AcDbArc
50
198.60000000000022
51
288.59999999999837
0
ARC
5
134
100
AcDbEntity
8
0
100
AcDbCircle
10
-58.43814706612519
20
-42.545382697031052
30
0
40
2.4999999999997811
210
0
220
0
230
1
100
AcDbArc
50
200.00001641525031
51
245.00000000000279
0
LINE
5
135
100
AcDbEntity
8
0
100
AcDbLine
10
-70.427803617155149
20
-49.075431070073783
30
0
11
-70.267766781484028
21
-48.732230968440632
31
0
0
LINE
5
136
100
AcDbEntity
8
0
100
AcDbLine
10
-25.962061712337796
20
47.203332952616705
30
0
11
-28.805366942366568
21
46.246455024722543
31
0
0
LINE
5
137
100
AcDbEntity
8
0
100
AcDbLine
10
-70.184304851009571
20
-46.820634532941654
30
0
11
-73.794342460485495
21
-36.902143272105448
31
0
0
ARC
5
138
100
AcDbEntity
8
0
100
AcDbCircle
10
-46.330931908215689
20
-35.116330406777337
30
0
40
29.999999999999996
210
0
220
0
230
1
100
AcDbArc
50
153.63080163835807
51
153.68759460656392
0
ARC
5
139
100
AcDbEntity
8
0
100
AcDbCircle
10
-34.313804857524772
20
23.009492288919372
30
0
40
5.0000000000000107
210
0
220
-0
230
1
100
AcDbArc
50
77.622082763399035
51
153.68816353129742
0
LINE
5
140
100
AcDbEntity
8
0
100
AcDbLine
10
-35.929565364569804
20
54.874797672130541
30
0
11
-34.972687436675628
21
52.031492442101836
31
0
0
ARC
5
141
100
AcDbEntity
8
0
100
AcDbCircle
10
-46.318579803136714
20
38.717187112544373
30
0
40
1.5499999999999994
210
0
220
0
230
1
100
AcDbArc
50
108.59999999999981
51
288.59999999999866
0
LINE
5
142
100
AcDbEntity
8
0
100
AcDbLine
10
-27.816593083542642
20
43.308372953692817
30
0
11
-24.973287853513817
21
44.265250881586994
31
0
0
ARC
5
143
100
AcDbEntity
8
0
100
AcDbCircle
10
-28.310980012954605
20
44.777413989207702
30
0
40
1.5499999999999683
210
0
220
0
230
1
100
AcDbArc
50
108.5999999999986
51
288.59999999999809
0
LINE
5
144
100
AcDbEntity
8
0
100
AcDbLine
10
-34.810493854161528
20
34.149205305334469
30
0
11
-33.853615926267295
21
31.305900075305718
31
0
0
ARC
5
145
100
AcDbEntity
8
0
100
AcDbCircle
10
-33.341452818646658
20
34.643592234746492
30
0
40
1.5499999999999656
210
0
220
-0
230
1
100
AcDbArc
50
18.599999999999387
51
198.60000000000036
0
ARC
5
146
100
AcDbEntity
8
0
100
AcDbCircle
10
-46.318579803136714
20
38.717187112544373
30
0
40
4.0000000000000249
210
0
220
0
230
1
100
AcDbArc
50
108.59999999999975
51
229.62985442768388
0
ARC
5
147
100
AcDbEntity
8
0
100
AcDbCircle
10
-49.193768345761697
20
48.828235072294042
30
0
40
6.5000000000000302
210
-0
220
0
230
1
100
AcDbArc
50
-71.400000000000091
51
18.599999999999607
0
LINE
5
148
100
AcDbEntity
8
0
100
AcDbLine
10
-44.787549881838629
20
56.114196837784235
30
0
11
-43.03327368069931
21
50.901470582731477
31
0
0
LINE
5
149
100
AcDbEntity
8
0
100
AcDbLine
10
-69.488112942718317
20
-48.733411635161239
30
0
11
-70.427803617155149
21
-49.075431070073783
31
0
0
LINE
5
150
100
AcDbEntity
8
0
100
AcDbLine
10
-60.949587668271342
20
-19.575747469423639
30
0
11
-61.945354934295544
21
-21.584418260274781
31
0
0
LINE
5
151
100
AcDbEntity
8
0
100
AcDbLine
10
-47.120532835324241
20
42.667740407231705
30
0
11
-47.594417040328985
21
42.508260752582743
31
0
0
LINE
5
152
100
AcDbEntity
8
0
100
AcDbLine
10
-64.789649768776201
20
-47.023310893050407
30
0
11
-60.091186594834113
21
-45.313210150939582
31
0
0
CIRCLE
5
153
100
AcDbEntity
8
0
100
AcDbCircle
10
-67.696820812682205
20
-39.035923441905148
30
0
40
1.5500000000000025
210
-0
220
0
230
1
0
LINE
5
154
100
AcDbEntity
8
0
100
AcDbLine
10
10.33427824926175
20
41.783738622414518
30
0
11
15.547004504314383
21
43.538014823553866
31
0
0
LINE
5
155
100
AcDbEntity
8
0
100
AcDbLine
10
9.0379382876622039
20
47.203332952616705
30
0
11
6.1946330576334319
21
46.246455024722543
31
0
0
ARC
5
156
100
AcDbEntity
8
0
100
AcDbCircle
10
4.7661546133723931
20
53.626288988592236
30
0
40
5.0000000000001066
210
0
220
0
230
1
100
AcDbArc
50
198.60000000000016
51
288.59999999999837
0
ARC
5
157
100
AcDbEntity
8
0
100
AcDbCircle
10
14.271167267122085
20
47.329088463592228
30
0
40
4.0000000000000249
210
-0
220
0
230
1
100
AcDbArc
50
-71.399999999999835
51
108.59999999999917
0
ARC
5
158
100
AcDbEntity
8
0
100
AcDbCircle
10
1.6585471813533381
20
34.643592234746492
30
0
40
1.5499999999999656
210
0
220
-0
230
1
100
AcDbArc
50
18.599999999999351
51
198.60000000000042
0
ARC
5
159
100
AcDbEntity
8
0
100
AcDbCircle
10
12.407513759699142
20
35.623243957352244
30
0
40
6.499999999999952
210
0
220
0
230
1
100
AcDbArc
50
108.59999999999957
51
198.59999999999965
0
ARC
5
160
100
AcDbEntity
8
0
100
AcDbCircle
10
9.5323252170742023
20
45.734291917101899
30
0
40
1.5500000000000331
210
-0
220
0
230
1
100
AcDbArc
50
-71.400000000001555
51
108.60000000000026
0
CIRCLE
5
161
100
AcDbEntity
8
0
100
AcDbCircle
10
-0.89312729303124172
20
42.22573951482314
30
0
40
3.4999999999999964
210
-0
220
0
230
1
0
LINE
5
162
100
AcDbEntity
8
0
100
AcDbLine
10
12.995330029929857
20
51.120162103630598
30
0
11
9.2042563898915652
21
49.844324866438441
31
0
0
LINE
5
163
100
AcDbEntity
8
0
100
AcDbLine
10
7.1834069164573577
20
43.308372953692817
30
0
11
10.026712146486183
21
44.265250881586994
31
0
0
LINE
5
164
100
AcDbEntity
8
0
100
AcDbLine
10
6.3609511598626334
20
48.887446938544173
30
0
11
9.2042563898915652
21
49.844324866438441
31
0
0
LINE
5
165
100
AcDbEntity
8
0
100
AcDbLine
10
-12.669969966551466
20
29.63623803120673
30
0
11
-34.822441919787224
21
-14.967368539894451
31
0
0
LINE
5
166
100
AcDbEntity
8
0
100
AcDbLine
10
4.0844661447623665
20
32.294673934129719
30
0
11
3.127588216868169
21
35.137979164158473
31
0
0
LINE
5
167
100
AcDbEntity
8
0
100
AcDbLine
10
-29.789649768776201
20
-47.023310893050407
30
0
11
-25.09118659483411
21
-45.313210150939582
31
0
0
CIRCLE
5
168
100
AcDbEntity
8
0
100
AcDbCircle
10
-33.715194646151581
20
-24.053660830448045
30
0
40
1.549999999999998
210
-0
220
0
230
1
0
LINE
5
169
100
AcDbEntity
8
0
100
AcDbLine
10
-10.824192873724741
20
37.248146077029524
30
0
11
-7.9808876436959686
21
38.205024004923665
31
0
0
LINE
5
170
100
AcDbEntity
8
0
100
AcDbLine
10
-0.92956536456981098
20
54.874797672130541
30
0
11
0.02731256332436871
21
52.031492442101836
31
0
0
LINE
5
171
100
AcDbEntity
8
0
100
AcDbLine
10
-12.120532835324234
20
42.667740407231705
30
0
11
-12.594417040328985
21
42.508260752582743
31
0
0
LINE
5
172
100
AcDbEntity
8
0
100
AcDbLine
10
-0.92956536456981098
20
54.874797672130541
30
0
11
-2.2054026017620743
21
58.665871312168747
31
0
0
ARC
5
173
100
AcDbEntity
8
0
100
AcDbCircle
10
-14.193768345761697
20
48.828235072294042
30
0
40
6.5000000000000338
210
-0
220
0
230
1
100
AcDbArc
50
-71.400000000000034
51
18.599999999999625
0
LINE
5
174
100
AcDbEntity
8
0
100
AcDbLine
10
-34.909094290512499
20
-15.134211576737826
30
0
11
-36.729062821422843
21
-18.805468659634336
31
0
0
CIRCLE
5
175
100
AcDbEntity
8
0
100
AcDbCircle
10
-32.696820812682205
20
-39.035923441905148
30
0
40
1.5500000000000025
210
-0
220
0
230
1
0
ARC
5
176
100
AcDbEntity
8
0
100
AcDbCircle
10
0.68619514247522773
20
23.009492288919372
30
0
40
5.0000000000000107
210
0
220
-0
230
1
100
AcDbArc
50
77.622082763399035
51
153.68816353129742
0
LINE
5
177
100
AcDbEntity
8
0
100
AcDbLine
10
-25.787378373117598
20
-43.400433728400344
30
0
11
-27.923640032237689
21
-37.531108290016618
31
0
0
LINE
5
178
100
AcDbEntity
8
0
100
AcDbLine
10
-36.729062821422843
20
-18.805468659634336
30
0
11
-38.209451774939254
21
-21.791722728719929
31
0
0
LINE
5
179
100
AcDbEntity
8
0
100
AcDbLine
10
0.1895061458384717
20
34.149205305334469
30
0
11
1.1463840737327047
21
31.305900075305718
31
0
0
ARC
5
180
100
AcDbEntity
8
0
100
AcDbCircle
10
-37.533536249075667
20
-47.675685314088867
30
0
40
2.5000000000000124
210
-0
220
0
230
1
100
AcDbArc
50
-25.000000000000227
51
20.00001031254212
0
LINE
5
181
100
AcDbEntity
8
0
100
AcDbLine
10
-25.949587668271334
20
-19.575747469423639
30
0
11
-26.945354934295551
21
-21.584418260274781
31
0
0
ARC
5
182
100
AcDbEntity
8
0
100
AcDbCircle
10
-23.438147066125197
20
-42.545382697031052
30
0
40
2.4999999999997811
210
0
220
0
230
1
100
AcDbArc
50
200.00001641525031
51
245.0000000000029
0
LWPOLYLINE
5
183
100
AcDbEntity
8
0
100
AcDbPolyline
90
4
70
1
43
0.0
10
-2.9326386597951526
20
53.145578954340557
10
-1.9757607319009907
20
50.302273724311775
42
-0.99999999999999989
10
-4.9138428029306525
20
49.313499865487827
10
-5.8707207308248499
20
52.156805095516525
42
-0.99999999999999989
0
ARC
5
184
100
AcDbEntity
8
0
100
AcDbCircle
10
-5.9964762418003481
20
57.390034074976526
30
0
40
3.9999999999999152
210
0
220
-0
230
1
100
AcDbArc
50
18.599999999999508
51
198.60000000000045
0
LINE
5
185
100
AcDbEntity
8
0
100
AcDbLine
10
-27.040490407450832
20
-21.790889384116568
30
0
11
-27.208885919403514
21
-22.129782003083477
31
0
0
ARC
5
186
100
AcDbEntity
8
0
100
AcDbCircle
10
-11.318579803136721
20
38.717187112544373
30
0
40
4.0000000000000222
210
0
220
0
230
1
100
AcDbArc
50
108.59999999999967
51
229.62985442768394
0
ARC
5
187
100
AcDbEntity
8
0
100
AcDbCircle
10
-17.148086869967614
20
31.860303902384747
30
0
40
5.0000000000000231
210
-0
220
0
230
1
100
AcDbArc
50
-26.411386328455546
51
49.629854427684045
0
LINE
5
188
100
AcDbEntity
8
0
100
AcDbLine
10
-24.151491999694112
20
-44.971189289007796
30
0
11
-24.494692720476738
21
-44.811152164622527
31
0
0
LINE
5
189
100
AcDbEntity
8
0
100
AcDbLine
10
-34.822441919787224
20
-14.967368539894451
30
0
11
-34.909094290512499
21
-15.134211576737826
31
0
0
LINE
5
190
100
AcDbEntity
8
0
100
AcDbLine
10
-35.184304851009571
20
-46.820634532941654
30
0
11
-38.794342460485495
21
-36.902143272105448
31
0
0
ARC
5
191
100
AcDbEntity
8
0
100
AcDbCircle
10
-11.318579803136721
20
38.717187112544373
30
0
40
1.5499999999999967
210
0
220
0
230
1
100
AcDbArc
50
108.59999999999968
51
288.59999999999917
0
ARC
5
192
100
AcDbEntity
8
0
100
AcDbCircle
10
2.6154251092475
20
31.800287004717717
30
0
40
4.0000000000000044
210
0
220
0
230
1
100
AcDbArc
50
-102.37791723660052
51
18.599999999999188
0
ARC
5
193
100
AcDbEntity
8
0
100
AcDbCircle
10
6.6890199870453948
20
44.777413989207702
30
0
40
1.5499999999999683
210
0
220
0
230
1
100
AcDbArc
50
108.5999999999986
51
288.59999999999809
0
ARC
5
194
100
AcDbEntity
8
0
100
AcDbCircle
10
2.6154251092475
20
31.800287004717717
30
0
40
1.5499999999999379
210
0
220
0
230
1
100
AcDbArc
50
-161.39999999999964
51
18.599999999999685
0
LINE
5
195
100
AcDbEntity
8
0
100
AcDbLine
10
6.406498749285845
20
33.076124241909937
30
0
11
6.2470190946368298
21
33.550008446914823
31
0
0
LINE
5
196
100
AcDbEntity
8
0
100
AcDbLine
10
-34.48811294271831
20
-48.733411635161239
30
0
11
-35.427803617155149
21
-49.075431070073783
31
0
0
ARC
5
197
100
AcDbEntity
8
0
100
AcDbCircle
10
-20.000491275956946
20
-30.061737022927719
30
0
40
19.999999999999964
210
0
220
0
230
1
100
AcDbArc
50
155.65888580860747
51
200.00001031254237
0
ARC
5
198
100
AcDbEntity
8
0
100
AcDbCircle
10
-9.1297876165186231
20
-30.69070542350331
30
0
40
20.00000000000081
210
0
220
0
230
1
100
AcDbArc
50
153.57724971986937
51
199.99999999999892
0
LINE
5
199
100
AcDbEntity
8
0
100
AcDbLine
10
-35.427803617155149
20
-49.075431070073783
30
0
11
-35.267766781484028
21
-48.732230968440632
31
0
0
ARC
5
200
100
AcDbEntity
8
0
100
AcDbCircle
10
-11.330931908215689
20
-35.116330406777337
30
0
40
29.999999999999996
210
0
220
0
230
1
100
AcDbArc
50
153.63080163835807
51
153.68759460656392
0
ARC
5
201
100
AcDbEntity
8
0
100
AcDbCircle
10
-0.066835067572270646
20
-34.909025938332135
30
0
40
29.999999999999719
210
0
220
0
230
1
100
AcDbArc
50
153.63080163835792
51
154.78761945269554
0
LINE
5
202
100
AcDbEntity
8
0
100
AcDbLine
10
-25.09118659483411
20
-45.313210150939582
30
0
11
-24.151491999694112
21
-44.971189289007796
31
0
0
ARC
5
203
100
AcDbEntity
8
0
100
AcDbCircle
10
-8.4752745731079315
20
39.674065040438528
30
0
40
1.5499999999999894
210
-0
220
0
230
1
100
AcDbArc
50
-71.400000000001654
51
108.60000000000001
0
LINE
5
204
100
AcDbEntity
8
0
100
AcDbLine
10
-8.9696615025199655
20
41.143106075953462
30
0
11
-11.81296673254872
21
40.186228148059229
31
0
0
LINE
5
205
100
AcDbEntity
8
0
100
AcDbLine
10
-29.789649768776201
20
-47.023310893050407
30
0
11
-34.48811294271831
21
-48.733411635161239
31
0
0
LINE
5
206
100
AcDbEntity
8
0
100
AcDbLine
10
-9.787549881838622
20
56.114196837784235
30
0
11
-8.0332736806993132
21
50.901470582731477
31
0
0
LINE
5
207
100
AcDbEntity
8
0
100
AcDbLine
10
-3.7957792537090995
20
25.225774200578719
30
0
11
-25.949587668271334
21
-19.575747469423639
31
0
0
LINE
5
208
100
AcDbEntity
8
0
100
AcDbLine
10
47.99533002992986
20
51.120162103630598
30
0
11
44.204256389891569
21
49.844324866438441
31
0
0
LINE
5
209
100
AcDbEntity
8
0
100
AcDbLine
10
57.879467164675766
20
42.667740407231705
30
0
11
57.405582959671015
21
42.508260752582743
31
0
0
LWPOLYLINE
5
210
100
AcDbEntity
8
0
100
AcDbPolyline
90
4
70
1
43
0.0
10
33.024239268099009
20
50.302273724311775
42
-0.99999999999999989
10
30.086157197069348
20
49.313499865487827
10
29.12927926917515
20
52.156805095516525
42
-0.99999999999999989
10
32.067361340204847
20
53.145578954340557
0
LINE
5
211
100
AcDbEntity
8
0
100
AcDbLine
10
5.2103502312237993
20
-47.023310893050407
30
0
11
9.9088134051658905
21
-45.313210150939582
31
0
0
LINE
5
212
100
AcDbEntity
8
0
100
AcDbLine
10
-1.7290628214228398
20
-18.805468659634336
30
0
11
-3.2094517749392537
21
-21.791722728719929
31
0
0
ARC
5
213
100
AcDbEntity
8
0
100
AcDbCircle
10
23.669068091784311
20
-35.116330406777337
30
0
40
29.999999999999996
210
0
220
0
230
1
100
AcDbArc
50
153.63080163835807
51
153.68759460656395
0
LINE
5
214
100
AcDbEntity
8
0
100
AcDbLine
10
44.050412331728666
20
-19.575747469423639
30
0
11
43.054645065704449
21
-21.584418260274781
31
0
0
LINE
5
215
100
AcDbEntity
8
0
100
AcDbLine
10
7.9595095925491677
20
-21.790889384116568
30
0
11
7.7911140805964862
21
-22.129782003083477
31
0
0
ARC
5
216
100
AcDbEntity
8
0
100
AcDbCircle
10
23.681420196863279
20
38.717187112544373
30
0
40
4.0000000000000222
210
0
220
0
230
1
100
AcDbArc
50
108.59999999999967
51
229.62985442768394
0
LINE
5
217
100
AcDbEntity
8
0
100
AcDbLine
10
33.270937178577157
20
-18.805468659634336
30
0
11
31.790548225060746
21
-21.791722728719929
31
0
0
ARC
5
218
100
AcDbEntity
8
0
100
AcDbCircle
10
23.681420196863279
20
38.717187112544373
30
0
40
1.5499999999999967
210
0
220
0
230
1
100
AcDbArc
50
108.59999999999968
51
288.59999999999917
0
LINE
5
219
100
AcDbEntity
8
0
100
AcDbLine
10
0.51188705728169026
20
-48.733411635161239
30
0
11
-0.42780361715514914
21
-49.075431070073783
31
0
0
LINE
5
220
100
AcDbEntity
8
0
100
AcDbLine
10
44.212621626882402
20
-43.400433728400344
30
0
11
42.076359967762315
21
-37.531108290016618
31
0
0
ARC
5
221
100
AcDbEntity
8
0
100
AcDbCircle
10
20.806231654238303
20
48.828235072294042
30
0
40
6.5000000000000338
210
-0
220
0
230
1
100
AcDbArc
50
-71.400000000000034
51
18.599999999999625
0
CIRCLE
5
222
100
AcDbEntity
8
0
100
AcDbCircle
10
1.2848053538484194
20
-24.053660830448045
30
0
40
1.549999999999998
210
-0
220
0
230
1
0
ARC
5
223
100
AcDbEntity
8
0
100
AcDbCircle
10
49.999508724043054
20
-30.061737022927719
30
0
40
19.999999999999972
210
0
220
0
230
1
100
AcDbArc
50
155.65888580860749
51
200.00001031254237
0
LINE
5
224
100
AcDbEntity
8
0
100
AcDbLine
10
34.572196382844851
20
-49.075431070073783
30
0
11
34.732233218515972
21
-48.732230968440632
31
0
0
LINE
5
225
100
AcDbEntity
8
0
100
AcDbLine
10
-0.18430485100957128
20
-46.820634532941654
30
0
11
-3.7943424604855025
21
-36.902143272105448
31
0
0
ARC
5
226
100
AcDbEntity
8
0
100
AcDbCircle
10
11.561852933874803
20
-42.545382697031052
30
0
40
2.4999999999997811
210
0
220
0
230
1
100
AcDbArc
50
200.00001641525031
51
245.0000000000029
0
ARC
5
227
100
AcDbEntity
8
0
100
AcDbCircle
10
26.524725426892068
20
39.674065040438528
30
0
40
1.5499999999999894
210
-0
220
0
230
1
100
AcDbArc
50
-71.400000000001654
51
108.60000000000001
0
ARC
5
228
100
AcDbEntity
8
0
100
AcDbCircle
10
17.851913130032386
20
31.860303902384747
30
0
40
5.0000000000000231
210
-0
220
0
230
1
100
AcDbArc
50
-26.411386328455546
51
49.629854427684045
0
LINE
5
229
100
AcDbEntity
8
0
100
AcDbLine
10
-0.42780361715514914
20
-49.075431070073783
30
0
11
-0.26776678148403121
21
-48.732230968440632
31
0
0
ARC
5
230
100
AcDbEntity
8
0
100
AcDbCircle
10
52.851913130032386
20
31.860303902384747
30
0
40
5.00000000000004
210
-0
220
0
230
1
100
AcDbArc
50
-26.411386328455446
51
49.629854427683881
0
ARC
5
231
100
AcDbEntity
8
0
100
AcDbCircle
10
49.271167267122081
20
47.329088463592228
30
0
40
4.0000000000000311
210
-0
220
0
230
1
100
AcDbArc
50
-71.399999999999523
51
108.59999999999907
0
ARC
5
232
100
AcDbEntity
8
0
100
AcDbCircle
10
35.686195142475228
20
23.009492288919372
30
0
40
5.0000000000000107
210
0
220
-0
230
1
100
AcDbArc
50
77.622082763399035
51
153.68816353129742
0
LINE
5
233
100
AcDbEntity
8
0
100
AcDbLine
10
22.879467164675766
20
42.667740407231705
30
0
11
22.405582959671015
21
42.508260752582743
31
0
0
ARC
5
234
100
AcDbEntity
8
0
100
AcDbCircle
10
14.999508724043054
20
-30.061737022927719
30
0
40
19.999999999999972
210
0
220
0
230
1
100
AcDbArc
50
155.65888580860749
51
200.00001031254237
0
ARC
5
235
100
AcDbEntity
8
0
100
AcDbCircle
10
-2.533536249075663
20
-47.675685314088867
30
0
40
2.5000000000000124
210
-0
220
0
230
1
100
AcDbArc
50
-25.000000000000277
51
20.000010312542141
0
LINE
5
236
100
AcDbEntity
8
0
100
AcDbLine
10
35.090905709487501
20
-15.134211576737826
30
0
11
33.270937178577157
21
-18.805468659634336
31
0
0
ARC
5
237
100
AcDbEntity
8
0
100
AcDbCircle
10
69.933164932427729
20
-34.909025938332135
30
0
40
29.999999999999719
210
0
220
0
230
1
100
AcDbArc
50
153.63080163835792
51
154.78761945269554
0
ARC
5
238
100
AcDbEntity
8
0
100
AcDbCircle
10
44.532325217074202
20
45.734291917101899
30
0
40
1.5500000000000331
210
-0
220
0
230
1
100
AcDbArc
50
-71.400000000001555
51
108.60000000000039
0
ARC
5
239
100
AcDbEntity
8
0
100
AcDbCircle
10
58.681420196863279
20
38.717187112544373
30
0
40
4.0000000000000222
210
0
220
0
230
1
100
AcDbArc
50
108.59999999999967
51
229.62985442768414
0
LINE
5
240
100
AcDbEntity
8
0
100
AcDbLine
10
9.9088134051658905
20
-45.313210150939582
30
0
11
10.848508000305888
21
-44.971189289007796
31
0
0
LINE
5
241
100
AcDbEntity
8
0
100
AcDbLine
10
34.070434635430189
20
54.874797672130541
30
0
11
32.794597398237926
21
58.665871312168747
31
0
0
LINE
5
242
100
AcDbEntity
8
0
100
AcDbLine
10
9.0504123317286655
20
-19.575747469423639
30
0
11
8.0546450657044488
21
-21.584418260274781
31
0
0
LINE
5
243
100
AcDbEntity
8
0
100
AcDbLine
10
0.1775580802127763
20
-14.967368539894451
30
0
11
0.090905709487500985
21
-15.134211576737826
31
0
0
LINE
5
244
100
AcDbEntity
8
0
100
AcDbLine
10
34.815695148990429
20
-46.820634532941654
30
0
11
31.205657539514498
21
-36.902143272105448
31
0
0
LINE
5
245
100
AcDbEntity
8
0
100
AcDbLine
10
35.177558080212776
20
-14.967368539894451
30
0
11
35.090905709487501
21
-15.134211576737826
31
0
0
LINE
5
246
100
AcDbEntity
8
0
100
AcDbLine
10
35.51188705728169
20
-48.733411635161239
30
0
11
34.572196382844851
21
-49.075431070073783
31
0
0
LINE
5
247
100
AcDbEntity
8
0
100
AcDbLine
10
42.183406916457358
20
43.308372953692817
30
0
11
45.026712146486183
21
44.265250881586994
31
0
0
CIRCLE
5
248
100
AcDbEntity
8
0
100
AcDbCircle
10
2.3031791873177987
20
-39.035923441905148
30
0
40
1.5500000000000025
210
-0
220
0
230
1
0
ARC
5
249
100
AcDbEntity
8
0
100
AcDbCircle
10
32.466463750924333
20
-47.675685314088867
30
0
40
2.5000000000000124
210
-0
220
0
230
1
100
AcDbArc
50
-25.000000000000227
51
20.00001031254212
0
ARC
5
250
100
AcDbEntity
8
0
100
AcDbCircle
10
58.669068091784311
20
-35.116330406777337
30
0
40
29.999999999999996
210
0
220
0
230
1
100
AcDbArc
50
153.63080163835807
51
153.68759460656395
0
ARC
5
251
100
AcDbEntity
8
0
100
AcDbCircle
10
29.003523758199652
20
57.390034074976526
30
0
40
3.9999999999999152
210
0
220
-0
230
1
100
AcDbArc
50
18.599999999999508
51
198.60000000000045
0
LINE
5
252
100
AcDbEntity
8
0
100
AcDbLine
10
9.2126216268824024
20
-43.400433728400344
30
0
11
7.0763599677623112
21
-37.531108290016618
31
0
0
LINE
5
253
100
AcDbEntity
8
0
100
AcDbLine
10
0.090905709487500985
20
-15.134211576737826
30
0
11
-1.7290628214228398
21
-18.805468659634336
31
0
0
ARC
5
254
100
AcDbEntity
8
0
100
AcDbCircle
10
82.407513759699142
20
35.623243957352244
30
0
40
6.499999999999952
210
0
220
0
230
1
100
AcDbArc
50
108.59999999999953
51
198.5999999999996
0
LINE
5
255
100
AcDbEntity
8
0
100
AcDbLine
10
69.070434635430189
20
54.874797672130541
30
0
11
67.794597398237926
21
58.665871312168747
31
0
0
CIRCLE
5
256
100
AcDbEntity
8
0
100
AcDbCircle
10
37.303179187317795
20
-39.035923441905148
30
0
40
1.5500000000000025
210
-0
220
0
230
1
0
LINE
5
257
100
AcDbEntity
8
0
100
AcDbLine
10
39.084466144762366
20
32.294673934129719
30
0
11
38.127588216868169
21
35.137979164158473
31
0
0
LINE
5
258
100
AcDbEntity
8
0
100
AcDbLine
10
66.2042207462909
20
25.225774200578719
30
0
11
44.050412331728666
21
-19.575747469423639
31
0
0
ARC
5
259
100
AcDbEntity
8
0
100
AcDbCircle
10
46.561852933874803
20
-42.545382697031052
30
0
40
2.4999999999997811
210
0
220
0
230
1
100
AcDbArc
50
200.00001641525031
51
245.00000000000293
0
LINE
5
260
100
AcDbEntity
8
0
100
AcDbLine
10
68.02423926809908
20
50.302273724311817
30
0
11
67.067361340204883
21
53.145578954340557
31
0
0
LINE
5
261
100
AcDbEntity
8
0
100
AcDbLine
10
60.212450118161378
20
56.114196837784235
30
0
11
61.966726319300705
21
50.901470582731477
31
0
0
ARC
5
262
100
AcDbEntity
8
0
100
AcDbCircle
10
36.658547181353342
20
34.643592234746492
30
0
40
1.5499999999999656
210
0
220
-0
230
1
100
AcDbArc
50
18.599999999999387
51
198.60000000000036
0
LINE
5
263
100
AcDbEntity
8
0
100
AcDbLine
10
44.908813405165887
20
-45.313210150939582
30
0
11
45.848508000305884
21
-44.971189289007796
31
0
0
LINE
5
264
100
AcDbEntity
8
0
100
AcDbLine
10
41.360951159862637
20
48.887446938544173
30
0
11
44.204256389891569
21
49.844324866438441
31
0
0
ARC
5
265
100
AcDbEntity
8
0
100
AcDbCircle
10
55.806231654238303
20
48.828235072294042
30
0
40
6.5000000000000338
210
-0
220
0
230
1
100
AcDbArc
50
-71.400000000000034
51
18.599999999999564
0
ARC
5
266
100
AcDbEntity
8
0
100
AcDbCircle
10
84.271167267122067
20
47.329088463592228
30
0
40
4.0000000000000364
210
-0
220
0
230
1
100
AcDbArc
50
-71.399999999999324
51
108.59999999999869
0
LINE
5
267
100
AcDbEntity
8
0
100
AcDbLine
10
40.210350231223799
20
-47.023310893050407
30
0
11
35.51188705728169
21
-48.733411635161239
31
0
0
LINE
5
268
100
AcDbEntity
8
0
100
AcDbLine
10
57.330030033448551
20
29.63623803120673
30
0
11
35.177558080212776
21
-14.967368539894451
31
0
0
LINE
5
269
100
AcDbEntity
8
0
100
AcDbLine
10
40.210350231223799
20
-47.023310893050407
30
0
11
44.908813405165887
21
-45.313210150939582
31
0
0
LINE
5
270
100
AcDbEntity
8
0
100
AcDbLine
10
42.959509592549168
20
-21.790889384116568
30
0
11
42.791114080596486
21
-22.129782003083477
31
0
0
ARC
5
271
100
AcDbEntity
8
0
100
AcDbCircle
10
60.870212383481359
20
-30.69070542350331
30
0
40
20.000000000000789
210
0
220
0
230
1
100
AcDbArc
50
153.57724971986937
51
199.99999999999895
0
ARC
5
272
100
AcDbEntity
8
0
100
AcDbCircle
10
47.407513759699142
20
35.623243957352244
30
0
40
6.499999999999952
210
0
220
0
230
1
100
AcDbArc
50
108.59999999999957
51
198.59999999999965
0
LINE
5
273
100
AcDbEntity
8
0
100
AcDbLine
10
45.848508000305884
20
-44.971189289007796
30
0
11
45.505307279523265
21
-44.811152164622527
31
0
0
ARC
5
274
100
AcDbEntity
8
0
100
AcDbCircle
10
37.615425109247496
20
31.800287004717717
30
0
40
1.5499999999999379
210
0
220
0
230
1
100
AcDbArc
50
-161.39999999999958
51
18.599999999999625
0
LINE
5
275
100
AcDbEntity
8
0
100
AcDbLine
10
35.189506145838472
20
34.149205305334469
30
0
11
36.146384073732705
21
31.305900075305718
31
0
0
ARC
5
276
100
AcDbEntity
8
0
100
AcDbCircle
10
25.870212383481377
20
-30.69070542350331
30
0
40
20.00000000000081
210
0
220
0
230
1
100
AcDbArc
50
153.57724971986937
51
199.99999999999892
0
ARC
5
277
100
AcDbEntity
8
0
100
AcDbCircle
10
34.933164932427729
20
-34.909025938332135
30
0
40
29.999999999999719
210
0
220
0
230
1
100
AcDbArc
50
153.63080163835792
51
154.78761945269554
0
LINE
5
278
100
AcDbEntity
8
0
100
AcDbLine
10
24.175807126275259
20
37.248146077029524
30
0
11
27.019112356304031
21
38.205024004923665
31
0
0
CIRCLE
5
279
100
AcDbEntity
8
0
100
AcDbCircle
10
36.284805353848419
20
-24.053660830448045
30
0
40
1.549999999999998
210
-0
220
0
230
1
0
ARC
5
280
100
AcDbEntity
8
0
100
AcDbCircle
10
58.681420196863279
20
38.717187112544373
30
0
40
1.5499999999999909
210
0
220
0
230
1
100
AcDbArc
50
108.59999999999907
51
288.59999999999917
0
ARC
5
281
100
AcDbEntity
8
0
100
AcDbCircle
10
41.689019987045398
20
44.777413989207702
30
0
40
1.5499999999999683
210
0
220
0
230
1
100
AcDbArc
50
108.59999999999873
51
288.59999999999798
0
LINE
5
282
100
AcDbEntity
8
0
100
AcDbLine
10
10.848508000305888
20
-44.971189289007796
30
0
11
10.505307279523262
21
-44.811152164622527
31
0
0
LINE
5
283
100
AcDbEntity
8
0
100
AcDbLine
10
25.212450118161378
20
56.114196837784235
30
0
11
26.966726319300687
21
50.901470582731477
31
0
0
ARC
5
284
100
AcDbEntity
8
0
100
AcDbCircle
10
79.532325217074202
20
45.734291917101899
30
0
40
1.5500000000000331
210
-0
220
0
230
1
100
AcDbArc
50
-71.400000000001768
51
108.60000000000089
0
ARC
5
285
100
AcDbEntity
8
0
100
AcDbCircle
10
37.615425109247496
20
31.800287004717717
30
0
40
4.0000000000000044
210
0
220
0
230
1
100
AcDbArc
50
-102.37791723660047
51
18.599999999999149
0
LINE
5
286
100
AcDbEntity
8
0
100
AcDbLine
10
41.406498749285845
20
33.076124241909937
30
0
11
41.247019094636826
21
33.550008446914823
31
0
0
ARC
5
287
100
AcDbEntity
8
0
100
AcDbCircle
10
39.766154613372393
20
53.626288988592236
30
0
40
5.0000000000001066
210
0
220
0
230
1
100
AcDbArc
50
198.60000000000022
51
288.59999999999837
0
LINE
5
288
100
AcDbEntity
8
0
100
AcDbLine
10
5.2103502312237993
20
-47.023310893050407
30
0
11
0.51188705728169026
21
-48.733411635161239
31
0
0
LINE
5
289
100
AcDbEntity
8
0
100
AcDbLine
10
31.2042207462909
20
25.225774200578719
30
0
11
9.0504123317286655
21
-19.575747469423639
31
0
0
LINE
5
290
100
AcDbEntity
8
0
100
AcDbLine
10
44.0379382876622
20
47.203332952616705
30
0
11
41.194633057633432
21
46.246455024722543
31
0
0
LINE
5
291
100
AcDbEntity
8
0
100
AcDbLine
10
34.070434635430189
20
54.874797672130541
30
0
11
35.027312563324372
21
52.031492442101836
31
0
0
LINE
5
292
100
AcDbEntity
8
0
100
AcDbLine
10
82.995330029929875
20
51.120162103630598
30
0
11
79.204256389891583
21
49.844324866438441
31
0
0
ARC
5
293
100
AcDbEntity
8
0
100
AcDbCircle
10
64.003523758199634
20
57.390034074976526
30
0
40
3.9999999999999321
210
0
220
-0
230
1
100
AcDbArc
50
18.599999999999429
51
198.60000000000053
0
LINE
5
294
100
AcDbEntity
8
0
100
AcDbLine
10
26.030338497480034
20
41.143106075953462
30
0
11
23.18703326745128
21
40.186228148059229
31
0
0
LINE
5
295
100
AcDbEntity
8
0
100
AcDbLine
10
45.33427824926175
20
41.783738622414518
30
0
11
50.547004504314401
21
43.538014823553866
31
0
0
LINE
5
296
100
AcDbEntity
8
0
100
AcDbLine
10
22.330030033448534
20
29.63623803120673
30
0
11
0.1775580802127763
21
-14.967368539894451
31
0
0
CIRCLE
5
297
100
AcDbEntity
8
0
100
AcDbCircle
10
69.106872706968758
20
42.22573951482314
30
0
40
3.4999999999999964
210
-0
220
0
230
1
0
LINE
5
298
100
AcDbEntity
8
0
100
AcDbLine
10
79.037938287662186
20
47.203332952616705
30
0
11
76.194633057633439
21
46.246455024722543
31
0
0
ARC
5
299
100
AcDbEntity
8
0
100
AcDbCircle
10
65.598320304690034
20
52.651192024928541
30
0
40
1.5499999999999938
210
0
220
-0
230
1
100
AcDbArc
50
18.600000000000385
51
198.60000000000011
0
ARC
5
300
100
AcDbEntity
8
0
100
AcDbCircle
10
61.524725426892068
20
39.674065040438528
30
0
40
1.5499999999999949
210
-0
220
0
230
1
100
AcDbArc
50
-71.400000000001057
51
108.60000000000062
0
ARC
5
301
100
AcDbEntity
8
0
100
AcDbCircle
10
70.686195142475228
20
23.009492288919372
30
0
40
5.0000000000000107
210
0
220
-0
230
1
100
AcDbArc
50
77.622082763399106
51
153.68816353129742
0
ARC
5
302
100
AcDbEntity
8
0
100
AcDbCircle
10
71.658547181353356
20
34.643592234746492
30
0
40
1.549999999999949
210
0
220
-0
230
1
100
AcDbArc
50
18.59999999999965
51
198.60000000000011
0
ARC
5
303
100
AcDbEntity
8
0
100
AcDbCircle
10
72.615425109247482
20
31.800287004717717
30
0
40
4.0000000000000009
210
0
220
0
230
1
100
AcDbArc
50
-102.37791723660038
51
18.599999999999106
0
LINE
5
304
100
AcDbEntity
8
0
100
AcDbLine
10
61.030338497480017
20
41.143106075953462
30
0
11
58.187033267451298
21
40.186228148059229
31
0
0
LINE
5
305
100
AcDbEntity
8
0
100
AcDbLine
10
70.189506145838465
20
34.149205305334469
30
0
11
71.146384073732705
21
31.305900075305718
31
0
0
LINE
5
306
100
AcDbEntity
8
0
100
AcDbLine
10
80.334278249261757
20
41.783738622414518
30
0
11
85.547004504314401
21
43.538014823553866
31
0
0
ARC
5
307
100
AcDbEntity
8
0
100
AcDbCircle
10
74.766154613372393
20
53.626288988592236
30
0
40
5.0000000000000897
210
0
220
0
230
1
100
AcDbArc
50
198.60000000000028
51
288.59999999999854
0
LINE
5
308
100
AcDbEntity
8
0
100
AcDbLine
10
59.175807126275259
20
37.248146077029524
30
0
11
62.019112356304049
21
38.205024004923665
31
0
0
ARC
5
309
100
AcDbEntity
8
0
100
AcDbCircle
10
66.555198232584161
20
49.807886794899801
30
0
40
1.5499999999999459
210
0
220
0
230
1
100
AcDbArc
50
-161.4000000000006
51
18.599999999999547
0
LINE
5
310
100
AcDbEntity
8
0
100
AcDbLine
10
69.070434635430189
20
54.874797672130541
30
0
11
70.027312563324386
21
52.031492442101836
31
0
0
LINE
5
311
100
AcDbEntity
8
0
100
AcDbLine
10
64.129279269175186
20
52.156805095516532
30
0
11
65.086157197069355
21
49.313499865487827
31
0
0
CIRCLE
5
312
100
AcDbEntity
8
0
100
AcDbCircle
10
34.106872706968758
20
42.22573951482314
30
0
40
3.4999999999999964
210
-0
220
0
230
1
0
LINE
5
313
100
AcDbEntity
8
0
100
AcDbLine
10
77.183406916457358
20
43.308372953692817
30
0
11
80.026712146486176
21
44.265250881586994
31
0
0
LINE
5
314
100
AcDbEntity
8
0
100
AcDbLine
10
74.084466144762359
20
32.294673934129719
30
0
11
73.127588216868162
21
35.137979164158473
31
0
0
LINE
5
315
100
AcDbEntity
8
0
100
AcDbLine
10
76.406498749285845
20
33.076124241909937
30
0
11
76.247019094636812
21
33.550008446914823
31
0
0
ARC
5
316
100
AcDbEntity
8
0
100
AcDbCircle
10
72.615425109247482
20
31.800287004717717
30
0
40
1.5499999999999208
210
0
220
0
230
1
100
AcDbArc
50
-161.39999999999941
51
18.599999999999547
0
ARC
5
317
100
AcDbEntity
8
0
100
AcDbCircle
10
76.689019987045413
20
44.777413989207702
30
0
40
1.5499999999999741
210
0
220
0
230
1
100
AcDbArc
50
108.59999999999897
51
288.59999999999746
0
LINE
5
318
100
AcDbEntity
8
0
100
AcDbLine
10
76.360951159862651
20
48.887446938544173
30
0
11
79.204256389891583
21
49.844324866438441
31
0
0
ENDSEC
0
SECTION
2
OBJECTS
0
DICTIONARY
5
C
100
AcDbDictionary
3
ACAD_GROUP
350
D
3
ACAD_MLINESTYLE
350
17
0
DICTIONARY
5
D
100
AcDbDictionary
0
DICTIONARY
5
1A
330
C
100
AcDbDictionary
0
DICTIONARY
5
17
100
AcDbDictionary
0
ENDSEC
0
EOF
