0
SECTION
2
HEADER
9
$INSUNITS
70
4
9
$ACADVER
1
AC1014
9
$HANDSEED
5
FFFF
0
ENDSEC
0
SECTION
2
TABLES
0
TABLE
2
VPORT
5
8
100
AcDbSymbolTable
0
ENDTAB
0
TABLE
2
LTYPE
5
5
100
AcDbSymbolTable
0
LTYPE
5
14
100
AcDbSymbolTableRecord
100
AcDbLinetypeTableRecord
2
BYBLOCK
70
0
0
LTYPE
5
15
100
AcDbSymbolTableRecord
100
AcDbLinetypeTableRecord
2
BYLAYER
70
0
0
ENDTAB
0
TABLE
2
LAYER
5
2
100
AcDbSymbolTable
70
2
0
LAYER
5
50
100
AcDbSymbolTableRecord
100
AcDbLayerTableRecord
2
0
70
0
6
CONTINUOUS
0
ENDTAB
0
TABLE
2
STYLE
5
3
100
AcDbSymbolTable
70
1
0
STYLE
5
11
100
AcDbSymbolTableRecord
100
AcDbTextStyleTableRecord
2
STANDARD
70
0
0
ENDTAB
0
TABLE
2
VIEW
5
6
100
AcDbSymbolTable
70
0
0
ENDTAB
0
TABLE
2
UCS
5
7
100
AcDbSymbolTable
70
0
0
ENDTAB
0
TABLE
2
APPID
5
9
100
AcDbSymbolTable
70
2
0
APPID
5
12
100
AcDbSymbolTableRecord
100
AcDbRegAppTableRecord
2
ACAD
70
0
0
ENDTAB
0
TABLE
2
DIMSTYLE
5
A
100
AcDbSymbolTable
70
1
0
ENDTAB
0
TABLE
2
BLOCK_RECORD
5
1
100
AcDbSymbolTable
70
1
0
BLOCK_RECORD
5
1F
100
AcDbSymbolTableRecord
100
AcDbBlockTableRecord
2
*MODEL_SPACE
0
BLOCK_RECORD
5
1B
100
AcDbSymbolTableRecord
100
AcDbBlockTableRecord
2
*PAPER_SPACE
0
ENDTAB
0
ENDSEC
0
SECTION
2
BLOCKS
0
BLOCK
5
20
100
AcDbEntity
100
AcDbBlockBegin
2
*MODEL_SPACE
0
ENDBLK
5
21
100
AcDbEntity
100
AcDbBlockEnd
0
BLOCK
5
1C
100
AcDbEntity
100
AcDbBlockBegin
2
*PAPER_SPACE
0
ENDBLK
5
1D
100
AcDbEntity
100
AcDbBlockEnd
0
ENDSEC
0
SECTION
2
ENTITIES
0
LWPOLYLINE
5
100
100
AcDbEntity
8
0
100
AcDbPolyline
90
56
70
1
43
0.0
10
21.647121513028633
20
35.032809498977457
42
-0.41448734366114626
10
23.415189489689933
20
35.075895848752012
10
28.847276827331907
20
29.897417679998675
42
-0.41421356237309431
10
28.889517168104256
20
28.130155460176312
10
26.589679097652024
20
25.717685839948444
42
-0.004114050984545474
10
26.246108599489723
20
25.363176254853158
10
23.753026782238198
20
22.832714016418993
42
0.19697925135151856
10
18.000000268220901
20
8.7961992606220036
10
18.000000268220901
20
8
10
18.000000268220901
20
2.9999999254941945
10
18.000000268220901
20
-3.0000000745058064
10
18.000000268220901
20
-8.0000001490116119
10
18.000000268220901
20
-8.7961994096336511
42
0.19697925135151756
10
23.753026782238162
20
-22.83271416543057
10
26.246108599489908
20
-25.363176403864966
42
-0.0041140509845438086
10
26.589679097652059
20
-25.717685988960106
10
28.889517168104266
20
-28.130155609187931
42
-0.41421356237309209
10
28.847276827331907
20
-29.897417829010287
10
23.415189489689944
20
-35.07589599776361
42
-0.41448734366115592
10
21.647121513028615
20
-35.032809647989048
10
21.373255659983634
20
-34.744993419579053
42
0.73939700362911265
10
18.807131561710264
20
-36.026399841933745
10
19.43694595815677
20
-39.792569751376675
42
-0.77781051264266321
10
12.377500783182924
20
-43.00000037252903
42
0.40395875860349717
10
-12.377500783182924
20
-43.00000037252903
42
-0.77781051264266299
10
-19.436945958156766
20
-39.792569751376675
10
-18.807131561710261
20
-36.026399841933745
42
0.7393970036291091
10
-21.373255659983627
20
-34.744993419579046
10
-21.64712151302863
20
-35.032809647989069
42
-0.4144873436611477
10
-23.415189489689936
20
-35.075895997763624
10
-28.847276827331907
20
-29.897417829010283
42
-0.41421356237309503
10
-28.889517168104252
20
-28.130155609187923
10
-26.589679097651885
20
-25.717685988959921
42
-0.0041140509845438086
10
-26.24610859948973
20
-25.363176403864784
10
-23.75302678223818
20
-22.832714165430595
42
0.19697925135151786
10
-18.000000268220901
20
-8.7961994096336493
10
-18.000000268220901
20
-8.0000001490116119
10
-18.000000268220905
20
-3.0000000745058064
10
-18.000000268220905
20
2.9999999254941945
10
-18.000000268220901
20
8
10
-18.000000268220901
20
8.7961992606220036
42
0.19697925135151831
10
-23.753026782238184
20
22.832714016418983
10
-26.246108599489766
20
25.363176254853226
42
-0.004114050984545474
10
-26.589679097652063
20
25.717685839948512
10
-28.889517168104256
20
28.130155460176308
42
-0.41421356237309503
10
-28.84727682733191
20
29.897417679998675
10
-23.415189489689944
20
35.075895848752012
42
-0.4144873436611477
10
-21.64712151302863
20
35.032809498977457
10
-21.373255659983627
20
34.744993270567434
42
0.7393970036291091
10
-18.807131561710261
20
36.026399692922134
10
-19.436945958156763
20
39.792569602365063
42
-0.77781051264266299
10
-12.377500783182931
20
43.000000223517418
42
0.40395874656458763
10
12.377500783182928
20
43.000000223517418
42
-0.77781051264266299
10
19.436945958156763
20
39.792569602365063
10
18.807131561710261
20
36.026399692922134
42
0.73939700362910898
10
21.373255659983627
20
34.744993270567434
0
LWPOLYLINE
5
101
100
AcDbEntity
8
0
100
AcDbPolyline
90
4
70
1
43
0.0
10
-15.000000223517418
20
15.000000223517418
10
-15.000000223517418
20
-15.000000223517418
10
15.000000223517418
20
-15.000000223517418
10
15.000000223517418
20
15.000000223517418
0
LINE
5
102
100
AcDbEntity
8
0
100
AcDbLine
10
-4.4408920985006262e-15
20
25.000000327825546
30
0
11
-4.4408920985006262e-15
21
-25.000000476837158
31
0
0
CIRCLE
5
103
100
AcDbEntity
8
0
100
AcDbCircle
10
22.927026087453292
20
29.167277557026274
30
0
40
2.3000000000000007
210
0
220
0
230
1
0
LWPOLYLINE
5
104
100
AcDbEntity
8
0
100
AcDbPolyline
90
4
70
1
43
0.0
10
10.000000149011612
20
10.000000149011612
10
-10.000000149011612
20
10.000000149011612
10
-10.000000149011612
20
-10.000000149011612
10
10.000000149011612
20
-10.000000149011612
0
CIRCLE
5
105
100
AcDbEntity
8
0
100
AcDbCircle
10
10.000000149011612
20
10.000000149011612
30
0
40
1.5499999999999998
210
0
220
0
230
1
0
CIRCLE
5
106
100
AcDbEntity
8
0
100
AcDbCircle
10
15.500000230967999
20
40.500000700354576
30
0
40
1.5500000000000025
210
0
220
0
230
1
0
LINE
5
107
100
AcDbEntity
8
0
100
AcDbLine
10
-8.5000001043081319
20
25.000000327825546
30
0
11
8.500000104308123
21
25.000000327825546
31
0
0
LINE
5
108
100
AcDbEntity
8
0
100
AcDbLine
10
22.622933404120023
20
32.188320870292998
30
0
11
22.638631901964558
21
32.198425475994739
31
0
0
LINE
5
109
100
AcDbEntity
8
0
100
AcDbLine
10
-22.927026087453292
20
-29.167277706037886
30
0
11
-8.5000001043081319
21
-25.000000476837158
31
0
0
LINE
5
110
100
AcDbEntity
8
0
100
AcDbLine
10
-8.5000001043081319
20
25.000000327825546
30
0
11
-22.927026087453299
21
29.167277706037879
31
0
0
CIRCLE
5
111
100
AcDbEntity
8
0
100
AcDbCircle
10
-15.500000230967999
20
-40.500000700354576
30
0
40
1.5500000000000025
210
0
220
0
230
1
0
ARC
5
112
100
AcDbEntity
8
0
100
AcDbCircle
10
-6.3936020451289286
20
57.419428726272137
30
0
40
29.999999999999737
210
0
220
0
230
1
100
AcDbArc
50
237.21412333682994
51
237.24977923397424
0
CIRCLE
5
113
100
AcDbEntity
8
0
100
AcDbCircle
10
-8.5000001043081319
20
-25.000000476837158
30
0
40
2.3000000000000016
210
0
220
0
230
1
0
CIRCLE
5
114
100
AcDbEntity
8
0
100
AcDbCircle
10
15.000000223517418
20
-15.000000223517418
30
0
40
1.5500000000000003
210
0
220
0
230
1
0
CIRCLE
5
115
100
AcDbEntity
8
0
100
AcDbCircle
10
8.500000104308123
20
-25.000000476837158
30
0
40
2.3000000000000016
210
0
220
0
230
1
0
CIRCLE
5
116
100
AcDbEntity
8
0
100
AcDbCircle
10
-8.5000001043081319
20
25.000000327825546
30
0
40
2.3000000000000012
210
0
220
0
230
1
0
CIRCLE
5
117
100
AcDbEntity
8
0
100
AcDbCircle
10
22.927026087453292
20
-29.167277706037886
30
0
40
2.3000000000000016
210
0
220
0
230
1
0
CIRCLE
5
118
100
AcDbEntity
8
0
100
AcDbCircle
10
-22.927026087453299
20
29.167277706037879
30
0
40
2.2999999999999985
210
0
220
0
230
1
0
CIRCLE
5
119
100
AcDbEntity
8
0
100
AcDbCircle
10
-15.500000230967999
20
40.500000700354576
30
0
40
1.5500000000000025
210
0
220
0
230
1
0
CIRCLE
5
120
100
AcDbEntity
8
0
100
AcDbCircle
10
-22.927026087453292
20
-29.167277706037886
30
0
40
2.3000000000000007
210
0
220
0
230
1
0
LINE
5
121
100
AcDbEntity
8
0
100
AcDbLine
10
8.500000104308123
20
25.000000327825546
30
0
11
22.927026087453292
21
29.167277557026274
31
0
0
CIRCLE
5
122
100
AcDbEntity
8
0
100
AcDbCircle
10
-10.000000149011612
20
10.000000149011612
30
0
40
1.5500000000000003
210
0
220
0
230
1
0
CIRCLE
5
123
100
AcDbEntity
8
0
100
AcDbCircle
10
-15.000000223517418
20
-15.000000223517418
30
0
40
1.5500000000000003
210
0
220
0
230
1
0
CIRCLE
5
124
100
AcDbEntity
8
0
100
AcDbCircle
10
10.000000149011612
20
-10.000000149011612
30
0
40
1.5500000000000014
210
0
220
0
230
1
0
CIRCLE
5
125
100
AcDbEntity
8
0
100
AcDbCircle
10
-15.000000223517418
20
15.000000223517418
30
0
40
1.5500000000000014
210
0
220
0
230
1
0
CIRCLE
5
126
100
AcDbEntity
8
0
100
AcDbCircle
10
15.500000230967999
20
-40.500000700354576
30
0
40
1.5500000000000025
210
0
220
0
230
1
0
LINE
5
127
100
AcDbEntity
8
0
100
AcDbLine
10
8.500000104308123
20
-25.000000476837158
30
0
11
22.927026087453292
21
-29.167277706037886
31
0
0
LINE
5
128
100
AcDbEntity
8
0
100
AcDbLine
10
-8.5000001043081319
20
-25.000000476837158
30
0
11
8.500000104308123
21
-25.000000476837158
31
0
0
CIRCLE
5
129
100
AcDbEntity
8
0
100
AcDbCircle
10
-10.000000149011612
20
-10.000000149011612
30
0
40
1.5499999999999998
210
0
220
0
230
1
0
LINE
5
130
100
AcDbEntity
8
0
100
AcDbLine
10
-1.9021205785802108e-16
20
50
30
0
11
-2.1253400203213022e-15
21
-51.735293979507269
31
0
0
CIRCLE
5
131
100
AcDbEntity
8
0
100
AcDbCircle
10
8.500000104308123
20
25.000000327825546
30
0
40
2.2999999999999998
210
0
220
0
230
1
0
CIRCLE
5
132
100
AcDbEntity
8
0
100
AcDbCircle
10
15.000000223517418
20
15.000000223517418
30
0
40
1.550000000000002
210
0
220
0
230
1
0
ENDSEC
0
SECTION
2
OBJECTS
0
DICTIONARY
5
C
100
AcDbDictionary
3
ACAD_GROUP
350
D
3
ACAD_MLINESTYLE
350
17
0
DICTIONARY
5
D
100
AcDbDictionary
0
DICTIONARY
5
1A
330
C
100
AcDbDictionary
0
DICTIONARY
5
17
100
AcDbDictionary
0
ENDSEC
0
EOF
