0
SECTION
2
HEADER
9
$INSUNITS
70
4
9
$ACADVER
1
AC1014
9
$HANDSEED
5
FFFF
0
ENDSEC
0
SECTION
2
TABLES
0
TABLE
2
VPORT
5
8
100
AcDbSymbolTable
0
ENDTAB
0
TABLE
2
LTYPE
5
5
100
AcDbSymbolTable
0
LTYPE
5
14
100
AcDbSymbolTableRecord
100
AcDbLinetypeTableRecord
2
BYBLOCK
70
0
0
LTYPE
5
15
100
AcDbSymbolTableRecord
100
AcDbLinetypeTableRecord
2
BYLAYER
70
0
0
ENDTAB
0
TABLE
2
LAYER
5
2
100
AcDbSymbolTable
70
2
0
LAYER
5
50
100
AcDbSymbolTableRecord
100
AcDbLayerTableRecord
2
0
70
0
6
CONTINUOUS
0
ENDTAB
0
TABLE
2
STYLE
5
3
100
AcDbSymbolTable
70
1
0
STYLE
5
11
100
AcDbSymbolTableRecord
100
AcDbTextStyleTableRecord
2
STANDARD
70
0
0
ENDTAB
0
TABLE
2
VIEW
5
6
100
AcDbSymbolTable
70
0
0
ENDTAB
0
TABLE
2
UCS
5
7
100
AcDbSymbolTable
70
0
0
ENDTAB
0
TABLE
2
APPID
5
9
100
AcDbSymbolTable
70
2
0
APPID
5
12
100
AcDbSymbolTableRecord
100
AcDbRegAppTableRecord
2
ACAD
70
0
0
ENDTAB
0
TABLE
2
DIMSTYLE
5
A
100
AcDbSymbolTable
70
1
0
ENDTAB
0
TABLE
2
BLOCK_RECORD
5
1
100
AcDbSymbolTable
70
1
0
BLOCK_RECORD
5
1F
100
AcDbSymbolTableRecord
100
AcDbBlockTableRecord
2
*MODEL_SPACE
0
BLOCK_RECORD
5
1B
100
AcDbSymbolTableRecord
100
AcDbBlockTableRecord
2
*PAPER_SPACE
0
ENDTAB
0
ENDSEC
0
SECTION
2
BLOCKS
0
BLOCK
5
20
100
AcDbEntity
100
AcDbBlockBegin
2
*MODEL_SPACE
0
ENDBLK
5
21
100
AcDbEntity
100
AcDbBlockEnd
0
BLOCK
5
1C
100
AcDbEntity
100
AcDbBlockBegin
2
*PAPER_SPACE
0
ENDBLK
5
1D
100
AcDbEntity
100
AcDbBlockEnd
0
ENDSEC
0
SECTION
2
ENTITIES
0
CIRCLE
5
100
100
AcDbEntity
8
0
100
AcDbCircle
10
-8.5000001043081141
20
-25.000000476837158
30
0
40
1.5500000000000025
210
0
220
0
230
1
0
LINE
5
101
100
AcDbEntity
8
0
100
AcDbLine
10
13.372831253259889
20
-30.571056565024271
30
0
11
21.816997845367752
21
-33.010172097219161
31
0
0
LINE
5
102
100
AcDbEntity
8
0
100
AcDbLine
10
-21.816997845367752
20
-33.010172097219161
30
0
11
-13.372831253259854
21
-30.571056565024254
31
0
0
ARC
5
103
100
AcDbEntity
8
0
100
AcDbCircle
10
14.000000000000057
20
12.016337571228826
30
0
40
10.000000000000069
210
0
220
0
230
1
100
AcDbArc
50
106.1114744790752
51
180
0
LINE
5
104
100
AcDbEntity
8
0
100
AcDbLine
10
3.9999999999999858
20
-12.016337720240521
30
0
11
3.9999999999999858
21
12.01633757122889
31
0
0
ARC
5
105
100
AcDbEntity
8
0
100
AcDbCircle
10
-22.927026087453299
20
29.167277706037879
30
0
40
4.0000000000000018
210
0
220
-0
230
1
100
AcDbArc
50
73.88852497471089
51
253.88852497471092
0
CIRCLE
5
106
100
AcDbEntity
8
0
100
AcDbCircle
10
8.5000001043081141
20
25.000000327825546
30
0
40
1.5500000000000025
210
0
220
0
230
1
0
ARC
5
107
100
AcDbEntity
8
0
100
AcDbCircle
10
-2.2725488324062226
20
-69.000000476828532
30
0
40
39.999999999991395
210
0
220
-0
230
1
100
AcDbArc
50
89.999999999997613
51
106.11147447907612
0
ARC
5
108
100
AcDbEntity
8
0
100
AcDbCircle
10
2.272548832404091
20
-69.000000476843667
30
0
40
40.000000000006523
210
0
220
-0
230
1
100
AcDbArc
50
73.888525520926905
51
89.999999999999389
0
ARC
5
109
100
AcDbEntity
8
0
100
AcDbCircle
10
-14.000000000000057
20
-12.016337720240436
30
0
40
10.000000000000071
210
0
220
0
230
1
100
AcDbArc
50
286.11147447907524
51
360
0
ARC
5
110
100
AcDbEntity
8
0
100
AcDbCircle
10
22.927026087453299
20
29.167277557026274
30
0
40
3.9999999999999947
210
0
220
0
230
1
100
AcDbArc
50
-73.888525520925171
51
106.11147447907531
0
ARC
5
111
100
AcDbEntity
8
0
100
AcDbCircle
10
-13.99999999999995
20
12.016337587908662
30
0
40
9.9999999999999289
210
-0
220
0
230
1
100
AcDbArc
50
0
51
73.888524974711302
0
CIRCLE
5
112
100
AcDbEntity
8
0
100
AcDbCircle
10
-22.927026087453299
20
29.167277706037879
30
0
40
1.549999999999998
210
-0
220
0
230
1
0
ARC
5
113
100
AcDbEntity
8
0
100
AcDbCircle
10
13.999999999999844
20
-12.016337720240585
30
0
40
9.9999999999998579
210
0
220
0
230
1
100
AcDbArc
50
180
51
253.88852552092547
0
ARC
5
114
100
AcDbEntity
8
0
100
AcDbCircle
10
-2.2725486184726762
20
69.000000327825632
30
0
40
40.000000000000085
210
0
220
0
230
1
100
AcDbArc
50
253.88852497471086
51
269.99999999999994
0
LINE
5
115
100
AcDbEntity
8
0
100
AcDbLine
10
21.816997845367752
20
33.01017194820755
30
0
11
13.372831253259854
21
30.571056416012645
31
0
0
LINE
5
116
100
AcDbEntity
8
0
100
AcDbLine
10
-2.2725488324045529
20
-29.000000476837137
30
0
11
2.2725488324045173
21
-29.000000476837151
31
0
0
CIRCLE
5
117
100
AcDbEntity
8
0
100
AcDbCircle
10
-22.927026087453299
20
-29.167277706037886
30
0
40
1.549999999999998
210
0
220
0
230
1
0
CIRCLE
5
118
100
AcDbEntity
8
0
100
AcDbCircle
10
22.927026087453299
20
-29.167277706037886
30
0
40
1.549999999999998
210
0
220
0
230
1
0
LINE
5
119
100
AcDbEntity
8
0
100
AcDbLine
10
2.2725488324045173
20
29.000000327825539
30
0
11
-2.2725486184727117
21
29.000000327825539
31
0
0
LINE
5
120
100
AcDbEntity
8
0
100
AcDbLine
10
-13.372831405680117
20
30.571056521834379
30
0
11
-21.816997808732559
21
33.010172086636999
31
0
0
ARC
5
121
100
AcDbEntity
8
0
100
AcDbCircle
10
22.927026087453299
20
-29.167277706037886
30
0
40
4.0000000000000044
210
0
220
0
230
1
100
AcDbArc
50
-106.11147447907533
51
73.888525520925199
0
LINE
5
122
100
AcDbEntity
8
0
100
AcDbLine
10
11.224929394786187
20
21.623573549182073
30
0
11
24.037054329538812
21
25.324383165844999
31
0
0
LINE
5
123
100
AcDbEntity
8
0
100
AcDbLine
10
-11.224929394786187
20
-21.623573698193685
30
0
11
-24.037054329538812
21
-25.324383314856611
31
0
0
ARC
5
124
100
AcDbEntity
8
0
100
AcDbCircle
10
-22.927026087453299
20
-29.167277706037886
30
0
40
3.9999999999999947
210
0
220
0
230
1
100
AcDbArc
50
106.11147447907483
51
286.1114744790753
0
CIRCLE
5
125
100
AcDbEntity
8
0
100
AcDbCircle
10
22.927026087453299
20
29.167277557026274
30
0
40
1.549999999999998
210
0
220
0
230
1
0
ARC
5
126
100
AcDbEntity
8
0
100
AcDbCircle
10
2.2725488324059384
20
69.000000327819109
30
0
40
39.99999999999357
210
0
220
0
230
1
100
AcDbArc
50
269.99999999999795
51
286.11147447907564
0
LINE
5
127
100
AcDbEntity
8
0
100
AcDbLine
10
24.037054329538812
20
-25.324383314856611
30
0
11
11.224929394786152
21
-21.623573698193667
31
0
0
CIRCLE
5
128
100
AcDbEntity
8
0
100
AcDbCircle
10
8.5000001043081141
20
-25.000000476837158
30
0
40
1.5500000000000025
210
0
220
0
230
1
0
LINE
5
129
100
AcDbEntity
8
0
100
AcDbLine
10
-24.03705436617404
20
25.32438332543876
30
0
11
-11.224929303198188
21
21.623573539406419
31
0
0
LINE
5
130
100
AcDbEntity
8
0
100
AcDbLine
10
-4.0000000000000213
20
12.016337587908627
30
0
11
-3.9999999999999858
21
-12.016337720240504
31
0
0
CIRCLE
5
131
100
AcDbEntity
8
0
100
AcDbCircle
10
-8.5000001043081141
20
25.000000327825546
30
0
40
1.5500000000000025
210
0
220
0
230
1
0
ENDSEC
0
SECTION
2
OBJECTS
0
DICTIONARY
5
C
100
AcDbDictionary
3
ACAD_GROUP
350
D
3
ACAD_MLINESTYLE
350
17
0
DICTIONARY
5
D
100
AcDbDictionary
0
DICTIONARY
5
1A
330
C
100
AcDbDictionary
0
DICTIONARY
5
17
100
AcDbDictionary
0
ENDSEC
0
EOF
