0
SECTION
2
HEADER
9
$INSUNITS
70
4
9
$ACADVER
1
AC1014
9
$HANDSEED
5
FFFF
0
ENDSEC
0
SECTION
2
TABLES
0
TABLE
2
VPORT
5
8
100
AcDbSymbolTable
0
ENDTAB
0
TABLE
2
LTYPE
5
5
100
AcDbSymbolTable
0
LTYPE
5
14
100
AcDbSymbolTableRecord
100
AcDbLinetypeTableRecord
2
BYBLOCK
70
0
0
LTYPE
5
15
100
AcDbSymbolTableRecord
100
AcDbLinetypeTableRecord
2
BYLAYER
70
0
0
ENDTAB
0
TABLE
2
LAYER
5
2
100
AcDbSymbolTable
70
2
0
LAYER
5
50
100
AcDbSymbolTableRecord
100
AcDbLayerTableRecord
2
0
70
0
6
CONTINUOUS
0
ENDTAB
0
TABLE
2
STYLE
5
3
100
AcDbSymbolTable
70
1
0
STYLE
5
11
100
AcDbSymbolTableRecord
100
AcDbTextStyleTableRecord
2
STANDARD
70
0
0
ENDTAB
0
TABLE
2
VIEW
5
6
100
AcDbSymbolTable
70
0
0
ENDTAB
0
TABLE
2
UCS
5
7
100
AcDbSymbolTable
70
0
0
ENDTAB
0
TABLE
2
APPID
5
9
100
AcDbSymbolTable
70
2
0
APPID
5
12
100
AcDbSymbolTableRecord
100
AcDbRegAppTableRecord
2
ACAD
70
0
0
ENDTAB
0
TABLE
2
DIMSTYLE
5
A
100
AcDbSymbolTable
70
1
0
ENDTAB
0
TABLE
2
BLOCK_RECORD
5
1
100
AcDbSymbolTable
70
1
0
BLOCK_RECORD
5
1F
100
AcDbSymbolTableRecord
100
AcDbBlockTableRecord
2
*MODEL_SPACE
0
BLOCK_RECORD
5
1B
100
AcDbSymbolTableRecord
100
AcDbBlockTableRecord
2
*PAPER_SPACE
0
ENDTAB
0
ENDSEC
0
SECTION
2
BLOCKS
0
BLOCK
5
20
100
AcDbEntity
100
AcDbBlockBegin
2
*MODEL_SPACE
0
ENDBLK
5
21
100
AcDbEntity
100
AcDbBlockEnd
0
BLOCK
5
1C
100
AcDbEntity
100
AcDbBlockBegin
2
*PAPER_SPACE
0
ENDBLK
5
1D
100
AcDbEntity
100
AcDbBlockEnd
0
ENDSEC
0
SECTION
2
ENTITIES
0
LWPOLYLINE
5
100
100
AcDbEntity
8
0
100
AcDbPolyline
90
27
70
1
43
0.0
10
-18.000000268220901
20
2.9999999254941945
10
-18.000000268220901
20
8
10
-18.000000268220901
20
8.7961992606220019
10
-18.000000268220901
20
31.199908574808109
10
-18.807131561710264
20
36.026399692922134
10
-19.43694595815677
20
39.792569602365063
42
-0.77781051264266321
10
-12.377500783182926
20
43.000000223517418
42
0.40395874656458752
10
12.37750078318291
20
43.000000223517425
42
-0.77781051264266265
10
19.436945958156784
20
39.792569602365063
10
18.807131561710264
20
36.026399692922134
10
18.000000268220901
20
31.199908574807893
10
18.000000268220901
20
8.7961992606220036
10
18.000000268220901
20
8
10
18.000000268220901
20
2.9999999254941945
10
18.000000268220901
20
-3.0000000745058064
10
18.000000268220901
20
-8.0000001490116119
10
18.000000268220901
20
-8.7961994096336493
10
18.000002428889275
20
-32.000000476837158
10
18.807131561710264
20
-36.026399841933745
10
19.436945958156763
20
-39.792569751376682
42
-0.46730026687933002
10
15.500000230967999
20
-44.500000901520245
10
-15.500000230967999
20
-44.500000901520245
42
-0.46730026687933024
10
-19.436945958156766
20
-39.792569751376675
10
-18.807131561710264
20
-36.026399841933745
10
-18.000000268220901
20
-31.199908723819718
10
-18.000000268220901
20
-8.0000001490116119
10
-18.000000268220901
20
-3.0000000745058064
0
CIRCLE
5
101
100
AcDbEntity
8
0
100
AcDbCircle
10
-15.500000230967999
20
-40.500000700354576
30
0
40
1.5500000000000025
210
0
220
0
230
1
0
LINE
5
102
100
AcDbEntity
8
0
100
AcDbLine
10
0
20
50
30
0
11
0
21
-51.735293979507269
31
0
0
LWPOLYLINE
5
103
100
AcDbEntity
8
0
100
AcDbPolyline
90
4
70
1
43
0.0
10
-9.9999979883432388
20
12.999999999999991
42
-0.99999999999999989
10
-9.9999979883432388
20
15.999999999999989
10
10.000002309679985
20
15.999999999999988
42
-0.99999999999999989
10
10.000002309679985
20
12.999999999999989
0
CIRCLE
5
104
100
AcDbEntity
8
0
100
AcDbCircle
10
-15.500000230967999
20
40.500000700354576
30
0
40
1.5500000000000025
210
0
220
0
230
1
0
LWPOLYLINE
5
105
100
AcDbEntity
8
0
100
AcDbPolyline
90
4
70
1
43
0.0
10
-9.9999979883432388
20
1.9999999999999896
10
10.000002309679985
20
1.9999999999999885
42
-0.99999999999999989
10
10.000002309679985
20
-1.000000000000012
10
-9.9999979883432388
20
-1.0000000000000075
42
-0.99999999999999989
0
LWPOLYLINE
5
106
100
AcDbEntity
8
0
100
AcDbPolyline
90
4
70
1
43
0.0
10
10.000002309679985
20
-37.000000447034836
10
-9.9999979883432388
20
-37.000000447034836
42
-0.99999999999999989
10
-9.9999979883432388
20
-34.000000447034836
10
10.000002309679985
20
-34.000000447034836
42
-0.99999999999999989
0
LWPOLYLINE
5
107
100
AcDbEntity
8
0
100
AcDbPolyline
90
4
70
1
43
0.0
10
-9.9999979883432388
20
5.999999999999992
42
-0.99999999999999989
10
-9.9999979883432388
20
8.9999999999999893
10
10.000002309679985
20
8.9999999999999893
42
-0.99999999999999989
10
10.000002309679985
20
5.9999999999999885
0
LINE
5
108
100
AcDbEntity
8
0
100
AcDbLine
10
-9.9999979883432388
20
0.49999999999999101
30
0
11
10.000002309679985
21
0.49999999999998823
31
0
0
CIRCLE
5
109
100
AcDbEntity
8
0
100
AcDbCircle
10
15.500000230967999
20
-40.500000700354576
30
0
40
1.5500000000000025
210
0
220
0
230
1
0
CIRCLE
5
110
100
AcDbEntity
8
0
100
AcDbCircle
10
15.500000230967999
20
40.500000700354576
30
0
40
1.5500000000000025
210
0
220
0
230
1
0
LINE
5
111
100
AcDbEntity
8
0
100
AcDbLine
10
-9.9999979883432388
20
-35.500000447034836
30
0
11
10.000002309679985
21
-35.500000447034836
31
0
0
ENDSEC
0
SECTION
2
OBJECTS
0
DICTIONARY
5
C
100
AcDbDictionary
3
ACAD_GROUP
350
D
3
ACAD_MLINESTYLE
350
17
0
DICTIONARY
5
D
100
AcDbDictionary
0
DICTIONARY
5
1A
330
C
100
AcDbDictionary
0
DICTIONARY
5
17
100
AcDbDictionary
0
ENDSEC
0
EOF
